<?xml version="1.0" encoding="UTF-8"?> <svg xmlns="http://www.w3.org/2000/svg" width="189" height="317" viewBox="0 0 189 317" fill="none"> <rect width="189" height="317" rx="9" fill="#5AB4E7"></rect> <path d="M30.802 36.21H25.33L24.322 39H22.594L27.13 26.526H29.02L33.538 39H31.81L30.802 36.21ZM30.334 34.878L28.066 28.542L25.798 34.878H30.334ZM37.1529 25.68V39H35.5149V25.68H37.1529ZM44.0126 28.974C44.8646 28.974 45.6086 29.16 46.2446 29.532C46.8926 29.904 47.3726 30.372 47.6846 30.936V29.136H49.3406V39.216C49.3406 40.116 49.1486 40.914 48.7646 41.61C48.3806 42.318 47.8286 42.87 47.1086 43.266C46.4006 43.662 45.5726 43.86 44.6246 43.86C43.3286 43.86 42.2486 43.554 41.3846 42.942C40.5206 42.33 40.0106 41.496 39.8546 40.44H41.4746C41.6546 41.04 42.0266 41.52 42.5906 41.88C43.1546 42.252 43.8326 42.438 44.6246 42.438C45.5246 42.438 46.2566 42.156 46.8206 41.592C47.3966 41.028 47.6846 40.236 47.6846 39.216V37.146C47.3606 37.722 46.8806 38.202 46.2446 38.586C45.6086 38.97 44.8646 39.162 44.0126 39.162C43.1366 39.162 42.3386 38.946 41.6186 38.514C40.9106 38.082 40.3526 37.476 39.9446 36.696C39.5366 35.916 39.3326 35.028 39.3326 34.032C39.3326 33.024 39.5366 32.142 39.9446 31.386C40.3526 30.618 40.9106 30.024 41.6186 29.604C42.3386 29.184 43.1366 28.974 44.0126 28.974ZM47.6846 34.05C47.6846 33.306 47.5346 32.658 47.2346 32.106C46.9346 31.554 46.5266 31.134 46.0106 30.846C45.5066 30.546 44.9486 30.396 44.3366 30.396C43.7246 30.396 43.1666 30.54 42.6626 30.828C42.1586 31.116 41.7566 31.536 41.4566 32.088C41.1566 32.64 41.0066 33.288 41.0066 34.032C41.0066 34.788 41.1566 35.448 41.4566 36.012C41.7566 36.564 42.1586 36.99 42.6626 37.29C43.1666 37.578 43.7246 37.722 44.3366 37.722C44.9486 37.722 45.5066 37.578 46.0106 37.29C46.5266 36.99 46.9346 36.564 47.2346 36.012C47.5346 35.448 47.6846 34.794 47.6846 34.05ZM61.1087 33.69C61.1087 34.002 61.0907 34.332 61.0547 34.68H53.1707C53.2307 35.652 53.5607 36.414 54.1607 36.966C54.7727 37.506 55.5107 37.776 56.3747 37.776C57.0827 37.776 57.6707 37.614 58.1387 37.29C58.6187 36.954 58.9547 36.51 59.1467 35.958H60.9107C60.6467 36.906 60.1187 37.68 59.3267 38.28C58.5347 38.868 57.5507 39.162 56.3747 39.162C55.4387 39.162 54.5987 38.952 53.8547 38.532C53.1227 38.112 52.5467 37.518 52.1267 36.75C51.7067 35.97 51.4967 35.07 51.4967 34.05C51.4967 33.03 51.7007 32.136 52.1087 31.368C52.5167 30.6 53.0867 30.012 53.8187 29.604C54.5627 29.184 55.4147 28.974 56.3747 28.974C57.3107 28.974 58.1387 29.178 58.8587 29.586C59.5787 29.994 60.1307 30.558 60.5147 31.278C60.9107 31.986 61.1087 32.79 61.1087 33.69ZM59.4167 33.348C59.4167 32.724 59.2787 32.19 59.0027 31.746C58.7267 31.29 58.3487 30.948 57.8687 30.72C57.4007 30.48 56.8787 30.36 56.3027 30.36C55.4747 30.36 54.7667 30.624 54.1787 31.152C53.6027 31.68 53.2727 32.412 53.1887 33.348H59.4167ZM64.9088 30.972C65.2448 30.384 65.7368 29.904 66.3848 29.532C67.0328 29.16 67.7708 28.974 68.5988 28.974C69.4868 28.974 70.2848 29.184 70.9928 29.604C71.7008 30.024 72.2588 30.618 72.6668 31.386C73.0748 32.142 73.2788 33.024 73.2788 34.032C73.2788 35.028 73.0748 35.916 72.6668 36.696C72.2588 37.476 71.6948 38.082 70.9748 38.514C70.2668 38.946 69.4748 39.162 68.5988 39.162C67.7468 39.162 66.9968 38.976 66.3488 38.604C65.7128 38.232 65.2328 37.758 64.9088 37.182V39H63.2708V25.68H64.9088V30.972ZM71.6048 34.032C71.6048 33.288 71.4548 32.64 71.1548 32.088C70.8548 31.536 70.4468 31.116 69.9308 30.828C69.4268 30.54 68.8688 30.396 68.2568 30.396C67.6568 30.396 67.0988 30.546 66.5828 30.846C66.0788 31.134 65.6708 31.56 65.3588 32.124C65.0588 32.676 64.9088 33.318 64.9088 34.05C64.9088 34.794 65.0588 35.448 65.3588 36.012C65.6708 36.564 66.0788 36.99 66.5828 37.29C67.0988 37.578 67.6568 37.722 68.2568 37.722C68.8688 37.722 69.4268 37.578 69.9308 37.29C70.4468 36.99 70.8548 36.564 71.1548 36.012C71.4548 35.448 71.6048 34.788 71.6048 34.032ZM77.0728 30.738C77.3608 30.174 77.7688 29.736 78.2968 29.424C78.8368 29.112 79.4908 28.956 80.2588 28.956V30.648H79.8268C77.9908 30.648 77.0728 31.644 77.0728 33.636V39H75.4348V29.136H77.0728V30.738ZM81.5377 34.032C81.5377 33.024 81.7417 32.142 82.1497 31.386C82.5577 30.618 83.1157 30.024 83.8237 29.604C84.5437 29.184 85.3417 28.974 86.2177 28.974C87.0817 28.974 87.8317 29.16 88.4677 29.532C89.1037 29.904 89.5777 30.372 89.8897 30.936V29.136H91.5457V39H89.8897V37.164C89.5657 37.74 89.0797 38.22 88.4317 38.604C87.7957 38.976 87.0517 39.162 86.1997 39.162C85.3237 39.162 84.5317 38.946 83.8237 38.514C83.1157 38.082 82.5577 37.476 82.1497 36.696C81.7417 35.916 81.5377 35.028 81.5377 34.032ZM89.8897 34.05C89.8897 33.306 89.7397 32.658 89.4397 32.106C89.1397 31.554 88.7317 31.134 88.2157 30.846C87.7117 30.546 87.1537 30.396 86.5417 30.396C85.9297 30.396 85.3717 30.54 84.8677 30.828C84.3637 31.116 83.9617 31.536 83.6617 32.088C83.3617 32.64 83.2117 33.288 83.2117 34.032C83.2117 34.788 83.3617 35.448 83.6617 36.012C83.9617 36.564 84.3637 36.99 84.8677 37.29C85.3717 37.578 85.9297 37.722 86.5417 37.722C87.1537 37.722 87.7117 37.578 88.2157 37.29C88.7317 36.99 89.1397 36.564 89.4397 36.012C89.7397 35.448 89.8897 34.794 89.8897 34.05Z" fill="white"></path> <path d="M32.89 72.09C32.542 71.358 32.038 70.794 31.378 70.398C30.718 69.99 29.95 69.786 29.074 69.786C28.198 69.786 27.406 69.99 26.698 70.398C26.002 70.794 25.45 71.37 25.042 72.126C24.646 72.87 24.448 73.734 24.448 74.718C24.448 75.702 24.646 76.566 25.042 77.31C25.45 78.054 26.002 78.63 26.698 79.038C27.406 79.434 28.198 79.632 29.074 79.632C30.298 79.632 31.306 79.266 32.098 78.534C32.89 77.802 33.352 76.812 33.484 75.564H28.48V74.232H35.23V75.492C35.134 76.524 34.81 77.472 34.258 78.336C33.706 79.188 32.98 79.866 32.08 80.37C31.18 80.862 30.178 81.108 29.074 81.108C27.91 81.108 26.848 80.838 25.888 80.298C24.928 79.746 24.166 78.984 23.602 78.012C23.05 77.04 22.774 75.942 22.774 74.718C22.774 73.494 23.05 72.396 23.602 71.424C24.166 70.44 24.928 69.678 25.888 69.138C26.848 68.586 27.91 68.31 29.074 68.31C30.406 68.31 31.582 68.64 32.602 69.3C33.634 69.96 34.384 70.89 34.852 72.09H32.89ZM46.3958 75.69C46.3958 76.002 46.3778 76.332 46.3418 76.68H38.4578C38.5178 77.652 38.8478 78.414 39.4478 78.966C40.0598 79.506 40.7978 79.776 41.6618 79.776C42.3698 79.776 42.9578 79.614 43.4258 79.29C43.9058 78.954 44.2418 78.51 44.4338 77.958H46.1978C45.9338 78.906 45.4058 79.68 44.6138 80.28C43.8218 80.868 42.8378 81.162 41.6618 81.162C40.7258 81.162 39.8858 80.952 39.1418 80.532C38.4098 80.112 37.8338 79.518 37.4138 78.75C36.9938 77.97 36.7838 77.07 36.7838 76.05C36.7838 75.03 36.9878 74.136 37.3958 73.368C37.8038 72.6 38.3738 72.012 39.1058 71.604C39.8498 71.184 40.7018 70.974 41.6618 70.974C42.5978 70.974 43.4258 71.178 44.1458 71.586C44.8658 71.994 45.4178 72.558 45.8018 73.278C46.1978 73.986 46.3958 74.79 46.3958 75.69ZM44.7038 75.348C44.7038 74.724 44.5658 74.19 44.2898 73.746C44.0138 73.29 43.6358 72.948 43.1558 72.72C42.6878 72.48 42.1658 72.36 41.5898 72.36C40.7618 72.36 40.0538 72.624 39.4658 73.152C38.8898 73.68 38.5598 74.412 38.4758 75.348H44.7038ZM52.8599 81.162C51.9359 81.162 51.0959 80.952 50.3399 80.532C49.5959 80.112 49.0079 79.518 48.5759 78.75C48.1559 77.97 47.9459 77.07 47.9459 76.05C47.9459 75.042 48.1619 74.154 48.5939 73.386C49.0379 72.606 49.6379 72.012 50.3939 71.604C51.1499 71.184 51.9959 70.974 52.9319 70.974C53.8679 70.974 54.7139 71.184 55.4699 71.604C56.2259 72.012 56.8199 72.6 57.2519 73.368C57.6959 74.136 57.9179 75.03 57.9179 76.05C57.9179 77.07 57.6899 77.97 57.2339 78.75C56.7899 79.518 56.1839 80.112 55.4159 80.532C54.6479 80.952 53.7959 81.162 52.8599 81.162ZM52.8599 79.722C53.4479 79.722 53.9999 79.584 54.5159 79.308C55.0319 79.032 55.4459 78.618 55.7579 78.066C56.0819 77.514 56.2439 76.842 56.2439 76.05C56.2439 75.258 56.0879 74.586 55.7759 74.034C55.4639 73.482 55.0559 73.074 54.5519 72.81C54.0479 72.534 53.5019 72.396 52.9139 72.396C52.3139 72.396 51.7619 72.534 51.2579 72.81C50.7659 73.074 50.3699 73.482 50.0699 74.034C49.7699 74.586 49.6199 75.258 49.6199 76.05C49.6199 76.854 49.7639 77.532 50.0519 78.084C50.3519 78.636 50.7479 79.05 51.2399 79.326C51.7319 79.59 52.2719 79.722 52.8599 79.722ZM64.1395 70.974C64.9915 70.974 65.7355 71.16 66.3715 71.532C67.0195 71.904 67.4995 72.372 67.8115 72.936V71.136H69.4675V81.216C69.4675 82.116 69.2755 82.914 68.8915 83.61C68.5075 84.318 67.9555 84.87 67.2355 85.266C66.5275 85.662 65.6995 85.86 64.7515 85.86C63.4555 85.86 62.3755 85.554 61.5115 84.942C60.6475 84.33 60.1375 83.496 59.9815 82.44H61.6015C61.7815 83.04 62.1535 83.52 62.7175 83.88C63.2815 84.252 63.9595 84.438 64.7515 84.438C65.6515 84.438 66.3835 84.156 66.9475 83.592C67.5235 83.028 67.8115 82.236 67.8115 81.216V79.146C67.4875 79.722 67.0075 80.202 66.3715 80.586C65.7355 80.97 64.9915 81.162 64.1395 81.162C63.2635 81.162 62.4655 80.946 61.7455 80.514C61.0375 80.082 60.4795 79.476 60.0715 78.696C59.6635 77.916 59.4595 77.028 59.4595 76.032C59.4595 75.024 59.6635 74.142 60.0715 73.386C60.4795 72.618 61.0375 72.024 61.7455 71.604C62.4655 71.184 63.2635 70.974 64.1395 70.974ZM67.8115 76.05C67.8115 75.306 67.6615 74.658 67.3615 74.106C67.0615 73.554 66.6535 73.134 66.1375 72.846C65.6335 72.546 65.0755 72.396 64.4635 72.396C63.8515 72.396 63.2935 72.54 62.7895 72.828C62.2855 73.116 61.8835 73.536 61.5835 74.088C61.2835 74.64 61.1335 75.288 61.1335 76.032C61.1335 76.788 61.2835 77.448 61.5835 78.012C61.8835 78.564 62.2855 78.99 62.7895 79.29C63.2935 79.578 63.8515 79.722 64.4635 79.722C65.0755 79.722 65.6335 79.578 66.1375 79.29C66.6535 78.99 67.0615 78.564 67.3615 78.012C67.6615 77.448 67.8115 76.794 67.8115 76.05ZM73.8736 72.738C74.1616 72.174 74.5696 71.736 75.0976 71.424C75.6376 71.112 76.2916 70.956 77.0596 70.956V72.648H76.6276C74.7916 72.648 73.8736 73.644 73.8736 75.636V81H72.2356V71.136H73.8736V72.738ZM78.3385 76.032C78.3385 75.024 78.5425 74.142 78.9505 73.386C79.3585 72.618 79.9165 72.024 80.6245 71.604C81.3445 71.184 82.1425 70.974 83.0185 70.974C83.8825 70.974 84.6325 71.16 85.2685 71.532C85.9045 71.904 86.3785 72.372 86.6905 72.936V71.136H88.3465V81H86.6905V79.164C86.3665 79.74 85.8805 80.22 85.2325 80.604C84.5965 80.976 83.8525 81.162 83.0005 81.162C82.1245 81.162 81.3325 80.946 80.6245 80.514C79.9165 80.082 79.3585 79.476 78.9505 78.696C78.5425 77.916 78.3385 77.028 78.3385 76.032ZM86.6905 76.05C86.6905 75.306 86.5405 74.658 86.2405 74.106C85.9405 73.554 85.5325 73.134 85.0165 72.846C84.5125 72.546 83.9545 72.396 83.3425 72.396C82.7305 72.396 82.1725 72.54 81.6685 72.828C81.1645 73.116 80.7625 73.536 80.4625 74.088C80.1625 74.64 80.0125 75.288 80.0125 76.032C80.0125 76.788 80.1625 77.448 80.4625 78.012C80.7625 78.564 81.1645 78.99 81.6685 79.29C82.1725 79.578 82.7305 79.722 83.3425 79.722C83.9545 79.722 84.5125 79.578 85.0165 79.29C85.5325 78.99 85.9405 78.564 86.2405 78.012C86.5405 77.448 86.6905 76.794 86.6905 76.05ZM92.7525 72.954C93.0765 72.39 93.5565 71.922 94.1925 71.55C94.8405 71.166 95.5905 70.974 96.4425 70.974C97.3185 70.974 98.1105 71.184 98.8185 71.604C99.5385 72.024 100.103 72.618 100.511 73.386C100.919 74.142 101.123 75.024 101.123 76.032C101.123 77.028 100.919 77.916 100.511 78.696C100.103 79.476 99.5385 80.082 98.8185 80.514C98.1105 80.946 97.3185 81.162 96.4425 81.162C95.6025 81.162 94.8585 80.976 94.2105 80.604C93.5745 80.22 93.0885 79.746 92.7525 79.182V85.68H91.1145V71.136H92.7525V72.954ZM99.4485 76.032C99.4485 75.288 99.2985 74.64 98.9985 74.088C98.6985 73.536 98.2905 73.116 97.7745 72.828C97.2705 72.54 96.7125 72.396 96.1005 72.396C95.5005 72.396 94.9425 72.546 94.4265 72.846C93.9225 73.134 93.5145 73.56 93.2025 74.124C92.9025 74.676 92.7525 75.318 92.7525 76.05C92.7525 76.794 92.9025 77.448 93.2025 78.012C93.5145 78.564 93.9225 78.99 94.4265 79.29C94.9425 79.578 95.5005 79.722 96.1005 79.722C96.7125 79.722 97.2705 79.578 97.7745 79.29C98.2905 78.99 98.6985 78.564 98.9985 78.012C99.2985 77.448 99.4485 76.788 99.4485 76.032ZM108.175 70.956C108.919 70.956 109.591 71.118 110.191 71.442C110.791 71.754 111.259 72.228 111.595 72.864C111.943 73.5 112.117 74.274 112.117 75.186V81H110.497V75.42C110.497 74.436 110.251 73.686 109.759 73.17C109.267 72.642 108.595 72.378 107.743 72.378C106.879 72.378 106.189 72.648 105.673 73.188C105.169 73.728 104.917 74.514 104.917 75.546V81H103.279V67.68H104.917V72.54C105.241 72.036 105.685 71.646 106.249 71.37C106.825 71.094 107.467 70.956 108.175 70.956ZM123.288 71.136L117.348 85.644H115.656L117.6 80.892L113.622 71.136H115.44L118.536 79.128L121.596 71.136H123.288Z" fill="white"></path> <path d="M33.052 110.454V123H31.414V117.312H25.024V123H23.386V110.454H25.024V115.962H31.414V110.454H33.052ZM36.6949 111.534C36.3829 111.534 36.1189 111.426 35.9029 111.21C35.6869 110.994 35.5789 110.73 35.5789 110.418C35.5789 110.106 35.6869 109.842 35.9029 109.626C36.1189 109.41 36.3829 109.302 36.6949 109.302C36.9949 109.302 37.2469 109.41 37.4509 109.626C37.6669 109.842 37.7749 110.106 37.7749 110.418C37.7749 110.73 37.6669 110.994 37.4509 111.21C37.2469 111.426 36.9949 111.534 36.6949 111.534ZM37.4869 113.136V123H35.8489V113.136H37.4869ZM43.7706 123.162C43.0146 123.162 42.3366 123.036 41.7366 122.784C41.1366 122.52 40.6626 122.16 40.3146 121.704C39.9666 121.236 39.7746 120.702 39.7386 120.102H41.4306C41.4786 120.594 41.7066 120.996 42.1146 121.308C42.5346 121.62 43.0806 121.776 43.7526 121.776C44.3766 121.776 44.8686 121.638 45.2286 121.362C45.5886 121.086 45.7686 120.738 45.7686 120.318C45.7686 119.886 45.5766 119.568 45.1926 119.364C44.8086 119.148 44.2146 118.938 43.4106 118.734C42.6786 118.542 42.0786 118.35 41.6106 118.158C41.1546 117.954 40.7586 117.66 40.4226 117.276C40.0986 116.88 39.9366 116.364 39.9366 115.728C39.9366 115.224 40.0866 114.762 40.3866 114.342C40.6866 113.922 41.1126 113.592 41.6646 113.352C42.2166 113.1 42.8466 112.974 43.5546 112.974C44.6466 112.974 45.5286 113.25 46.2006 113.802C46.8726 114.354 47.2326 115.11 47.2806 116.07H45.6426C45.6066 115.554 45.3966 115.14 45.0126 114.828C44.6406 114.516 44.1366 114.36 43.5006 114.36C42.9126 114.36 42.4446 114.486 42.0966 114.738C41.7486 114.99 41.5746 115.32 41.5746 115.728C41.5746 116.052 41.6766 116.322 41.8806 116.538C42.0966 116.742 42.3606 116.91 42.6726 117.042C42.9966 117.162 43.4406 117.3 44.0046 117.456C44.7126 117.648 45.2886 117.84 45.7326 118.032C46.1766 118.212 46.5546 118.488 46.8666 118.86C47.1906 119.232 47.3586 119.718 47.3706 120.318C47.3706 120.858 47.2206 121.344 46.9206 121.776C46.6206 122.208 46.1946 122.55 45.6426 122.802C45.1026 123.042 44.4786 123.162 43.7706 123.162ZM51.6809 114.486V120.3C51.6809 120.78 51.7829 121.122 51.9869 121.326C52.1909 121.518 52.5449 121.614 53.0489 121.614H54.2549V123H52.7789C51.8669 123 51.1829 122.79 50.7269 122.37C50.2709 121.95 50.0429 121.26 50.0429 120.3V114.486H48.7649V113.136H50.0429V110.652H51.6809V113.136H54.2549V114.486H51.6809ZM60.5415 123.162C59.6175 123.162 58.7775 122.952 58.0215 122.532C57.2775 122.112 56.6895 121.518 56.2575 120.75C55.8375 119.97 55.6275 119.07 55.6275 118.05C55.6275 117.042 55.8435 116.154 56.2755 115.386C56.7195 114.606 57.3195 114.012 58.0755 113.604C58.8315 113.184 59.6775 112.974 60.6135 112.974C61.5495 112.974 62.3955 113.184 63.1515 113.604C63.9075 114.012 64.5015 114.6 64.9335 115.368C65.3775 116.136 65.5995 117.03 65.5995 118.05C65.5995 119.07 65.3715 119.97 64.9155 120.75C64.4715 121.518 63.8655 122.112 63.0975 122.532C62.3295 122.952 61.4775 123.162 60.5415 123.162ZM60.5415 121.722C61.1295 121.722 61.6815 121.584 62.1975 121.308C62.7135 121.032 63.1275 120.618 63.4395 120.066C63.7635 119.514 63.9255 118.842 63.9255 118.05C63.9255 117.258 63.7695 116.586 63.4575 116.034C63.1455 115.482 62.7375 115.074 62.2335 114.81C61.7295 114.534 61.1835 114.396 60.5955 114.396C59.9955 114.396 59.4435 114.534 58.9395 114.81C58.4475 115.074 58.0515 115.482 57.7515 116.034C57.4515 116.586 57.3015 117.258 57.3015 118.05C57.3015 118.854 57.4455 119.532 57.7335 120.084C58.0335 120.636 58.4295 121.05 58.9215 121.326C59.4135 121.59 59.9535 121.722 60.5415 121.722ZM69.3912 114.738C69.6792 114.174 70.0872 113.736 70.6152 113.424C71.1552 113.112 71.8092 112.956 72.5772 112.956V114.648H72.1452C70.3092 114.648 69.3912 115.644 69.3912 117.636V123H67.7532V113.136H69.3912V114.738ZM82.964 113.136L77.024 127.644H75.332L77.276 122.892L73.298 113.136H75.116L78.212 121.128L81.272 113.136H82.964Z" fill="white"></path> <path d="M25.024 153.786V157.98H29.596V159.33H25.024V163.65H30.136V165H23.386V152.436H30.136V153.786H25.024ZM37.4205 154.956C38.6205 154.956 39.5925 155.322 40.3365 156.054C41.0805 156.774 41.4525 157.818 41.4525 159.186V165H39.8325V159.42C39.8325 158.436 39.5865 157.686 39.0945 157.17C38.6025 156.642 37.9305 156.378 37.0785 156.378C36.2145 156.378 35.5245 156.648 35.0085 157.188C34.5045 157.728 34.2525 158.514 34.2525 159.546V165H32.6145V155.136H34.2525V156.54C34.5765 156.036 35.0145 155.646 35.5665 155.37C36.1305 155.094 36.7485 154.956 37.4205 154.956ZM48.1962 154.974C49.0482 154.974 49.7922 155.16 50.4282 155.532C51.0762 155.904 51.5562 156.372 51.8682 156.936V155.136H53.5242V165.216C53.5242 166.116 53.3322 166.914 52.9482 167.61C52.5642 168.318 52.0122 168.87 51.2922 169.266C50.5842 169.662 49.7562 169.86 48.8082 169.86C47.5122 169.86 46.4322 169.554 45.5682 168.942C44.7042 168.33 44.1942 167.496 44.0382 166.44H45.6582C45.8382 167.04 46.2102 167.52 46.7742 167.88C47.3382 168.252 48.0162 168.438 48.8082 168.438C49.7082 168.438 50.4402 168.156 51.0042 167.592C51.5802 167.028 51.8682 166.236 51.8682 165.216V163.146C51.5442 163.722 51.0642 164.202 50.4282 164.586C49.7922 164.97 49.0482 165.162 48.1962 165.162C47.3202 165.162 46.5222 164.946 45.8022 164.514C45.0942 164.082 44.5362 163.476 44.1282 162.696C43.7202 161.916 43.5162 161.028 43.5162 160.032C43.5162 159.024 43.7202 158.142 44.1282 157.386C44.5362 156.618 45.0942 156.024 45.8022 155.604C46.5222 155.184 47.3202 154.974 48.1962 154.974ZM51.8682 160.05C51.8682 159.306 51.7182 158.658 51.4182 158.106C51.1182 157.554 50.7102 157.134 50.1942 156.846C49.6902 156.546 49.1322 156.396 48.5202 156.396C47.9082 156.396 47.3502 156.54 46.8462 156.828C46.3422 157.116 45.9402 157.536 45.6402 158.088C45.3402 158.64 45.1902 159.288 45.1902 160.032C45.1902 160.788 45.3402 161.448 45.6402 162.012C45.9402 162.564 46.3422 162.99 46.8462 163.29C47.3502 163.578 47.9082 163.722 48.5202 163.722C49.1322 163.722 49.6902 163.578 50.1942 163.29C50.7102 162.99 51.1182 162.564 51.4182 162.012C51.7182 161.448 51.8682 160.794 51.8682 160.05ZM57.9303 151.68V165H56.2923V151.68H57.9303ZM61.5679 153.534C61.2559 153.534 60.9919 153.426 60.7759 153.21C60.5599 152.994 60.4519 152.73 60.4519 152.418C60.4519 152.106 60.5599 151.842 60.7759 151.626C60.9919 151.41 61.2559 151.302 61.5679 151.302C61.8679 151.302 62.1199 151.41 62.3239 151.626C62.5399 151.842 62.6479 152.106 62.6479 152.418C62.6479 152.73 62.5399 152.994 62.3239 153.21C62.1199 153.426 61.8679 153.534 61.5679 153.534ZM62.3599 155.136V165H60.7219V155.136H62.3599ZM68.6436 165.162C67.8876 165.162 67.2096 165.036 66.6096 164.784C66.0096 164.52 65.5356 164.16 65.1876 163.704C64.8396 163.236 64.6476 162.702 64.6116 162.102H66.3036C66.3516 162.594 66.5796 162.996 66.9876 163.308C67.4076 163.62 67.9536 163.776 68.6256 163.776C69.2496 163.776 69.7416 163.638 70.1016 163.362C70.4616 163.086 70.6416 162.738 70.6416 162.318C70.6416 161.886 70.4496 161.568 70.0656 161.364C69.6816 161.148 69.0876 160.938 68.2836 160.734C67.5516 160.542 66.9516 160.35 66.4836 160.158C66.0276 159.954 65.6316 159.66 65.2956 159.276C64.9716 158.88 64.8096 158.364 64.8096 157.728C64.8096 157.224 64.9596 156.762 65.2596 156.342C65.5596 155.922 65.9856 155.592 66.5376 155.352C67.0896 155.1 67.7196 154.974 68.4276 154.974C69.5196 154.974 70.4016 155.25 71.0736 155.802C71.7456 156.354 72.1056 157.11 72.1536 158.07H70.5156C70.4796 157.554 70.2696 157.14 69.8856 156.828C69.5136 156.516 69.0096 156.36 68.3736 156.36C67.7856 156.36 67.3176 156.486 66.9696 156.738C66.6216 156.99 66.4476 157.32 66.4476 157.728C66.4476 158.052 66.5496 158.322 66.7536 158.538C66.9696 158.742 67.2336 158.91 67.5456 159.042C67.8696 159.162 68.3136 159.3 68.8776 159.456C69.5856 159.648 70.1616 159.84 70.6056 160.032C71.0496 160.212 71.4276 160.488 71.7396 160.86C72.0636 161.232 72.2316 161.718 72.2436 162.318C72.2436 162.858 72.0936 163.344 71.7936 163.776C71.4936 164.208 71.0676 164.55 70.5156 164.802C69.9756 165.042 69.3516 165.162 68.6436 165.162ZM79.4519 154.956C80.1959 154.956 80.8679 155.118 81.4679 155.442C82.0679 155.754 82.5359 156.228 82.8719 156.864C83.2199 157.5 83.3939 158.274 83.3939 159.186V165H81.7739V159.42C81.7739 158.436 81.5279 157.686 81.0359 157.17C80.5439 156.642 79.8719 156.378 79.0199 156.378C78.1559 156.378 77.4659 156.648 76.9499 157.188C76.4459 157.728 76.1939 158.514 76.1939 159.546V165H74.5559V151.68H76.1939V156.54C76.5179 156.036 76.9619 155.646 77.5259 155.37C78.1019 155.094 78.7439 154.956 79.4519 154.956Z" fill="white"></path> <path d="M31.108 194.454V195.786H27.688V207H26.05V195.786H22.612V194.454H31.108ZM42.1243 201.69C42.1243 202.002 42.1063 202.332 42.0703 202.68H34.1863C34.2463 203.652 34.5763 204.414 35.1763 204.966C35.7883 205.506 36.5263 205.776 37.3903 205.776C38.0983 205.776 38.6863 205.614 39.1543 205.29C39.6343 204.954 39.9703 204.51 40.1623 203.958H41.9263C41.6623 204.906 41.1343 205.68 40.3423 206.28C39.5503 206.868 38.5663 207.162 37.3903 207.162C36.4543 207.162 35.6143 206.952 34.8703 206.532C34.1383 206.112 33.5623 205.518 33.1423 204.75C32.7223 203.97 32.5123 203.07 32.5123 202.05C32.5123 201.03 32.7163 200.136 33.1243 199.368C33.5323 198.6 34.1023 198.012 34.8343 197.604C35.5783 197.184 36.4303 196.974 37.3903 196.974C38.3263 196.974 39.1543 197.178 39.8743 197.586C40.5943 197.994 41.1463 198.558 41.5303 199.278C41.9263 199.986 42.1243 200.79 42.1243 201.69ZM40.4323 201.348C40.4323 200.724 40.2943 200.19 40.0183 199.746C39.7423 199.29 39.3643 198.948 38.8843 198.72C38.4163 198.48 37.8943 198.36 37.3183 198.36C36.4903 198.36 35.7823 198.624 35.1943 199.152C34.6183 199.68 34.2883 200.412 34.2043 201.348H40.4323ZM43.6744 202.05C43.6744 201.03 43.8784 200.142 44.2864 199.386C44.6944 198.618 45.2584 198.024 45.9784 197.604C46.7104 197.184 47.5444 196.974 48.4804 196.974C49.6924 196.974 50.6884 197.268 51.4684 197.856C52.2604 198.444 52.7824 199.26 53.0344 200.304H51.2704C51.1024 199.704 50.7724 199.23 50.2804 198.882C49.8004 198.534 49.2004 198.36 48.4804 198.36C47.5444 198.36 46.7884 198.684 46.2124 199.332C45.6364 199.968 45.3484 200.874 45.3484 202.05C45.3484 203.238 45.6364 204.156 46.2124 204.804C46.7884 205.452 47.5444 205.776 48.4804 205.776C49.2004 205.776 49.8004 205.608 50.2804 205.272C50.7604 204.936 51.0904 204.456 51.2704 203.832H53.0344C52.7704 204.84 52.2424 205.65 51.4504 206.262C50.6584 206.862 49.6684 207.162 48.4804 207.162C47.5444 207.162 46.7104 206.952 45.9784 206.532C45.2584 206.112 44.6944 205.518 44.2864 204.75C43.8784 203.982 43.6744 203.082 43.6744 202.05ZM60.116 196.956C60.86 196.956 61.532 197.118 62.132 197.442C62.732 197.754 63.2 198.228 63.536 198.864C63.884 199.5 64.058 200.274 64.058 201.186V207H62.438V201.42C62.438 200.436 62.192 199.686 61.7 199.17C61.208 198.642 60.536 198.378 59.684 198.378C58.82 198.378 58.13 198.648 57.614 199.188C57.11 199.728 56.858 200.514 56.858 201.546V207H55.22V193.68H56.858V198.54C57.182 198.036 57.626 197.646 58.19 197.37C58.766 197.094 59.408 196.956 60.116 196.956ZM71.5397 196.956C72.7397 196.956 73.7117 197.322 74.4557 198.054C75.1997 198.774 75.5717 199.818 75.5717 201.186V207H73.9517V201.42C73.9517 200.436 73.7057 199.686 73.2137 199.17C72.7217 198.642 72.0497 198.378 71.1977 198.378C70.3337 198.378 69.6437 198.648 69.1277 199.188C68.6237 199.728 68.3717 200.514 68.3717 201.546V207H66.7337V197.136H68.3717V198.54C68.6957 198.036 69.1337 197.646 69.6857 197.37C70.2497 197.094 70.8677 196.956 71.5397 196.956ZM82.5493 207.162C81.6253 207.162 80.7853 206.952 80.0293 206.532C79.2853 206.112 78.6973 205.518 78.2653 204.75C77.8453 203.97 77.6353 203.07 77.6353 202.05C77.6353 201.042 77.8513 200.154 78.2833 199.386C78.7273 198.606 79.3273 198.012 80.0833 197.604C80.8393 197.184 81.6853 196.974 82.6213 196.974C83.5573 196.974 84.4033 197.184 85.1593 197.604C85.9153 198.012 86.5093 198.6 86.9413 199.368C87.3853 200.136 87.6073 201.03 87.6073 202.05C87.6073 203.07 87.3793 203.97 86.9233 204.75C86.4793 205.518 85.8733 206.112 85.1053 206.532C84.3373 206.952 83.4853 207.162 82.5493 207.162ZM82.5493 205.722C83.1373 205.722 83.6893 205.584 84.2053 205.308C84.7213 205.032 85.1353 204.618 85.4473 204.066C85.7713 203.514 85.9333 202.842 85.9333 202.05C85.9333 201.258 85.7773 200.586 85.4653 200.034C85.1533 199.482 84.7453 199.074 84.2413 198.81C83.7373 198.534 83.1913 198.396 82.6033 198.396C82.0033 198.396 81.4513 198.534 80.9473 198.81C80.4553 199.074 80.0593 199.482 79.7593 200.034C79.4593 200.586 79.3093 201.258 79.3093 202.05C79.3093 202.854 79.4533 203.532 79.7413 204.084C80.0413 204.636 80.4373 205.05 80.9293 205.326C81.4213 205.59 81.9613 205.722 82.5493 205.722ZM91.399 193.68V207H89.761V193.68H91.399ZM98.4927 207.162C97.5687 207.162 96.7287 206.952 95.9727 206.532C95.2287 206.112 94.6407 205.518 94.2087 204.75C93.7887 203.97 93.5787 203.07 93.5787 202.05C93.5787 201.042 93.7947 200.154 94.2267 199.386C94.6707 198.606 95.2707 198.012 96.0267 197.604C96.7827 197.184 97.6287 196.974 98.5647 196.974C99.5007 196.974 100.347 197.184 101.103 197.604C101.859 198.012 102.453 198.6 102.885 199.368C103.329 200.136 103.551 201.03 103.551 202.05C103.551 203.07 103.323 203.97 102.867 204.75C102.423 205.518 101.817 206.112 101.049 206.532C100.281 206.952 99.4287 207.162 98.4927 207.162ZM98.4927 205.722C99.0807 205.722 99.6327 205.584 100.149 205.308C100.665 205.032 101.079 204.618 101.391 204.066C101.715 203.514 101.877 202.842 101.877 202.05C101.877 201.258 101.721 200.586 101.409 200.034C101.097 199.482 100.689 199.074 100.185 198.81C99.6807 198.534 99.1347 198.396 98.5467 198.396C97.9467 198.396 97.3947 198.534 96.8907 198.81C96.3987 199.074 96.0027 199.482 95.7027 200.034C95.4027 200.586 95.2527 201.258 95.2527 202.05C95.2527 202.854 95.3967 203.532 95.6847 204.084C95.9847 204.636 96.3807 205.05 96.8727 205.326C97.3647 205.59 97.9047 205.722 98.4927 205.722ZM109.772 196.974C110.624 196.974 111.368 197.16 112.004 197.532C112.652 197.904 113.132 198.372 113.444 198.936V197.136H115.1V207.216C115.1 208.116 114.908 208.914 114.524 209.61C114.14 210.318 113.588 210.87 112.868 211.266C112.16 211.662 111.332 211.86 110.384 211.86C109.088 211.86 108.008 211.554 107.144 210.942C106.28 210.33 105.77 209.496 105.614 208.44H107.234C107.414 209.04 107.786 209.52 108.35 209.88C108.914 210.252 109.592 210.438 110.384 210.438C111.284 210.438 112.016 210.156 112.58 209.592C113.156 209.028 113.444 208.236 113.444 207.216V205.146C113.12 205.722 112.64 206.202 112.004 206.586C111.368 206.97 110.624 207.162 109.772 207.162C108.896 207.162 108.098 206.946 107.378 206.514C106.67 206.082 106.112 205.476 105.704 204.696C105.296 203.916 105.092 203.028 105.092 202.032C105.092 201.024 105.296 200.142 105.704 199.386C106.112 198.618 106.67 198.024 107.378 197.604C108.098 197.184 108.896 196.974 109.772 196.974ZM113.444 202.05C113.444 201.306 113.294 200.658 112.994 200.106C112.694 199.554 112.286 199.134 111.77 198.846C111.266 198.546 110.708 198.396 110.096 198.396C109.484 198.396 108.926 198.54 108.422 198.828C107.918 199.116 107.516 199.536 107.216 200.088C106.916 200.64 106.766 201.288 106.766 202.032C106.766 202.788 106.916 203.448 107.216 204.012C107.516 204.564 107.918 204.99 108.422 205.29C108.926 205.578 109.484 205.722 110.096 205.722C110.708 205.722 111.266 205.578 111.77 205.29C112.286 204.99 112.694 204.564 112.994 204.012C113.294 203.448 113.444 202.794 113.444 202.05ZM126.364 197.136L120.424 211.644H118.732L120.676 206.892L116.698 197.136H118.516L121.612 205.128L124.672 197.136H126.364Z" fill="white"></path> <path d="M25.024 247.668H29.416V249H23.386V236.454H25.024V247.668ZM32.0015 237.534C31.6895 237.534 31.4255 237.426 31.2095 237.21C30.9935 236.994 30.8855 236.73 30.8855 236.418C30.8855 236.106 30.9935 235.842 31.2095 235.626C31.4255 235.41 31.6895 235.302 32.0015 235.302C32.3015 235.302 32.5535 235.41 32.7575 235.626C32.9735 235.842 33.0815 236.106 33.0815 236.418C33.0815 236.73 32.9735 236.994 32.7575 237.21C32.5535 237.426 32.3015 237.534 32.0015 237.534ZM32.7935 239.136V249H31.1555V239.136H32.7935ZM37.5832 240.486V246.3C37.5832 246.78 37.6852 247.122 37.8892 247.326C38.0932 247.518 38.4472 247.614 38.9512 247.614H40.1572V249H38.6812C37.7692 249 37.0852 248.79 36.6292 248.37C36.1732 247.95 35.9452 247.26 35.9452 246.3V240.486H34.6672V239.136H35.9452V236.652H37.5832V239.136H40.1572V240.486H37.5832ZM51.1419 243.69C51.1419 244.002 51.1239 244.332 51.0879 244.68H43.2039C43.2639 245.652 43.5939 246.414 44.1939 246.966C44.8059 247.506 45.5439 247.776 46.4079 247.776C47.1159 247.776 47.7039 247.614 48.1719 247.29C48.6519 246.954 48.9879 246.51 49.1799 245.958H50.9439C50.6799 246.906 50.1519 247.68 49.3599 248.28C48.5679 248.868 47.5839 249.162 46.4079 249.162C45.4719 249.162 44.6319 248.952 43.8879 248.532C43.1559 248.112 42.5799 247.518 42.1599 246.75C41.7399 245.97 41.5299 245.07 41.5299 244.05C41.5299 243.03 41.7339 242.136 42.1419 241.368C42.5499 240.6 43.1199 240.012 43.8519 239.604C44.5959 239.184 45.4479 238.974 46.4079 238.974C47.3439 238.974 48.1719 239.178 48.8919 239.586C49.6119 239.994 50.1639 240.558 50.5479 241.278C50.9439 241.986 51.1419 242.79 51.1419 243.69ZM49.4499 243.348C49.4499 242.724 49.3119 242.19 49.0359 241.746C48.7599 241.29 48.3819 240.948 47.9019 240.72C47.4339 240.48 46.9119 240.36 46.3359 240.36C45.5079 240.36 44.7999 240.624 44.2119 241.152C43.6359 241.68 43.3059 242.412 43.2219 243.348H49.4499ZM54.942 240.738C55.23 240.174 55.638 239.736 56.166 239.424C56.706 239.112 57.36 238.956 58.128 238.956V240.648H57.696C55.86 240.648 54.942 241.644 54.942 243.636V249H53.304V239.136H54.942V240.738ZM59.4068 244.032C59.4068 243.024 59.6108 242.142 60.0188 241.386C60.4268 240.618 60.9848 240.024 61.6928 239.604C62.4128 239.184 63.2108 238.974 64.0868 238.974C64.9508 238.974 65.7008 239.16 66.3368 239.532C66.9728 239.904 67.4468 240.372 67.7588 240.936V239.136H69.4148V249H67.7588V247.164C67.4348 247.74 66.9488 248.22 66.3008 248.604C65.6648 248.976 64.9208 249.162 64.0688 249.162C63.1928 249.162 62.4008 248.946 61.6928 248.514C60.9848 248.082 60.4268 247.476 60.0188 246.696C59.6108 245.916 59.4068 245.028 59.4068 244.032ZM67.7588 244.05C67.7588 243.306 67.6088 242.658 67.3088 242.106C67.0088 241.554 66.6008 241.134 66.0848 240.846C65.5808 240.546 65.0228 240.396 64.4108 240.396C63.7988 240.396 63.2408 240.54 62.7368 240.828C62.2328 241.116 61.8308 241.536 61.5308 242.088C61.2308 242.64 61.0808 243.288 61.0808 244.032C61.0808 244.788 61.2308 245.448 61.5308 246.012C61.8308 246.564 62.2328 246.99 62.7368 247.29C63.2408 247.578 63.7988 247.722 64.4108 247.722C65.0228 247.722 65.5808 247.578 66.0848 247.29C66.6008 246.99 67.0088 246.564 67.3088 246.012C67.6088 245.448 67.7588 244.794 67.7588 244.05ZM74.1809 240.486V246.3C74.1809 246.78 74.2829 247.122 74.4869 247.326C74.6909 247.518 75.0449 247.614 75.5489 247.614H76.7549V249H75.2789C74.3669 249 73.6829 248.79 73.2269 248.37C72.7709 247.95 72.5429 247.26 72.5429 246.3V240.486H71.2649V239.136H72.5429V236.652H74.1809V239.136H76.7549V240.486H74.1809ZM87.4875 239.136V249H85.8495V247.542C85.5375 248.046 85.0995 248.442 84.5355 248.73C83.9835 249.006 83.3715 249.144 82.6995 249.144C81.9315 249.144 81.2415 248.988 80.6295 248.676C80.0175 248.352 79.5315 247.872 79.1715 247.236C78.8235 246.6 78.6495 245.826 78.6495 244.914V239.136H80.2695V244.698C80.2695 245.67 80.5155 246.42 81.0075 246.948C81.4995 247.464 82.1715 247.722 83.0235 247.722C83.8995 247.722 84.5895 247.452 85.0935 246.912C85.5975 246.372 85.8495 245.586 85.8495 244.554V239.136H87.4875ZM91.8912 240.738C92.1792 240.174 92.5872 239.736 93.1152 239.424C93.6552 239.112 94.3092 238.956 95.0772 238.956V240.648H94.6452C92.8092 240.648 91.8912 241.644 91.8912 243.636V249H90.2532V239.136H91.8912V240.738ZM105.968 243.69C105.968 244.002 105.95 244.332 105.914 244.68H98.03C98.09 245.652 98.42 246.414 99.02 246.966C99.632 247.506 100.37 247.776 101.234 247.776C101.942 247.776 102.53 247.614 102.998 247.29C103.478 246.954 103.814 246.51 104.006 245.958H105.77C105.506 246.906 104.978 247.68 104.186 248.28C103.394 248.868 102.41 249.162 101.234 249.162C100.298 249.162 99.458 248.952 98.714 248.532C97.982 248.112 97.406 247.518 96.986 246.75C96.566 245.97 96.356 245.07 96.356 244.05C96.356 243.03 96.56 242.136 96.968 241.368C97.376 240.6 97.946 240.012 98.678 239.604C99.422 239.184 100.274 238.974 101.234 238.974C102.17 238.974 102.998 239.178 103.718 239.586C104.438 239.994 104.99 240.558 105.374 241.278C105.77 241.986 105.968 242.79 105.968 243.69ZM104.276 243.348C104.276 242.724 104.138 242.19 103.862 241.746C103.586 241.29 103.208 240.948 102.728 240.72C102.26 240.48 101.738 240.36 101.162 240.36C100.334 240.36 99.626 240.624 99.038 241.152C98.462 241.68 98.132 242.412 98.048 243.348H104.276Z" fill="white"></path> <path d="M29.992 291L27.004 285.87H25.024V291H23.386V278.454H27.436C28.384 278.454 29.182 278.616 29.83 278.94C30.49 279.264 30.982 279.702 31.306 280.254C31.63 280.806 31.792 281.436 31.792 282.144C31.792 283.008 31.54 283.77 31.036 284.43C30.544 285.09 29.8 285.528 28.804 285.744L31.954 291H29.992ZM25.024 284.556H27.436C28.324 284.556 28.99 284.34 29.434 283.908C29.878 283.464 30.1 282.876 30.1 282.144C30.1 281.4 29.878 280.824 29.434 280.416C29.002 280.008 28.336 279.804 27.436 279.804H25.024V284.556ZM43.0852 281.136V291H41.4472V289.542C41.1352 290.046 40.6972 290.442 40.1332 290.73C39.5812 291.006 38.9692 291.144 38.2972 291.144C37.5292 291.144 36.8392 290.988 36.2272 290.676C35.6152 290.352 35.1292 289.872 34.7692 289.236C34.4212 288.6 34.2472 287.826 34.2472 286.914V281.136H35.8672V286.698C35.8672 287.67 36.1132 288.42 36.6052 288.948C37.0972 289.464 37.7692 289.722 38.6212 289.722C39.4972 289.722 40.1872 289.452 40.6912 288.912C41.1952 288.372 41.4472 287.586 41.4472 286.554V281.136H43.0852ZM49.3428 291.162C48.5868 291.162 47.9088 291.036 47.3088 290.784C46.7088 290.52 46.2348 290.16 45.8868 289.704C45.5388 289.236 45.3468 288.702 45.3108 288.102H47.0028C47.0508 288.594 47.2788 288.996 47.6868 289.308C48.1068 289.62 48.6528 289.776 49.3248 289.776C49.9488 289.776 50.4408 289.638 50.8008 289.362C51.1608 289.086 51.3408 288.738 51.3408 288.318C51.3408 287.886 51.1488 287.568 50.7648 287.364C50.3808 287.148 49.7868 286.938 48.9828 286.734C48.2508 286.542 47.6508 286.35 47.1828 286.158C46.7268 285.954 46.3308 285.66 45.9948 285.276C45.6708 284.88 45.5088 284.364 45.5088 283.728C45.5088 283.224 45.6588 282.762 45.9588 282.342C46.2588 281.922 46.6848 281.592 47.2368 281.352C47.7888 281.1 48.4188 280.974 49.1268 280.974C50.2188 280.974 51.1008 281.25 51.7728 281.802C52.4448 282.354 52.8048 283.11 52.8528 284.07H51.2148C51.1788 283.554 50.9688 283.14 50.5848 282.828C50.2128 282.516 49.7088 282.36 49.0728 282.36C48.4848 282.36 48.0168 282.486 47.6688 282.738C47.3208 282.99 47.1468 283.32 47.1468 283.728C47.1468 284.052 47.2488 284.322 47.4528 284.538C47.6688 284.742 47.9328 284.91 48.2448 285.042C48.5688 285.162 49.0128 285.3 49.5768 285.456C50.2848 285.648 50.8608 285.84 51.3048 286.032C51.7488 286.212 52.1268 286.488 52.4388 286.86C52.7628 287.232 52.9308 287.718 52.9428 288.318C52.9428 288.858 52.7928 289.344 52.4928 289.776C52.1928 290.208 51.7668 290.55 51.2148 290.802C50.6748 291.042 50.0508 291.162 49.3428 291.162ZM58.7471 291.162C57.9911 291.162 57.3131 291.036 56.7131 290.784C56.1131 290.52 55.6391 290.16 55.2911 289.704C54.9431 289.236 54.7511 288.702 54.7151 288.102H56.4071C56.4551 288.594 56.6831 288.996 57.0911 289.308C57.5111 289.62 58.0571 289.776 58.7291 289.776C59.3531 289.776 59.8451 289.638 60.2051 289.362C60.5651 289.086 60.7451 288.738 60.7451 288.318C60.7451 287.886 60.5531 287.568 60.1691 287.364C59.7851 287.148 59.1911 286.938 58.3871 286.734C57.6551 286.542 57.0551 286.35 56.5871 286.158C56.1311 285.954 55.7351 285.66 55.3991 285.276C55.0751 284.88 54.9131 284.364 54.9131 283.728C54.9131 283.224 55.0631 282.762 55.3631 282.342C55.6631 281.922 56.0891 281.592 56.6411 281.352C57.1931 281.1 57.8231 280.974 58.5311 280.974C59.6231 280.974 60.5051 281.25 61.1771 281.802C61.8491 282.354 62.2091 283.11 62.2571 284.07H60.6191C60.5831 283.554 60.3731 283.14 59.9891 282.828C59.6171 282.516 59.1131 282.36 58.4771 282.36C57.8891 282.36 57.4211 282.486 57.0731 282.738C56.7251 282.99 56.5511 283.32 56.5511 283.728C56.5511 284.052 56.6531 284.322 56.8571 284.538C57.0731 284.742 57.3371 284.91 57.6491 285.042C57.9731 285.162 58.4171 285.3 58.9811 285.456C59.6891 285.648 60.2651 285.84 60.7091 286.032C61.1531 286.212 61.5311 286.488 61.8431 286.86C62.1671 287.232 62.3351 287.718 62.3471 288.318C62.3471 288.858 62.1971 289.344 61.8971 289.776C61.5971 290.208 61.1711 290.55 60.6191 290.802C60.0791 291.042 59.4551 291.162 58.7471 291.162ZM65.5054 279.534C65.1934 279.534 64.9294 279.426 64.7134 279.21C64.4974 278.994 64.3894 278.73 64.3894 278.418C64.3894 278.106 64.4974 277.842 64.7134 277.626C64.9294 277.41 65.1934 277.302 65.5054 277.302C65.8054 277.302 66.0574 277.41 66.2614 277.626C66.4774 277.842 66.5854 278.106 66.5854 278.418C66.5854 278.73 66.4774 278.994 66.2614 279.21C66.0574 279.426 65.8054 279.534 65.5054 279.534ZM66.2974 281.136V291H64.6594V281.136H66.2974ZM68.4771 286.032C68.4771 285.024 68.6811 284.142 69.0891 283.386C69.4971 282.618 70.0551 282.024 70.7631 281.604C71.4831 281.184 72.2811 280.974 73.1571 280.974C74.0211 280.974 74.7711 281.16 75.4071 281.532C76.0431 281.904 76.5171 282.372 76.8291 282.936V281.136H78.4851V291H76.8291V289.164C76.5051 289.74 76.0191 290.22 75.3711 290.604C74.7351 290.976 73.9911 291.162 73.1391 291.162C72.2631 291.162 71.4711 290.946 70.7631 290.514C70.0551 290.082 69.4971 289.476 69.0891 288.696C68.6811 287.916 68.4771 287.028 68.4771 286.032ZM76.8291 286.05C76.8291 285.306 76.6791 284.658 76.3791 284.106C76.0791 283.554 75.6711 283.134 75.1551 282.846C74.6511 282.546 74.0931 282.396 73.4811 282.396C72.8691 282.396 72.3111 282.54 71.8071 282.828C71.3031 283.116 70.9011 283.536 70.6011 284.088C70.3011 284.64 70.1511 285.288 70.1511 286.032C70.1511 286.788 70.3011 287.448 70.6011 288.012C70.9011 288.564 71.3031 288.99 71.8071 289.29C72.3111 289.578 72.8691 289.722 73.4811 289.722C74.0931 289.722 74.6511 289.578 75.1551 289.29C75.6711 288.99 76.0791 288.564 76.3791 288.012C76.6791 287.448 76.8291 286.794 76.8291 286.05ZM86.0592 280.956C87.2592 280.956 88.2312 281.322 88.9752 282.054C89.7192 282.774 90.0912 283.818 90.0912 285.186V291H88.4712V285.42C88.4712 284.436 88.2252 283.686 87.7332 283.17C87.2412 282.642 86.5692 282.378 85.7172 282.378C84.8532 282.378 84.1632 282.648 83.6472 283.188C83.1432 283.728 82.8912 284.514 82.8912 285.546V291H81.2532V281.136H82.8912V282.54C83.2152 282.036 83.6532 281.646 84.2052 281.37C84.7692 281.094 85.3872 280.956 86.0592 280.956Z" fill="white"></path> <path d="M165.712 69.088L165.443 70.0511L166.712 70.4057L166.712 69.088L165.712 69.088ZM135 60.508L134 60.508L134 61.2669L134.731 61.4711L135 60.508ZM135 53.248L134.745 52.281L134 52.4774L134 53.248L135 53.248ZM156.868 47.484L157.123 48.451L160.709 47.5056L157.134 46.52L156.868 47.484ZM135 41.456L134 41.4621L134.005 42.2189L134.734 42.42L135 41.456ZM134.956 34.24L134.696 33.2743L133.951 33.4747L133.956 34.2461L134.956 34.24ZM165.712 25.968L166.712 25.968L166.712 24.6635L165.452 25.0023L165.712 25.968ZM165.712 32.568L165.933 33.5432L166.712 33.3665L166.712 32.568L165.712 32.568ZM141.864 37.98L141.643 37.0048L141.611 38.9474L141.864 37.98ZM165.712 44.228L166.712 44.228L166.712 43.4562L165.965 43.2606L165.712 44.228ZM165.712 51.092L165.953 52.0625L166.712 51.8738L166.712 51.092L165.712 51.092ZM141.996 56.988L141.755 56.0175L141.772 57.9625L141.996 56.988ZM165.712 62.444L166.712 62.444L166.712 61.6479L165.936 61.4695L165.712 62.444ZM165.981 68.1249L135.269 59.5449L134.731 61.4711L165.443 70.0511L165.981 68.1249ZM136 60.508L136 53.248L134 53.248L134 60.508L136 60.508ZM135.255 54.215L157.123 48.451L156.613 46.517L134.745 52.281L135.255 54.215ZM157.134 46.52L135.266 40.492L134.734 42.42L156.602 48.448L157.134 46.52ZM136 41.4499L135.956 34.2339L133.956 34.2461L134 41.4621L136 41.4499ZM135.216 35.2057L165.972 26.9337L165.452 25.0023L134.696 33.2743L135.216 35.2057ZM164.712 25.968L164.712 32.568L166.712 32.568L166.712 25.968L164.712 25.968ZM165.491 31.5928L141.643 37.0048L142.085 38.9552L165.933 33.5432L165.491 31.5928ZM141.611 38.9474L165.459 45.1954L165.965 43.2606L142.117 37.0126L141.611 38.9474ZM164.712 44.228L164.712 51.092L166.712 51.092L166.712 44.228L164.712 44.228ZM165.471 50.1215L141.755 56.0175L142.237 57.9585L165.953 52.0625L165.471 50.1215ZM141.772 57.9625L165.488 63.4185L165.936 61.4695L142.22 56.0135L141.772 57.9625ZM164.712 62.444L164.712 69.088L166.712 69.088L166.712 62.444L164.712 62.444ZM145.34 95.5942L144.34 95.5942L144.34 96.4413L145.176 96.5806L145.34 95.5942ZM145.34 77.7742L146.34 77.7742L146.34 76.6874L145.257 76.7777L145.34 77.7742ZM141.204 79.6222L140.468 78.9456L140.468 78.9456L141.204 79.6222ZM142.656 88.5102L143.656 88.5102L143.656 87.888L143.098 87.6131L142.656 88.5102ZM142.656 95.1542L142.369 96.112L143.656 96.4983L143.656 95.1542L142.656 95.1542ZM136.848 91.1062L136.048 91.7062L136.054 91.7137L136.848 91.1062ZM136.144 77.4222L135.276 76.9261L135.271 76.9342L135.267 76.9424L136.144 77.4222ZM140.588 73.0662L140.114 72.1857L140.103 72.1914L140.588 73.0662ZM153.832 73.0662L154.306 72.1857L154.306 72.1857L153.832 73.0662ZM158.232 77.3782L157.358 77.8639L157.358 77.8639L158.232 77.3782ZM158.276 89.9622L157.399 89.4814L157.396 89.4873L158.276 89.9622ZM154.008 94.2302L153.533 93.3502L153.525 93.3547L153.516 93.3594L154.008 94.2302ZM149.476 89.3902L148.476 89.3902L148.476 90.4089L149.495 90.39L149.476 89.3902ZM153.26 87.6742L152.505 87.0185L152.5 87.0243L152.495 87.0301L153.26 87.6742ZM153.304 79.7102L152.555 80.3733L152.557 80.3746L153.304 79.7102ZM149.476 77.8182L149.617 76.8283L148.476 76.6652L148.476 77.8182L149.476 77.8182ZM147.716 94.7702C146.879 94.7702 146.143 94.7143 145.504 94.6078L145.176 96.5806C145.945 96.7088 146.793 96.7702 147.716 96.7702L147.716 94.7702ZM146.34 95.5942L146.34 77.7742L144.34 77.7742L144.34 95.5942L146.34 95.5942ZM145.257 76.7777C143.299 76.9408 141.667 77.64 140.468 78.9456L141.94 80.2988C142.735 79.4338 143.861 78.901 145.423 78.7708L145.257 76.7777ZM140.468 78.9456C139.287 80.23 138.708 81.812 138.708 83.6262L140.708 83.6262C140.708 82.2724 141.126 81.1851 141.94 80.2988L140.468 78.9456ZM138.708 83.6262C138.708 84.9152 138.986 86.081 139.589 87.08C140.193 88.0815 141.087 88.8519 142.214 89.4073L143.098 87.6131C142.26 87.2005 141.679 86.6729 141.301 86.0465C140.921 85.4174 140.708 84.6252 140.708 83.6262L138.708 83.6262ZM141.656 88.5102L141.656 95.1542L143.656 95.1542L143.656 88.5102L141.656 88.5102ZM142.943 94.1964C140.804 93.5545 139.043 92.3306 137.642 90.4988L136.054 91.7137C137.703 93.8711 139.815 95.3459 142.369 96.112L142.943 94.1964ZM137.648 90.5062C136.302 88.7121 135.604 86.4828 135.604 83.7582L133.604 83.7582C133.604 86.8416 134.402 89.511 136.048 91.7062L137.648 90.5062ZM135.604 83.7582C135.604 81.5626 136.083 79.6183 137.021 77.902L135.267 76.9424C134.152 78.9808 133.604 81.2605 133.604 83.7582L135.604 83.7582ZM137.012 77.9184C137.975 76.2333 139.322 74.9105 141.072 73.941L140.103 72.1914C138.041 73.3339 136.425 74.9151 135.276 76.9261L137.012 77.9184ZM141.062 73.9467C142.802 73.0096 144.835 72.5262 147.188 72.5262L147.188 70.5262C144.554 70.5262 142.187 71.0695 140.114 72.1857L141.062 73.9467ZM147.188 72.5262C149.573 72.5262 151.619 73.0105 153.358 73.9467L154.306 72.1857C152.231 71.0686 149.849 70.5262 147.188 70.5262L147.188 72.5262ZM153.358 73.9467C155.101 74.885 156.426 76.1873 157.358 77.8639L159.106 76.8926C157.984 74.8732 156.377 73.3007 154.306 72.1857L153.358 73.9467ZM157.358 77.8639C158.291 79.5438 158.772 81.4991 158.772 83.7582L160.772 83.7582C160.772 81.2067 160.226 78.9086 159.106 76.8926L157.358 77.8639ZM158.772 83.7582C158.772 85.9275 158.307 87.8267 157.399 89.4814L159.153 90.4431C160.24 88.4604 160.772 86.2236 160.772 83.7582L158.772 83.7582ZM157.396 89.4873C156.491 91.1636 155.209 92.4455 153.533 93.3502L154.483 95.1102C156.503 94.0203 158.066 92.4568 159.156 90.4372L157.396 89.4873ZM153.516 93.3594C151.867 94.2903 149.944 94.7702 147.716 94.7702L147.716 96.7702C150.24 96.7702 152.511 96.2235 154.5 95.101L153.516 93.3594ZM149.495 90.39C151.339 90.3559 152.883 89.6745 154.025 88.3184L152.495 87.0301C151.76 87.9033 150.781 88.3659 149.457 88.3904L149.495 90.39ZM154.015 88.3299C155.156 87.0159 155.712 85.4124 155.712 83.5822L153.712 83.5822C153.712 84.9787 153.3 86.1032 152.505 87.0185L154.015 88.3299ZM155.712 83.5822C155.712 81.8331 155.166 80.3001 154.051 79.0459L152.557 80.3746C153.319 81.2323 153.712 82.2806 153.712 83.5822L155.712 83.5822ZM154.053 79.0472C152.955 77.8077 151.443 77.0891 149.617 76.8283L149.335 78.8082C150.794 79.0166 151.835 79.5594 152.555 80.3733L154.053 79.0472ZM148.476 77.8182L148.476 89.3902L150.476 89.3902L150.476 77.8182L148.476 77.8182ZM153.832 100.134L154.296 99.2483L154.285 99.2428L153.832 100.134ZM158.232 104.182L157.376 104.699L157.376 104.699L158.232 104.182ZM158.716 114.39L157.818 113.951L157.814 113.958L157.811 113.966L158.716 114.39ZM155.988 117.822L155.391 117.02L152.967 118.822L155.988 118.822L155.988 117.822ZM167.56 117.822L168.56 117.822L168.56 116.822L167.56 116.822L167.56 117.822ZM167.56 124.07L167.56 125.07L168.56 125.07L168.56 124.07L167.56 124.07ZM135 124.07L134 124.07L134 125.07L135 125.07L135 124.07ZM135 117.822L135 116.822L134 116.822L134 117.822L135 117.822ZM138.608 117.822L138.608 118.822L142.052 118.822L139.144 116.978L138.608 117.822ZM135.704 114.61L136.587 114.141L136.587 114.141L135.704 114.61ZM136.188 104.182L137.038 104.71L137.038 104.71L136.188 104.182ZM140.632 100.134L140.185 99.24L140.177 99.2441L140.168 99.2484L140.632 100.134ZM151.016 116.986L150.54 116.107L150.53 116.112L151.016 116.986ZM153.48 114.61L152.618 114.103L152.612 114.113L152.607 114.123L153.48 114.61ZM153.524 108.23L154.391 107.732L154.391 107.732L153.524 108.23ZM151.06 105.854L151.554 104.985L151.546 104.98L151.06 105.854ZM143.404 105.854L142.938 104.97L142.924 104.977L142.91 104.985L143.404 105.854ZM140.896 108.23L140.041 107.712L140.034 107.723L140.896 108.23ZM140.852 114.61L139.979 115.098L139.984 115.108L139.99 115.117L140.852 114.61ZM143.316 116.986L142.83 117.861L142.84 117.866L143.316 116.986ZM147.276 99.6825C149.607 99.6825 151.633 100.139 153.379 101.026L154.285 99.2428C152.218 98.1934 149.873 97.6825 147.276 97.6825L147.276 99.6825ZM153.369 101.021C155.127 101.94 156.452 103.168 157.376 104.699L159.088 103.666C157.959 101.795 156.35 100.323 154.295 99.2484L153.369 101.021ZM157.376 104.699C158.304 106.237 158.772 107.949 158.772 109.858L160.772 109.858C160.772 107.603 160.214 105.531 159.088 103.666L157.376 104.699ZM158.772 109.858C158.772 111.288 158.456 112.649 157.818 113.951L159.614 114.83C160.384 113.258 160.772 111.597 160.772 109.858L158.772 109.858ZM157.811 113.966C157.198 115.271 156.388 116.279 155.391 117.02L156.585 118.625C157.876 117.665 158.885 116.385 159.621 114.815L157.811 113.966ZM155.988 118.822L167.56 118.822L167.56 116.822L155.988 116.822L155.988 118.822ZM166.56 117.822L166.56 124.07L168.56 124.07L168.56 117.822L166.56 117.822ZM167.56 123.07L135 123.07L135 125.07L167.56 125.07L167.56 123.07ZM136 124.07L136 117.822L134 117.822L134 124.07L136 124.07ZM135 118.822L138.608 118.822L138.608 116.822L135 116.822L135 118.822ZM139.144 116.978C138.101 116.317 137.247 115.382 136.587 114.141L134.821 115.08C135.628 116.597 136.71 117.803 138.072 118.667L139.144 116.978ZM136.587 114.141C135.942 112.929 135.604 111.496 135.604 109.814L133.604 109.814C133.604 111.77 133.999 113.535 134.821 115.08L136.587 114.141ZM135.604 109.814C135.604 107.943 136.083 106.249 137.038 104.71L135.338 103.655C134.181 105.519 133.604 107.58 133.604 109.814L135.604 109.814ZM137.038 104.71C137.992 103.172 139.335 101.941 141.095 101.021L140.168 99.2484C138.116 100.322 136.496 101.79 135.338 103.655L137.038 104.71ZM141.079 101.029C142.857 100.14 144.914 99.6825 147.276 99.6825L147.276 97.6825C144.651 97.6825 142.279 98.1928 140.185 99.24L141.079 101.029ZM147.188 118.866C148.814 118.866 150.266 118.547 151.502 117.861L150.53 116.112C149.654 116.599 148.554 116.866 147.188 116.866L147.188 118.866ZM151.492 117.866C152.73 117.197 153.696 116.275 154.353 115.098L152.607 114.123C152.15 114.941 151.473 115.603 150.54 116.107L151.492 117.866ZM154.342 115.117C155.018 113.968 155.36 112.723 155.36 111.398L153.36 111.398C153.36 112.362 153.115 113.258 152.618 114.103L154.342 115.117ZM155.36 111.398C155.36 110.084 155.038 108.855 154.391 107.732L152.657 108.729C153.125 109.542 153.36 110.425 153.36 111.398L155.36 111.398ZM154.391 107.732C153.734 106.591 152.775 105.678 151.554 104.985L150.566 106.724C151.515 107.263 152.199 107.934 152.657 108.729L154.391 107.732ZM151.546 104.98C150.312 104.295 148.876 103.974 147.276 103.974L147.276 105.974C148.609 105.974 149.696 106.24 150.574 106.729L151.546 104.98ZM147.276 103.974C145.674 103.974 144.218 104.296 142.938 104.97L143.87 106.739C144.819 106.24 145.945 105.974 147.276 105.974L147.276 103.974ZM142.91 104.985C141.692 105.676 140.725 106.583 140.041 107.712L141.751 108.749C142.24 107.941 142.945 107.265 143.898 106.724L142.91 104.985ZM140.034 107.723C139.361 108.868 139.016 110.099 139.016 111.398L141.016 111.398C141.016 110.469 141.258 109.587 141.758 108.737L140.034 107.723ZM139.016 111.398C139.016 112.713 139.338 113.952 139.979 115.098L141.725 114.123C141.251 113.275 141.016 112.372 141.016 111.398L139.016 111.398ZM139.99 115.117C140.671 116.275 141.626 117.191 142.83 117.861L143.802 116.112C142.894 115.608 142.206 114.94 141.714 114.103L139.99 115.117ZM142.84 117.866C144.1 118.547 145.561 118.866 147.188 118.866L147.188 116.866C145.823 116.866 144.703 116.599 143.792 116.107L142.84 117.866ZM156.956 150.635L156.26 149.916L156.255 149.922L156.956 150.635ZM135 153.319L134 153.319L134 154.319L135 154.319L135 153.319ZM135 147.159L135 146.159L134 146.159L134 147.159L135 147.159ZM152.908 145.707L152.232 144.97L152.222 144.979L152.908 145.707ZM152.908 137.699L153.595 136.972L153.594 136.971L152.908 137.699ZM135 136.247L134 136.247L134 137.247L135 137.247L135 136.247ZM135 130.087L135 129.087L134 129.087L134 130.087L135 130.087ZM159.376 130.087L160.376 130.087L160.376 129.087L159.376 129.087L159.376 130.087ZM159.376 136.247L159.376 137.247L160.376 137.247L160.376 136.247L159.376 136.247ZM156.34 136.247L156.34 135.247L153.425 135.247L155.726 137.036L156.34 136.247ZM158.804 139.371L157.897 139.793L157.902 139.802L158.804 139.371ZM158.728 143.595C158.728 146.266 157.888 148.34 156.26 149.916L157.652 151.353C159.72 149.35 160.728 146.731 160.728 143.595L158.728 143.595ZM156.255 149.922C154.673 151.479 152.402 152.319 149.3 152.319L149.3 154.319C152.769 154.319 155.602 153.37 157.657 151.348L156.255 149.922ZM149.3 152.319L135 152.319L135 154.319L149.3 154.319L149.3 152.319ZM136 153.319L136 147.159L134 147.159L134 153.319L136 153.319ZM135 148.159L148.464 148.159L148.464 146.159L135 146.159L135 148.159ZM148.464 148.159C150.559 148.159 152.322 147.634 153.594 146.434L152.222 144.979C151.441 145.716 150.241 146.159 148.464 146.159L148.464 148.159ZM153.584 146.444C154.881 145.254 155.492 143.648 155.492 141.747L153.492 141.747C153.492 143.19 153.047 144.223 152.232 144.97L153.584 146.444ZM155.492 141.747C155.492 139.822 154.885 138.191 153.595 136.972L152.221 138.426C153.043 139.202 153.492 140.269 153.492 141.747L155.492 141.747ZM153.594 136.971C152.322 135.772 150.559 135.247 148.464 135.247L148.464 137.247C150.241 137.247 151.441 137.69 152.222 138.426L153.594 136.971ZM148.464 135.247L135 135.247L135 137.247L148.464 137.247L148.464 135.247ZM136 136.247L136 130.087L134 130.087L134 136.247L136 136.247ZM135 131.087L159.376 131.087L159.376 129.087L135 129.087L135 131.087ZM158.376 130.087L158.376 136.247L160.376 136.247L160.376 130.087L158.376 130.087ZM159.376 135.247L156.34 135.247L156.34 137.247L159.376 137.247L159.376 135.247ZM155.726 137.036C156.652 137.756 157.375 138.669 157.897 139.793L159.711 138.949C159.06 137.55 158.14 136.38 156.954 135.457L155.726 137.036ZM157.902 139.802C158.449 140.949 158.728 142.208 158.728 143.595L160.728 143.595C160.728 141.931 160.391 140.374 159.706 138.94L157.902 139.802ZM145.34 181.661L144.34 181.661L144.34 182.508L145.176 182.647L145.34 181.661ZM145.34 163.841L146.34 163.841L146.34 162.754L145.257 162.844L145.34 163.841ZM141.204 165.689L140.468 165.012L140.468 165.012L141.204 165.689ZM142.656 174.577L143.656 174.577L143.656 173.954L143.098 173.68L142.656 174.577ZM142.656 181.221L142.369 182.178L143.656 182.565L143.656 181.221L142.656 181.221ZM136.848 177.173L136.048 177.773L136.054 177.78L136.848 177.173ZM136.144 163.489L135.276 162.992L135.271 163.001L135.267 163.009L136.144 163.489ZM140.588 159.133L140.114 158.252L140.103 158.258L140.588 159.133ZM153.832 159.133L154.306 158.252L154.306 158.252L153.832 159.133ZM158.232 163.445L157.358 163.93L157.358 163.93L158.232 163.445ZM158.276 176.029L157.399 175.548L157.396 175.554L158.276 176.029ZM154.008 180.297L153.533 179.417L153.525 179.421L153.516 179.426L154.008 180.297ZM149.476 175.457L148.476 175.457L148.476 176.475L149.495 176.456L149.476 175.457ZM153.26 173.741L152.505 173.085L152.5 173.091L152.495 173.096L153.26 173.741ZM153.304 165.777L152.555 166.44L152.557 166.441L153.304 165.777ZM149.476 163.885L149.617 162.895L148.476 162.732L148.476 163.885L149.476 163.885ZM147.716 180.837C146.879 180.837 146.143 180.781 145.504 180.674L145.176 182.647C145.945 182.775 146.793 182.837 147.716 182.837L147.716 180.837ZM146.34 181.661L146.34 163.841L144.34 163.841L144.34 181.661L146.34 181.661ZM145.257 162.844C143.299 163.007 141.667 163.706 140.468 165.012L141.94 166.365C142.735 165.5 143.861 164.967 145.423 164.837L145.257 162.844ZM140.468 165.012C139.287 166.296 138.708 167.878 138.708 169.693L140.708 169.693C140.708 168.339 141.126 167.252 141.94 166.365L140.468 165.012ZM138.708 169.693C138.708 170.982 138.986 172.147 139.589 173.146C140.193 174.148 141.087 174.918 142.214 175.474L143.098 173.68C142.26 173.267 141.679 172.739 141.301 172.113C140.921 171.484 140.708 170.692 140.708 169.693L138.708 169.693ZM141.656 174.577L141.656 181.221L143.656 181.221L143.656 174.577L141.656 174.577ZM142.943 180.263C140.804 179.621 139.043 178.397 137.642 176.565L136.054 177.78C137.703 179.938 139.815 181.412 142.369 182.178L142.943 180.263ZM137.648 176.573C136.302 174.778 135.604 172.549 135.604 169.825L133.604 169.825C133.604 172.908 134.402 175.577 136.048 177.773L137.648 176.573ZM135.604 169.825C135.604 167.629 136.083 165.685 137.021 163.968L135.267 163.009C134.152 165.047 133.604 167.327 133.604 169.825L135.604 169.825ZM137.012 163.985C137.975 162.3 139.322 160.977 141.072 160.007L140.103 158.258C138.041 159.4 136.425 160.982 135.276 162.992L137.012 163.985ZM141.062 160.013C142.802 159.076 144.835 158.593 147.188 158.593L147.188 156.593C144.554 156.593 142.187 157.136 140.114 158.252L141.062 160.013ZM147.188 158.593C149.573 158.593 151.619 159.077 153.358 160.013L154.306 158.252C152.231 157.135 149.849 156.593 147.188 156.593L147.188 158.593ZM153.358 160.013C155.101 160.951 156.426 162.254 157.358 163.93L159.106 162.959C157.984 160.94 156.377 159.367 154.306 158.252L153.358 160.013ZM157.358 163.93C158.291 165.61 158.772 167.565 158.772 169.825L160.772 169.825C160.772 167.273 160.226 164.975 159.106 162.959L157.358 163.93ZM158.772 169.825C158.772 171.994 158.307 173.893 157.399 175.548L159.153 176.509C160.24 174.527 160.772 172.29 160.772 169.825L158.772 169.825ZM157.396 175.554C156.491 177.23 155.209 178.512 153.533 179.417L154.483 181.177C156.503 180.087 158.066 178.523 159.156 176.504L157.396 175.554ZM153.516 179.426C151.867 180.357 149.944 180.837 147.716 180.837L147.716 182.837C150.24 182.837 152.511 182.29 154.5 181.167L153.516 179.426ZM149.495 176.456C151.339 176.422 152.883 175.741 154.025 174.385L152.495 173.096C151.76 173.97 150.781 174.432 149.457 174.457L149.495 176.456ZM154.015 174.396C155.156 173.082 155.712 171.479 155.712 169.649L153.712 169.649C153.712 171.045 153.3 172.17 152.505 173.085L154.015 174.396ZM155.712 169.649C155.712 167.9 155.166 166.367 154.051 165.112L152.557 166.441C153.319 167.299 153.712 168.347 153.712 169.649L155.712 169.649ZM154.053 165.114C152.955 163.874 151.443 163.156 149.617 162.895L149.335 164.875C150.794 165.083 151.835 165.626 152.555 166.44L154.053 165.114ZM148.476 163.885L148.476 175.457L150.476 175.457L150.476 163.885L148.476 163.885ZM135.66 190.293L134.753 189.873L134.749 189.88L134.746 189.887L135.66 190.293ZM138.608 186.509L138.014 185.704L138.008 185.709L138.002 185.713L138.608 186.509ZM142.7 185.013L143.7 185.013L143.7 183.952L142.641 184.015L142.7 185.013ZM142.7 191.217L142.824 192.209L143.7 192.1L143.7 191.217L142.7 191.217ZM140.368 192.581L139.579 191.967L139.573 191.974L139.568 191.981L140.368 192.581ZM140.148 198.345L140.969 197.774L140.963 197.765L140.957 197.757L140.148 198.345ZM143.712 198.125L142.824 197.665L142.814 197.684L142.805 197.704L143.712 198.125ZM145.032 194.297L145.998 194.555L146.001 194.543L146.004 194.532L145.032 194.297ZM146.396 189.809L145.471 189.429L145.468 189.437L146.396 189.809ZM148.552 186.817L147.905 186.054L147.898 186.06L147.892 186.066L148.552 186.817ZM156.164 186.729L156.743 185.914L156.736 185.909L156.729 185.904L156.164 186.729ZM158.804 190.073L159.719 189.67L159.716 189.663L158.804 190.073ZM157.572 202.173L156.809 201.526L156.803 201.534L157.572 202.173ZM151.72 205.033L150.72 205.033L150.72 206.107L151.791 206.03L151.72 205.033ZM151.72 199.137L151.629 198.141L150.72 198.224L150.72 199.137L151.72 199.137ZM154.008 197.905L153.24 197.265L153.225 197.282L153.212 197.3L154.008 197.905ZM154.272 192.449L155.104 191.894L155.098 191.885L155.091 191.875L154.272 192.449ZM150.664 192.801L149.783 192.329L149.776 192.341L149.77 192.354L150.664 192.801ZM149.388 196.629L148.419 196.382L148.418 196.386L149.388 196.629ZM145.824 203.933L145.188 203.161L145.176 203.171L145.164 203.182L145.824 203.933ZM141.952 205.253L141.952 206.253L141.961 206.253L141.97 206.253L141.952 205.253ZM138.168 204.065L138.747 203.25L138.74 203.245L138.733 203.24L138.168 204.065ZM135.528 200.721L134.609 201.115L134.613 201.124L135.528 200.721ZM135.604 195.661C135.604 193.785 135.935 192.137 136.574 190.699L134.746 189.887C133.977 191.616 133.604 193.547 133.604 195.661L135.604 195.661ZM136.567 190.713C137.241 189.258 138.127 188.132 139.214 187.304L138.002 185.713C136.625 186.763 135.545 188.16 134.753 189.873L136.567 190.713ZM139.202 187.313C140.282 186.516 141.461 186.088 142.759 186.011L142.641 184.015C140.947 184.114 139.398 184.683 138.014 185.704L139.202 187.313ZM141.7 185.013L141.7 191.217L143.7 191.217L143.7 185.013L141.7 185.013ZM142.576 190.225C141.357 190.377 140.347 190.98 139.579 191.967L141.157 193.195C141.621 192.598 142.166 192.291 142.824 192.209L142.576 190.225ZM139.568 191.981C138.801 193.004 138.444 194.236 138.444 195.617L140.444 195.617C140.444 194.592 140.703 193.801 141.168 193.181L139.568 191.981ZM138.444 195.617C138.444 196.907 138.699 198.053 139.339 198.933L140.957 197.757C140.658 197.346 140.444 196.674 140.444 195.617L138.444 195.617ZM139.327 198.916C139.957 199.822 140.848 200.357 141.952 200.357L141.952 198.357C141.589 198.357 141.278 198.218 140.969 197.774L139.327 198.916ZM141.952 200.357C142.53 200.357 143.08 200.203 143.559 199.868C144.031 199.538 144.373 199.075 144.619 198.546L142.805 197.704C142.669 197.996 142.528 198.149 142.413 198.23C142.305 198.305 142.166 198.357 141.952 198.357L141.952 200.357ZM144.6 198.585C145.063 197.692 145.525 196.328 145.998 194.555L144.066 194.039C143.6 195.786 143.182 196.974 142.824 197.665L144.6 198.585ZM146.004 194.532C146.438 192.74 146.879 191.294 147.324 190.18L145.468 189.437C144.974 190.671 144.506 192.216 144.06 194.062L146.004 194.532ZM147.321 190.188C147.729 189.193 148.355 188.321 149.212 187.568L147.892 186.066C146.813 187.014 146.001 188.137 145.471 189.429L147.321 190.188ZM149.199 187.579C149.939 186.952 150.991 186.585 152.468 186.585L152.468 184.585C150.659 184.585 149.101 185.039 147.905 186.054L149.199 187.579ZM152.468 186.585C153.616 186.585 154.651 186.905 155.599 187.554L156.729 185.904C155.448 185.027 154.019 184.585 152.468 184.585L152.468 186.585ZM155.585 187.544C156.533 188.218 157.308 189.182 157.892 190.482L159.716 189.663C159.009 188.089 158.024 186.824 156.743 185.914L155.585 187.544ZM157.889 190.476C158.467 191.79 158.772 193.364 158.772 195.221L160.772 195.221C160.772 193.147 160.432 191.289 159.719 189.67L157.889 190.476ZM158.772 195.221C158.772 197.956 158.084 200.022 156.809 201.526L158.335 202.819C159.993 200.862 160.772 198.294 160.772 195.221L158.772 195.221ZM156.803 201.534C155.558 203.033 153.87 203.877 151.649 204.035L151.791 206.03C154.498 205.837 156.712 204.774 158.341 202.812L156.803 201.534ZM152.72 205.033L152.72 199.137L150.72 199.137L150.72 205.033L152.72 205.033ZM151.811 200.133C153.041 200.021 154.067 199.48 154.804 198.51L153.212 197.3C152.835 197.796 152.335 198.077 151.629 198.141L151.811 200.133ZM154.776 198.545C155.554 197.612 155.888 196.408 155.888 195.045L153.888 195.045C153.888 196.088 153.635 196.79 153.24 197.265L154.776 198.545ZM155.888 195.045C155.888 193.826 155.667 192.738 155.104 191.894L153.44 193.004C153.699 193.392 153.888 194.034 153.888 195.045L155.888 195.045ZM155.091 191.875C154.488 191.014 153.606 190.569 152.556 190.569L152.556 192.569C152.972 192.569 153.235 192.711 153.453 193.022L155.091 191.875ZM152.556 190.569C151.97 190.569 151.414 190.718 150.921 191.039C150.435 191.355 150.063 191.805 149.783 192.329L151.545 193.273C151.705 192.976 151.868 192.809 152.013 192.715C152.151 192.625 152.321 192.569 152.556 192.569L152.556 190.569ZM149.77 192.354C149.309 193.274 148.863 194.634 148.419 196.382L150.357 196.875C150.793 195.162 151.197 193.971 151.558 193.248L149.77 192.354ZM148.418 196.386C147.985 198.119 147.544 199.521 147.099 200.605L148.949 201.364C149.443 200.161 149.911 198.659 150.358 196.871L148.418 196.386ZM147.099 200.605C146.695 201.59 146.064 202.44 145.188 203.161L146.46 204.705C147.579 203.783 148.414 202.668 148.949 201.364L147.099 200.605ZM145.164 203.182C144.415 203.84 143.372 204.227 141.934 204.253L141.97 206.253C143.759 206.22 145.297 205.727 146.484 204.684L145.164 203.182ZM141.952 204.253C140.745 204.253 139.687 203.918 138.747 203.25L137.589 204.88C138.878 205.796 140.343 206.253 141.952 206.253L141.952 204.253ZM138.733 203.24C137.799 202.601 137.028 201.646 136.443 200.318L134.613 201.124C135.319 202.729 136.308 204.004 137.603 204.89L138.733 203.24ZM136.447 200.327C135.896 199.04 135.604 197.493 135.604 195.661L133.604 195.661C133.604 197.701 133.928 199.527 134.609 201.115L136.447 200.327ZM153.832 210.177L154.296 209.291L154.285 209.286L153.832 210.177ZM158.232 214.225L157.376 214.742L157.376 214.742L158.232 214.225ZM158.716 224.433L157.818 223.994L157.814 224.001L157.811 224.009L158.716 224.433ZM155.988 227.865L155.391 227.063L152.967 228.865L155.988 228.865L155.988 227.865ZM167.56 227.865L168.56 227.865L168.56 226.865L167.56 226.865L167.56 227.865ZM167.56 234.113L167.56 235.113L168.56 235.113L168.56 234.113L167.56 234.113ZM135 234.113L134 234.113L134 235.113L135 235.113L135 234.113ZM135 227.865L135 226.865L134 226.865L134 227.865L135 227.865ZM138.608 227.865L138.608 228.865L142.052 228.865L139.144 227.021L138.608 227.865ZM135.704 224.653L136.587 224.184L136.587 224.184L135.704 224.653ZM136.188 214.225L137.038 214.753L137.038 214.753L136.188 214.225ZM140.632 210.177L140.185 209.283L140.177 209.287L140.168 209.291L140.632 210.177ZM151.016 227.029L150.54 226.15L150.53 226.155L151.016 227.029ZM153.48 224.653L152.618 224.146L152.612 224.156L152.607 224.166L153.48 224.653ZM153.524 218.273L154.391 217.774L154.391 217.774L153.524 218.273ZM151.06 215.897L151.554 215.028L151.546 215.023L151.06 215.897ZM143.404 215.897L142.938 215.013L142.924 215.02L142.91 215.028L143.404 215.897ZM140.896 218.273L140.041 217.755L140.034 217.766L140.896 218.273ZM140.852 224.653L139.979 225.141L139.984 225.151L139.99 225.16L140.852 224.653ZM143.316 227.029L142.83 227.904L142.84 227.909L143.316 227.029ZM147.276 209.725C149.607 209.725 151.633 210.182 153.379 211.069L154.285 209.286C152.218 208.236 149.873 207.725 147.276 207.725L147.276 209.725ZM153.368 211.064C155.127 211.983 156.452 213.21 157.376 214.742L159.088 213.709C157.959 211.838 156.35 210.366 154.295 209.291L153.368 211.064ZM157.376 214.742C158.304 216.28 158.772 217.992 158.772 219.901L160.772 219.901C160.772 217.646 160.214 215.574 159.088 213.709L157.376 214.742ZM158.772 219.901C158.772 221.331 158.456 222.692 157.818 223.994L159.614 224.873C160.384 223.301 160.772 221.64 160.772 219.901L158.772 219.901ZM157.811 224.009C157.198 225.314 156.388 226.322 155.391 227.063L156.585 228.668C157.876 227.708 158.885 226.428 159.621 224.858L157.811 224.009ZM155.988 228.865L167.56 228.865L167.56 226.865L155.988 226.865L155.988 228.865ZM166.56 227.865L166.56 234.113L168.56 234.113L168.56 227.865L166.56 227.865ZM167.56 233.113L135 233.113L135 235.113L167.56 235.113L167.56 233.113ZM136 234.113L136 227.865L134 227.865L134 234.113L136 234.113ZM135 228.865L138.608 228.865L138.608 226.865L135 226.865L135 228.865ZM139.144 227.021C138.101 226.36 137.247 225.425 136.587 224.184L134.821 225.123C135.628 226.639 136.71 227.846 138.072 228.71L139.144 227.021ZM136.587 224.184C135.942 222.972 135.604 221.539 135.604 219.857L133.604 219.857C133.604 221.813 133.999 223.578 134.821 225.123L136.587 224.184ZM135.604 219.857C135.604 217.985 136.083 216.292 137.038 214.753L135.338 213.698C134.181 215.562 133.604 217.623 133.604 219.857L135.604 219.857ZM137.038 214.753C137.992 213.215 139.335 211.984 141.095 211.064L140.168 209.291C138.116 210.365 136.496 211.833 135.338 213.698L137.038 214.753ZM141.079 211.072C142.857 210.183 144.914 209.725 147.276 209.725L147.276 207.725C144.651 207.725 142.279 208.236 140.185 209.283L141.079 211.072ZM147.188 228.909C148.814 228.909 150.266 228.59 151.502 227.904L150.53 226.155C149.654 226.642 148.554 226.909 147.188 226.909L147.188 228.909ZM151.492 227.909C152.73 227.24 153.696 226.318 154.353 225.141L152.607 224.166C152.15 224.984 151.473 225.646 150.54 226.15L151.492 227.909ZM154.342 225.16C155.018 224.011 155.36 222.766 155.36 221.441L153.36 221.441C153.36 222.405 153.115 223.301 152.618 224.146L154.342 225.16ZM155.36 221.441C155.36 220.127 155.038 218.898 154.391 217.774L152.657 218.772C153.125 219.585 153.36 220.468 153.36 221.441L155.36 221.441ZM154.391 217.774C153.734 216.634 152.775 215.721 151.554 215.028L150.566 216.767C151.515 217.306 152.199 217.977 152.657 218.772L154.391 217.774ZM151.546 215.023C150.312 214.338 148.876 214.017 147.276 214.017L147.276 216.017C148.609 216.017 149.696 216.283 150.574 216.772L151.546 215.023ZM147.276 214.017C145.674 214.017 144.218 214.339 142.938 215.013L143.87 216.782C144.819 216.283 145.945 216.017 147.276 216.017L147.276 214.017ZM142.91 215.028C141.692 215.719 140.725 216.626 140.041 217.755L141.751 218.792C142.24 217.984 142.945 217.308 143.898 216.767L142.91 215.028ZM140.034 217.766C139.361 218.911 139.016 220.142 139.016 221.441L141.016 221.441C141.016 220.512 141.258 219.63 141.758 218.78L140.034 217.766ZM139.016 221.441C139.016 222.756 139.338 223.995 139.979 225.141L141.725 224.166C141.251 223.318 141.016 222.415 141.016 221.441L139.016 221.441ZM139.99 225.16C140.671 226.318 141.626 227.234 142.83 227.904L143.802 226.155C142.894 225.651 142.206 224.983 141.714 224.146L139.99 225.16ZM142.84 227.909C144.1 228.59 145.561 228.909 147.188 228.909L147.188 226.909C145.823 226.909 144.703 226.642 143.792 226.15L142.84 227.909ZM153.832 239.998L154.296 239.112L154.285 239.106L153.832 239.998ZM158.232 244.002L159.088 243.485L159.084 243.478L158.232 244.002ZM158.672 254.43L157.793 253.952L157.789 253.96L158.672 254.43ZM155.9 257.73L155.307 256.925L152.857 258.73L155.9 258.73L155.9 257.73ZM159.376 257.73L160.376 257.73L160.376 256.73L159.376 256.73L159.376 257.73ZM159.376 263.934L159.376 264.934L160.376 264.934L160.376 263.934L159.376 263.934ZM135 263.934L134 263.934L134 264.934L135 264.934L135 263.934ZM135 257.73L135 256.73L134 256.73L134 257.73L135 257.73ZM138.564 257.73L138.564 258.73L141.765 258.73L139.133 256.908L138.564 257.73ZM135.704 254.43L134.821 254.899L134.825 254.906L135.704 254.43ZM136.188 244.002L135.342 243.468L135.338 243.474L136.188 244.002ZM140.632 239.998L140.185 239.103L140.177 239.107L140.168 239.112L140.632 239.998ZM151.016 256.85L150.54 255.97L150.53 255.976L151.016 256.85ZM153.48 254.474L152.618 253.967L152.612 253.976L152.607 253.986L153.48 254.474ZM153.524 248.094L154.391 247.595L154.391 247.595L153.524 248.094ZM151.06 245.718L151.554 244.848L151.546 244.844L151.06 245.718ZM143.404 245.718L142.938 244.833L142.924 244.84L142.91 244.848L143.404 245.718ZM140.896 248.094L140.041 247.575L140.034 247.587L140.896 248.094ZM140.852 254.474L139.979 254.962L139.984 254.971L139.99 254.981L140.852 254.474ZM143.316 256.85L142.83 257.724L142.84 257.729L143.316 256.85ZM147.276 239.546C149.607 239.546 151.633 240.003 153.379 240.889L154.285 239.106C152.218 238.057 149.873 237.546 147.276 237.546L147.276 239.546ZM153.368 240.884C155.131 241.806 156.457 243.021 157.38 244.525L159.084 243.478C157.954 241.638 156.346 240.184 154.295 239.112L153.368 240.884ZM157.376 244.518C158.304 246.056 158.772 247.768 158.772 249.678L160.772 249.678C160.772 247.422 160.214 245.35 159.088 243.485L157.376 244.518ZM158.772 249.678C158.772 251.36 158.434 252.774 157.793 253.952L159.551 254.907C160.377 253.387 160.772 251.632 160.772 249.678L158.772 249.678ZM157.789 253.96C157.117 255.224 156.286 256.203 155.307 256.925L156.493 258.535C157.743 257.614 158.76 256.393 159.555 254.899L157.789 253.96ZM155.9 258.73L159.376 258.73L159.376 256.73L155.9 256.73L155.9 258.73ZM158.376 257.73L158.376 263.934L160.376 263.934L160.376 257.73L158.376 257.73ZM159.376 262.934L135 262.934L135 264.934L159.376 264.934L159.376 262.934ZM136 263.934L136 257.73L134 257.73L134 263.934L136 263.934ZM135 258.73L138.564 258.73L138.564 256.73L135 256.73L135 258.73ZM139.133 256.908C138.136 256.218 137.282 255.244 136.583 253.953L134.825 254.906C135.651 256.431 136.703 257.658 137.995 258.552L139.133 256.908ZM136.587 253.96C135.942 252.748 135.604 251.316 135.604 249.634L133.604 249.634C133.604 251.589 133.999 253.354 134.821 254.899L136.587 253.96ZM135.604 249.634C135.604 247.762 136.083 246.068 137.038 244.529L135.338 243.474C134.181 245.338 133.604 247.399 133.604 249.634L135.604 249.634ZM137.033 244.536C137.987 243.026 139.331 241.807 141.095 240.884L140.168 239.112C138.12 240.183 136.501 241.634 135.343 243.468L137.033 244.536ZM141.079 240.892C142.857 240.003 144.914 239.546 147.276 239.546L147.276 237.546C144.651 237.546 142.279 238.056 140.185 239.103L141.079 240.892ZM147.188 258.73C148.814 258.73 150.266 258.411 151.502 257.724L150.53 255.976C149.654 256.462 148.554 256.73 147.188 256.73L147.188 258.73ZM151.492 257.729C152.73 257.06 153.696 256.138 154.353 254.962L152.607 253.986C152.15 254.804 151.473 255.466 150.54 255.97L151.492 257.729ZM154.342 254.981C155.018 253.832 155.36 252.586 155.36 251.262L153.36 251.262C153.36 252.225 153.115 253.121 152.618 253.967L154.342 254.981ZM155.36 251.262C155.36 249.947 155.038 248.718 154.391 247.595L152.657 248.593C153.125 249.405 153.36 250.288 153.36 251.262L155.36 251.262ZM154.391 247.595C153.734 246.455 152.775 245.542 151.554 244.848L150.566 246.587C151.515 247.126 152.199 247.797 152.657 248.593L154.391 247.595ZM151.546 244.844C150.312 244.158 148.876 243.838 147.276 243.838L147.276 245.838C148.609 245.838 149.696 246.104 150.574 246.592L151.546 244.844ZM147.276 243.838C145.674 243.838 144.218 244.159 142.938 244.833L143.87 246.603C144.819 246.103 145.945 245.838 147.276 245.838L147.276 243.838ZM142.91 244.848C141.692 245.54 140.725 246.447 140.041 247.575L141.751 248.612C142.24 247.805 142.945 247.128 143.898 246.587L142.91 244.848ZM140.034 247.587C139.361 248.732 139.016 249.962 139.016 251.262L141.016 251.262C141.016 250.332 141.258 249.451 141.758 248.601L140.034 247.587ZM139.016 251.262C139.016 252.576 139.338 253.815 139.979 254.962L141.725 253.986C141.251 253.138 141.016 252.235 141.016 251.262L139.016 251.262ZM139.99 254.981C140.671 256.139 141.626 257.055 142.83 257.724L143.802 255.976C142.894 255.472 142.206 254.803 141.714 253.967L139.99 254.981ZM142.84 257.729C144.1 258.41 145.561 258.73 147.188 258.73L147.188 256.73C145.823 256.73 144.703 256.463 143.792 255.97L142.84 257.729ZM159.376 293.27L158.988 294.192L160.376 294.775L160.376 293.27L159.376 293.27ZM123.472 278.178L122.472 278.178L122.472 278.842L123.084 279.1L123.472 278.178ZM123.472 271.622L123.871 270.705L122.472 270.097L122.472 271.622L123.472 271.622ZM135.616 276.902L135.217 277.819L135.605 277.988L135.996 277.827L135.616 276.902ZM159.376 267.134L160.376 267.134L160.376 265.642L158.996 266.209L159.376 267.134ZM159.376 274.042L159.723 274.98L160.376 274.739L160.376 274.042L159.376 274.042ZM142.348 280.334L142.001 279.396L139.48 280.328L141.997 281.27L142.348 280.334ZM159.376 286.714L160.376 286.714L160.376 286.021L159.727 285.778L159.376 286.714ZM159.763 292.348L123.859 277.256L123.084 279.1L158.988 294.192L159.763 292.348ZM124.472 278.178L124.472 271.622L122.472 271.622L122.472 278.178L124.472 278.178ZM123.073 272.539L135.217 277.819L136.015 275.985L123.871 270.705L123.073 272.539ZM135.996 277.827L159.756 268.059L158.996 266.209L135.236 275.977L135.996 277.827ZM158.376 267.134L158.376 274.042L160.376 274.042L160.376 267.134L158.376 267.134ZM159.029 273.104L142.001 279.396L142.695 281.272L159.723 274.98L159.029 273.104ZM141.997 281.27L159.025 287.65L159.727 285.778L142.699 279.398L141.997 281.27ZM158.376 286.714L158.376 293.27L160.376 293.27L160.376 286.714L158.376 286.714Z" fill="white"></path> </svg> 