<?xml version="1.0" encoding="UTF-8"?> <svg xmlns="http://www.w3.org/2000/svg" width="189" height="317" viewBox="0 0 189 317" fill="none"> <rect width="189" height="317" rx="9" fill="#5AE79B"></rect> <path d="M30.19 39L25.024 33.276V39H23.386V26.454H25.024V32.268L30.208 26.454H32.278L26.59 32.736L32.332 39H30.19ZM42.5494 30.126C42.5494 31.17 42.1894 32.04 41.4694 32.736C40.7614 33.42 39.6754 33.762 38.2114 33.762H35.7994V39H34.1614V26.454H38.2114C39.6274 26.454 40.7014 26.796 41.4334 27.48C42.1774 28.164 42.5494 29.046 42.5494 30.126ZM38.2114 32.412C39.1234 32.412 39.7954 32.214 40.2274 31.818C40.6594 31.422 40.8754 30.858 40.8754 30.126C40.8754 28.578 39.9874 27.804 38.2114 27.804H35.7994V32.412H38.2114ZM51.3892 39L46.2232 33.276V39H44.5852V26.454H46.2232V32.268L51.4072 26.454H53.4772L47.7892 32.736L53.5312 39H51.3892Z" fill="white"></path> <path d="M32.89 72.09C32.542 71.358 32.038 70.794 31.378 70.398C30.718 69.99 29.95 69.786 29.074 69.786C28.198 69.786 27.406 69.99 26.698 70.398C26.002 70.794 25.45 71.37 25.042 72.126C24.646 72.87 24.448 73.734 24.448 74.718C24.448 75.702 24.646 76.566 25.042 77.31C25.45 78.054 26.002 78.63 26.698 79.038C27.406 79.434 28.198 79.632 29.074 79.632C30.298 79.632 31.306 79.266 32.098 78.534C32.89 77.802 33.352 76.812 33.484 75.564H28.48V74.232H35.23V75.492C35.134 76.524 34.81 77.472 34.258 78.336C33.706 79.188 32.98 79.866 32.08 80.37C31.18 80.862 30.178 81.108 29.074 81.108C27.91 81.108 26.848 80.838 25.888 80.298C24.928 79.746 24.166 78.984 23.602 78.012C23.05 77.04 22.774 75.942 22.774 74.718C22.774 73.494 23.05 72.396 23.602 71.424C24.166 70.44 24.928 69.678 25.888 69.138C26.848 68.586 27.91 68.31 29.074 68.31C30.406 68.31 31.582 68.64 32.602 69.3C33.634 69.96 34.384 70.89 34.852 72.09H32.89ZM46.3958 75.69C46.3958 76.002 46.3778 76.332 46.3418 76.68H38.4578C38.5178 77.652 38.8478 78.414 39.4478 78.966C40.0598 79.506 40.7978 79.776 41.6618 79.776C42.3698 79.776 42.9578 79.614 43.4258 79.29C43.9058 78.954 44.2418 78.51 44.4338 77.958H46.1978C45.9338 78.906 45.4058 79.68 44.6138 80.28C43.8218 80.868 42.8378 81.162 41.6618 81.162C40.7258 81.162 39.8858 80.952 39.1418 80.532C38.4098 80.112 37.8338 79.518 37.4138 78.75C36.9938 77.97 36.7838 77.07 36.7838 76.05C36.7838 75.03 36.9878 74.136 37.3958 73.368C37.8038 72.6 38.3738 72.012 39.1058 71.604C39.8498 71.184 40.7018 70.974 41.6618 70.974C42.5978 70.974 43.4258 71.178 44.1458 71.586C44.8658 71.994 45.4178 72.558 45.8018 73.278C46.1978 73.986 46.3958 74.79 46.3958 75.69ZM44.7038 75.348C44.7038 74.724 44.5658 74.19 44.2898 73.746C44.0138 73.29 43.6358 72.948 43.1558 72.72C42.6878 72.48 42.1658 72.36 41.5898 72.36C40.7618 72.36 40.0538 72.624 39.4658 73.152C38.8898 73.68 38.5598 74.412 38.4758 75.348H44.7038ZM52.8599 81.162C51.9359 81.162 51.0959 80.952 50.3399 80.532C49.5959 80.112 49.0079 79.518 48.5759 78.75C48.1559 77.97 47.9459 77.07 47.9459 76.05C47.9459 75.042 48.1619 74.154 48.5939 73.386C49.0379 72.606 49.6379 72.012 50.3939 71.604C51.1499 71.184 51.9959 70.974 52.9319 70.974C53.8679 70.974 54.7139 71.184 55.4699 71.604C56.2259 72.012 56.8199 72.6 57.2519 73.368C57.6959 74.136 57.9179 75.03 57.9179 76.05C57.9179 77.07 57.6899 77.97 57.2339 78.75C56.7899 79.518 56.1839 80.112 55.4159 80.532C54.6479 80.952 53.7959 81.162 52.8599 81.162ZM52.8599 79.722C53.4479 79.722 53.9999 79.584 54.5159 79.308C55.0319 79.032 55.4459 78.618 55.7579 78.066C56.0819 77.514 56.2439 76.842 56.2439 76.05C56.2439 75.258 56.0879 74.586 55.7759 74.034C55.4639 73.482 55.0559 73.074 54.5519 72.81C54.0479 72.534 53.5019 72.396 52.9139 72.396C52.3139 72.396 51.7619 72.534 51.2579 72.81C50.7659 73.074 50.3699 73.482 50.0699 74.034C49.7699 74.586 49.6199 75.258 49.6199 76.05C49.6199 76.854 49.7639 77.532 50.0519 78.084C50.3519 78.636 50.7479 79.05 51.2399 79.326C51.7319 79.59 52.2719 79.722 52.8599 79.722ZM71.9335 70.956C72.7015 70.956 73.3855 71.118 73.9855 71.442C74.5855 71.754 75.0595 72.228 75.4075 72.864C75.7555 73.5 75.9295 74.274 75.9295 75.186V81H74.3095V75.42C74.3095 74.436 74.0635 73.686 73.5715 73.17C73.0915 72.642 72.4375 72.378 71.6095 72.378C70.7575 72.378 70.0795 72.654 69.5755 73.206C69.0715 73.746 68.8195 74.532 68.8195 75.564V81H67.1995V75.42C67.1995 74.436 66.9535 73.686 66.4615 73.17C65.9815 72.642 65.3275 72.378 64.4995 72.378C63.6475 72.378 62.9695 72.654 62.4655 73.206C61.9615 73.746 61.7095 74.532 61.7095 75.564V81H60.0715V71.136H61.7095V72.558C62.0335 72.042 62.4655 71.646 63.0055 71.37C63.5575 71.094 64.1635 70.956 64.8235 70.956C65.6515 70.956 66.3835 71.142 67.0195 71.514C67.6555 71.886 68.1295 72.432 68.4415 73.152C68.7175 72.456 69.1735 71.916 69.8095 71.532C70.4455 71.148 71.1535 70.956 71.9335 70.956ZM87.6165 75.69C87.6165 76.002 87.5985 76.332 87.5625 76.68H79.6785C79.7385 77.652 80.0685 78.414 80.6685 78.966C81.2805 79.506 82.0185 79.776 82.8825 79.776C83.5905 79.776 84.1785 79.614 84.6465 79.29C85.1265 78.954 85.4625 78.51 85.6545 77.958H87.4185C87.1545 78.906 86.6265 79.68 85.8345 80.28C85.0425 80.868 84.0585 81.162 82.8825 81.162C81.9465 81.162 81.1065 80.952 80.3625 80.532C79.6305 80.112 79.0545 79.518 78.6345 78.75C78.2145 77.97 78.0045 77.07 78.0045 76.05C78.0045 75.03 78.2085 74.136 78.6165 73.368C79.0245 72.6 79.5945 72.012 80.3265 71.604C81.0705 71.184 81.9225 70.974 82.8825 70.974C83.8185 70.974 84.6465 71.178 85.3665 71.586C86.0865 71.994 86.6385 72.558 87.0225 73.278C87.4185 73.986 87.6165 74.79 87.6165 75.69ZM85.9245 75.348C85.9245 74.724 85.7865 74.19 85.5105 73.746C85.2345 73.29 84.8565 72.948 84.3765 72.72C83.9085 72.48 83.3865 72.36 82.8105 72.36C81.9825 72.36 81.2745 72.624 80.6865 73.152C80.1105 73.68 79.7805 74.412 79.6965 75.348H85.9245ZM91.7766 72.486V78.3C91.7766 78.78 91.8786 79.122 92.0826 79.326C92.2866 79.518 92.6406 79.614 93.1446 79.614H94.3506V81H92.8746C91.9626 81 91.2786 80.79 90.8226 80.37C90.3666 79.95 90.1386 79.26 90.1386 78.3V72.486H88.8606V71.136H90.1386V68.652H91.7766V71.136H94.3506V72.486H91.7766ZM97.9732 72.738C98.2612 72.174 98.6692 71.736 99.1972 71.424C99.7372 71.112 100.391 70.956 101.159 70.956V72.648H100.727C98.8912 72.648 97.9732 73.644 97.9732 75.636V81H96.3352V71.136H97.9732V72.738ZM111.546 71.136L105.606 85.644H103.914L105.858 80.892L101.88 71.136H103.698L106.794 79.128L109.854 71.136H111.546Z" fill="white"></path> <path d="M29.992 123L27.004 117.87H25.024V123H23.386V110.454H27.436C28.384 110.454 29.182 110.616 29.83 110.94C30.49 111.264 30.982 111.702 31.306 112.254C31.63 112.806 31.792 113.436 31.792 114.144C31.792 115.008 31.54 115.77 31.036 116.43C30.544 117.09 29.8 117.528 28.804 117.744L31.954 123H29.992ZM25.024 116.556H27.436C28.324 116.556 28.99 116.34 29.434 115.908C29.878 115.464 30.1 114.876 30.1 114.144C30.1 113.4 29.878 112.824 29.434 112.416C29.002 112.008 28.336 111.804 27.436 111.804H25.024V116.556ZM43.0852 113.136V123H41.4472V121.542C41.1352 122.046 40.6972 122.442 40.1332 122.73C39.5812 123.006 38.9692 123.144 38.2972 123.144C37.5292 123.144 36.8392 122.988 36.2272 122.676C35.6152 122.352 35.1292 121.872 34.7692 121.236C34.4212 120.6 34.2472 119.826 34.2472 118.914V113.136H35.8672V118.698C35.8672 119.67 36.1132 120.42 36.6052 120.948C37.0972 121.464 37.7692 121.722 38.6212 121.722C39.4972 121.722 40.1872 121.452 40.6912 120.912C41.1952 120.372 41.4472 119.586 41.4472 118.554V113.136H43.0852ZM49.3428 123.162C48.5868 123.162 47.9088 123.036 47.3088 122.784C46.7088 122.52 46.2348 122.16 45.8868 121.704C45.5388 121.236 45.3468 120.702 45.3108 120.102H47.0028C47.0508 120.594 47.2788 120.996 47.6868 121.308C48.1068 121.62 48.6528 121.776 49.3248 121.776C49.9488 121.776 50.4408 121.638 50.8008 121.362C51.1608 121.086 51.3408 120.738 51.3408 120.318C51.3408 119.886 51.1488 119.568 50.7648 119.364C50.3808 119.148 49.7868 118.938 48.9828 118.734C48.2508 118.542 47.6508 118.35 47.1828 118.158C46.7268 117.954 46.3308 117.66 45.9948 117.276C45.6708 116.88 45.5088 116.364 45.5088 115.728C45.5088 115.224 45.6588 114.762 45.9588 114.342C46.2588 113.922 46.6848 113.592 47.2368 113.352C47.7888 113.1 48.4188 112.974 49.1268 112.974C50.2188 112.974 51.1008 113.25 51.7728 113.802C52.4448 114.354 52.8048 115.11 52.8528 116.07H51.2148C51.1788 115.554 50.9688 115.14 50.5848 114.828C50.2128 114.516 49.7088 114.36 49.0728 114.36C48.4848 114.36 48.0168 114.486 47.6688 114.738C47.3208 114.99 47.1468 115.32 47.1468 115.728C47.1468 116.052 47.2488 116.322 47.4528 116.538C47.6688 116.742 47.9328 116.91 48.2448 117.042C48.5688 117.162 49.0128 117.3 49.5768 117.456C50.2848 117.648 50.8608 117.84 51.3048 118.032C51.7488 118.212 52.1268 118.488 52.4388 118.86C52.7628 119.232 52.9308 119.718 52.9428 120.318C52.9428 120.858 52.7928 121.344 52.4928 121.776C52.1928 122.208 51.7668 122.55 51.2148 122.802C50.6748 123.042 50.0508 123.162 49.3428 123.162ZM58.7471 123.162C57.9911 123.162 57.3131 123.036 56.7131 122.784C56.1131 122.52 55.6391 122.16 55.2911 121.704C54.9431 121.236 54.7511 120.702 54.7151 120.102H56.4071C56.4551 120.594 56.6831 120.996 57.0911 121.308C57.5111 121.62 58.0571 121.776 58.7291 121.776C59.3531 121.776 59.8451 121.638 60.2051 121.362C60.5651 121.086 60.7451 120.738 60.7451 120.318C60.7451 119.886 60.5531 119.568 60.1691 119.364C59.7851 119.148 59.1911 118.938 58.3871 118.734C57.6551 118.542 57.0551 118.35 56.5871 118.158C56.1311 117.954 55.7351 117.66 55.3991 117.276C55.0751 116.88 54.9131 116.364 54.9131 115.728C54.9131 115.224 55.0631 114.762 55.3631 114.342C55.6631 113.922 56.0891 113.592 56.6411 113.352C57.1931 113.1 57.8231 112.974 58.5311 112.974C59.6231 112.974 60.5051 113.25 61.1771 113.802C61.8491 114.354 62.2091 115.11 62.2571 116.07H60.6191C60.5831 115.554 60.3731 115.14 59.9891 114.828C59.6171 114.516 59.1131 114.36 58.4771 114.36C57.8891 114.36 57.4211 114.486 57.0731 114.738C56.7251 114.99 56.5511 115.32 56.5511 115.728C56.5511 116.052 56.6531 116.322 56.8571 116.538C57.0731 116.742 57.3371 116.91 57.6491 117.042C57.9731 117.162 58.4171 117.3 58.9811 117.456C59.6891 117.648 60.2651 117.84 60.7091 118.032C61.1531 118.212 61.5311 118.488 61.8431 118.86C62.1671 119.232 62.3351 119.718 62.3471 120.318C62.3471 120.858 62.1971 121.344 61.8971 121.776C61.5971 122.208 61.1711 122.55 60.6191 122.802C60.0791 123.042 59.4551 123.162 58.7471 123.162ZM65.5054 111.534C65.1934 111.534 64.9294 111.426 64.7134 111.21C64.4974 110.994 64.3894 110.73 64.3894 110.418C64.3894 110.106 64.4974 109.842 64.7134 109.626C64.9294 109.41 65.1934 109.302 65.5054 109.302C65.8054 109.302 66.0574 109.41 66.2614 109.626C66.4774 109.842 66.5854 110.106 66.5854 110.418C66.5854 110.73 66.4774 110.994 66.2614 111.21C66.0574 111.426 65.8054 111.534 65.5054 111.534ZM66.2974 113.136V123H64.6594V113.136H66.2974ZM68.4771 118.032C68.4771 117.024 68.6811 116.142 69.0891 115.386C69.4971 114.618 70.0551 114.024 70.7631 113.604C71.4831 113.184 72.2811 112.974 73.1571 112.974C74.0211 112.974 74.7711 113.16 75.4071 113.532C76.0431 113.904 76.5171 114.372 76.8291 114.936V113.136H78.4851V123H76.8291V121.164C76.5051 121.74 76.0191 122.22 75.3711 122.604C74.7351 122.976 73.9911 123.162 73.1391 123.162C72.2631 123.162 71.4711 122.946 70.7631 122.514C70.0551 122.082 69.4971 121.476 69.0891 120.696C68.6811 119.916 68.4771 119.028 68.4771 118.032ZM76.8291 118.05C76.8291 117.306 76.6791 116.658 76.3791 116.106C76.0791 115.554 75.6711 115.134 75.1551 114.846C74.6511 114.546 74.0931 114.396 73.4811 114.396C72.8691 114.396 72.3111 114.54 71.8071 114.828C71.3031 115.116 70.9011 115.536 70.6011 116.088C70.3011 116.64 70.1511 117.288 70.1511 118.032C70.1511 118.788 70.3011 119.448 70.6011 120.012C70.9011 120.564 71.3031 120.99 71.8071 121.29C72.3111 121.578 72.8691 121.722 73.4811 121.722C74.0931 121.722 74.6511 121.578 75.1551 121.29C75.6711 120.99 76.0791 120.564 76.3791 120.012C76.6791 119.448 76.8291 118.794 76.8291 118.05ZM86.0592 112.956C87.2592 112.956 88.2312 113.322 88.9752 114.054C89.7192 114.774 90.0912 115.818 90.0912 117.186V123H88.4712V117.42C88.4712 116.436 88.2252 115.686 87.7332 115.17C87.2412 114.642 86.5692 114.378 85.7172 114.378C84.8532 114.378 84.1632 114.648 83.6472 115.188C83.1432 115.728 82.8912 116.514 82.8912 117.546V123H81.2532V113.136H82.8912V114.54C83.2152 114.036 83.6532 113.646 84.2052 113.37C84.7692 113.094 85.3872 112.956 86.0592 112.956Z" fill="white"></path> <path d="M25.024 153.786V157.98H29.596V159.33H25.024V163.65H30.136V165H23.386V152.436H30.136V153.786H25.024ZM37.4205 154.956C38.6205 154.956 39.5925 155.322 40.3365 156.054C41.0805 156.774 41.4525 157.818 41.4525 159.186V165H39.8325V159.42C39.8325 158.436 39.5865 157.686 39.0945 157.17C38.6025 156.642 37.9305 156.378 37.0785 156.378C36.2145 156.378 35.5245 156.648 35.0085 157.188C34.5045 157.728 34.2525 158.514 34.2525 159.546V165H32.6145V155.136H34.2525V156.54C34.5765 156.036 35.0145 155.646 35.5665 155.37C36.1305 155.094 36.7485 154.956 37.4205 154.956ZM48.1962 154.974C49.0482 154.974 49.7922 155.16 50.4282 155.532C51.0762 155.904 51.5562 156.372 51.8682 156.936V155.136H53.5242V165.216C53.5242 166.116 53.3322 166.914 52.9482 167.61C52.5642 168.318 52.0122 168.87 51.2922 169.266C50.5842 169.662 49.7562 169.86 48.8082 169.86C47.5122 169.86 46.4322 169.554 45.5682 168.942C44.7042 168.33 44.1942 167.496 44.0382 166.44H45.6582C45.8382 167.04 46.2102 167.52 46.7742 167.88C47.3382 168.252 48.0162 168.438 48.8082 168.438C49.7082 168.438 50.4402 168.156 51.0042 167.592C51.5802 167.028 51.8682 166.236 51.8682 165.216V163.146C51.5442 163.722 51.0642 164.202 50.4282 164.586C49.7922 164.97 49.0482 165.162 48.1962 165.162C47.3202 165.162 46.5222 164.946 45.8022 164.514C45.0942 164.082 44.5362 163.476 44.1282 162.696C43.7202 161.916 43.5162 161.028 43.5162 160.032C43.5162 159.024 43.7202 158.142 44.1282 157.386C44.5362 156.618 45.0942 156.024 45.8022 155.604C46.5222 155.184 47.3202 154.974 48.1962 154.974ZM51.8682 160.05C51.8682 159.306 51.7182 158.658 51.4182 158.106C51.1182 157.554 50.7102 157.134 50.1942 156.846C49.6902 156.546 49.1322 156.396 48.5202 156.396C47.9082 156.396 47.3502 156.54 46.8462 156.828C46.3422 157.116 45.9402 157.536 45.6402 158.088C45.3402 158.64 45.1902 159.288 45.1902 160.032C45.1902 160.788 45.3402 161.448 45.6402 162.012C45.9402 162.564 46.3422 162.99 46.8462 163.29C47.3502 163.578 47.9082 163.722 48.5202 163.722C49.1322 163.722 49.6902 163.578 50.1942 163.29C50.7102 162.99 51.1182 162.564 51.4182 162.012C51.7182 161.448 51.8682 160.794 51.8682 160.05ZM57.9303 151.68V165H56.2923V151.68H57.9303ZM61.5679 153.534C61.2559 153.534 60.9919 153.426 60.7759 153.21C60.5599 152.994 60.4519 152.73 60.4519 152.418C60.4519 152.106 60.5599 151.842 60.7759 151.626C60.9919 151.41 61.2559 151.302 61.5679 151.302C61.8679 151.302 62.1199 151.41 62.3239 151.626C62.5399 151.842 62.6479 152.106 62.6479 152.418C62.6479 152.73 62.5399 152.994 62.3239 153.21C62.1199 153.426 61.8679 153.534 61.5679 153.534ZM62.3599 155.136V165H60.7219V155.136H62.3599ZM68.6436 165.162C67.8876 165.162 67.2096 165.036 66.6096 164.784C66.0096 164.52 65.5356 164.16 65.1876 163.704C64.8396 163.236 64.6476 162.702 64.6116 162.102H66.3036C66.3516 162.594 66.5796 162.996 66.9876 163.308C67.4076 163.62 67.9536 163.776 68.6256 163.776C69.2496 163.776 69.7416 163.638 70.1016 163.362C70.4616 163.086 70.6416 162.738 70.6416 162.318C70.6416 161.886 70.4496 161.568 70.0656 161.364C69.6816 161.148 69.0876 160.938 68.2836 160.734C67.5516 160.542 66.9516 160.35 66.4836 160.158C66.0276 159.954 65.6316 159.66 65.2956 159.276C64.9716 158.88 64.8096 158.364 64.8096 157.728C64.8096 157.224 64.9596 156.762 65.2596 156.342C65.5596 155.922 65.9856 155.592 66.5376 155.352C67.0896 155.1 67.7196 154.974 68.4276 154.974C69.5196 154.974 70.4016 155.25 71.0736 155.802C71.7456 156.354 72.1056 157.11 72.1536 158.07H70.5156C70.4796 157.554 70.2696 157.14 69.8856 156.828C69.5136 156.516 69.0096 156.36 68.3736 156.36C67.7856 156.36 67.3176 156.486 66.9696 156.738C66.6216 156.99 66.4476 157.32 66.4476 157.728C66.4476 158.052 66.5496 158.322 66.7536 158.538C66.9696 158.742 67.2336 158.91 67.5456 159.042C67.8696 159.162 68.3136 159.3 68.8776 159.456C69.5856 159.648 70.1616 159.84 70.6056 160.032C71.0496 160.212 71.4276 160.488 71.7396 160.86C72.0636 161.232 72.2316 161.718 72.2436 162.318C72.2436 162.858 72.0936 163.344 71.7936 163.776C71.4936 164.208 71.0676 164.55 70.5156 164.802C69.9756 165.042 69.3516 165.162 68.6436 165.162ZM79.4519 154.956C80.1959 154.956 80.8679 155.118 81.4679 155.442C82.0679 155.754 82.5359 156.228 82.8719 156.864C83.2199 157.5 83.3939 158.274 83.3939 159.186V165H81.7739V159.42C81.7739 158.436 81.5279 157.686 81.0359 157.17C80.5439 156.642 79.8719 156.378 79.0199 156.378C78.1559 156.378 77.4659 156.648 76.9499 157.188C76.4459 157.728 76.1939 158.514 76.1939 159.546V165H74.5559V151.68H76.1939V156.54C76.5179 156.036 76.9619 155.646 77.5259 155.37C78.1019 155.094 78.7439 154.956 79.4519 154.956Z" fill="white"></path> <path d="M27.364 207.126C26.536 207.126 25.792 206.982 25.132 206.694C24.484 206.394 23.974 205.986 23.602 205.47C23.23 204.942 23.038 204.336 23.026 203.652H24.772C24.832 204.24 25.072 204.738 25.492 205.146C25.924 205.542 26.548 205.74 27.364 205.74C28.144 205.74 28.756 205.548 29.2 205.164C29.656 204.768 29.884 204.264 29.884 203.652C29.884 203.172 29.752 202.782 29.488 202.482C29.224 202.182 28.894 201.954 28.498 201.798C28.102 201.642 27.568 201.474 26.896 201.294C26.068 201.078 25.402 200.862 24.898 200.646C24.406 200.43 23.98 200.094 23.62 199.638C23.272 199.17 23.098 198.546 23.098 197.766C23.098 197.082 23.272 196.476 23.62 195.948C23.968 195.42 24.454 195.012 25.078 194.724C25.714 194.436 26.44 194.292 27.256 194.292C28.432 194.292 29.392 194.586 30.136 195.174C30.892 195.762 31.318 196.542 31.414 197.514H29.614C29.554 197.034 29.302 196.614 28.858 196.254C28.414 195.882 27.826 195.696 27.094 195.696C26.41 195.696 25.852 195.876 25.42 196.236C24.988 196.584 24.772 197.076 24.772 197.712C24.772 198.168 24.898 198.54 25.15 198.828C25.414 199.116 25.732 199.338 26.104 199.494C26.488 199.638 27.022 199.806 27.706 199.998C28.534 200.226 29.2 200.454 29.704 200.682C30.208 200.898 30.64 201.24 31 201.708C31.36 202.164 31.54 202.788 31.54 203.58C31.54 204.192 31.378 204.768 31.054 205.308C30.73 205.848 30.25 206.286 29.614 206.622C28.978 206.958 28.228 207.126 27.364 207.126ZM38.2525 207.162C37.3285 207.162 36.4885 206.952 35.7325 206.532C34.9885 206.112 34.4005 205.518 33.9685 204.75C33.5485 203.97 33.3385 203.07 33.3385 202.05C33.3385 201.042 33.5545 200.154 33.9865 199.386C34.4305 198.606 35.0305 198.012 35.7865 197.604C36.5425 197.184 37.3885 196.974 38.3245 196.974C39.2605 196.974 40.1065 197.184 40.8625 197.604C41.6185 198.012 42.2125 198.6 42.6445 199.368C43.0885 200.136 43.3105 201.03 43.3105 202.05C43.3105 203.07 43.0825 203.97 42.6265 204.75C42.1825 205.518 41.5765 206.112 40.8085 206.532C40.0405 206.952 39.1885 207.162 38.2525 207.162ZM38.2525 205.722C38.8405 205.722 39.3925 205.584 39.9085 205.308C40.4245 205.032 40.8385 204.618 41.1505 204.066C41.4745 203.514 41.6365 202.842 41.6365 202.05C41.6365 201.258 41.4805 200.586 41.1685 200.034C40.8565 199.482 40.4485 199.074 39.9445 198.81C39.4405 198.534 38.8945 198.396 38.3065 198.396C37.7065 198.396 37.1545 198.534 36.6505 198.81C36.1585 199.074 35.7625 199.482 35.4625 200.034C35.1625 200.586 35.0125 201.258 35.0125 202.05C35.0125 202.854 35.1565 203.532 35.4445 204.084C35.7445 204.636 36.1405 205.05 36.6325 205.326C37.1245 205.59 37.6645 205.722 38.2525 205.722ZM44.8521 202.05C44.8521 201.03 45.0561 200.142 45.4641 199.386C45.8721 198.618 46.4361 198.024 47.1561 197.604C47.8881 197.184 48.7221 196.974 49.6581 196.974C50.8701 196.974 51.8661 197.268 52.6461 197.856C53.4381 198.444 53.9601 199.26 54.2121 200.304H52.4481C52.2801 199.704 51.9501 199.23 51.4581 198.882C50.9781 198.534 50.3781 198.36 49.6581 198.36C48.7221 198.36 47.9661 198.684 47.3901 199.332C46.8141 199.968 46.5261 200.874 46.5261 202.05C46.5261 203.238 46.8141 204.156 47.3901 204.804C47.9661 205.452 48.7221 205.776 49.6581 205.776C50.3781 205.776 50.9781 205.608 51.4581 205.272C51.9381 204.936 52.2681 204.456 52.4481 203.832H54.2121C53.9481 204.84 53.4201 205.65 52.6281 206.262C51.8361 206.862 50.8461 207.162 49.6581 207.162C48.7221 207.162 47.8881 206.952 47.1561 206.532C46.4361 206.112 45.8721 205.518 45.4641 204.75C45.0561 203.982 44.8521 203.082 44.8521 202.05ZM57.2437 195.534C56.9317 195.534 56.6677 195.426 56.4517 195.21C56.2357 194.994 56.1277 194.73 56.1277 194.418C56.1277 194.106 56.2357 193.842 56.4517 193.626C56.6677 193.41 56.9317 193.302 57.2437 193.302C57.5437 193.302 57.7957 193.41 57.9997 193.626C58.2157 193.842 58.3237 194.106 58.3237 194.418C58.3237 194.73 58.2157 194.994 57.9997 195.21C57.7957 195.426 57.5437 195.534 57.2437 195.534ZM58.0357 197.136V207H56.3977V197.136H58.0357ZM69.8274 201.69C69.8274 202.002 69.8094 202.332 69.7734 202.68H61.8894C61.9494 203.652 62.2794 204.414 62.8794 204.966C63.4914 205.506 64.2294 205.776 65.0934 205.776C65.8014 205.776 66.3894 205.614 66.8574 205.29C67.3374 204.954 67.6734 204.51 67.8654 203.958H69.6294C69.3654 204.906 68.8374 205.68 68.0454 206.28C67.2534 206.868 66.2694 207.162 65.0934 207.162C64.1574 207.162 63.3174 206.952 62.5734 206.532C61.8414 206.112 61.2654 205.518 60.8454 204.75C60.4254 203.97 60.2154 203.07 60.2154 202.05C60.2154 201.03 60.4194 200.136 60.8274 199.368C61.2354 198.6 61.8054 198.012 62.5374 197.604C63.2814 197.184 64.1334 196.974 65.0934 196.974C66.0294 196.974 66.8574 197.178 67.5774 197.586C68.2974 197.994 68.8494 198.558 69.2334 199.278C69.6294 199.986 69.8274 200.79 69.8274 201.69ZM68.1354 201.348C68.1354 200.724 67.9974 200.19 67.7214 199.746C67.4454 199.29 67.0674 198.948 66.5874 198.72C66.1194 198.48 65.5974 198.36 65.0214 198.36C64.1934 198.36 63.4854 198.624 62.8974 199.152C62.3214 199.68 61.9914 200.412 61.9074 201.348H68.1354ZM73.9875 198.486V204.3C73.9875 204.78 74.0895 205.122 74.2935 205.326C74.4975 205.518 74.8515 205.614 75.3555 205.614H76.5615V207H75.0855C74.1735 207 73.4895 206.79 73.0335 206.37C72.5775 205.95 72.3495 205.26 72.3495 204.3V198.486H71.0715V197.136H72.3495V194.652H73.9875V197.136H76.5615V198.486H73.9875ZM87.0422 197.136L81.1022 211.644H79.4102L81.3542 206.892L77.3762 197.136H79.1942L82.2902 205.128L85.3502 197.136H87.0422Z" fill="white"></path> <path d="M29.668 242.538C30.124 242.61 30.538 242.796 30.91 243.096C31.294 243.396 31.594 243.768 31.81 244.212C32.038 244.656 32.152 245.13 32.152 245.634C32.152 246.27 31.99 246.846 31.666 247.362C31.342 247.866 30.868 248.268 30.244 248.568C29.632 248.856 28.906 249 28.066 249H23.386V236.454H27.886C28.738 236.454 29.464 236.598 30.064 236.886C30.664 237.162 31.114 237.54 31.414 238.02C31.714 238.5 31.864 239.04 31.864 239.64C31.864 240.384 31.66 241.002 31.252 241.494C30.856 241.974 30.328 242.322 29.668 242.538ZM25.024 241.872H27.778C28.546 241.872 29.14 241.692 29.56 241.332C29.98 240.972 30.19 240.474 30.19 239.838C30.19 239.202 29.98 238.704 29.56 238.344C29.14 237.984 28.534 237.804 27.742 237.804H25.024V241.872ZM27.922 247.65C28.738 247.65 29.374 247.458 29.83 247.074C30.286 246.69 30.514 246.156 30.514 245.472C30.514 244.776 30.274 244.23 29.794 243.834C29.314 243.426 28.672 243.222 27.868 243.222H25.024V247.65H27.922ZM35.2711 237.534C34.9591 237.534 34.6951 237.426 34.4791 237.21C34.2631 236.994 34.1551 236.73 34.1551 236.418C34.1551 236.106 34.2631 235.842 34.4791 235.626C34.6951 235.41 34.9591 235.302 35.2711 235.302C35.5711 235.302 35.8231 235.41 36.0271 235.626C36.2431 235.842 36.3511 236.106 36.3511 236.418C36.3511 236.73 36.2431 236.994 36.0271 237.21C35.8231 237.426 35.5711 237.534 35.2711 237.534ZM36.0631 239.136V249H34.4251V239.136H36.0631ZM43.1568 249.162C42.2328 249.162 41.3928 248.952 40.6368 248.532C39.8928 248.112 39.3048 247.518 38.8728 246.75C38.4528 245.97 38.2428 245.07 38.2428 244.05C38.2428 243.042 38.4588 242.154 38.8908 241.386C39.3348 240.606 39.9348 240.012 40.6908 239.604C41.4468 239.184 42.2928 238.974 43.2288 238.974C44.1648 238.974 45.0108 239.184 45.7668 239.604C46.5228 240.012 47.1168 240.6 47.5488 241.368C47.9928 242.136 48.2148 243.03 48.2148 244.05C48.2148 245.07 47.9868 245.97 47.5308 246.75C47.0868 247.518 46.4808 248.112 45.7128 248.532C44.9448 248.952 44.0928 249.162 43.1568 249.162ZM43.1568 247.722C43.7448 247.722 44.2968 247.584 44.8128 247.308C45.3288 247.032 45.7428 246.618 46.0548 246.066C46.3788 245.514 46.5408 244.842 46.5408 244.05C46.5408 243.258 46.3848 242.586 46.0728 242.034C45.7608 241.482 45.3528 241.074 44.8488 240.81C44.3448 240.534 43.7988 240.396 43.2108 240.396C42.6108 240.396 42.0588 240.534 41.5548 240.81C41.0628 241.074 40.6668 241.482 40.3668 242.034C40.0668 242.586 39.9168 243.258 39.9168 244.05C39.9168 244.854 40.0608 245.532 40.3488 246.084C40.6488 246.636 41.0448 247.05 41.5368 247.326C42.0288 247.59 42.5688 247.722 43.1568 247.722ZM52.0064 235.68V249H50.3684V235.68H52.0064ZM59.1001 249.162C58.1761 249.162 57.3361 248.952 56.5801 248.532C55.8361 248.112 55.2481 247.518 54.8161 246.75C54.3961 245.97 54.1861 245.07 54.1861 244.05C54.1861 243.042 54.4021 242.154 54.8341 241.386C55.2781 240.606 55.8781 240.012 56.6341 239.604C57.3901 239.184 58.2361 238.974 59.1721 238.974C60.1081 238.974 60.9541 239.184 61.7101 239.604C62.4661 240.012 63.0601 240.6 63.4921 241.368C63.9361 242.136 64.1581 243.03 64.1581 244.05C64.1581 245.07 63.9301 245.97 63.4741 246.75C63.0301 247.518 62.4241 248.112 61.6561 248.532C60.8881 248.952 60.0361 249.162 59.1001 249.162ZM59.1001 247.722C59.6881 247.722 60.2401 247.584 60.7561 247.308C61.2721 247.032 61.6861 246.618 61.9981 246.066C62.3221 245.514 62.4841 244.842 62.4841 244.05C62.4841 243.258 62.3281 242.586 62.0161 242.034C61.7041 241.482 61.2961 241.074 60.7921 240.81C60.2881 240.534 59.7421 240.396 59.1541 240.396C58.5541 240.396 58.0021 240.534 57.4981 240.81C57.0061 241.074 56.6101 241.482 56.3101 242.034C56.0101 242.586 55.8601 243.258 55.8601 244.05C55.8601 244.854 56.0041 245.532 56.2921 246.084C56.5921 246.636 56.9881 247.05 57.4801 247.326C57.9721 247.59 58.5121 247.722 59.1001 247.722ZM70.3798 238.974C71.2318 238.974 71.9758 239.16 72.6118 239.532C73.2598 239.904 73.7398 240.372 74.0518 240.936V239.136H75.7078V249.216C75.7078 250.116 75.5158 250.914 75.1318 251.61C74.7478 252.318 74.1958 252.87 73.4758 253.266C72.7678 253.662 71.9398 253.86 70.9918 253.86C69.6958 253.86 68.6158 253.554 67.7518 252.942C66.8878 252.33 66.3778 251.496 66.2218 250.44H67.8418C68.0218 251.04 68.3938 251.52 68.9578 251.88C69.5218 252.252 70.1998 252.438 70.9918 252.438C71.8918 252.438 72.6238 252.156 73.1878 251.592C73.7638 251.028 74.0518 250.236 74.0518 249.216V247.146C73.7278 247.722 73.2478 248.202 72.6118 248.586C71.9758 248.97 71.2318 249.162 70.3798 249.162C69.5038 249.162 68.7058 248.946 67.9858 248.514C67.2778 248.082 66.7198 247.476 66.3118 246.696C65.9038 245.916 65.6998 245.028 65.6998 244.032C65.6998 243.024 65.9038 242.142 66.3118 241.386C66.7198 240.618 67.2778 240.024 67.9858 239.604C68.7058 239.184 69.5038 238.974 70.3798 238.974ZM74.0518 244.05C74.0518 243.306 73.9018 242.658 73.6018 242.106C73.3018 241.554 72.8938 241.134 72.3778 240.846C71.8738 240.546 71.3158 240.396 70.7038 240.396C70.0918 240.396 69.5338 240.54 69.0298 240.828C68.5258 241.116 68.1238 241.536 67.8238 242.088C67.5238 242.64 67.3738 243.288 67.3738 244.032C67.3738 244.788 67.5238 245.448 67.8238 246.012C68.1238 246.564 68.5258 246.99 69.0298 247.29C69.5338 247.578 70.0918 247.722 70.7038 247.722C71.3158 247.722 71.8738 247.578 72.3778 247.29C72.8938 246.99 73.3018 246.564 73.6018 246.012C73.9018 245.448 74.0518 244.794 74.0518 244.05ZM86.9718 239.136L81.0318 253.644H79.3398L81.2838 248.892L77.3058 239.136H79.1238L82.2198 247.128L85.2798 239.136H86.9718Z" fill="white"></path> <path d="M36.112 278.544V291H34.474V281.712L30.334 291H29.182L25.024 281.694V291H23.386V278.544H25.15L29.758 288.84L34.366 278.544H36.112ZM47.6379 281.136V291H45.9999V289.542C45.6879 290.046 45.2499 290.442 44.6859 290.73C44.1339 291.006 43.5219 291.144 42.8499 291.144C42.0819 291.144 41.3919 290.988 40.7799 290.676C40.1679 290.352 39.6819 289.872 39.3219 289.236C38.9739 288.6 38.7999 287.826 38.7999 286.914V281.136H40.4199V286.698C40.4199 287.67 40.6659 288.42 41.1579 288.948C41.6499 289.464 42.3219 289.722 43.1739 289.722C44.0499 289.722 44.7399 289.452 45.2439 288.912C45.7479 288.372 45.9999 287.586 45.9999 286.554V281.136H47.6379ZM53.8956 291.162C53.1396 291.162 52.4616 291.036 51.8616 290.784C51.2616 290.52 50.7876 290.16 50.4396 289.704C50.0916 289.236 49.8996 288.702 49.8636 288.102H51.5556C51.6036 288.594 51.8316 288.996 52.2396 289.308C52.6596 289.62 53.2056 289.776 53.8776 289.776C54.5016 289.776 54.9936 289.638 55.3536 289.362C55.7136 289.086 55.8936 288.738 55.8936 288.318C55.8936 287.886 55.7016 287.568 55.3176 287.364C54.9336 287.148 54.3396 286.938 53.5356 286.734C52.8036 286.542 52.2036 286.35 51.7356 286.158C51.2796 285.954 50.8836 285.66 50.5476 285.276C50.2236 284.88 50.0616 284.364 50.0616 283.728C50.0616 283.224 50.2116 282.762 50.5116 282.342C50.8116 281.922 51.2376 281.592 51.7896 281.352C52.3416 281.1 52.9716 280.974 53.6796 280.974C54.7716 280.974 55.6536 281.25 56.3256 281.802C56.9976 282.354 57.3576 283.11 57.4056 284.07H55.7676C55.7316 283.554 55.5216 283.14 55.1376 282.828C54.7656 282.516 54.2616 282.36 53.6256 282.36C53.0376 282.36 52.5696 282.486 52.2216 282.738C51.8736 282.99 51.6996 283.32 51.6996 283.728C51.6996 284.052 51.8016 284.322 52.0056 284.538C52.2216 284.742 52.4856 284.91 52.7976 285.042C53.1216 285.162 53.5656 285.3 54.1296 285.456C54.8376 285.648 55.4136 285.84 55.8576 286.032C56.3016 286.212 56.6796 286.488 56.9916 286.86C57.3156 287.232 57.4836 287.718 57.4956 288.318C57.4956 288.858 57.3456 289.344 57.0456 289.776C56.7456 290.208 56.3196 290.55 55.7676 290.802C55.2276 291.042 54.6036 291.162 53.8956 291.162ZM60.6539 279.534C60.3419 279.534 60.0779 279.426 59.8619 279.21C59.6459 278.994 59.5379 278.73 59.5379 278.418C59.5379 278.106 59.6459 277.842 59.8619 277.626C60.0779 277.41 60.3419 277.302 60.6539 277.302C60.9539 277.302 61.2059 277.41 61.4099 277.626C61.6259 277.842 61.7339 278.106 61.7339 278.418C61.7339 278.73 61.6259 278.994 61.4099 279.21C61.2059 279.426 60.9539 279.534 60.6539 279.534ZM61.4459 281.136V291H59.8079V281.136H61.4459ZM63.6256 286.05C63.6256 285.03 63.8296 284.142 64.2376 283.386C64.6456 282.618 65.2096 282.024 65.9296 281.604C66.6616 281.184 67.4956 280.974 68.4316 280.974C69.6436 280.974 70.6396 281.268 71.4196 281.856C72.2116 282.444 72.7336 283.26 72.9856 284.304H71.2216C71.0536 283.704 70.7236 283.23 70.2316 282.882C69.7516 282.534 69.1516 282.36 68.4316 282.36C67.4956 282.36 66.7396 282.684 66.1636 283.332C65.5876 283.968 65.2996 284.874 65.2996 286.05C65.2996 287.238 65.5876 288.156 66.1636 288.804C66.7396 289.452 67.4956 289.776 68.4316 289.776C69.1516 289.776 69.7516 289.608 70.2316 289.272C70.7116 288.936 71.0416 288.456 71.2216 287.832H72.9856C72.7216 288.84 72.1936 289.65 71.4016 290.262C70.6096 290.862 69.6196 291.162 68.4316 291.162C67.4956 291.162 66.6616 290.952 65.9296 290.532C65.2096 290.112 64.6456 289.518 64.2376 288.75C63.8296 287.982 63.6256 287.082 63.6256 286.05Z" fill="white"></path> <path d="M171.712 106.936L171.712 107.936L172.712 107.936L172.712 106.936L171.712 106.936ZM166.74 106.936L165.74 106.936L165.74 107.936L166.74 107.936L166.74 106.936ZM166.74 98.752L167.74 98.752L167.74 97.752L166.74 97.752L166.74 98.752ZM141 98.752L140 98.752L140 99.752L141 99.752L141 98.752ZM141 92.592L141 91.592L140 91.592L140 92.592L141 92.592ZM166.74 92.592L166.74 93.592L167.74 93.592L167.74 92.592L166.74 92.592ZM166.74 84.408L166.74 83.408L165.74 83.408L165.74 84.408L166.74 84.408ZM171.712 84.408L172.712 84.408L172.712 83.408L171.712 83.408L171.712 84.408ZM171.712 105.936L166.74 105.936L166.74 107.936L171.712 107.936L171.712 105.936ZM167.74 106.936L167.74 98.752L165.74 98.752L165.74 106.936L167.74 106.936ZM166.74 97.752L141 97.752L141 99.752L166.74 99.752L166.74 97.752ZM142 98.752L142 92.592L140 92.592L140 98.752L142 98.752ZM141 93.592L166.74 93.592L166.74 91.592L141 91.592L141 93.592ZM167.74 92.592L167.74 84.408L165.74 84.408L165.74 92.592L167.74 92.592ZM166.74 85.408L171.712 85.408L171.712 83.408L166.74 83.408L166.74 85.408ZM170.712 84.408L170.712 106.936L172.712 106.936L172.712 84.408L170.712 84.408ZM164.496 130.087L163.628 129.59L163.624 129.597L163.62 129.604L164.496 130.087ZM160.932 133.431L160.485 132.536L160.475 132.541L160.465 132.546L160.932 133.431ZM141 134.663L140 134.663L140 135.663L141 135.663L141 134.663ZM141 128.503L141 127.503L140 127.503L140 128.503L141 128.503ZM158.908 127.051L158.232 126.313L158.222 126.323L158.908 127.051ZM158.908 119.043L159.595 118.316L159.594 118.315L158.908 119.043ZM141 117.591L140 117.591L140 118.591L141 118.591L141 117.591ZM141 111.431L141 110.431L140 110.431L140 111.431L141 111.431ZM173.56 111.431L174.56 111.431L174.56 110.431L173.56 110.431L173.56 111.431ZM173.56 117.591L173.56 118.591L174.56 118.591L174.56 117.591L173.56 117.591ZM162.34 117.591L162.34 116.591L159.34 116.591L161.74 118.391L162.34 117.591ZM164.804 120.759L163.89 121.165L163.894 121.173L163.898 121.181L164.804 120.759ZM164.728 125.159C164.728 126.853 164.353 128.321 163.628 129.59L165.364 130.583C166.282 128.977 166.728 127.16 166.728 125.159L164.728 125.159ZM163.62 129.604C162.934 130.85 161.903 131.827 160.485 132.536L161.379 134.325C163.129 133.45 164.474 132.198 165.372 130.569L163.62 129.604ZM160.465 132.546C159.086 133.275 157.377 133.663 155.3 133.663L155.3 135.663C157.623 135.663 159.669 135.229 161.399 134.315L160.465 132.546ZM155.3 133.663L141 133.663L141 135.663L155.3 135.663L155.3 133.663ZM142 134.663L142 128.503L140 128.503L140 134.663L142 134.663ZM141 129.503L154.464 129.503L154.464 127.503L141 127.503L141 129.503ZM154.464 129.503C156.559 129.503 158.322 128.977 159.594 127.778L158.222 126.323C157.441 127.06 156.241 127.503 154.464 127.503L154.464 129.503ZM159.584 127.788C160.881 126.598 161.492 124.992 161.492 123.091L159.492 123.091C159.492 124.534 159.047 125.567 158.232 126.313L159.584 127.788ZM161.492 123.091C161.492 121.165 160.885 119.534 159.595 118.316L158.221 119.77C159.043 120.545 159.492 121.613 159.492 123.091L161.492 123.091ZM159.594 118.315C158.322 117.116 156.559 116.591 154.464 116.591L154.464 118.591C156.241 118.591 157.441 119.033 158.222 119.77L159.594 118.315ZM154.464 116.591L141 116.591L141 118.591L154.464 118.591L154.464 116.591ZM142 117.591L142 111.431L140 111.431L140 117.591L142 117.591ZM141 112.431L173.56 112.431L173.56 110.431L141 110.431L141 112.431ZM172.56 111.431L172.56 117.591L174.56 117.591L174.56 111.431L172.56 111.431ZM173.56 116.591L162.34 116.591L162.34 118.591L173.56 118.591L173.56 116.591ZM161.74 118.391C162.647 119.071 163.366 119.985 163.89 121.165L165.718 120.352C165.069 118.892 164.145 117.694 162.94 116.791L161.74 118.391ZM163.898 121.181C164.446 122.355 164.728 123.675 164.728 125.159L166.728 125.159C166.728 123.415 166.394 121.802 165.71 120.336L163.898 121.181ZM165.376 163.532L165.376 164.532L166.376 164.532L166.376 163.532L165.376 163.532ZM141 163.532L140 163.532L140 164.532L141 164.532L141 163.532ZM141 157.328L141 156.328L140 156.328L140 157.328L141 157.328ZM144.08 157.328L144.08 158.328L147.08 158.328L144.68 156.528L144.08 157.328ZM141.572 154.204L140.665 154.626L140.67 154.635L141.572 154.204ZM141.88 145.008L141.007 144.52L141.004 144.526L141 144.533L141.88 145.008ZM145.444 141.532L144.984 140.645L144.974 140.65L144.964 140.655L145.444 141.532ZM165.376 140.3L166.376 140.3L166.376 139.3L165.376 139.3L165.376 140.3ZM165.376 146.46L165.376 147.46L166.376 147.46L166.376 146.46L165.376 146.46ZM147.468 147.912L146.792 147.175L146.782 147.185L147.468 147.912ZM147.468 155.876L146.782 156.604L146.792 156.614L147.468 155.876ZM165.376 157.328L166.376 157.328L166.376 156.328L165.376 156.328L165.376 157.328ZM165.376 162.532L141 162.532L141 164.532L165.376 164.532L165.376 162.532ZM142 163.532L142 157.328L140 157.328L140 163.532L142 163.532ZM141 158.328L144.08 158.328L144.08 156.328L141 156.328L141 158.328ZM144.68 156.528C143.764 155.841 143.027 154.931 142.474 153.774L140.67 154.635C141.349 156.059 142.284 157.232 143.48 158.128L144.68 156.528ZM142.479 153.783C141.958 152.663 141.692 151.43 141.692 150.068L139.692 150.068C139.692 151.699 140.013 153.223 140.665 154.626L142.479 153.783ZM141.692 150.068C141.692 148.303 142.057 146.784 142.76 145.484L141 144.533C140.119 146.166 139.692 148.02 139.692 150.068L141.692 150.068ZM142.753 145.497C143.477 144.203 144.525 143.175 145.924 142.41L144.964 140.655C143.254 141.591 141.926 142.88 141.007 144.52L142.753 145.497ZM145.904 142.42C147.318 141.687 149.031 141.3 151.076 141.3L151.076 139.3C148.779 139.3 146.738 139.735 144.984 140.645L145.904 142.42ZM151.076 141.3L165.376 141.3L165.376 139.3L151.076 139.3L151.076 141.3ZM164.376 140.3L164.376 146.46L166.376 146.46L166.376 140.3L164.376 140.3ZM165.376 145.46L151.956 145.46L151.956 147.46L165.376 147.46L165.376 145.46ZM151.956 145.46C149.859 145.46 148.089 145.986 146.792 147.175L148.144 148.65C148.959 147.903 150.181 147.46 151.956 147.46L151.956 145.46ZM146.782 147.185C145.518 148.377 144.928 149.98 144.928 151.872L146.928 151.872C146.928 150.421 147.365 149.384 148.154 148.64L146.782 147.185ZM144.928 151.872C144.928 153.788 145.514 155.409 146.782 156.604L148.154 155.149C147.368 154.408 146.928 153.359 146.928 151.872L144.928 151.872ZM146.792 156.614C148.089 157.803 149.859 158.328 151.956 158.328L151.956 156.328C150.181 156.328 148.959 155.886 148.144 155.139L146.792 156.614ZM151.956 158.328L165.376 158.328L165.376 156.328L151.956 156.328L151.956 158.328ZM164.376 157.328L164.376 163.532L166.376 163.532L166.376 157.328L164.376 157.328ZM161.592 175.77L161.592 174.77L158.05 174.77L161.069 176.623L161.592 175.77ZM164.628 178.85L165.497 178.356L165.493 178.348L164.628 178.85ZM165.728 183.25L165.728 184.25L166.728 184.25L166.728 183.25L165.728 183.25ZM159.26 183.25L158.26 183.25L158.26 184.25L159.26 184.25L159.26 183.25ZM157.896 177.222L158.635 176.548L158.63 176.543L158.625 176.538L157.896 177.222ZM141 175.77L140 175.77L140 176.77L141 176.77L141 175.77ZM141 169.61L141 168.61L140 168.61L140 169.61L141 169.61ZM165.376 169.61L166.376 169.61L166.376 168.61L165.376 168.61L165.376 169.61ZM165.376 175.77L165.376 176.77L166.376 176.77L166.376 175.77L165.376 175.77ZM161.069 176.623C162.224 177.331 163.117 178.24 163.763 179.353L165.493 178.348C164.673 176.938 163.541 175.793 162.115 174.918L161.069 176.623ZM163.759 179.344C164.397 180.469 164.728 181.762 164.728 183.25L166.728 183.25C166.728 181.453 166.325 179.813 165.497 178.356L163.759 179.344ZM165.728 182.25L159.26 182.25L159.26 184.25L165.728 184.25L165.728 182.25ZM160.26 183.25L160.26 181.622L158.26 181.622L158.26 183.25L160.26 183.25ZM160.26 181.622C160.26 179.544 159.773 177.796 158.635 176.548L157.157 177.896C157.838 178.643 158.26 179.828 158.26 181.622L160.26 181.622ZM158.625 176.538C157.43 175.266 155.496 174.77 153.144 174.77L153.144 176.77C155.31 176.77 156.543 177.243 157.167 177.907L158.625 176.538ZM153.144 174.77L141 174.77L141 176.77L153.144 176.77L153.144 174.77ZM142 175.77L142 169.61L140 169.61L140 175.77L142 175.77ZM141 170.61L165.376 170.61L165.376 168.61L141 168.61L141 170.61ZM164.376 169.61L164.376 175.77L166.376 175.77L166.376 169.61L164.376 169.61ZM165.376 174.77L161.592 174.77L161.592 176.77L165.376 176.77L165.376 174.77ZM141.66 191.359L140.753 190.939L140.749 190.946L140.746 190.953L141.66 191.359ZM144.608 187.575L144.014 186.771L144.008 186.775L144.002 186.78L144.608 187.575ZM148.7 186.079L149.7 186.079L149.7 185.019L148.641 185.081L148.7 186.079ZM148.7 192.283L148.824 193.276L149.7 193.166L149.7 192.283L148.7 192.283ZM146.368 193.647L145.579 193.033L145.573 193.04L145.568 193.047L146.368 193.647ZM146.148 199.411L146.969 198.84L146.963 198.832L146.957 198.823L146.148 199.411ZM149.712 199.191L148.824 198.731L148.814 198.75L148.805 198.77L149.712 199.191ZM151.032 195.363L151.998 195.621L152.001 195.61L152.004 195.598L151.032 195.363ZM152.396 190.875L151.471 190.496L151.468 190.504L152.396 190.875ZM154.552 187.883L153.905 187.121L153.898 187.126L153.892 187.132L154.552 187.883ZM162.164 187.795L162.743 186.98L162.736 186.975L162.729 186.97L162.164 187.795ZM164.804 191.139L165.719 190.737L165.716 190.73L164.804 191.139ZM163.572 203.239L162.809 202.593L162.803 202.6L163.572 203.239ZM157.72 206.099L156.72 206.099L156.72 207.173L157.791 207.097L157.72 206.099ZM157.72 200.203L157.629 199.207L156.72 199.29L156.72 200.203L157.72 200.203ZM160.008 198.971L159.24 198.331L159.225 198.348L159.212 198.366L160.008 198.971ZM160.272 193.515L161.104 192.961L161.098 192.951L161.091 192.942L160.272 193.515ZM156.664 193.867L155.783 193.395L155.776 193.407L155.77 193.42L156.664 193.867ZM155.388 197.695L154.419 197.449L154.418 197.453L155.388 197.695ZM151.824 204.999L151.188 204.227L151.176 204.238L151.164 204.248L151.824 204.999ZM147.952 206.319L147.952 207.319L147.961 207.319L147.97 207.319L147.952 206.319ZM144.168 205.131L144.747 204.316L144.74 204.311L144.733 204.306L144.168 205.131ZM141.528 201.787L140.609 202.181L140.613 202.19L141.528 201.787ZM141.604 196.727C141.604 194.852 141.935 193.204 142.574 191.765L140.746 190.953C139.977 192.683 139.604 194.614 139.604 196.727L141.604 196.727ZM142.567 191.779C143.241 190.324 144.127 189.199 145.214 188.371L144.002 186.78C142.625 187.829 141.545 189.226 140.753 190.939L142.567 191.779ZM145.202 188.38C146.282 187.583 147.461 187.154 148.759 187.078L148.641 185.081C146.947 185.181 145.398 185.749 144.014 186.771L145.202 188.38ZM147.7 186.079L147.7 192.283L149.7 192.283L149.7 186.079L147.7 186.079ZM148.576 191.291C147.357 191.443 146.347 192.046 145.579 193.033L147.157 194.261C147.621 193.664 148.166 193.358 148.824 193.276L148.576 191.291ZM145.568 193.047C144.801 194.07 144.444 195.303 144.444 196.683L146.444 196.683C146.444 195.659 146.703 194.867 147.168 194.247L145.568 193.047ZM144.444 196.683C144.444 197.973 144.7 199.12 145.339 199.999L146.957 198.823C146.658 198.412 146.444 197.74 146.444 196.683L144.444 196.683ZM145.327 199.982C145.957 200.888 146.848 201.423 147.952 201.423L147.952 199.423C147.589 199.423 147.278 199.284 146.969 198.84L145.327 199.982ZM147.952 201.423C148.53 201.423 149.08 201.27 149.559 200.935C150.031 200.605 150.373 200.141 150.619 199.612L148.805 198.77C148.669 199.063 148.528 199.215 148.413 199.296C148.305 199.371 148.166 199.423 147.952 199.423L147.952 201.423ZM150.6 199.652C151.063 198.758 151.525 197.394 151.998 195.621L150.066 195.106C149.6 196.852 149.182 198.04 148.824 198.731L150.6 199.652ZM152.004 195.598C152.438 193.806 152.879 192.36 153.324 191.247L151.468 190.504C150.974 191.737 150.506 193.283 150.06 195.128L152.004 195.598ZM153.321 191.255C153.729 190.26 154.355 189.388 155.212 188.634L153.892 187.132C152.813 188.08 152.001 189.203 151.471 190.496L153.321 191.255ZM155.199 188.646C155.939 188.018 156.991 187.651 158.468 187.651L158.468 185.651C156.659 185.651 155.101 186.106 153.905 187.121L155.199 188.646ZM158.468 187.651C159.616 187.651 160.651 187.972 161.599 188.621L162.729 186.97C161.448 186.094 160.019 185.651 158.468 185.651L158.468 187.651ZM161.585 188.61C162.533 189.284 163.308 190.249 163.892 191.549L165.716 190.73C165.009 189.155 164.024 187.89 162.743 186.98L161.585 188.61ZM163.889 191.542C164.467 192.856 164.772 194.43 164.772 196.287L166.772 196.287C166.772 194.214 166.432 192.355 165.719 190.737L163.889 191.542ZM164.772 196.287C164.772 199.022 164.084 201.089 162.809 202.593L164.335 203.886C165.993 201.929 166.772 199.36 166.772 196.287L164.772 196.287ZM162.803 202.6C161.558 204.1 159.87 204.943 157.649 205.102L157.791 207.097C160.498 206.903 162.712 205.84 164.341 203.878L162.803 202.6ZM158.72 206.099L158.72 200.203L156.72 200.203L156.72 206.099L158.72 206.099ZM157.811 201.199C159.041 201.087 160.067 200.547 160.804 199.576L159.212 198.366C158.835 198.862 158.335 199.143 157.629 199.207L157.811 201.199ZM160.776 199.611C161.554 198.678 161.888 197.474 161.888 196.111L159.888 196.111C159.888 197.154 159.635 197.856 159.24 198.331L160.776 199.611ZM161.888 196.111C161.888 194.893 161.667 193.804 161.104 192.961L159.44 194.07C159.699 194.458 159.888 195.101 159.888 196.111L161.888 196.111ZM161.091 192.942C160.488 192.08 159.606 191.635 158.556 191.635L158.556 193.635C158.972 193.635 159.235 193.777 159.453 194.089L161.091 192.942ZM158.556 191.635C157.97 191.635 157.414 191.785 156.921 192.105C156.435 192.422 156.063 192.871 155.783 193.395L157.545 194.34C157.705 194.042 157.868 193.875 158.013 193.781C158.151 193.691 158.321 193.635 158.556 193.635L158.556 191.635ZM155.77 193.42C155.309 194.34 154.863 195.701 154.419 197.449L156.357 197.942C156.793 196.228 157.197 195.037 157.558 194.314L155.77 193.42ZM154.418 197.453C153.985 199.185 153.544 200.588 153.099 201.672L154.949 202.431C155.443 201.227 155.911 199.725 156.358 197.938L154.418 197.453ZM153.099 201.672C152.695 202.656 152.064 203.506 151.188 204.227L152.46 205.771C153.579 204.85 154.414 203.734 154.949 202.431L153.099 201.672ZM151.164 204.248C150.415 204.906 149.372 205.293 147.934 205.319L147.97 207.319C149.759 207.287 151.297 206.794 152.484 205.75L151.164 204.248ZM147.952 205.319C146.745 205.319 145.687 204.984 144.747 204.316L143.589 205.946C144.878 206.862 146.343 207.319 147.952 207.319L147.952 205.319ZM144.733 204.306C143.799 203.667 143.028 202.713 142.443 201.385L140.613 202.19C141.319 203.795 142.308 205.07 143.603 205.957L144.733 204.306ZM142.447 201.393C141.896 200.106 141.604 198.559 141.604 196.727L139.604 196.727C139.604 198.767 139.928 200.594 140.609 202.181L142.447 201.393ZM159.832 211.244L160.296 210.358L160.285 210.352L159.832 211.244ZM164.232 215.292L163.376 215.809L163.376 215.809L164.232 215.292ZM164.716 225.5L163.818 225.06L163.814 225.067L163.811 225.075L164.716 225.5ZM161.988 228.932L161.391 228.129L158.967 229.932L161.988 229.932L161.988 228.932ZM173.56 228.932L174.56 228.932L174.56 227.932L173.56 227.932L173.56 228.932ZM173.56 235.18L173.56 236.18L174.56 236.18L174.56 235.18L173.56 235.18ZM141 235.18L140 235.18L140 236.18L141 236.18L141 235.18ZM141 228.932L141 227.932L140 227.932L140 228.932L141 228.932ZM144.608 228.932L144.608 229.932L148.052 229.932L145.144 228.087L144.608 228.932ZM141.704 225.72L142.587 225.25L142.587 225.25L141.704 225.72ZM142.188 215.292L143.038 215.819L143.038 215.819L142.188 215.292ZM146.632 211.244L146.185 210.349L146.177 210.354L146.168 210.358L146.632 211.244ZM157.016 228.096L156.54 227.216L156.53 227.222L157.016 228.096ZM159.48 225.72L158.618 225.213L158.612 225.222L158.607 225.232L159.48 225.72ZM159.524 219.34L160.391 218.841L160.391 218.841L159.524 219.34ZM157.06 216.964L157.554 216.094L157.546 216.09L157.06 216.964ZM149.404 216.964L148.938 216.079L148.924 216.086L148.91 216.094L149.404 216.964ZM146.896 219.34L146.041 218.821L146.034 218.833L146.896 219.34ZM146.852 225.72L145.979 226.208L145.984 226.217L145.99 226.227L146.852 225.72ZM149.316 228.096L148.83 228.97L148.84 228.976L149.316 228.096ZM153.276 210.792C155.607 210.792 157.633 211.249 159.379 212.136L160.285 210.352C158.218 209.303 155.873 208.792 153.276 208.792L153.276 210.792ZM159.368 212.13C161.127 213.05 162.452 214.277 163.376 215.809L165.088 214.775C163.959 212.904 162.35 211.433 160.295 210.358L159.368 212.13ZM163.376 215.809C164.304 217.346 164.772 219.058 164.772 220.968L166.772 220.968C166.772 218.712 166.214 216.64 165.088 214.775L163.376 215.809ZM164.772 220.968C164.772 222.398 164.456 223.758 163.818 225.06L165.614 225.94C166.384 224.367 166.772 222.706 166.772 220.968L164.772 220.968ZM163.811 225.075C163.198 226.38 162.388 227.388 161.391 228.129L162.585 229.734C163.876 228.774 164.885 227.494 165.621 225.925L163.811 225.075ZM161.988 229.932L173.56 229.932L173.56 227.932L161.988 227.932L161.988 229.932ZM172.56 228.932L172.56 235.18L174.56 235.18L174.56 228.932L172.56 228.932ZM173.56 234.18L141 234.18L141 236.18L173.56 236.18L173.56 234.18ZM142 235.18L142 228.932L140 228.932L140 235.18L142 235.18ZM141 229.932L144.608 229.932L144.608 227.932L141 227.932L141 229.932ZM145.144 228.087C144.101 227.426 143.247 226.491 142.587 225.25L140.821 226.189C141.628 227.706 142.71 228.912 144.072 229.776L145.144 228.087ZM142.587 225.25C141.942 224.038 141.604 222.606 141.604 220.924L139.604 220.924C139.604 222.879 139.999 224.644 140.821 226.189L142.587 225.25ZM141.604 220.924C141.604 219.052 142.083 217.358 143.038 215.819L141.338 214.764C140.181 216.628 139.604 218.689 139.604 220.924L141.604 220.924ZM143.038 215.819C143.992 214.281 145.335 213.051 147.095 212.13L146.168 210.358C144.116 211.432 142.496 212.9 141.338 214.764L143.038 215.819ZM147.079 212.138C148.857 211.25 150.914 210.792 153.276 210.792L153.276 208.792C150.651 208.792 148.279 209.302 146.185 210.349L147.079 212.138ZM153.188 229.976C154.814 229.976 156.266 229.657 157.502 228.97L156.53 227.222C155.654 227.708 154.554 227.976 153.188 227.976L153.188 229.976ZM157.492 228.976C158.73 228.306 159.696 227.384 160.353 226.208L158.607 225.232C158.15 226.05 157.473 226.712 156.54 227.216L157.492 228.976ZM160.342 226.227C161.018 225.078 161.36 223.832 161.36 222.508L159.36 222.508C159.36 223.471 159.115 224.367 158.618 225.213L160.342 226.227ZM161.36 222.508C161.36 221.193 161.038 219.964 160.391 218.841L158.657 219.839C159.125 220.651 159.36 221.535 159.36 222.508L161.36 222.508ZM160.391 218.841C159.734 217.701 158.775 216.788 157.554 216.094L156.566 217.834C157.515 218.372 158.199 219.043 158.657 219.839L160.391 218.841ZM157.546 216.09C156.312 215.405 154.876 215.084 153.276 215.084L153.276 217.084C154.609 217.084 155.696 217.35 156.574 217.838L157.546 216.09ZM153.276 215.084C151.674 215.084 150.218 215.405 148.938 216.079L149.87 217.849C150.819 217.349 151.945 217.084 153.276 217.084L153.276 215.084ZM148.91 216.094C147.692 216.786 146.725 217.693 146.041 218.822L147.751 219.858C148.24 219.051 148.945 218.374 149.898 217.834L148.91 216.094ZM146.034 218.833C145.361 219.978 145.016 221.208 145.016 222.508L147.016 222.508C147.016 221.578 147.258 220.697 147.758 219.847L146.034 218.833ZM145.016 222.508C145.016 223.822 145.338 225.061 145.979 226.208L147.725 225.232C147.251 224.384 147.016 223.481 147.016 222.508L145.016 222.508ZM145.99 226.227C146.671 227.385 147.626 228.301 148.83 228.97L149.802 227.222C148.894 226.718 148.206 226.049 147.714 225.213L145.99 226.227ZM148.84 228.976C150.1 229.656 151.561 229.976 153.188 229.976L153.188 227.976C151.823 227.976 150.703 227.709 149.792 227.216L148.84 228.976ZM159.832 241.064L160.296 240.178L160.285 240.172L159.832 241.064ZM164.232 245.068L165.088 244.551L165.084 244.545L164.232 245.068ZM164.672 255.496L163.793 255.019L163.789 255.027L164.672 255.496ZM161.9 258.796L161.307 257.991L158.857 259.796L161.9 259.796L161.9 258.796ZM165.376 258.796L166.376 258.796L166.376 257.796L165.376 257.796L165.376 258.796ZM165.376 265L165.376 266L166.376 266L166.376 265L165.376 265ZM141 265L140 265L140 266L141 266L141 265ZM141 258.796L141 257.796L140 257.796L140 258.796L141 258.796ZM144.564 258.796L144.564 259.796L147.765 259.796L145.133 257.974L144.564 258.796ZM141.704 255.496L140.821 255.966L140.825 255.972L141.704 255.496ZM142.188 245.068L141.342 244.534L141.338 244.541L142.188 245.068ZM146.632 241.064L146.185 240.17L146.177 240.174L146.168 240.178L146.632 241.064ZM157.016 257.916L156.54 257.036L156.53 257.042L157.016 257.916ZM159.48 255.54L158.618 255.033L158.612 255.043L158.607 255.052L159.48 255.54ZM159.524 249.16L160.391 248.661L160.391 248.661L159.524 249.16ZM157.06 246.784L157.554 245.914L157.546 245.91L157.06 246.784ZM149.404 246.784L148.938 245.899L148.924 245.907L148.91 245.914L149.404 246.784ZM146.896 249.16L146.041 248.642L146.034 248.653L146.896 249.16ZM146.852 255.54L145.979 256.028L145.984 256.038L145.99 256.047L146.852 255.54ZM149.316 257.916L148.83 258.79L148.84 258.796L149.316 257.916ZM153.276 240.612C155.607 240.612 157.633 241.069 159.379 241.956L160.285 240.172C158.218 239.123 155.873 238.612 153.276 238.612L153.276 240.612ZM159.368 241.95C161.131 242.872 162.457 244.088 163.38 245.591L165.084 244.545C163.954 242.704 162.346 241.251 160.295 240.178L159.368 241.95ZM163.376 245.585C164.304 247.123 164.772 248.834 164.772 250.744L166.772 250.744C166.772 248.489 166.214 246.416 165.088 244.551L163.376 245.585ZM164.772 250.744C164.772 252.427 164.434 253.841 163.793 255.019L165.551 255.974C166.377 254.453 166.772 252.699 166.772 250.744L164.772 250.744ZM163.789 255.027C163.117 256.29 162.286 257.269 161.307 257.991L162.493 259.601C163.743 258.68 164.76 257.46 165.555 255.966L163.789 255.027ZM161.9 259.796L165.376 259.796L165.376 257.796L161.9 257.796L161.9 259.796ZM164.376 258.796L164.376 265L166.376 265L166.376 258.796L164.376 258.796ZM165.376 264L141 264L141 266L165.376 266L165.376 264ZM142 265L142 258.796L140 258.796L140 265L142 265ZM141 259.796L144.564 259.796L144.564 257.796L141 257.796L141 259.796ZM145.133 257.974C144.136 257.284 143.282 256.311 142.583 255.02L140.825 255.972C141.651 257.498 142.703 258.724 143.995 259.618L145.133 257.974ZM142.587 255.027C141.942 253.815 141.604 252.382 141.604 250.7L139.604 250.7C139.604 252.656 139.999 254.42 140.821 255.966L142.587 255.027ZM141.604 250.7C141.604 248.828 142.083 247.134 143.038 245.596L141.338 244.541C140.181 246.405 139.604 248.465 139.604 250.7L141.604 250.7ZM143.033 245.602C143.987 244.092 145.331 242.873 147.095 241.95L146.168 240.178C144.12 241.25 142.501 242.7 141.343 244.534L143.033 245.602ZM147.079 241.959C148.857 241.07 150.914 240.612 153.276 240.612L153.276 238.612C150.651 238.612 148.279 239.122 146.185 240.17L147.079 241.959ZM153.188 259.796C154.814 259.796 156.266 259.477 157.502 258.79L156.53 257.042C155.654 257.529 154.554 257.796 153.188 257.796L153.188 259.796ZM157.492 258.796C158.73 258.126 159.696 257.204 160.353 256.028L158.607 255.052C158.15 255.871 157.473 256.533 156.54 257.036L157.492 258.796ZM160.342 256.047C161.018 254.898 161.36 253.653 161.36 252.328L159.36 252.328C159.36 253.292 159.115 254.188 158.618 255.033L160.342 256.047ZM161.36 252.328C161.36 251.013 161.038 249.785 160.391 248.661L158.657 249.659C159.125 250.472 159.36 251.355 159.36 252.328L161.36 252.328ZM160.391 248.661C159.734 247.521 158.775 246.608 157.554 245.914L156.566 247.654C157.515 248.192 158.199 248.863 158.657 249.659L160.391 248.661ZM157.546 245.91C156.312 245.225 154.876 244.904 153.276 244.904L153.276 246.904C154.609 246.904 155.696 247.17 156.574 247.658L157.546 245.91ZM153.276 244.904C151.674 244.904 150.218 245.225 148.938 245.899L149.87 247.669C150.819 247.17 151.945 246.904 153.276 246.904L153.276 244.904ZM148.91 245.914C147.692 246.606 146.725 247.513 146.041 248.642L147.751 249.678C148.24 248.871 148.945 248.194 149.898 247.654L148.91 245.914ZM146.034 248.653C145.361 249.798 145.016 251.028 145.016 252.328L147.016 252.328C147.016 251.399 147.258 250.517 147.758 249.667L146.034 248.653ZM145.016 252.328C145.016 253.643 145.338 254.881 145.979 256.028L147.725 255.052C147.251 254.204 147.016 253.302 147.016 252.328L145.016 252.328ZM145.99 256.047C146.671 257.205 147.626 258.121 148.83 258.79L149.802 257.042C148.894 256.538 148.206 255.87 147.714 255.033L145.99 256.047ZM148.84 258.796C150.1 259.477 151.561 259.796 153.188 259.796L153.188 257.796C151.823 257.796 150.703 257.529 149.792 257.036L148.84 258.796ZM165.376 294.336L164.988 295.258L166.376 295.842L166.376 294.336L165.376 294.336ZM129.472 279.244L128.472 279.244L128.472 279.909L129.084 280.166L129.472 279.244ZM129.472 272.688L129.871 271.771L128.472 271.163L128.472 272.688L129.472 272.688ZM141.616 277.968L141.217 278.886L141.605 279.054L141.996 278.893L141.616 277.968ZM165.376 268.2L166.376 268.2L166.376 266.708L164.996 267.276L165.376 268.2ZM165.376 275.108L165.723 276.046L166.376 275.805L166.376 275.108L165.376 275.108ZM148.348 281.4L148.001 280.462L145.48 281.394L147.997 282.337L148.348 281.4ZM165.376 287.78L166.376 287.78L166.376 287.087L165.727 286.844L165.376 287.78ZM165.763 293.415L129.859 278.323L129.084 280.166L164.988 295.258L165.763 293.415ZM130.472 279.244L130.472 272.688L128.472 272.688L128.472 279.244L130.472 279.244ZM129.073 273.606L141.217 278.886L142.015 277.051L129.871 271.771L129.073 273.606ZM141.996 278.893L165.756 269.125L164.996 267.276L141.236 277.044L141.996 278.893ZM164.376 268.2L164.376 275.108L166.376 275.108L166.376 268.2L164.376 268.2ZM165.029 274.17L148.001 280.462L148.695 282.338L165.723 276.046L165.029 274.17ZM147.997 282.337L165.025 288.717L165.727 286.844L148.699 280.464L147.997 282.337ZM164.376 287.78L164.376 294.336L166.376 294.336L166.376 287.78L164.376 287.78Z" fill="white"></path> </svg> 