<?xml version="1.0" encoding="UTF-8"?> <svg xmlns="http://www.w3.org/2000/svg" width="551" height="102" viewBox="0 0 551 102" fill="none"> <path d="M17.908 95.236L16.6306 97.9505L16.6624 97.9654L16.6945 97.9796L17.908 95.236ZM7.702 87.172L5.28091 88.9435L5.29137 88.9578L5.302 88.972L7.702 87.172ZM3.67 75.706V72.706H0.547601L0.672397 75.8259L3.67 75.706ZM18.538 75.706L21.527 75.4498L21.2919 72.706H18.538V75.706ZM22.696 83.14L20.8219 85.4826L20.8646 85.5167L20.9085 85.5493L22.696 83.14ZM41.722 83.77L43.4296 86.2366L43.4391 86.23L43.4485 86.2234L41.722 83.77ZM41.344 71.926L39.9657 74.5907L39.984 74.6001L40.0024 74.6093L41.344 71.926ZM29.626 67.768L30.4382 64.88L30.4288 64.8774L30.4193 64.8748L29.626 67.768ZM16.9 63.61L15.7613 66.3855L16.9 63.61ZM8.332 57.436L6.04447 59.3769L6.06132 59.3968L6.07851 59.4163L8.332 57.436ZM8.08 36.394L10.512 38.1505L10.5234 38.1347L10.5346 38.1188L8.08 36.394ZM17.404 29.086L16.2222 26.3286L16.2119 26.333L16.2015 26.3375L17.404 29.086ZM50.542 32.488L48.6096 34.7827L48.6313 34.801L48.6533 34.8188L50.542 32.488ZM58.354 48.742V51.742H61.5039L61.3504 48.5958L58.354 48.742ZM43.99 48.742L40.9998 48.9844L41.2234 51.742H43.99V48.742ZM40.21 41.308L42.105 38.9823L40.21 41.308ZM22.318 40.678L20.584 38.2299L20.5839 38.2299L22.318 40.678ZM21.31 51.01L19.2582 53.1986H19.2582L21.31 51.01ZM26.224 54.034L25.1308 56.8277L25.1842 56.8486L25.2384 56.8675L26.224 54.034ZM34.792 56.68L33.9594 59.5621L33.9891 59.5707L34.019 59.5787L34.792 56.68ZM47.14 60.838L45.9149 63.5765L45.9578 63.5957L46.0013 63.6135L47.14 60.838ZM55.582 66.886L53.3243 68.8615L55.582 66.886ZM59.236 77.596H62.236V77.5677L62.2355 77.5394L59.236 77.596ZM55.96 88.18L53.5054 86.4552H53.5054L55.96 88.18ZM46.636 95.488L45.4335 92.7395L45.4228 92.7442L45.4122 92.749L46.636 95.488ZM32.65 95.134C27.5483 95.134 23.0563 94.2328 19.1215 92.4924L16.6945 97.9796C21.4957 100.103 26.8317 101.134 32.65 101.134V95.134ZM19.1854 92.5215C15.2875 90.6872 12.2924 88.2925 10.102 85.372L5.302 88.972C8.15162 92.7715 11.9605 95.7528 16.6306 97.9505L19.1854 92.5215ZM10.1231 85.4005C7.94935 82.4297 6.8114 79.1809 6.6676 75.5861L0.672397 75.8259C0.864605 80.6311 2.41465 85.0263 5.28091 88.9435L10.1231 85.4005ZM3.67 78.706H18.538V72.706H3.67V78.706ZM15.549 75.9622C15.8781 79.8024 17.7269 83.0066 20.8219 85.4826L24.5701 80.7974C22.6251 79.2414 21.7019 77.4896 21.527 75.4498L15.549 75.9622ZM20.9085 85.5493C24.123 87.9342 28.0172 89.038 32.398 89.038V83.038C29.0508 83.038 26.477 82.2098 24.4835 80.7307L20.9085 85.5493ZM32.398 89.038C36.7439 89.038 40.5457 88.2332 43.4296 86.2366L40.0144 81.3034C38.5303 82.3308 36.1161 83.038 32.398 83.038V89.038ZM43.4485 86.2234C46.3871 84.1555 48.124 81.2808 48.124 77.722H42.124C42.124 79.0352 41.5929 80.1925 39.9955 81.3166L43.4485 86.2234ZM48.124 77.722C48.124 75.9154 47.6795 74.1957 46.6918 72.6812C45.7129 71.1802 44.3167 70.0582 42.6856 69.2427L40.0024 74.6093C40.8913 75.0537 41.3851 75.5278 41.6662 75.9588C41.9385 76.3763 42.124 76.9246 42.124 77.722H48.124ZM42.7223 69.2613C40.0027 67.8546 35.8525 66.4028 30.4382 64.88L28.8138 70.656C34.1516 72.1572 37.8133 73.4773 39.9657 74.5907L42.7223 69.2613ZM30.4193 64.8748C25.2747 63.4642 21.16 62.115 18.0387 60.8345L15.7613 66.3855C19.192 67.793 23.5613 69.2158 28.8327 70.6612L30.4193 64.8748ZM18.0387 60.8345C15.2088 59.6735 12.7294 57.8953 10.5855 55.4557L6.07851 59.4163C8.80658 62.5207 12.0392 64.8585 15.7613 66.3855L18.0387 60.8345ZM10.6195 55.4951C8.83281 53.3893 7.804 50.4808 7.804 46.474H1.804C1.804 51.5392 3.12719 55.9387 6.04447 59.3769L10.6195 55.4951ZM7.804 46.474C7.804 43.4149 8.69359 40.6683 10.512 38.1505L5.64796 34.6375C3.09841 38.1677 1.804 42.1411 1.804 46.474H7.804ZM10.5346 38.1188C12.3555 35.5275 14.9966 33.4138 18.6065 31.8345L16.2015 26.3375C11.7474 28.2862 8.17252 31.0445 5.62543 34.6692L10.5346 38.1188ZM18.5858 31.8434C22.2668 30.2658 26.5576 29.44 31.516 29.44V23.44C25.8904 23.44 20.7732 24.3782 16.2222 26.3286L18.5858 31.8434ZM31.516 29.44C38.8947 29.44 44.4918 31.3152 48.6096 34.7827L52.4744 30.1933C47.0162 25.5968 39.9293 23.44 31.516 23.44V29.44ZM48.6533 34.8188C52.7914 38.1722 55.0585 42.7577 55.3576 48.8882L61.3504 48.5958C60.9775 40.9503 58.0366 34.6998 52.4308 30.1572L48.6533 34.8188ZM58.354 45.742H43.99V51.742H58.354V45.742ZM46.9802 48.4995C46.667 44.6368 45.0517 41.3833 42.105 38.9823L38.315 43.6337C39.9043 44.9287 40.809 46.6312 40.9998 48.9844L46.9802 48.4995ZM42.105 38.9823C39.1512 36.5755 35.3435 35.536 31.012 35.536V41.536C34.4085 41.536 36.7328 42.3445 38.315 43.6337L42.105 38.9823ZM31.012 35.536C26.9193 35.536 23.3109 36.2983 20.584 38.2299L24.0521 43.1261C25.3571 42.2017 27.5447 41.536 31.012 41.536V35.536ZM20.5839 38.2299C17.8212 40.1869 16.294 42.9664 16.294 46.348H22.294C22.294 45.0256 22.7828 44.0251 24.0521 43.1261L20.5839 38.2299ZM16.294 46.348C16.294 49.0223 17.3071 51.3695 19.2582 53.1986L23.3618 48.8214C22.6249 48.1305 22.294 47.3697 22.294 46.348H16.294ZM19.2582 53.1986C20.9133 54.7503 22.8883 55.9502 25.1308 56.8277L27.3172 51.2403C25.6957 50.6058 24.3947 49.7897 23.3618 48.8214L19.2582 53.1986ZM25.2384 56.8675C27.2479 57.5664 30.1656 58.4662 33.9594 59.5621L35.6246 53.7979C31.8584 52.7098 29.0641 51.8456 27.2096 51.2005L25.2384 56.8675ZM34.019 59.5787C38.9717 60.8994 42.9213 62.2372 45.9149 63.5765L48.3651 58.0995C44.9747 56.5828 40.6923 55.1486 35.565 53.7813L34.019 59.5787ZM46.0013 63.6135C48.8435 64.7795 51.2755 66.5201 53.3243 68.8615L57.8397 64.9105C55.1845 61.8759 51.9885 59.5845 48.2787 58.0625L46.0013 63.6135ZM53.3243 68.8615C55.1045 70.896 56.1625 73.7278 56.2365 77.6526L62.2355 77.5394C62.1415 72.5602 60.7635 68.252 57.8397 64.9105L53.3243 68.8615ZM56.236 77.596C56.236 80.9525 55.3199 83.873 53.5054 86.4552L58.4146 89.9048C60.9681 86.271 62.236 82.1355 62.236 77.596H56.236ZM53.5054 86.4552C51.6845 89.0465 49.0434 91.1602 45.4335 92.7395L47.8385 98.2365C52.2926 96.2878 55.8675 93.5295 58.4146 89.9048L53.5054 86.4552ZM45.4122 92.749C41.9309 94.3044 37.7039 95.134 32.65 95.134V101.134C38.3481 101.134 43.4451 100.2 47.8598 98.227L45.4122 92.749ZM91.5146 39.292V36.292H88.5146V39.292H91.5146ZM93.2786 83.392L91.1573 85.5133L91.233 85.589L91.3139 85.6591L93.2786 83.392ZM108.399 85.03H111.399V82.03H108.399V85.03ZM108.399 97V100H111.399V97H108.399ZM82.1906 92.464L80.2112 94.7183L82.1906 92.464ZM77.0246 39.292H80.0246V36.292H77.0246V39.292ZM68.8346 39.292H65.8346V42.292H68.8346V39.292ZM68.8346 27.574V24.574H65.8346V27.574H68.8346ZM77.0246 27.574V30.574H80.0246V27.574H77.0246ZM77.0246 10.312V7.312H74.0246V10.312H77.0246ZM91.5146 10.312H94.5146V7.312H91.5146V10.312ZM91.5146 27.574H88.5146V30.574H91.5146V27.574ZM108.399 27.574H111.399V24.574H108.399V27.574ZM108.399 39.292V42.292H111.399V39.292H108.399ZM88.5146 39.292V77.722H94.5146V39.292H88.5146ZM88.5146 77.722C88.5146 80.6845 89.1709 83.5269 91.1573 85.5133L95.4 81.2707C95.0344 80.9051 94.5146 79.9675 94.5146 77.722H88.5146ZM91.3139 85.6591C93.4044 87.4709 96.4147 88.03 99.5786 88.03V82.03C96.8626 82.03 95.6729 81.4971 95.2434 81.1249L91.3139 85.6591ZM99.5786 88.03H108.399V82.03H99.5786V88.03ZM105.399 85.03V97H111.399V85.03H105.399ZM108.399 94H97.0586V100H108.399V94ZM97.0586 94C91.0217 94 86.8783 92.5876 84.17 90.2097L80.2112 94.7183C84.391 98.3884 90.1596 100 97.0586 100V94ZM84.17 90.2097C81.6367 87.9853 80.0246 84.0865 80.0246 77.722H74.0246C74.0246 84.9655 75.8566 90.8947 80.2112 94.7183L84.17 90.2097ZM80.0246 77.722V39.292H74.0246V77.722H80.0246ZM77.0246 36.292H68.8346V42.292H77.0246V36.292ZM71.8346 39.292V27.574H65.8346V39.292H71.8346ZM68.8346 30.574H77.0246V24.574H68.8346V30.574ZM80.0246 27.574V10.312H74.0246V27.574H80.0246ZM77.0246 13.312H91.5146V7.312H77.0246V13.312ZM88.5146 10.312V27.574H94.5146V10.312H88.5146ZM91.5146 30.574H108.399V24.574H91.5146V30.574ZM105.399 27.574V39.292H111.399V27.574H105.399ZM108.399 36.292H91.5146V42.292H108.399V36.292ZM184.512 27.574H187.512V24.574H184.512V27.574ZM184.512 97V100H187.512V97H184.512ZM170.148 97H167.148V100H170.148V97ZM170.148 88.81H173.148V80.2082L167.798 86.9444L170.148 88.81ZM161.202 95.614L162.414 98.3581L162.428 98.3517L162.443 98.3451L161.202 95.614ZM134.868 94.606L133.464 97.2574L133.474 97.263L133.485 97.2685L134.868 94.606ZM124.661 84.526L122.03 85.966L122.04 85.985L122.051 86.0038L124.661 84.526ZM121.007 27.574V24.574H118.007V27.574H121.007ZM135.245 27.574H138.245V24.574H135.245V27.574ZM139.908 80.62L137.705 82.6571L137.718 82.671L137.731 82.6848L139.908 80.62ZM165.359 80.62L163.185 78.5537L163.183 78.5552L165.359 80.62ZM170.148 27.574V24.574H167.148V27.574H170.148ZM181.512 27.574V97H187.512V27.574H181.512ZM184.512 94H170.148V100H184.512V94ZM173.148 97V88.81H167.148V97H173.148ZM167.798 86.9444C165.858 89.3877 163.273 91.377 159.96 92.8829L162.443 98.3451C166.522 96.491 169.901 93.9443 172.497 90.6756L167.798 86.9444ZM159.989 92.8699C156.775 94.29 153.326 95.008 149.609 95.008V101.008C154.125 101.008 158.404 100.13 162.414 98.3581L159.989 92.8699ZM149.609 95.008C144.577 95.008 140.146 93.9664 136.25 91.9435L133.485 97.2685C138.325 99.7816 143.722 101.008 149.609 101.008V95.008ZM136.271 91.9546C132.522 89.9697 129.527 87.0308 127.272 83.0482L122.051 86.0038C124.836 90.9252 128.645 94.7063 133.464 97.2574L136.271 91.9546ZM127.293 83.086C125.15 79.1698 124.007 74.3145 124.007 68.398H118.007C118.007 75.0815 119.301 80.9782 122.03 85.966L127.293 83.086ZM124.007 68.398V27.574H118.007V68.398H124.007ZM121.007 30.574H135.245V24.574H121.007V30.574ZM132.245 27.574V66.256H138.245V27.574H132.245ZM132.245 66.256C132.245 72.9529 133.924 78.5697 137.705 82.6571L142.11 78.5829C139.675 75.9503 138.245 71.9911 138.245 66.256H132.245ZM137.731 82.6848C141.513 86.6707 146.604 88.534 152.633 88.534V82.534C147.911 82.534 144.518 81.1213 142.084 78.5552L137.731 82.6848ZM152.633 88.534C158.663 88.534 163.754 86.6707 167.536 82.6848L163.183 78.5552C160.749 81.1213 157.356 82.534 152.633 82.534V88.534ZM167.535 82.6862C171.416 78.6005 173.148 72.9726 173.148 66.256H167.148C167.148 71.9714 165.687 75.9195 163.185 78.5537L167.535 82.6862ZM173.148 66.256V27.574H167.148V66.256H173.148ZM170.148 30.574H184.512V24.574H170.148V30.574ZM202.96 43.45L200.328 42.0106L200.319 42.0265L200.31 42.0425L202.96 43.45ZM214.804 30.976L216.334 33.5562L216.341 33.5523L216.347 33.5485L214.804 30.976ZM244.918 29.464L243.66 32.1879L243.692 32.2023L243.723 32.216L244.918 29.464ZM255.502 37.276L253.153 39.1427L258.502 45.8714V37.276H255.502ZM255.502 3.76V0.759998H252.502V3.76H255.502ZM269.992 3.76H272.992V0.759998H269.992V3.76ZM269.992 97V100H272.992V97H269.992ZM255.502 97H252.502V100H255.502V97ZM255.502 86.542H258.502V77.0249L253.044 84.8216L255.502 86.542ZM245.674 94.858L244.29 92.1964L244.279 92.2021L244.268 92.2079L245.674 94.858ZM214.804 93.598L213.21 96.1396L213.235 96.1553L213.26 96.1705L214.804 93.598ZM202.96 80.746L200.293 82.1199L200.305 82.1442L200.318 82.1683L202.96 80.746ZM252.478 49.75L249.846 51.1909L249.859 51.2148L249.873 51.2384L252.478 49.75ZM244.792 41.686L243.289 44.2823H243.289L244.792 41.686ZM224.128 41.686L225.579 44.3117L225.605 44.2973L225.631 44.2823L224.128 41.686ZM216.316 49.624L213.711 48.1356L213.705 48.1459L213.699 48.1562L216.316 49.624ZM216.316 74.572L213.67 75.987L213.683 76.0106L213.696 76.0341L216.316 74.572ZM224.128 82.888L222.574 85.4545L222.614 85.4783L222.654 85.5009L224.128 82.888ZM244.792 82.888L246.295 85.4843L244.792 82.888ZM252.478 74.824L249.858 73.3619L249.852 73.3725L249.846 73.3831L252.478 74.824ZM201.676 61.972C201.676 55.4189 203.015 49.7407 205.609 44.8575L200.31 42.0425C197.193 47.9113 195.676 54.5811 195.676 61.972H201.676ZM205.592 44.8894C208.291 39.9545 211.871 36.2041 216.334 33.5562L213.273 28.3958C207.825 31.6279 203.509 36.1935 200.328 42.0106L205.592 44.8894ZM216.347 33.5485C220.9 30.8166 225.949 29.44 231.562 29.44V23.44C224.911 23.44 218.787 25.0874 213.26 28.4035L216.347 33.5485ZM231.562 29.44C235.638 29.44 239.662 30.3425 243.66 32.1879L246.175 26.7401C241.437 24.5535 236.558 23.44 231.562 23.44V29.44ZM243.723 32.216C247.796 33.9835 250.901 36.3095 253.153 39.1427L257.85 35.4093C254.894 31.6905 250.943 28.8085 246.112 26.712L243.723 32.216ZM258.502 37.276V3.76H252.502V37.276H258.502ZM255.502 6.76H269.992V0.759998H255.502V6.76ZM266.992 3.76V97H272.992V3.76H266.992ZM269.992 94H255.502V100H269.992V94ZM258.502 97V86.542H252.502V97H258.502ZM253.044 84.8216C251.009 87.729 248.128 90.2006 244.29 92.1964L247.058 97.5197C251.62 95.1474 255.291 92.075 257.959 88.2624L253.044 84.8216ZM244.268 92.2079C240.647 94.1291 236.397 95.134 231.436 95.134V101.134C237.226 101.134 242.468 99.9549 247.08 97.508L244.268 92.2079ZM231.436 95.134C225.915 95.134 220.907 93.7614 216.347 91.0255L213.26 96.1705C218.78 99.4826 224.86 101.134 231.436 101.134V95.134ZM216.398 91.0564C211.908 88.2412 208.31 84.3547 205.601 79.3237L200.318 82.1683C203.489 88.0573 207.787 92.7388 213.21 96.1396L216.398 91.0564ZM205.627 79.3721C203.014 74.301 201.676 68.5232 201.676 61.972H195.676C195.676 69.3648 197.193 76.103 200.293 82.1199L205.627 79.3721ZM258.502 62.224C258.502 57.0076 257.4 52.3178 255.082 48.2616L249.873 51.2384C251.587 54.2382 252.502 57.8644 252.502 62.224H258.502ZM255.109 48.3091C252.938 44.3451 250.004 41.2371 246.295 39.0897L243.289 44.2823C245.963 45.8309 248.153 48.0989 249.846 51.1909L255.109 48.3091ZM246.295 39.0897C242.645 36.9767 238.682 35.914 234.46 35.914V41.914C237.629 41.914 240.554 42.6993 243.289 44.2823L246.295 39.0897ZM234.46 35.914C230.237 35.914 226.274 36.9767 222.625 39.0897L225.631 44.2823C228.365 42.6993 231.29 41.914 234.46 41.914V35.914ZM222.677 39.0603C218.949 41.12 215.968 44.1859 213.711 48.1356L218.92 51.1124C220.695 48.0061 222.922 45.78 225.579 44.3117L222.677 39.0603ZM213.699 48.1562C211.467 52.1347 210.418 56.7787 210.418 61.972H216.418C216.418 57.5893 217.3 54.0013 218.932 51.0918L213.699 48.1562ZM210.418 61.972C210.418 67.1701 211.469 71.8715 213.67 75.987L218.961 73.157C217.298 70.0485 216.418 66.3499 216.418 61.972H210.418ZM213.696 76.0341C215.937 80.0499 218.89 83.2246 222.574 85.4545L225.681 80.3215C222.981 78.6874 220.726 76.3181 218.935 73.1099L213.696 76.0341ZM222.654 85.5009C226.36 87.5918 230.309 88.66 234.46 88.66V82.66C231.386 82.66 228.447 81.8802 225.602 80.2751L222.654 85.5009ZM234.46 88.66C238.682 88.66 242.645 87.5973 246.295 85.4843L243.289 80.2917C240.554 81.8747 237.629 82.66 234.46 82.66V88.66ZM246.295 85.4843C250.004 83.3369 252.938 80.2289 255.109 76.2649L249.846 73.3831C248.153 76.4751 245.963 78.7431 243.289 80.2917L246.295 85.4843ZM255.097 76.2861C257.4 72.1611 258.502 67.4425 258.502 62.224H252.502C252.502 66.5815 251.588 70.2629 249.858 73.3619L255.097 76.2861ZM351.984 67.642V70.642H354.542L354.947 68.116L351.984 67.642ZM298.938 67.642V64.642H295.702L295.947 67.8686L298.938 67.642ZM305.112 80.998L303.094 83.2178L305.112 80.998ZM335.1 76.336V73.336H333.235L332.41 75.0084L335.1 76.336ZM350.598 76.336L353.448 77.2734L354.743 73.336H350.598V76.336ZM339.132 92.086L340.914 94.4993L340.921 94.4947L339.132 92.086ZM300.828 93.724L299.322 96.3184L299.346 96.3327L299.371 96.3465L300.828 93.724ZM288.48 81.124L285.839 82.5463L285.852 82.5707L285.865 82.5948L288.48 81.124ZM288.354 43.45L285.713 42.0277L285.709 42.0351L285.705 42.0425L288.354 43.45ZM300.576 30.85L299.119 28.2275L299.11 28.2325L299.101 28.2375L300.576 30.85ZM336.234 30.724L337.695 28.1036L336.234 30.724ZM348.204 42.82L345.574 44.2625L345.579 44.2716L345.584 44.2806L348.204 42.82ZM337.494 56.05V59.05H340.542L340.494 56.0024L337.494 56.05ZM331.824 43.324L333.785 41.0535L331.824 43.324ZM305.364 43.324L307.347 45.5751L307.362 45.5619L307.377 45.5486L305.364 43.324ZM299.064 56.05L296.087 55.6779L295.666 59.05H299.064V56.05ZM349.488 60.586C349.488 63.0651 349.328 65.2549 349.022 67.168L354.947 68.116C355.312 65.829 355.488 63.3149 355.488 60.586H349.488ZM351.984 64.642H298.938V70.642H351.984V64.642ZM295.947 67.8686C296.418 74.0831 298.765 79.2822 303.094 83.2178L307.13 78.7782C304.067 75.9938 302.299 72.2888 301.93 67.4154L295.947 67.8686ZM303.094 83.2178C307.387 87.1201 312.66 89.038 318.72 89.038V83.038C314.028 83.038 310.23 81.5959 307.13 78.7782L303.094 83.2178ZM318.72 89.038C323.005 89.038 326.856 88.1389 330.14 86.1937C333.437 84.2412 335.973 81.3459 337.79 77.6637L332.41 75.0084C331.035 77.7941 329.246 79.7498 327.082 81.0313C324.906 82.3201 322.163 83.038 318.72 83.038V89.038ZM335.1 79.336H350.598V73.336H335.1V79.336ZM347.748 75.3986C345.848 81.1773 342.405 85.9196 337.344 89.6773L340.921 94.4947C346.947 90.0204 351.149 84.2626 353.448 77.2734L347.748 75.3986ZM337.35 89.6727C332.503 93.252 326.359 95.134 318.72 95.134V101.134C327.378 101.134 334.841 98.9839 340.914 94.4993L337.35 89.6727ZM318.72 95.134C312.544 95.134 307.09 93.7706 302.285 91.1015L299.371 96.3465C305.151 99.5574 311.625 101.134 318.72 101.134V95.134ZM302.335 91.1296C297.601 88.3813 293.863 84.5743 291.095 79.6532L285.865 82.5948C289.145 88.4257 293.639 93.0187 299.322 96.3184L302.335 91.1296ZM291.122 79.7017C288.45 74.741 287.07 68.9433 287.07 62.224H281.07C281.07 69.7847 282.63 76.587 285.839 82.5463L291.122 79.7017ZM287.07 62.224C287.07 55.4898 288.415 49.7308 291.004 44.8575L285.705 42.0425C282.582 47.9212 281.07 54.6782 281.07 62.224H287.07ZM290.996 44.8723C293.677 39.8919 297.355 36.1133 302.051 33.4625L299.101 28.2375C293.381 31.4667 288.911 36.0881 285.713 42.0277L290.996 44.8723ZM302.033 33.4725C306.826 30.8095 312.362 29.44 318.72 29.44V23.44C311.471 23.44 304.91 25.0105 299.119 28.2275L302.033 33.4725ZM318.72 29.44C324.822 29.44 330.147 30.7654 334.774 33.3444L337.695 28.1036C332.074 24.9706 325.723 23.44 318.72 23.44V29.44ZM334.774 33.3444C339.398 35.922 342.986 39.5428 345.574 44.2625L350.835 41.3775C347.711 35.6812 343.318 31.238 337.695 28.1036L334.774 33.3444ZM345.584 44.2806C348.157 48.8965 349.488 54.3019 349.488 60.586H355.488C355.488 53.4301 353.964 46.9915 350.825 41.3594L345.584 44.2806ZM340.494 56.0024C340.398 49.9358 338.187 44.8551 333.785 41.0535L329.863 45.5945C332.854 48.1769 334.423 51.5802 334.495 56.0976L340.494 56.0024ZM333.785 41.0535C329.479 37.3347 324.179 35.536 318.09 35.536V41.536C322.921 41.536 326.777 42.9293 329.863 45.5945L333.785 41.0535ZM318.09 35.536C312.424 35.536 307.456 37.3859 303.351 41.0994L307.377 45.5486C310.329 42.878 313.844 41.536 318.09 41.536V35.536ZM303.381 41.0729C299.221 44.7381 296.835 49.693 296.087 55.6779L302.041 56.4221C302.637 51.655 304.452 48.1259 307.347 45.5751L303.381 41.0729ZM299.064 59.05H337.494V53.05H299.064V59.05ZM416.268 29.842L414.864 32.4934L414.875 32.499L414.885 32.5045L416.268 29.842ZM426.474 39.922L423.842 41.362V41.362L426.474 39.922ZM430.128 97V100H433.128V97H430.128ZM415.89 97H412.89V100H415.89V97ZM411.228 43.954L409.026 45.9911L409.038 46.005L409.051 46.0188L411.228 43.954ZM385.65 43.954L383.475 41.8877L383.473 41.8892L385.65 43.954ZM380.988 97V100H383.988V97H380.988ZM366.624 97H363.624V100H366.624V97ZM366.624 27.574V24.574H363.624V27.574H366.624ZM380.988 27.574H383.988V24.574H380.988V27.574ZM380.988 35.512H377.988V43.874L383.304 37.4191L380.988 35.512ZM389.934 28.834L388.745 26.0798L388.733 26.0848L388.721 26.0899L389.934 28.834ZM401.652 29.44C406.685 29.44 411.065 30.4819 414.864 32.4934L417.671 27.1906C412.903 24.6661 407.538 23.44 401.652 23.44V29.44ZM414.885 32.5045C418.708 34.4891 421.682 37.4152 423.842 41.362L429.106 38.482C426.393 33.5247 422.564 29.7309 417.65 27.1795L414.885 32.5045ZM423.842 41.362C425.985 45.2782 427.128 50.1335 427.128 56.05H433.128C433.128 49.3665 431.835 43.4698 429.106 38.482L423.842 41.362ZM427.128 56.05V97H433.128V56.05H427.128ZM430.128 94H415.89V100H430.128V94ZM418.89 97V58.192H412.89V97H418.89ZM418.89 58.192C418.89 51.5008 417.213 45.9041 413.404 41.8892L409.051 46.0188C411.458 48.5559 412.89 52.4512 412.89 58.192H418.89ZM413.43 41.9169C409.655 37.8351 404.555 35.914 398.502 35.914V41.914C403.201 41.914 406.585 43.3529 409.026 45.9911L413.43 41.9169ZM398.502 35.914C392.447 35.914 387.325 37.835 383.475 41.8877L387.825 46.0202C390.359 43.353 393.805 41.914 398.502 41.914V35.914ZM383.473 41.8892C379.664 45.9041 377.988 51.5008 377.988 58.192H383.988C383.988 52.4512 385.419 48.5559 387.826 46.0188L383.473 41.8892ZM377.988 58.192V97H383.988V58.192H377.988ZM380.988 94H366.624V100H380.988V94ZM369.624 97V27.574H363.624V97H369.624ZM366.624 30.574H380.988V24.574H366.624V30.574ZM377.988 27.574V35.512H383.988V27.574H377.988ZM383.304 37.4191C385.338 34.9484 387.933 32.998 391.146 31.5781L388.721 26.0899C384.711 27.862 381.341 30.3636 378.672 33.6049L383.304 37.4191ZM391.123 31.5882C394.435 30.158 397.935 29.44 401.652 29.44V23.44C397.136 23.44 392.825 24.318 388.745 26.0798L391.123 31.5882ZM465.208 39.292V36.292H462.208V39.292H465.208ZM466.972 83.392L464.851 85.5133L464.926 85.589L465.007 85.6591L466.972 83.392ZM482.092 85.03H485.092V82.03H482.092V85.03ZM482.092 97V100H485.092V97H482.092ZM455.884 92.464L453.905 94.7183L455.884 92.464ZM450.718 39.292H453.718V36.292H450.718V39.292ZM442.528 39.292H439.528V42.292H442.528V39.292ZM442.528 27.574V24.574H439.528V27.574H442.528ZM450.718 27.574V30.574H453.718V27.574H450.718ZM450.718 10.312V7.312H447.718V10.312H450.718ZM465.208 10.312H468.208V7.312H465.208V10.312ZM465.208 27.574H462.208V30.574H465.208V27.574ZM482.092 27.574H485.092V24.574H482.092V27.574ZM482.092 39.292V42.292H485.092V39.292H482.092ZM462.208 39.292V77.722H468.208V39.292H462.208ZM462.208 77.722C462.208 80.6845 462.864 83.5269 464.851 85.5133L469.093 81.2707C468.728 80.9051 468.208 79.9675 468.208 77.722H462.208ZM465.007 85.6591C467.098 87.4709 470.108 88.03 473.272 88.03V82.03C470.556 82.03 469.366 81.4971 468.937 81.1249L465.007 85.6591ZM473.272 88.03H482.092V82.03H473.272V88.03ZM479.092 85.03V97H485.092V85.03H479.092ZM482.092 94H470.752V100H482.092V94ZM470.752 94C464.715 94 460.572 92.5876 457.863 90.2097L453.905 94.7183C458.084 98.3884 463.853 100 470.752 100V94ZM457.863 90.2097C455.33 87.9853 453.718 84.0865 453.718 77.722H447.718C447.718 84.9655 449.55 90.8947 453.905 94.7183L457.863 90.2097ZM453.718 77.722V39.292H447.718V77.722H453.718ZM450.718 36.292H442.528V42.292H450.718V36.292ZM445.528 39.292V27.574H439.528V39.292H445.528ZM442.528 30.574H450.718V24.574H442.528V30.574ZM453.718 27.574V10.312H447.718V27.574H453.718ZM450.718 13.312H465.208V7.312H450.718V13.312ZM462.208 10.312V27.574H468.208V10.312H462.208ZM465.208 30.574H482.092V24.574H465.208V30.574ZM479.092 27.574V39.292H485.092V27.574H479.092ZM482.092 36.292H465.208V42.292H482.092V36.292ZM505.789 95.236L504.511 97.9505L504.543 97.9654L504.575 97.9796L505.789 95.236ZM495.583 87.172L493.162 88.9435L493.172 88.9578L493.183 88.972L495.583 87.172ZM491.551 75.706V72.706H488.428L488.553 75.8259L491.551 75.706ZM506.419 75.706L509.408 75.4498L509.173 72.706H506.419V75.706ZM510.577 83.14L508.703 85.4826L508.745 85.5167L508.789 85.5493L510.577 83.14ZM529.603 83.77L531.31 86.2366L531.32 86.23L531.329 86.2234L529.603 83.77ZM529.225 71.926L527.847 74.5907L527.865 74.6001L527.883 74.6093L529.225 71.926ZM517.507 67.768L518.319 64.88L518.31 64.8774L518.3 64.8748L517.507 67.768ZM504.781 63.61L503.642 66.3855L504.781 63.61ZM496.213 57.436L493.925 59.3769L493.942 59.3968L493.959 59.4163L496.213 57.436ZM495.961 36.394L498.393 38.1505L498.404 38.1347L498.415 38.1188L495.961 36.394ZM505.285 29.086L504.103 26.3286L504.093 26.333L504.082 26.3375L505.285 29.086ZM538.423 32.488L536.49 34.7827L536.512 34.801L536.534 34.8188L538.423 32.488ZM546.235 48.742V51.742H549.385L549.231 48.5958L546.235 48.742ZM531.871 48.742L528.881 48.9844L529.104 51.742H531.871V48.742ZM528.091 41.308L529.986 38.9823L528.091 41.308ZM510.199 40.678L508.465 38.2299V38.2299L510.199 40.678ZM509.191 51.01L507.139 53.1986L509.191 51.01ZM514.105 54.034L513.012 56.8277L513.065 56.8486L513.119 56.8675L514.105 54.034ZM522.673 56.68L521.84 59.5621L521.87 59.5707L521.9 59.5787L522.673 56.68ZM535.021 60.838L533.796 63.5765L533.839 63.5957L533.882 63.6135L535.021 60.838ZM543.463 66.886L541.205 68.8615L543.463 66.886ZM547.117 77.596H550.117V77.5677L550.116 77.5394L547.117 77.596ZM543.841 88.18L541.386 86.4552L543.841 88.18ZM534.517 95.488L533.314 92.7395L533.304 92.7442L533.293 92.749L534.517 95.488ZM520.531 95.134C515.429 95.134 510.937 94.2328 507.002 92.4924L504.575 97.9796C509.377 100.103 514.713 101.134 520.531 101.134V95.134ZM507.066 92.5215C503.168 90.6872 500.173 88.2925 497.983 85.372L493.183 88.972C496.032 92.7715 499.841 95.7528 504.511 97.9505L507.066 92.5215ZM498.004 85.4005C495.83 82.4297 494.692 79.1809 494.548 75.5861L488.553 75.8259C488.745 80.6311 490.296 85.0263 493.162 88.9435L498.004 85.4005ZM491.551 78.706H506.419V72.706H491.551V78.706ZM503.43 75.9622C503.759 79.8024 505.608 83.0066 508.703 85.4826L512.451 80.7974C510.506 79.2414 509.583 77.4896 509.408 75.4498L503.43 75.9622ZM508.789 85.5493C512.004 87.9342 515.898 89.038 520.279 89.038V83.038C516.932 83.038 514.358 82.2098 512.364 80.7307L508.789 85.5493ZM520.279 89.038C524.625 89.038 528.427 88.2332 531.31 86.2366L527.895 81.3034C526.411 82.3308 523.997 83.038 520.279 83.038V89.038ZM531.329 86.2234C534.268 84.1555 536.005 81.2808 536.005 77.722H530.005C530.005 79.0352 529.474 80.1925 527.876 81.3166L531.329 86.2234ZM536.005 77.722C536.005 75.9154 535.56 74.1957 534.573 72.6812C533.594 71.1802 532.198 70.0582 530.567 69.2427L527.883 74.6093C528.772 75.0537 529.266 75.5278 529.547 75.9588C529.819 76.3763 530.005 76.9246 530.005 77.722H536.005ZM530.603 69.2613C527.884 67.8546 523.733 66.4028 518.319 64.88L516.695 70.656C522.032 72.1572 525.694 73.4773 527.847 74.5907L530.603 69.2613ZM518.3 64.8748C513.156 63.4642 509.041 62.115 505.92 60.8345L503.642 66.3855C507.073 67.793 511.442 69.2158 516.714 70.6612L518.3 64.8748ZM505.92 60.8345C503.09 59.6735 500.61 57.8953 498.466 55.4557L493.959 59.4163C496.687 62.5207 499.92 64.8585 503.642 66.3855L505.92 60.8345ZM498.5 55.4951C496.714 53.3893 495.685 50.4808 495.685 46.474H489.685C489.685 51.5392 491.008 55.9387 493.925 59.3769L498.5 55.4951ZM495.685 46.474C495.685 43.4149 496.574 40.6683 498.393 38.1505L493.529 34.6375C490.979 38.1677 489.685 42.1411 489.685 46.474H495.685ZM498.415 38.1188C500.236 35.5275 502.877 33.4138 506.487 31.8345L504.082 26.3375C499.628 28.2862 496.053 31.0445 493.506 34.6692L498.415 38.1188ZM506.467 31.8434C510.148 30.2658 514.438 29.44 519.397 29.44V23.44C513.771 23.44 508.654 24.3782 504.103 26.3286L506.467 31.8434ZM519.397 29.44C526.776 29.44 532.373 31.3152 536.49 34.7827L540.355 30.1933C534.897 25.5968 527.81 23.44 519.397 23.44V29.44ZM536.534 34.8188C540.672 38.1722 542.939 42.7577 543.238 48.8882L549.231 48.5958C548.858 40.9503 545.917 34.6998 540.312 30.1572L536.534 34.8188ZM546.235 45.742H531.871V51.742H546.235V45.742ZM534.861 48.4995C534.548 44.6368 532.933 41.3833 529.986 38.9823L526.196 43.6337C527.785 44.9287 528.69 46.6312 528.881 48.9844L534.861 48.4995ZM529.986 38.9823C527.032 36.5755 523.224 35.536 518.893 35.536V41.536C522.289 41.536 524.614 42.3445 526.196 43.6337L529.986 38.9823ZM518.893 35.536C514.8 35.536 511.192 36.2983 508.465 38.2299L511.933 43.1261C513.238 42.2017 515.426 41.536 518.893 41.536V35.536ZM508.465 38.2299C505.702 40.1869 504.175 42.9664 504.175 46.348H510.175C510.175 45.0256 510.664 44.0251 511.933 43.1261L508.465 38.2299ZM504.175 46.348C504.175 49.0223 505.188 51.3695 507.139 53.1986L511.243 48.8214C510.506 48.1305 510.175 47.3697 510.175 46.348H504.175ZM507.139 53.1986C508.794 54.7503 510.769 55.9502 513.012 56.8277L515.198 51.2403C513.577 50.6058 512.276 49.7897 511.243 48.8214L507.139 53.1986ZM513.119 56.8675C515.129 57.5664 518.046 58.4662 521.84 59.5621L523.505 53.7979C519.739 52.7098 516.945 51.8456 515.09 51.2005L513.119 56.8675ZM521.9 59.5787C526.853 60.8994 530.802 62.2372 533.796 63.5765L536.246 58.0995C532.856 56.5828 528.573 55.1486 523.446 53.7813L521.9 59.5787ZM533.882 63.6135C536.724 64.7795 539.156 66.5201 541.205 68.8615L545.721 64.9105C543.065 61.8759 539.869 59.5845 536.16 58.0625L533.882 63.6135ZM541.205 68.8615C542.985 70.896 544.043 73.7278 544.117 77.6526L550.116 77.5394C550.022 72.5602 548.644 68.252 545.721 64.9105L541.205 68.8615ZM544.117 77.596C544.117 80.9525 543.201 83.873 541.386 86.4552L546.295 89.9048C548.849 86.271 550.117 82.1355 550.117 77.596H544.117ZM541.386 86.4552C539.565 89.0465 536.924 91.1602 533.314 92.7395L535.719 98.2365C540.173 96.2878 543.748 93.5295 546.295 89.9048L541.386 86.4552ZM533.293 92.749C529.812 94.3044 525.585 95.134 520.531 95.134V101.134C526.229 101.134 531.326 100.2 535.741 98.227L533.293 92.749Z" fill="url(#paint0_linear)"></path> <defs> <linearGradient id="paint0_linear" x1="276" y1="-42" x2="276" y2="147" gradientUnits="userSpaceOnUse"> <stop stop-color="#5AB4E7"></stop> <stop offset="1" stop-color="#7F5AE7"></stop> </linearGradient> </defs> </svg> 