<?xml version="1.0" encoding="UTF-8"?> <svg xmlns="http://www.w3.org/2000/svg" width="189" height="317" viewBox="0 0 189 317" fill="none"> <rect width="189" height="317" rx="9" fill="#7F5AE7"></rect> <path d="M30.802 36.21H25.33L24.322 39H22.594L27.13 26.526H29.02L33.538 39H31.81L30.802 36.21ZM30.334 34.878L28.066 28.542L25.798 34.878H30.334ZM37.1529 25.68V39H35.5149V25.68H37.1529ZM44.0126 28.974C44.8646 28.974 45.6086 29.16 46.2446 29.532C46.8926 29.904 47.3726 30.372 47.6846 30.936V29.136H49.3406V39.216C49.3406 40.116 49.1486 40.914 48.7646 41.61C48.3806 42.318 47.8286 42.87 47.1086 43.266C46.4006 43.662 45.5726 43.86 44.6246 43.86C43.3286 43.86 42.2486 43.554 41.3846 42.942C40.5206 42.33 40.0106 41.496 39.8546 40.44H41.4746C41.6546 41.04 42.0266 41.52 42.5906 41.88C43.1546 42.252 43.8326 42.438 44.6246 42.438C45.5246 42.438 46.2566 42.156 46.8206 41.592C47.3966 41.028 47.6846 40.236 47.6846 39.216V37.146C47.3606 37.722 46.8806 38.202 46.2446 38.586C45.6086 38.97 44.8646 39.162 44.0126 39.162C43.1366 39.162 42.3386 38.946 41.6186 38.514C40.9106 38.082 40.3526 37.476 39.9446 36.696C39.5366 35.916 39.3326 35.028 39.3326 34.032C39.3326 33.024 39.5366 32.142 39.9446 31.386C40.3526 30.618 40.9106 30.024 41.6186 29.604C42.3386 29.184 43.1366 28.974 44.0126 28.974ZM47.6846 34.05C47.6846 33.306 47.5346 32.658 47.2346 32.106C46.9346 31.554 46.5266 31.134 46.0106 30.846C45.5066 30.546 44.9486 30.396 44.3366 30.396C43.7246 30.396 43.1666 30.54 42.6626 30.828C42.1586 31.116 41.7566 31.536 41.4566 32.088C41.1566 32.64 41.0066 33.288 41.0066 34.032C41.0066 34.788 41.1566 35.448 41.4566 36.012C41.7566 36.564 42.1586 36.99 42.6626 37.29C43.1666 37.578 43.7246 37.722 44.3366 37.722C44.9486 37.722 45.5066 37.578 46.0106 37.29C46.5266 36.99 46.9346 36.564 47.2346 36.012C47.5346 35.448 47.6846 34.794 47.6846 34.05ZM61.1087 33.69C61.1087 34.002 61.0907 34.332 61.0547 34.68H53.1707C53.2307 35.652 53.5607 36.414 54.1607 36.966C54.7727 37.506 55.5107 37.776 56.3747 37.776C57.0827 37.776 57.6707 37.614 58.1387 37.29C58.6187 36.954 58.9547 36.51 59.1467 35.958H60.9107C60.6467 36.906 60.1187 37.68 59.3267 38.28C58.5347 38.868 57.5507 39.162 56.3747 39.162C55.4387 39.162 54.5987 38.952 53.8547 38.532C53.1227 38.112 52.5467 37.518 52.1267 36.75C51.7067 35.97 51.4967 35.07 51.4967 34.05C51.4967 33.03 51.7007 32.136 52.1087 31.368C52.5167 30.6 53.0867 30.012 53.8187 29.604C54.5627 29.184 55.4147 28.974 56.3747 28.974C57.3107 28.974 58.1387 29.178 58.8587 29.586C59.5787 29.994 60.1307 30.558 60.5147 31.278C60.9107 31.986 61.1087 32.79 61.1087 33.69ZM59.4167 33.348C59.4167 32.724 59.2787 32.19 59.0027 31.746C58.7267 31.29 58.3487 30.948 57.8687 30.72C57.4007 30.48 56.8787 30.36 56.3027 30.36C55.4747 30.36 54.7667 30.624 54.1787 31.152C53.6027 31.68 53.2727 32.412 53.1887 33.348H59.4167ZM64.9088 30.972C65.2448 30.384 65.7368 29.904 66.3848 29.532C67.0328 29.16 67.7708 28.974 68.5988 28.974C69.4868 28.974 70.2848 29.184 70.9928 29.604C71.7008 30.024 72.2588 30.618 72.6668 31.386C73.0748 32.142 73.2788 33.024 73.2788 34.032C73.2788 35.028 73.0748 35.916 72.6668 36.696C72.2588 37.476 71.6948 38.082 70.9748 38.514C70.2668 38.946 69.4748 39.162 68.5988 39.162C67.7468 39.162 66.9968 38.976 66.3488 38.604C65.7128 38.232 65.2328 37.758 64.9088 37.182V39H63.2708V25.68H64.9088V30.972ZM71.6048 34.032C71.6048 33.288 71.4548 32.64 71.1548 32.088C70.8548 31.536 70.4468 31.116 69.9308 30.828C69.4268 30.54 68.8688 30.396 68.2568 30.396C67.6568 30.396 67.0988 30.546 66.5828 30.846C66.0788 31.134 65.6708 31.56 65.3588 32.124C65.0588 32.676 64.9088 33.318 64.9088 34.05C64.9088 34.794 65.0588 35.448 65.3588 36.012C65.6708 36.564 66.0788 36.99 66.5828 37.29C67.0988 37.578 67.6568 37.722 68.2568 37.722C68.8688 37.722 69.4268 37.578 69.9308 37.29C70.4468 36.99 70.8548 36.564 71.1548 36.012C71.4548 35.448 71.6048 34.788 71.6048 34.032ZM77.0728 30.738C77.3608 30.174 77.7688 29.736 78.2968 29.424C78.8368 29.112 79.4908 28.956 80.2588 28.956V30.648H79.8268C77.9908 30.648 77.0728 31.644 77.0728 33.636V39H75.4348V29.136H77.0728V30.738ZM81.5377 34.032C81.5377 33.024 81.7417 32.142 82.1497 31.386C82.5577 30.618 83.1157 30.024 83.8237 29.604C84.5437 29.184 85.3417 28.974 86.2177 28.974C87.0817 28.974 87.8317 29.16 88.4677 29.532C89.1037 29.904 89.5777 30.372 89.8897 30.936V29.136H91.5457V39H89.8897V37.164C89.5657 37.74 89.0797 38.22 88.4317 38.604C87.7957 38.976 87.0517 39.162 86.1997 39.162C85.3237 39.162 84.5317 38.946 83.8237 38.514C83.1157 38.082 82.5577 37.476 82.1497 36.696C81.7417 35.916 81.5377 35.028 81.5377 34.032ZM89.8897 34.05C89.8897 33.306 89.7397 32.658 89.4397 32.106C89.1397 31.554 88.7317 31.134 88.2157 30.846C87.7117 30.546 87.1537 30.396 86.5417 30.396C85.9297 30.396 85.3717 30.54 84.8677 30.828C84.3637 31.116 83.9617 31.536 83.6617 32.088C83.3617 32.64 83.2117 33.288 83.2117 34.032C83.2117 34.788 83.3617 35.448 83.6617 36.012C83.9617 36.564 84.3637 36.99 84.8677 37.29C85.3717 37.578 85.9297 37.722 86.5417 37.722C87.1537 37.722 87.7117 37.578 88.2157 37.29C88.7317 36.99 89.1397 36.564 89.4397 36.012C89.7397 35.448 89.8897 34.794 89.8897 34.05Z" fill="white"></path> <path d="M25.024 79.668H29.416V81H23.386V68.454H25.024V79.668ZM32.0015 69.534C31.6895 69.534 31.4255 69.426 31.2095 69.21C30.9935 68.994 30.8855 68.73 30.8855 68.418C30.8855 68.106 30.9935 67.842 31.2095 67.626C31.4255 67.41 31.6895 67.302 32.0015 67.302C32.3015 67.302 32.5535 67.41 32.7575 67.626C32.9735 67.842 33.0815 68.106 33.0815 68.418C33.0815 68.73 32.9735 68.994 32.7575 69.21C32.5535 69.426 32.3015 69.534 32.0015 69.534ZM32.7935 71.136V81H31.1555V71.136H32.7935ZM37.5832 72.486V78.3C37.5832 78.78 37.6852 79.122 37.8892 79.326C38.0932 79.518 38.4472 79.614 38.9512 79.614H40.1572V81H38.6812C37.7692 81 37.0852 80.79 36.6292 80.37C36.1732 79.95 35.9452 79.26 35.9452 78.3V72.486H34.6672V71.136H35.9452V68.652H37.5832V71.136H40.1572V72.486H37.5832ZM51.1419 75.69C51.1419 76.002 51.1239 76.332 51.0879 76.68H43.2039C43.2639 77.652 43.5939 78.414 44.1939 78.966C44.8059 79.506 45.5439 79.776 46.4079 79.776C47.1159 79.776 47.7039 79.614 48.1719 79.29C48.6519 78.954 48.9879 78.51 49.1799 77.958H50.9439C50.6799 78.906 50.1519 79.68 49.3599 80.28C48.5679 80.868 47.5839 81.162 46.4079 81.162C45.4719 81.162 44.6319 80.952 43.8879 80.532C43.1559 80.112 42.5799 79.518 42.1599 78.75C41.7399 77.97 41.5299 77.07 41.5299 76.05C41.5299 75.03 41.7339 74.136 42.1419 73.368C42.5499 72.6 43.1199 72.012 43.8519 71.604C44.5959 71.184 45.4479 70.974 46.4079 70.974C47.3439 70.974 48.1719 71.178 48.8919 71.586C49.6119 71.994 50.1639 72.558 50.5479 73.278C50.9439 73.986 51.1419 74.79 51.1419 75.69ZM49.4499 75.348C49.4499 74.724 49.3119 74.19 49.0359 73.746C48.7599 73.29 48.3819 72.948 47.9019 72.72C47.4339 72.48 46.9119 72.36 46.3359 72.36C45.5079 72.36 44.7999 72.624 44.2119 73.152C43.6359 73.68 43.3059 74.412 43.2219 75.348H49.4499ZM54.942 72.738C55.23 72.174 55.638 71.736 56.166 71.424C56.706 71.112 57.36 70.956 58.128 70.956V72.648H57.696C55.86 72.648 54.942 73.644 54.942 75.636V81H53.304V71.136H54.942V72.738ZM59.4068 76.032C59.4068 75.024 59.6108 74.142 60.0188 73.386C60.4268 72.618 60.9848 72.024 61.6928 71.604C62.4128 71.184 63.2108 70.974 64.0868 70.974C64.9508 70.974 65.7008 71.16 66.3368 71.532C66.9728 71.904 67.4468 72.372 67.7588 72.936V71.136H69.4148V81H67.7588V79.164C67.4348 79.74 66.9488 80.22 66.3008 80.604C65.6648 80.976 64.9208 81.162 64.0688 81.162C63.1928 81.162 62.4008 80.946 61.6928 80.514C60.9848 80.082 60.4268 79.476 60.0188 78.696C59.6108 77.916 59.4068 77.028 59.4068 76.032ZM67.7588 76.05C67.7588 75.306 67.6088 74.658 67.3088 74.106C67.0088 73.554 66.6008 73.134 66.0848 72.846C65.5808 72.546 65.0228 72.396 64.4108 72.396C63.7988 72.396 63.2408 72.54 62.7368 72.828C62.2328 73.116 61.8308 73.536 61.5308 74.088C61.2308 74.64 61.0808 75.288 61.0808 76.032C61.0808 76.788 61.2308 77.448 61.5308 78.012C61.8308 78.564 62.2328 78.99 62.7368 79.29C63.2408 79.578 63.7988 79.722 64.4108 79.722C65.0228 79.722 65.5808 79.578 66.0848 79.29C66.6008 78.99 67.0088 78.564 67.3088 78.012C67.6088 77.448 67.7588 76.794 67.7588 76.05ZM74.1809 72.486V78.3C74.1809 78.78 74.2829 79.122 74.4869 79.326C74.6909 79.518 75.0449 79.614 75.5489 79.614H76.7549V81H75.2789C74.3669 81 73.6829 80.79 73.2269 80.37C72.7709 79.95 72.5429 79.26 72.5429 78.3V72.486H71.2649V71.136H72.5429V68.652H74.1809V71.136H76.7549V72.486H74.1809ZM87.4875 71.136V81H85.8495V79.542C85.5375 80.046 85.0995 80.442 84.5355 80.73C83.9835 81.006 83.3715 81.144 82.6995 81.144C81.9315 81.144 81.2415 80.988 80.6295 80.676C80.0175 80.352 79.5315 79.872 79.1715 79.236C78.8235 78.6 78.6495 77.826 78.6495 76.914V71.136H80.2695V76.698C80.2695 77.67 80.5155 78.42 81.0075 78.948C81.4995 79.464 82.1715 79.722 83.0235 79.722C83.8995 79.722 84.5895 79.452 85.0935 78.912C85.5975 78.372 85.8495 77.586 85.8495 76.554V71.136H87.4875ZM91.8912 72.738C92.1792 72.174 92.5872 71.736 93.1152 71.424C93.6552 71.112 94.3092 70.956 95.0772 70.956V72.648H94.6452C92.8092 72.648 91.8912 73.644 91.8912 75.636V81H90.2532V71.136H91.8912V72.738ZM105.968 75.69C105.968 76.002 105.95 76.332 105.914 76.68H98.03C98.09 77.652 98.42 78.414 99.02 78.966C99.632 79.506 100.37 79.776 101.234 79.776C101.942 79.776 102.53 79.614 102.998 79.29C103.478 78.954 103.814 78.51 104.006 77.958H105.77C105.506 78.906 104.978 79.68 104.186 80.28C103.394 80.868 102.41 81.162 101.234 81.162C100.298 81.162 99.458 80.952 98.714 80.532C97.982 80.112 97.406 79.518 96.986 78.75C96.566 77.97 96.356 77.07 96.356 76.05C96.356 75.03 96.56 74.136 96.968 73.368C97.376 72.6 97.946 72.012 98.678 71.604C99.422 71.184 100.274 70.974 101.234 70.974C102.17 70.974 102.998 71.178 103.718 71.586C104.438 71.994 104.99 72.558 105.374 73.278C105.77 73.986 105.968 74.79 105.968 75.69ZM104.276 75.348C104.276 74.724 104.138 74.19 103.862 73.746C103.586 73.29 103.208 72.948 102.728 72.72C102.26 72.48 101.738 72.36 101.162 72.36C100.334 72.36 99.626 72.624 99.038 73.152C98.462 73.68 98.132 74.412 98.048 75.348H104.276Z" fill="white"></path> <path d="M31.774 114.126C31.774 115.17 31.414 116.04 30.694 116.736C29.986 117.42 28.9 117.762 27.436 117.762H25.024V123H23.386V110.454H27.436C28.852 110.454 29.926 110.796 30.658 111.48C31.402 112.164 31.774 113.046 31.774 114.126ZM27.436 116.412C28.348 116.412 29.02 116.214 29.452 115.818C29.884 115.422 30.1 114.858 30.1 114.126C30.1 112.578 29.212 111.804 27.436 111.804H25.024V116.412H27.436ZM38.7058 112.956C39.4498 112.956 40.1218 113.118 40.7218 113.442C41.3218 113.754 41.7898 114.228 42.1258 114.864C42.4738 115.5 42.6478 116.274 42.6478 117.186V123H41.0278V117.42C41.0278 116.436 40.7818 115.686 40.2898 115.17C39.7978 114.642 39.1258 114.378 38.2738 114.378C37.4098 114.378 36.7198 114.648 36.2038 115.188C35.6998 115.728 35.4478 116.514 35.4478 117.546V123H33.8098V109.68H35.4478V114.54C35.7718 114.036 36.2158 113.646 36.7798 113.37C37.3558 113.094 37.9978 112.956 38.7058 112.956ZM53.8195 113.136L47.8795 127.644H46.1875L48.1315 122.892L44.1535 113.136H45.9715L49.0675 121.128L52.1275 113.136H53.8195ZM58.9581 123.162C58.2021 123.162 57.5241 123.036 56.9241 122.784C56.3241 122.52 55.8501 122.16 55.5021 121.704C55.1541 121.236 54.9621 120.702 54.9261 120.102H56.6181C56.6661 120.594 56.8941 120.996 57.3021 121.308C57.7221 121.62 58.2681 121.776 58.9401 121.776C59.5641 121.776 60.0561 121.638 60.4161 121.362C60.7761 121.086 60.9561 120.738 60.9561 120.318C60.9561 119.886 60.7641 119.568 60.3801 119.364C59.9961 119.148 59.4021 118.938 58.5981 118.734C57.8661 118.542 57.2661 118.35 56.7981 118.158C56.3421 117.954 55.9461 117.66 55.6101 117.276C55.2861 116.88 55.1241 116.364 55.1241 115.728C55.1241 115.224 55.2741 114.762 55.5741 114.342C55.8741 113.922 56.3001 113.592 56.8521 113.352C57.4041 113.1 58.0341 112.974 58.7421 112.974C59.8341 112.974 60.7161 113.25 61.3881 113.802C62.0601 114.354 62.4201 115.11 62.4681 116.07H60.8301C60.7941 115.554 60.5841 115.14 60.2001 114.828C59.8281 114.516 59.3241 114.36 58.6881 114.36C58.1001 114.36 57.6321 114.486 57.2841 114.738C56.9361 114.99 56.7621 115.32 56.7621 115.728C56.7621 116.052 56.8641 116.322 57.0681 116.538C57.2841 116.742 57.5481 116.91 57.8601 117.042C58.1841 117.162 58.6281 117.3 59.1921 117.456C59.9001 117.648 60.4761 117.84 60.9201 118.032C61.3641 118.212 61.7421 118.488 62.0541 118.86C62.3781 119.232 62.5461 119.718 62.5581 120.318C62.5581 120.858 62.4081 121.344 62.1081 121.776C61.8081 122.208 61.3821 122.55 60.8301 122.802C60.2901 123.042 59.6661 123.162 58.9581 123.162ZM65.7164 111.534C65.4044 111.534 65.1404 111.426 64.9244 111.21C64.7084 110.994 64.6004 110.73 64.6004 110.418C64.6004 110.106 64.7084 109.842 64.9244 109.626C65.1404 109.41 65.4044 109.302 65.7164 109.302C66.0164 109.302 66.2684 109.41 66.4724 109.626C66.6884 109.842 66.7964 110.106 66.7964 110.418C66.7964 110.73 66.6884 110.994 66.4724 111.21C66.2684 111.426 66.0164 111.534 65.7164 111.534ZM66.5084 113.136V123H64.8704V113.136H66.5084ZM68.6881 118.05C68.6881 117.03 68.8921 116.142 69.3001 115.386C69.7081 114.618 70.2721 114.024 70.9921 113.604C71.7241 113.184 72.5581 112.974 73.4941 112.974C74.7061 112.974 75.7021 113.268 76.4821 113.856C77.2741 114.444 77.7961 115.26 78.0481 116.304H76.2841C76.1161 115.704 75.7861 115.23 75.2941 114.882C74.8141 114.534 74.2141 114.36 73.4941 114.36C72.5581 114.36 71.8021 114.684 71.2261 115.332C70.6501 115.968 70.3621 116.874 70.3621 118.05C70.3621 119.238 70.6501 120.156 71.2261 120.804C71.8021 121.452 72.5581 121.776 73.4941 121.776C74.2141 121.776 74.8141 121.608 75.2941 121.272C75.7741 120.936 76.1041 120.456 76.2841 119.832H78.0481C77.7841 120.84 77.2561 121.65 76.4641 122.262C75.6721 122.862 74.6821 123.162 73.4941 123.162C72.5581 123.162 71.7241 122.952 70.9921 122.532C70.2721 122.112 69.7081 121.518 69.3001 120.75C68.8921 119.982 68.6881 119.082 68.6881 118.05ZM83.7257 123.162C82.9697 123.162 82.2917 123.036 81.6917 122.784C81.0917 122.52 80.6177 122.16 80.2697 121.704C79.9217 121.236 79.7297 120.702 79.6937 120.102H81.3857C81.4337 120.594 81.6617 120.996 82.0697 121.308C82.4897 121.62 83.0357 121.776 83.7077 121.776C84.3317 121.776 84.8237 121.638 85.1837 121.362C85.5437 121.086 85.7237 120.738 85.7237 120.318C85.7237 119.886 85.5317 119.568 85.1477 119.364C84.7637 119.148 84.1697 118.938 83.3657 118.734C82.6337 118.542 82.0337 118.35 81.5657 118.158C81.1097 117.954 80.7137 117.66 80.3777 117.276C80.0537 116.88 79.8917 116.364 79.8917 115.728C79.8917 115.224 80.0417 114.762 80.3417 114.342C80.6417 113.922 81.0677 113.592 81.6197 113.352C82.1717 113.1 82.8017 112.974 83.5097 112.974C84.6017 112.974 85.4837 113.25 86.1557 113.802C86.8277 114.354 87.1877 115.11 87.2357 116.07H85.5977C85.5617 115.554 85.3517 115.14 84.9677 114.828C84.5957 114.516 84.0917 114.36 83.4557 114.36C82.8677 114.36 82.3997 114.486 82.0517 114.738C81.7037 114.99 81.5297 115.32 81.5297 115.728C81.5297 116.052 81.6317 116.322 81.8357 116.538C82.0517 116.742 82.3157 116.91 82.6277 117.042C82.9517 117.162 83.3957 117.3 83.9597 117.456C84.6677 117.648 85.2437 117.84 85.6877 118.032C86.1317 118.212 86.5097 118.488 86.8217 118.86C87.1457 119.232 87.3137 119.718 87.3257 120.318C87.3257 120.858 87.1757 121.344 86.8757 121.776C86.5757 122.208 86.1497 122.55 85.5977 122.802C85.0577 123.042 84.4337 123.162 83.7257 123.162Z" fill="white"></path> <path d="M22.774 158.718C22.774 157.494 23.05 156.396 23.602 155.424C24.154 154.44 24.904 153.672 25.852 153.12C26.812 152.568 27.874 152.292 29.038 152.292C30.406 152.292 31.6 152.622 32.62 153.282C33.64 153.942 34.384 154.878 34.852 156.09H32.89C32.542 155.334 32.038 154.752 31.378 154.344C30.73 153.936 29.95 153.732 29.038 153.732C28.162 153.732 27.376 153.936 26.68 154.344C25.984 154.752 25.438 155.334 25.042 156.09C24.646 156.834 24.448 157.71 24.448 158.718C24.448 159.714 24.646 160.59 25.042 161.346C25.438 162.09 25.984 162.666 26.68 163.074C27.376 163.482 28.162 163.686 29.038 163.686C29.95 163.686 30.73 163.488 31.378 163.092C32.038 162.684 32.542 162.102 32.89 161.346H34.852C34.384 162.546 33.64 163.476 32.62 164.136C31.6 164.784 30.406 165.108 29.038 165.108C27.874 165.108 26.812 164.838 25.852 164.298C24.904 163.746 24.154 162.984 23.602 162.012C23.05 161.04 22.774 159.942 22.774 158.718ZM42.1863 154.956C42.9303 154.956 43.6023 155.118 44.2023 155.442C44.8023 155.754 45.2703 156.228 45.6063 156.864C45.9543 157.5 46.1283 158.274 46.1283 159.186V165H44.5083V159.42C44.5083 158.436 44.2623 157.686 43.7703 157.17C43.2783 156.642 42.6063 156.378 41.7543 156.378C40.8903 156.378 40.2003 156.648 39.6843 157.188C39.1803 157.728 38.9283 158.514 38.9283 159.546V165H37.2903V151.68H38.9283V156.54C39.2523 156.036 39.6963 155.646 40.2603 155.37C40.8363 155.094 41.4783 154.956 42.1863 154.956ZM57.804 159.69C57.804 160.002 57.786 160.332 57.75 160.68H49.866C49.926 161.652 50.256 162.414 50.856 162.966C51.468 163.506 52.206 163.776 53.07 163.776C53.778 163.776 54.366 163.614 54.834 163.29C55.314 162.954 55.65 162.51 55.842 161.958H57.606C57.342 162.906 56.814 163.68 56.022 164.28C55.23 164.868 54.246 165.162 53.07 165.162C52.134 165.162 51.294 164.952 50.55 164.532C49.818 164.112 49.242 163.518 48.822 162.75C48.402 161.97 48.192 161.07 48.192 160.05C48.192 159.03 48.396 158.136 48.804 157.368C49.212 156.6 49.782 156.012 50.514 155.604C51.258 155.184 52.11 154.974 53.07 154.974C54.006 154.974 54.834 155.178 55.554 155.586C56.274 155.994 56.826 156.558 57.21 157.278C57.606 157.986 57.804 158.79 57.804 159.69ZM56.112 159.348C56.112 158.724 55.974 158.19 55.698 157.746C55.422 157.29 55.044 156.948 54.564 156.72C54.096 156.48 53.574 156.36 52.998 156.36C52.17 156.36 51.462 156.624 50.874 157.152C50.298 157.68 49.968 158.412 49.884 159.348H56.112ZM71.8281 154.956C72.5961 154.956 73.2801 155.118 73.8801 155.442C74.4801 155.754 74.9541 156.228 75.3021 156.864C75.6501 157.5 75.8241 158.274 75.8241 159.186V165H74.2041V159.42C74.2041 158.436 73.9581 157.686 73.4661 157.17C72.9861 156.642 72.3321 156.378 71.5041 156.378C70.6521 156.378 69.9741 156.654 69.4701 157.206C68.9661 157.746 68.7141 158.532 68.7141 159.564V165H67.0941V159.42C67.0941 158.436 66.8481 157.686 66.3561 157.17C65.8761 156.642 65.2221 156.378 64.3941 156.378C63.5421 156.378 62.8641 156.654 62.3601 157.206C61.8561 157.746 61.6041 158.532 61.6041 159.564V165H59.9661V155.136H61.6041V156.558C61.9281 156.042 62.3601 155.646 62.9001 155.37C63.4521 155.094 64.0581 154.956 64.7181 154.956C65.5461 154.956 66.2781 155.142 66.9141 155.514C67.5501 155.886 68.0241 156.432 68.3361 157.152C68.6121 156.456 69.0681 155.916 69.7041 155.532C70.3401 155.148 71.0481 154.956 71.8281 154.956ZM79.357 153.534C79.045 153.534 78.781 153.426 78.565 153.21C78.349 152.994 78.241 152.73 78.241 152.418C78.241 152.106 78.349 151.842 78.565 151.626C78.781 151.41 79.045 151.302 79.357 151.302C79.657 151.302 79.909 151.41 80.113 151.626C80.329 151.842 80.437 152.106 80.437 152.418C80.437 152.73 80.329 152.994 80.113 153.21C79.909 153.426 79.657 153.534 79.357 153.534ZM80.149 155.136V165H78.511V155.136H80.149ZM86.4327 165.162C85.6767 165.162 84.9987 165.036 84.3987 164.784C83.7987 164.52 83.3247 164.16 82.9767 163.704C82.6287 163.236 82.4367 162.702 82.4007 162.102H84.0927C84.1407 162.594 84.3687 162.996 84.7767 163.308C85.1967 163.62 85.7427 163.776 86.4147 163.776C87.0387 163.776 87.5307 163.638 87.8907 163.362C88.2507 163.086 88.4307 162.738 88.4307 162.318C88.4307 161.886 88.2387 161.568 87.8547 161.364C87.4707 161.148 86.8767 160.938 86.0727 160.734C85.3407 160.542 84.7407 160.35 84.2727 160.158C83.8167 159.954 83.4207 159.66 83.0847 159.276C82.7607 158.88 82.5987 158.364 82.5987 157.728C82.5987 157.224 82.7487 156.762 83.0487 156.342C83.3487 155.922 83.7747 155.592 84.3267 155.352C84.8787 155.1 85.5087 154.974 86.2167 154.974C87.3087 154.974 88.1907 155.25 88.8627 155.802C89.5347 156.354 89.8947 157.11 89.9427 158.07H88.3047C88.2687 157.554 88.0587 157.14 87.6747 156.828C87.3027 156.516 86.7987 156.36 86.1627 156.36C85.5747 156.36 85.1067 156.486 84.7587 156.738C84.4107 156.99 84.2367 157.32 84.2367 157.728C84.2367 158.052 84.3387 158.322 84.5427 158.538C84.7587 158.742 85.0227 158.91 85.3347 159.042C85.6587 159.162 86.1027 159.3 86.6667 159.456C87.3747 159.648 87.9507 159.84 88.3947 160.032C88.8387 160.212 89.2167 160.488 89.5287 160.86C89.8527 161.232 90.0207 161.718 90.0327 162.318C90.0327 162.858 89.8827 163.344 89.5827 163.776C89.2827 164.208 88.8567 164.55 88.3047 164.802C87.7647 165.042 87.1407 165.162 86.4327 165.162ZM94.343 156.486V162.3C94.343 162.78 94.445 163.122 94.649 163.326C94.853 163.518 95.207 163.614 95.711 163.614H96.917V165H95.441C94.529 165 93.845 164.79 93.389 164.37C92.933 163.95 92.705 163.26 92.705 162.3V156.486H91.427V155.136H92.705V152.652H94.343V155.136H96.917V156.486H94.343ZM100.54 156.738C100.828 156.174 101.236 155.736 101.764 155.424C102.304 155.112 102.958 154.956 103.726 154.956V156.648H103.294C101.458 156.648 100.54 157.644 100.54 159.636V165H98.9016V155.136H100.54V156.738ZM114.112 155.136L108.172 169.644H106.48L108.424 164.892L104.446 155.136H106.264L109.36 163.128L112.42 155.136H114.112Z" fill="white"></path> <path d="M27.364 207.126C26.536 207.126 25.792 206.982 25.132 206.694C24.484 206.394 23.974 205.986 23.602 205.47C23.23 204.942 23.038 204.336 23.026 203.652H24.772C24.832 204.24 25.072 204.738 25.492 205.146C25.924 205.542 26.548 205.74 27.364 205.74C28.144 205.74 28.756 205.548 29.2 205.164C29.656 204.768 29.884 204.264 29.884 203.652C29.884 203.172 29.752 202.782 29.488 202.482C29.224 202.182 28.894 201.954 28.498 201.798C28.102 201.642 27.568 201.474 26.896 201.294C26.068 201.078 25.402 200.862 24.898 200.646C24.406 200.43 23.98 200.094 23.62 199.638C23.272 199.17 23.098 198.546 23.098 197.766C23.098 197.082 23.272 196.476 23.62 195.948C23.968 195.42 24.454 195.012 25.078 194.724C25.714 194.436 26.44 194.292 27.256 194.292C28.432 194.292 29.392 194.586 30.136 195.174C30.892 195.762 31.318 196.542 31.414 197.514H29.614C29.554 197.034 29.302 196.614 28.858 196.254C28.414 195.882 27.826 195.696 27.094 195.696C26.41 195.696 25.852 195.876 25.42 196.236C24.988 196.584 24.772 197.076 24.772 197.712C24.772 198.168 24.898 198.54 25.15 198.828C25.414 199.116 25.732 199.338 26.104 199.494C26.488 199.638 27.022 199.806 27.706 199.998C28.534 200.226 29.2 200.454 29.704 200.682C30.208 200.898 30.64 201.24 31 201.708C31.36 202.164 31.54 202.788 31.54 203.58C31.54 204.192 31.378 204.768 31.054 205.308C30.73 205.848 30.25 206.286 29.614 206.622C28.978 206.958 28.228 207.126 27.364 207.126ZM35.5885 198.954C35.9125 198.39 36.3925 197.922 37.0285 197.55C37.6765 197.166 38.4265 196.974 39.2785 196.974C40.1545 196.974 40.9465 197.184 41.6545 197.604C42.3745 198.024 42.9385 198.618 43.3465 199.386C43.7545 200.142 43.9585 201.024 43.9585 202.032C43.9585 203.028 43.7545 203.916 43.3465 204.696C42.9385 205.476 42.3745 206.082 41.6545 206.514C40.9465 206.946 40.1545 207.162 39.2785 207.162C38.4385 207.162 37.6945 206.976 37.0465 206.604C36.4105 206.22 35.9245 205.746 35.5885 205.182V211.68H33.9505V197.136H35.5885V198.954ZM42.2845 202.032C42.2845 201.288 42.1345 200.64 41.8345 200.088C41.5345 199.536 41.1265 199.116 40.6105 198.828C40.1065 198.54 39.5485 198.396 38.9365 198.396C38.3365 198.396 37.7785 198.546 37.2625 198.846C36.7585 199.134 36.3505 199.56 36.0385 200.124C35.7385 200.676 35.5885 201.318 35.5885 202.05C35.5885 202.794 35.7385 203.448 36.0385 204.012C36.3505 204.564 36.7585 204.99 37.2625 205.29C37.7785 205.578 38.3365 205.722 38.9365 205.722C39.5485 205.722 40.1065 205.578 40.6105 205.29C41.1265 204.99 41.5345 204.564 41.8345 204.012C42.1345 203.448 42.2845 202.788 42.2845 202.032ZM50.4165 207.162C49.4925 207.162 48.6525 206.952 47.8965 206.532C47.1525 206.112 46.5645 205.518 46.1325 204.75C45.7125 203.97 45.5025 203.07 45.5025 202.05C45.5025 201.042 45.7185 200.154 46.1505 199.386C46.5945 198.606 47.1945 198.012 47.9505 197.604C48.7065 197.184 49.5525 196.974 50.4885 196.974C51.4245 196.974 52.2705 197.184 53.0265 197.604C53.7825 198.012 54.3765 198.6 54.8085 199.368C55.2525 200.136 55.4745 201.03 55.4745 202.05C55.4745 203.07 55.2465 203.97 54.7905 204.75C54.3465 205.518 53.7405 206.112 52.9725 206.532C52.2045 206.952 51.3525 207.162 50.4165 207.162ZM50.4165 205.722C51.0045 205.722 51.5565 205.584 52.0725 205.308C52.5885 205.032 53.0025 204.618 53.3145 204.066C53.6385 203.514 53.8005 202.842 53.8005 202.05C53.8005 201.258 53.6445 200.586 53.3325 200.034C53.0205 199.482 52.6125 199.074 52.1085 198.81C51.6045 198.534 51.0585 198.396 50.4705 198.396C49.8705 198.396 49.3185 198.534 48.8145 198.81C48.3225 199.074 47.9265 199.482 47.6265 200.034C47.3265 200.586 47.1765 201.258 47.1765 202.05C47.1765 202.854 47.3205 203.532 47.6085 204.084C47.9085 204.636 48.3045 205.05 48.7965 205.326C49.2885 205.59 49.8285 205.722 50.4165 205.722ZM59.2662 198.738C59.5542 198.174 59.9622 197.736 60.4902 197.424C61.0302 197.112 61.6842 196.956 62.4522 196.956V198.648H62.0202C60.1842 198.648 59.2662 199.644 59.2662 201.636V207H57.6282V197.136H59.2662V198.738ZM66.341 198.486V204.3C66.341 204.78 66.443 205.122 66.647 205.326C66.851 205.518 67.205 205.614 67.709 205.614H68.915V207H67.439C66.527 207 65.843 206.79 65.387 206.37C64.931 205.95 64.703 205.26 64.703 204.3V198.486H63.425V197.136H64.703V194.652H66.341V197.136H68.915V198.486H66.341Z" fill="white"></path> <path d="M24.232 237.534C23.92 237.534 23.656 237.426 23.44 237.21C23.224 236.994 23.116 236.73 23.116 236.418C23.116 236.106 23.224 235.842 23.44 235.626C23.656 235.41 23.92 235.302 24.232 235.302C24.532 235.302 24.784 235.41 24.988 235.626C25.204 235.842 25.312 236.106 25.312 236.418C25.312 236.73 25.204 236.994 24.988 237.21C24.784 237.426 24.532 237.534 24.232 237.534ZM25.024 239.136V249H23.386V239.136H25.024ZM32.6217 238.956C33.8217 238.956 34.7937 239.322 35.5377 240.054C36.2817 240.774 36.6537 241.818 36.6537 243.186V249H35.0337V243.42C35.0337 242.436 34.7877 241.686 34.2957 241.17C33.8037 240.642 33.1317 240.378 32.2797 240.378C31.4157 240.378 30.7257 240.648 30.2097 241.188C29.7057 241.728 29.4537 242.514 29.4537 243.546V249H27.8157V239.136H29.4537V240.54C29.7777 240.036 30.2157 239.646 30.7677 239.37C31.3317 239.094 31.9497 238.956 32.6217 238.956ZM43.3434 240.486H41.2734V249H39.6354V240.486H38.3574V239.136H39.6354V238.434C39.6354 237.33 39.9174 236.526 40.4814 236.022C41.0574 235.506 41.9754 235.248 43.2354 235.248V236.616C42.5154 236.616 42.0054 236.76 41.7054 237.048C41.4174 237.324 41.2734 237.786 41.2734 238.434V239.136H43.3434V240.486ZM49.5552 249.162C48.6312 249.162 47.7912 248.952 47.0352 248.532C46.2912 248.112 45.7032 247.518 45.2712 246.75C44.8512 245.97 44.6412 245.07 44.6412 244.05C44.6412 243.042 44.8572 242.154 45.2892 241.386C45.7332 240.606 46.3332 240.012 47.0892 239.604C47.8452 239.184 48.6912 238.974 49.6272 238.974C50.5632 238.974 51.4092 239.184 52.1652 239.604C52.9212 240.012 53.5152 240.6 53.9472 241.368C54.3912 242.136 54.6132 243.03 54.6132 244.05C54.6132 245.07 54.3852 245.97 53.9292 246.75C53.4852 247.518 52.8792 248.112 52.1112 248.532C51.3432 248.952 50.4912 249.162 49.5552 249.162ZM49.5552 247.722C50.1432 247.722 50.6952 247.584 51.2112 247.308C51.7272 247.032 52.1412 246.618 52.4532 246.066C52.7772 245.514 52.9392 244.842 52.9392 244.05C52.9392 243.258 52.7832 242.586 52.4712 242.034C52.1592 241.482 51.7512 241.074 51.2472 240.81C50.7432 240.534 50.1972 240.396 49.6092 240.396C49.0092 240.396 48.4572 240.534 47.9532 240.81C47.4612 241.074 47.0652 241.482 46.7652 242.034C46.4652 242.586 46.3152 243.258 46.3152 244.05C46.3152 244.854 46.4592 245.532 46.7472 246.084C47.0472 246.636 47.4432 247.05 47.9352 247.326C48.4272 247.59 48.9672 247.722 49.5552 247.722ZM58.4049 240.738C58.6929 240.174 59.1009 239.736 59.6289 239.424C60.1689 239.112 60.8229 238.956 61.5909 238.956V240.648H61.1589C59.3229 240.648 58.4049 241.644 58.4049 243.636V249H56.7669V239.136H58.4049V240.738ZM75.3437 238.956C76.1117 238.956 76.7957 239.118 77.3957 239.442C77.9957 239.754 78.4697 240.228 78.8177 240.864C79.1657 241.5 79.3397 242.274 79.3397 243.186V249H77.7197V243.42C77.7197 242.436 77.4737 241.686 76.9817 241.17C76.5017 240.642 75.8477 240.378 75.0197 240.378C74.1677 240.378 73.4897 240.654 72.9857 241.206C72.4817 241.746 72.2297 242.532 72.2297 243.564V249H70.6097V243.42C70.6097 242.436 70.3637 241.686 69.8717 241.17C69.3917 240.642 68.7377 240.378 67.9097 240.378C67.0577 240.378 66.3797 240.654 65.8757 241.206C65.3717 241.746 65.1197 242.532 65.1197 243.564V249H63.4817V239.136H65.1197V240.558C65.4437 240.042 65.8757 239.646 66.4157 239.37C66.9677 239.094 67.5737 238.956 68.2337 238.956C69.0617 238.956 69.7937 239.142 70.4297 239.514C71.0657 239.886 71.5397 240.432 71.8517 241.152C72.1277 240.456 72.5837 239.916 73.2197 239.532C73.8557 239.148 74.5637 238.956 75.3437 238.956ZM81.4146 244.032C81.4146 243.024 81.6186 242.142 82.0266 241.386C82.4346 240.618 82.9926 240.024 83.7006 239.604C84.4206 239.184 85.2186 238.974 86.0946 238.974C86.9586 238.974 87.7086 239.16 88.3446 239.532C88.9806 239.904 89.4546 240.372 89.7666 240.936V239.136H91.4226V249H89.7666V247.164C89.4426 247.74 88.9566 248.22 88.3086 248.604C87.6726 248.976 86.9286 249.162 86.0766 249.162C85.2006 249.162 84.4086 248.946 83.7006 248.514C82.9926 248.082 82.4346 247.476 82.0266 246.696C81.6186 245.916 81.4146 245.028 81.4146 244.032ZM89.7666 244.05C89.7666 243.306 89.6166 242.658 89.3166 242.106C89.0166 241.554 88.6086 241.134 88.0926 240.846C87.5886 240.546 87.0306 240.396 86.4186 240.396C85.8066 240.396 85.2486 240.54 84.7446 240.828C84.2406 241.116 83.8386 241.536 83.5386 242.088C83.2386 242.64 83.0886 243.288 83.0886 244.032C83.0886 244.788 83.2386 245.448 83.5386 246.012C83.8386 246.564 84.2406 246.99 84.7446 247.29C85.2486 247.578 85.8066 247.722 86.4186 247.722C87.0306 247.722 87.5886 247.578 88.0926 247.29C88.6086 246.99 89.0166 246.564 89.3166 246.012C89.6166 245.448 89.7666 244.794 89.7666 244.05ZM96.1887 240.486V246.3C96.1887 246.78 96.2907 247.122 96.4947 247.326C96.6987 247.518 97.0527 247.614 97.5567 247.614H98.7627V249H97.2867C96.3747 249 95.6907 248.79 95.2347 248.37C94.7787 247.95 94.5507 247.26 94.5507 246.3V240.486H93.2727V239.136H94.5507V236.652H96.1887V239.136H98.7627V240.486H96.1887ZM101.593 237.534C101.281 237.534 101.017 237.426 100.801 237.21C100.585 236.994 100.477 236.73 100.477 236.418C100.477 236.106 100.585 235.842 100.801 235.626C101.017 235.41 101.281 235.302 101.593 235.302C101.893 235.302 102.145 235.41 102.349 235.626C102.565 235.842 102.673 236.106 102.673 236.418C102.673 236.73 102.565 236.994 102.349 237.21C102.145 237.426 101.893 237.534 101.593 237.534ZM102.385 239.136V249H100.747V239.136H102.385ZM104.565 244.05C104.565 243.03 104.769 242.142 105.177 241.386C105.585 240.618 106.149 240.024 106.869 239.604C107.601 239.184 108.435 238.974 109.371 238.974C110.583 238.974 111.579 239.268 112.359 239.856C113.151 240.444 113.673 241.26 113.925 242.304H112.161C111.993 241.704 111.663 241.23 111.171 240.882C110.691 240.534 110.091 240.36 109.371 240.36C108.435 240.36 107.679 240.684 107.103 241.332C106.527 241.968 106.239 242.874 106.239 244.05C106.239 245.238 106.527 246.156 107.103 246.804C107.679 247.452 108.435 247.776 109.371 247.776C110.091 247.776 110.691 247.608 111.171 247.272C111.651 246.936 111.981 246.456 112.161 245.832H113.925C113.661 246.84 113.133 247.65 112.341 248.262C111.549 248.862 110.559 249.162 109.371 249.162C108.435 249.162 107.601 248.952 106.869 248.532C106.149 248.112 105.585 247.518 105.177 246.75C104.769 245.982 104.565 245.082 104.565 244.05ZM119.603 249.162C118.847 249.162 118.169 249.036 117.569 248.784C116.969 248.52 116.495 248.16 116.147 247.704C115.799 247.236 115.607 246.702 115.571 246.102H117.263C117.311 246.594 117.539 246.996 117.947 247.308C118.367 247.62 118.913 247.776 119.585 247.776C120.209 247.776 120.701 247.638 121.061 247.362C121.421 247.086 121.601 246.738 121.601 246.318C121.601 245.886 121.409 245.568 121.025 245.364C120.641 245.148 120.047 244.938 119.243 244.734C118.511 244.542 117.911 244.35 117.443 244.158C116.987 243.954 116.591 243.66 116.255 243.276C115.931 242.88 115.769 242.364 115.769 241.728C115.769 241.224 115.919 240.762 116.219 240.342C116.519 239.922 116.945 239.592 117.497 239.352C118.049 239.1 118.679 238.974 119.387 238.974C120.479 238.974 121.361 239.25 122.033 239.802C122.705 240.354 123.065 241.11 123.113 242.07H121.475C121.439 241.554 121.229 241.14 120.845 240.828C120.473 240.516 119.969 240.36 119.333 240.36C118.745 240.36 118.277 240.486 117.929 240.738C117.581 240.99 117.407 241.32 117.407 241.728C117.407 242.052 117.509 242.322 117.713 242.538C117.929 242.742 118.193 242.91 118.505 243.042C118.829 243.162 119.273 243.3 119.837 243.456C120.545 243.648 121.121 243.84 121.565 244.032C122.009 244.212 122.387 244.488 122.699 244.86C123.023 245.232 123.191 245.718 123.203 246.318C123.203 246.858 123.053 247.344 122.753 247.776C122.453 248.208 122.027 248.55 121.475 248.802C120.935 249.042 120.311 249.162 119.603 249.162Z" fill="white"></path> <path d="M171.712 180L171.712 181L172.712 181L172.712 180L171.712 180ZM166.74 180L165.74 180L165.74 181L166.74 181L166.74 180ZM166.74 167.196L167.74 167.196L167.74 166.196L166.74 166.196L166.74 167.196ZM158.864 167.196L158.864 166.196L157.864 166.196L157.864 167.196L158.864 167.196ZM158.864 177.008L158.864 178.008L159.864 178.008L159.864 177.008L158.864 177.008ZM153.98 177.008L152.98 177.008L152.98 178.008L153.98 178.008L153.98 177.008ZM153.98 167.196L154.98 167.196L154.98 166.196L153.98 166.196L153.98 167.196ZM141 167.196L140 167.196L140 168.196L141 168.196L141 167.196ZM141 161.036L141 160.036L140 160.036L140 161.036L141 161.036ZM171.712 161.036L172.712 161.036L172.712 160.036L171.712 160.036L171.712 161.036ZM171.712 179L166.74 179L166.74 181L171.712 181L171.712 179ZM167.74 180L167.74 167.196L165.74 167.196L165.74 180L167.74 180ZM166.74 166.196L158.864 166.196L158.864 168.196L166.74 168.196L166.74 166.196ZM157.864 167.196L157.864 177.008L159.864 177.008L159.864 167.196L157.864 167.196ZM158.864 176.008L153.98 176.008L153.98 178.008L158.864 178.008L158.864 176.008ZM154.98 177.008L154.98 167.196L152.98 167.196L152.98 177.008L154.98 177.008ZM153.98 166.196L141 166.196L141 168.196L153.98 168.196L153.98 166.196ZM142 167.196L142 161.036L140 161.036L140 167.196L142 167.196ZM141 162.036L171.712 162.036L171.712 160.036L141 160.036L141 162.036ZM170.712 161.036L170.712 180L172.712 180L172.712 161.036L170.712 161.036ZM161.592 190.528L161.592 189.528L158.05 189.528L161.069 191.38L161.592 190.528ZM164.628 193.608L165.497 193.114L165.493 193.105L164.628 193.608ZM165.728 198.008L165.728 199.008L166.728 199.008L166.728 198.008L165.728 198.008ZM159.26 198.008L158.26 198.008L158.26 199.008L159.26 199.008L159.26 198.008ZM157.896 191.98L158.635 191.306L158.63 191.301L158.625 191.295L157.896 191.98ZM141 190.528L140 190.528L140 191.528L141 191.528L141 190.528ZM141 184.368L141 183.368L140 183.368L140 184.368L141 184.368ZM165.376 184.368L166.376 184.368L166.376 183.368L165.376 183.368L165.376 184.368ZM165.376 190.528L165.376 191.528L166.376 191.528L166.376 190.528L165.376 190.528ZM161.069 191.38C162.224 192.089 163.117 192.998 163.763 194.111L165.493 193.105C164.673 191.696 163.541 190.551 162.115 189.676L161.069 191.38ZM163.759 194.102C164.397 195.226 164.728 196.52 164.728 198.008L166.728 198.008C166.728 196.211 166.325 194.571 165.497 193.114L163.759 194.102ZM165.728 197.008L159.26 197.008L159.26 199.008L165.728 199.008L165.728 197.008ZM160.26 198.008L160.26 196.38L158.26 196.38L158.26 198.008L160.26 198.008ZM160.26 196.38C160.26 194.302 159.773 192.554 158.635 191.306L157.157 192.654C157.838 193.401 158.26 194.586 158.26 196.38L160.26 196.38ZM158.625 191.295C157.43 190.023 155.496 189.528 153.144 189.528L153.144 191.528C155.31 191.528 156.543 192.001 157.167 192.665L158.625 191.295ZM153.144 189.528L141 189.528L141 191.528L153.144 191.528L153.144 189.528ZM142 190.528L142 184.368L140 184.368L140 190.528L142 190.528ZM141 185.368L165.376 185.368L165.376 183.368L141 183.368L141 185.368ZM164.376 184.368L164.376 190.528L166.376 190.528L166.376 184.368L164.376 184.368ZM165.376 189.528L161.592 189.528L161.592 191.528L165.376 191.528L165.376 189.528ZM169.292 202.553L168.585 201.846L168.57 201.861L168.556 201.876L169.292 202.553ZM174.44 202.553L173.718 203.245L173.719 203.246L174.44 202.553ZM174.44 207.965L173.733 207.258L173.718 207.273L173.704 207.288L174.44 207.965ZM169.292 207.965L168.57 208.657L168.571 208.658L169.292 207.965ZM165.376 208.317L165.376 209.317L166.376 209.317L166.376 208.317L165.376 208.317ZM141 208.317L140 208.317L140 209.317L141 209.317L141 208.317ZM141 202.157L141 201.157L140 201.157L140 202.157L141 202.157ZM165.376 202.157L166.376 202.157L166.376 201.157L165.376 201.157L165.376 202.157ZM169.28 205.281C169.28 204.422 169.539 203.762 170.028 203.23L168.556 201.876C167.696 202.811 167.28 203.969 167.28 205.281L169.28 205.281ZM169.999 203.26C170.509 202.75 171.117 202.497 171.888 202.497L171.888 200.497C170.605 200.497 169.483 200.948 168.585 201.846L169.999 203.26ZM171.888 202.497C172.658 202.497 173.243 202.749 173.718 203.245L175.162 201.861C174.288 200.949 173.171 200.497 171.888 200.497L171.888 202.497ZM173.719 203.246C174.231 203.779 174.496 204.435 174.496 205.281L176.496 205.281C176.496 203.957 176.057 202.794 175.161 201.861L173.719 203.246ZM174.496 205.281C174.496 206.128 174.232 206.759 173.733 207.258L175.147 208.672C176.056 207.763 176.496 206.605 176.496 205.281L174.496 205.281ZM173.704 207.288C173.225 207.809 172.645 208.065 171.888 208.065L171.888 210.065C173.185 210.065 174.305 209.588 175.176 208.642L173.704 207.288ZM171.888 208.065C171.131 208.065 170.527 207.807 170.013 207.273L168.571 208.658C169.465 209.59 170.592 210.065 171.888 210.065L171.888 208.065ZM170.014 207.273C169.539 206.777 169.28 206.14 169.28 205.281L167.28 205.281C167.28 206.593 167.696 207.745 168.57 208.657L170.014 207.273ZM165.376 207.317L141 207.317L141 209.317L165.376 209.317L165.376 207.317ZM142 208.317L142 202.157L140 202.157L140 208.317L142 208.317ZM141 203.157L165.376 203.157L165.376 201.157L141 201.157L141 203.157ZM164.376 202.157L164.376 208.317L166.376 208.317L166.376 202.157L164.376 202.157ZM159.832 214.271L160.296 213.385L160.285 213.38L159.832 214.271ZM164.232 218.319L163.376 218.836L164.232 218.319ZM164.716 228.527L163.818 228.087L163.814 228.095L163.811 228.102L164.716 228.527ZM161.988 231.959L161.391 231.157L158.967 232.959L161.988 232.959L161.988 231.959ZM173.56 231.959L174.56 231.959L174.56 230.959L173.56 230.959L173.56 231.959ZM173.56 238.207L173.56 239.207L174.56 239.207L174.56 238.207L173.56 238.207ZM141 238.207L140 238.207L140 239.207L141 239.207L141 238.207ZM141 231.959L141 230.959L140 230.959L140 231.959L141 231.959ZM144.608 231.959L144.608 232.959L148.052 232.959L145.144 231.115L144.608 231.959ZM141.704 228.747L142.587 228.278L141.704 228.747ZM142.188 218.319L143.038 218.847L142.188 218.319ZM146.632 214.271L146.185 213.377L146.177 213.381L146.169 213.385L146.632 214.271ZM157.016 231.123L156.54 230.243L156.53 230.249L157.016 231.123ZM159.48 228.747L158.618 228.24L158.612 228.25L158.607 228.259L159.48 228.747ZM159.524 222.367L160.391 221.868L160.391 221.868L159.524 222.367ZM157.06 219.991L157.554 219.121L157.546 219.117L157.06 219.991ZM149.404 219.991L148.938 219.106L148.924 219.114L148.91 219.122L149.404 219.991ZM146.896 222.367L146.041 221.849L146.034 221.86L146.896 222.367ZM146.852 228.747L145.979 229.235L145.984 229.245L145.99 229.254L146.852 228.747ZM149.316 231.123L148.83 231.997L148.84 232.003L149.316 231.123ZM153.276 213.819C155.607 213.819 157.633 214.276 159.379 215.163L160.285 213.38C158.218 212.33 155.873 211.819 153.276 211.819L153.276 213.819ZM159.369 215.157C161.127 216.077 162.452 217.304 163.376 218.836L165.088 217.803C163.959 215.931 162.35 214.46 160.295 213.385L159.369 215.157ZM163.376 218.836C164.304 220.374 164.772 222.085 164.772 223.995L166.772 223.995C166.772 221.74 166.214 219.667 165.088 217.803L163.376 218.836ZM164.772 223.995C164.772 225.425 164.456 226.785 163.818 228.087L165.614 228.967C166.384 227.394 166.772 225.733 166.772 223.995L164.772 223.995ZM163.811 228.102C163.198 229.408 162.388 230.415 161.391 231.157L162.585 232.762C163.876 231.802 164.885 230.522 165.621 228.952L163.811 228.102ZM161.988 232.959L173.56 232.959L173.56 230.959L161.988 230.959L161.988 232.959ZM172.56 231.959L172.56 238.207L174.56 238.207L174.56 231.959L172.56 231.959ZM173.56 237.207L141 237.207L141 239.207L173.56 239.207L173.56 237.207ZM142 238.207L142 231.959L140 231.959L140 238.207L142 238.207ZM141 232.959L144.608 232.959L144.608 230.959L141 230.959L141 232.959ZM145.144 231.115C144.101 230.454 143.247 229.518 142.587 228.278L140.821 229.217C141.628 230.733 142.71 231.939 144.072 232.804L145.144 231.115ZM142.587 228.278C141.942 227.066 141.604 225.633 141.604 223.951L139.604 223.951C139.604 225.907 139.999 227.671 140.821 229.217L142.587 228.278ZM141.604 223.951C141.604 222.079 142.083 220.385 143.038 218.847L141.338 217.792C140.181 219.656 139.604 221.716 139.604 223.951L141.604 223.951ZM143.038 218.847C143.992 217.308 145.335 216.078 147.095 215.157L146.169 213.385C144.116 214.459 142.496 215.927 141.338 217.792L143.038 218.847ZM147.079 215.166C148.857 214.277 150.914 213.819 153.276 213.819L153.276 211.819C150.651 211.819 148.279 212.329 146.185 213.377L147.079 215.166ZM153.188 233.003C154.814 233.003 156.266 232.684 157.502 231.997L156.53 230.249C155.654 230.736 154.554 231.003 153.188 231.003L153.188 233.003ZM157.492 232.003C158.73 231.333 159.696 230.411 160.353 229.235L158.607 228.259C158.15 229.078 157.473 229.74 156.54 230.243L157.492 232.003ZM160.342 229.254C161.018 228.105 161.36 226.86 161.36 225.535L159.36 225.535C159.36 226.499 159.115 227.395 158.618 228.24L160.342 229.254ZM161.36 225.535C161.36 224.22 161.038 222.992 160.391 221.868L158.657 222.866C159.125 223.679 159.36 224.562 159.36 225.535L161.36 225.535ZM160.391 221.868C159.734 220.728 158.775 219.815 157.554 219.122L156.566 220.861C157.515 221.399 158.199 222.07 158.657 222.866L160.391 221.868ZM157.546 219.117C156.312 218.432 154.876 218.111 153.276 218.111L153.276 220.111C154.609 220.111 155.696 220.377 156.574 220.865L157.546 219.117ZM153.276 218.111C151.674 218.111 150.218 218.432 148.938 219.106L149.87 220.876C150.819 220.377 151.945 220.111 153.276 220.111L153.276 218.111ZM148.91 219.122C147.692 219.813 146.725 220.72 146.041 221.849L147.751 222.885C148.24 222.078 148.945 221.401 149.898 220.861L148.91 219.122ZM146.034 221.86C145.361 223.005 145.016 224.235 145.016 225.535L147.016 225.535C147.016 224.606 147.258 223.724 147.758 222.874L146.034 221.86ZM145.016 225.535C145.016 226.85 145.338 228.088 145.979 229.235L147.725 228.259C147.251 227.411 147.016 226.509 147.016 225.535L145.016 225.535ZM145.99 229.254C146.671 230.412 147.626 231.328 148.83 231.997L149.802 230.249C148.894 229.745 148.206 229.077 147.714 228.24L145.99 229.254ZM148.84 232.003C150.1 232.684 151.561 233.003 153.188 233.003L153.188 231.003C151.823 231.003 150.703 230.736 149.792 230.243L148.84 232.003ZM159.832 244.091L160.296 243.205L160.285 243.2L159.832 244.091ZM164.232 248.095L165.088 247.579L165.084 247.572L164.232 248.095ZM164.672 258.523L163.793 258.046L163.789 258.054L164.672 258.523ZM161.9 261.824L161.307 261.018L158.857 262.824L161.9 262.824L161.9 261.824ZM165.376 261.824L166.376 261.824L166.376 260.824L165.376 260.824L165.376 261.824ZM165.376 268.028L165.376 269.028L166.376 269.028L166.376 268.028L165.376 268.028ZM141 268.028L140 268.028L140 269.028L141 269.028L141 268.028ZM141 261.823L141 260.823L140 260.823L140 261.823L141 261.823ZM144.564 261.823L144.564 262.823L147.765 262.823L145.133 261.001L144.564 261.823ZM141.704 258.523L140.821 258.993L140.825 259L141.704 258.523ZM142.188 248.095L141.342 247.561L141.338 247.568L142.188 248.095ZM146.632 244.091L146.185 243.197L146.177 243.201L146.168 243.205L146.632 244.091ZM157.016 260.944L156.54 260.064L156.53 260.069L157.016 260.944ZM159.48 258.567L158.618 258.06L158.612 258.07L158.607 258.08L159.48 258.567ZM159.524 252.187L160.391 251.689L160.391 251.689L159.524 252.187ZM157.06 249.811L157.554 248.942L157.546 248.937L157.06 249.811ZM149.404 249.811L148.938 248.927L148.924 248.934L148.91 248.942L149.404 249.811ZM146.896 252.187L146.041 251.669L146.034 251.68L146.896 252.187ZM146.852 258.567L145.979 259.055L145.984 259.065L145.99 259.075L146.852 258.567ZM149.316 260.944L148.83 261.818L148.84 261.823L149.316 260.944ZM153.276 243.64C155.607 243.64 157.633 244.097 159.379 244.983L160.285 243.2C158.218 242.15 155.873 241.64 153.276 241.64L153.276 243.64ZM159.368 244.978C161.131 245.9 162.457 247.115 163.38 248.619L165.084 247.572C163.954 245.732 162.346 244.278 160.295 243.205L159.368 244.978ZM163.376 248.612C164.304 250.15 164.772 251.862 164.772 253.771L166.772 253.771C166.772 251.516 166.214 249.444 165.088 247.579L163.376 248.612ZM164.772 253.771C164.772 255.454 164.434 256.868 163.793 258.046L165.551 259.001C166.377 257.48 166.772 255.726 166.772 253.771L164.772 253.771ZM163.789 258.054C163.117 259.317 162.286 260.297 161.307 261.018L162.493 262.629C163.743 261.708 164.76 260.487 165.555 258.993L163.789 258.054ZM161.9 262.824L165.376 262.824L165.376 260.824L161.9 260.824L161.9 262.824ZM164.376 261.824L164.376 268.028L166.376 268.028L166.376 261.824L164.376 261.824ZM165.376 267.028L141 267.028L141 269.028L165.376 269.028L165.376 267.028ZM142 268.028L142 261.823L140 261.823L140 268.028L142 268.028ZM141 262.823L144.564 262.823L144.564 260.823L141 260.823L141 262.823ZM145.133 261.001C144.136 260.311 143.282 259.338 142.583 258.047L140.825 259C141.651 260.525 142.703 261.752 143.995 262.646L145.133 261.001ZM142.587 258.054C141.942 256.842 141.604 255.409 141.604 253.727L139.604 253.727C139.604 255.683 139.999 257.448 140.821 258.993L142.587 258.054ZM141.604 253.727C141.604 251.856 142.083 250.162 143.038 248.623L141.338 247.568C140.181 249.432 139.604 251.493 139.604 253.727L141.604 253.727ZM143.033 248.629C143.987 247.119 145.331 245.901 147.095 244.978L146.168 243.205C144.12 244.277 142.501 245.728 141.343 247.562L143.033 248.629ZM147.079 244.986C148.857 244.097 150.914 243.64 153.276 243.64L153.276 241.64C150.651 241.64 148.279 242.15 146.185 243.197L147.079 244.986ZM153.188 262.824C154.814 262.824 156.266 262.504 157.502 261.818L156.53 260.069C155.654 260.556 154.554 260.824 153.188 260.824L153.188 262.824ZM157.492 261.823C158.73 261.154 159.696 260.232 160.353 259.055L158.607 258.08C158.15 258.898 157.473 259.56 156.54 260.064L157.492 261.823ZM160.342 259.075C161.018 257.925 161.36 256.68 161.36 255.355L159.36 255.355C159.36 256.319 159.115 257.215 158.618 258.06L160.342 259.075ZM161.36 255.355C161.36 254.041 161.038 252.812 160.391 251.689L158.657 252.686C159.125 253.499 159.36 254.382 159.36 255.355L161.36 255.355ZM160.391 251.689C159.734 250.548 158.775 249.635 157.554 248.942L156.566 250.681C157.515 251.22 158.199 251.891 158.657 252.686L160.391 251.689ZM157.546 248.937C156.312 248.252 154.876 247.932 153.276 247.932L153.276 249.932C154.609 249.932 155.696 250.197 156.574 250.686L157.546 248.937ZM153.276 247.932C151.674 247.932 150.218 248.253 148.938 248.927L149.87 250.696C150.819 250.197 151.945 249.932 153.276 249.932L153.276 247.932ZM148.91 248.942C147.692 249.633 146.725 250.541 146.041 251.669L147.751 252.706C148.24 251.898 148.945 251.222 149.898 250.681L148.91 248.942ZM146.034 251.68C145.361 252.825 145.016 254.056 145.016 255.355L147.016 255.355C147.016 254.426 147.258 253.544 147.758 252.695L146.034 251.68ZM145.016 255.355C145.016 256.67 145.338 257.909 145.979 259.055L147.725 258.08C147.251 257.232 147.016 256.329 147.016 255.355L145.016 255.355ZM145.99 259.075C146.671 260.233 147.626 261.148 148.83 261.818L149.802 260.069C148.894 259.565 148.206 258.897 147.714 258.06L145.99 259.075ZM148.84 261.823C150.1 262.504 151.561 262.823 153.188 262.824L153.188 260.824C151.823 260.823 150.703 260.556 149.792 260.064L148.84 261.823ZM165.376 297.364L164.988 298.286L166.376 298.869L166.376 297.364L165.376 297.364ZM129.472 282.272L128.472 282.272L128.472 282.936L129.084 283.194L129.472 282.272ZM129.472 275.716L129.871 274.799L128.472 274.191L128.472 275.716L129.472 275.716ZM141.616 280.996L141.217 281.913L141.605 282.082L141.996 281.921L141.616 280.996ZM165.376 271.228L166.376 271.228L166.376 269.735L164.996 270.303L165.376 271.228ZM165.376 278.136L165.723 279.074L166.376 278.832L166.376 278.136L165.376 278.136ZM148.348 284.428L148.001 283.49L145.48 284.421L147.997 285.364L148.348 284.428ZM165.376 290.808L166.376 290.808L166.376 290.115L165.727 289.871L165.376 290.808ZM165.763 296.442L129.859 281.35L129.084 283.194L164.988 298.286L165.763 296.442ZM130.472 282.272L130.472 275.716L128.472 275.716L128.472 282.272L130.472 282.272ZM129.073 276.633L141.217 281.913L142.015 280.079L129.871 274.799L129.073 276.633ZM141.996 281.921L165.756 272.153L164.996 270.303L141.236 280.071L141.996 281.921ZM164.376 271.228L164.376 278.136L166.376 278.136L166.376 271.228L164.376 271.228ZM165.029 277.198L148.001 283.49L148.695 285.366L165.723 279.074L165.029 277.198ZM147.997 285.364L165.025 291.744L165.727 289.871L148.699 283.491L147.997 285.364ZM164.376 290.808L164.376 297.364L166.376 297.364L166.376 290.808L164.376 290.808Z" fill="white"></path> </svg> 