<?xml version="1.0" encoding="UTF-8"?> <svg xmlns="http://www.w3.org/2000/svg" width="189" height="317" viewBox="0 0 189 317" fill="none"> <rect width="189" height="317" rx="9" fill="#E7C05A"></rect> <path d="M29.074 39.126C27.91 39.126 26.848 38.856 25.888 38.316C24.928 37.764 24.166 37.002 23.602 36.03C23.05 35.046 22.774 33.942 22.774 32.718C22.774 31.494 23.05 30.396 23.602 29.424C24.166 28.44 24.928 27.678 25.888 27.138C26.848 26.586 27.91 26.31 29.074 26.31C30.25 26.31 31.318 26.586 32.278 27.138C33.238 27.678 33.994 28.434 34.546 29.406C35.098 30.378 35.374 31.482 35.374 32.718C35.374 33.954 35.098 35.058 34.546 36.03C33.994 37.002 33.238 37.764 32.278 38.316C31.318 38.856 30.25 39.126 29.074 39.126ZM29.074 37.704C29.95 37.704 30.736 37.5 31.432 37.092C32.14 36.684 32.692 36.102 33.088 35.346C33.496 34.59 33.7 33.714 33.7 32.718C33.7 31.71 33.496 30.834 33.088 30.09C32.692 29.334 32.146 28.752 31.45 28.344C30.754 27.936 29.962 27.732 29.074 27.732C28.186 27.732 27.394 27.936 26.698 28.344C26.002 28.752 25.45 29.334 25.042 30.09C24.646 30.834 24.448 31.71 24.448 32.718C24.448 33.714 24.646 34.59 25.042 35.346C25.45 36.102 26.002 36.684 26.698 37.092C27.406 37.5 28.198 37.704 29.074 37.704ZM43.8184 32.538C44.2744 32.61 44.6884 32.796 45.0604 33.096C45.4444 33.396 45.7444 33.768 45.9604 34.212C46.1884 34.656 46.3024 35.13 46.3024 35.634C46.3024 36.27 46.1404 36.846 45.8164 37.362C45.4924 37.866 45.0184 38.268 44.3944 38.568C43.7824 38.856 43.0564 39 42.2164 39H37.5364V26.454H42.0364C42.8884 26.454 43.6144 26.598 44.2144 26.886C44.8144 27.162 45.2644 27.54 45.5644 28.02C45.8644 28.5 46.0144 29.04 46.0144 29.64C46.0144 30.384 45.8104 31.002 45.4024 31.494C45.0064 31.974 44.4784 32.322 43.8184 32.538ZM39.1744 31.872H41.9284C42.6964 31.872 43.2904 31.692 43.7104 31.332C44.1304 30.972 44.3404 30.474 44.3404 29.838C44.3404 29.202 44.1304 28.704 43.7104 28.344C43.2904 27.984 42.6844 27.804 41.8924 27.804H39.1744V31.872ZM42.0724 37.65C42.8884 37.65 43.5244 37.458 43.9804 37.074C44.4364 36.69 44.6644 36.156 44.6644 35.472C44.6644 34.776 44.4244 34.23 43.9444 33.834C43.4644 33.426 42.8224 33.222 42.0184 33.222H39.1744V37.65H42.0724ZM54.8935 26.454V35.724C54.8935 36.756 54.5755 37.584 53.9395 38.208C53.3035 38.82 52.4635 39.126 51.4195 39.126C50.3635 39.126 49.5175 38.814 48.8815 38.19C48.2455 37.554 47.9275 36.69 47.9275 35.598H49.5655C49.5775 36.21 49.7335 36.708 50.0335 37.092C50.3455 37.476 50.8075 37.668 51.4195 37.668C52.0315 37.668 52.4875 37.488 52.7875 37.128C53.0875 36.756 53.2375 36.288 53.2375 35.724V26.454H54.8935Z" fill="white"></path> <path d="M30.802 78.21H25.33L24.322 81H22.594L27.13 68.526H29.02L33.538 81H31.81L30.802 78.21ZM30.334 76.878L28.066 70.542L25.798 76.878H30.334ZM37.1529 67.68V81H35.5149V67.68H37.1529ZM44.0126 70.974C44.8646 70.974 45.6086 71.16 46.2446 71.532C46.8926 71.904 47.3726 72.372 47.6846 72.936V71.136H49.3406V81.216C49.3406 82.116 49.1486 82.914 48.7646 83.61C48.3806 84.318 47.8286 84.87 47.1086 85.266C46.4006 85.662 45.5726 85.86 44.6246 85.86C43.3286 85.86 42.2486 85.554 41.3846 84.942C40.5206 84.33 40.0106 83.496 39.8546 82.44H41.4746C41.6546 83.04 42.0266 83.52 42.5906 83.88C43.1546 84.252 43.8326 84.438 44.6246 84.438C45.5246 84.438 46.2566 84.156 46.8206 83.592C47.3966 83.028 47.6846 82.236 47.6846 81.216V79.146C47.3606 79.722 46.8806 80.202 46.2446 80.586C45.6086 80.97 44.8646 81.162 44.0126 81.162C43.1366 81.162 42.3386 80.946 41.6186 80.514C40.9106 80.082 40.3526 79.476 39.9446 78.696C39.5366 77.916 39.3326 77.028 39.3326 76.032C39.3326 75.024 39.5366 74.142 39.9446 73.386C40.3526 72.618 40.9106 72.024 41.6186 71.604C42.3386 71.184 43.1366 70.974 44.0126 70.974ZM47.6846 76.05C47.6846 75.306 47.5346 74.658 47.2346 74.106C46.9346 73.554 46.5266 73.134 46.0106 72.846C45.5066 72.546 44.9486 72.396 44.3366 72.396C43.7246 72.396 43.1666 72.54 42.6626 72.828C42.1586 73.116 41.7566 73.536 41.4566 74.088C41.1566 74.64 41.0066 75.288 41.0066 76.032C41.0066 76.788 41.1566 77.448 41.4566 78.012C41.7566 78.564 42.1586 78.99 42.6626 79.29C43.1666 79.578 43.7246 79.722 44.3366 79.722C44.9486 79.722 45.5066 79.578 46.0106 79.29C46.5266 78.99 46.9346 78.564 47.2346 78.012C47.5346 77.448 47.6846 76.794 47.6846 76.05ZM61.1087 75.69C61.1087 76.002 61.0907 76.332 61.0547 76.68H53.1707C53.2307 77.652 53.5607 78.414 54.1607 78.966C54.7727 79.506 55.5107 79.776 56.3747 79.776C57.0827 79.776 57.6707 79.614 58.1387 79.29C58.6187 78.954 58.9547 78.51 59.1467 77.958H60.9107C60.6467 78.906 60.1187 79.68 59.3267 80.28C58.5347 80.868 57.5507 81.162 56.3747 81.162C55.4387 81.162 54.5987 80.952 53.8547 80.532C53.1227 80.112 52.5467 79.518 52.1267 78.75C51.7067 77.97 51.4967 77.07 51.4967 76.05C51.4967 75.03 51.7007 74.136 52.1087 73.368C52.5167 72.6 53.0867 72.012 53.8187 71.604C54.5627 71.184 55.4147 70.974 56.3747 70.974C57.3107 70.974 58.1387 71.178 58.8587 71.586C59.5787 71.994 60.1307 72.558 60.5147 73.278C60.9107 73.986 61.1087 74.79 61.1087 75.69ZM59.4167 75.348C59.4167 74.724 59.2787 74.19 59.0027 73.746C58.7267 73.29 58.3487 72.948 57.8687 72.72C57.4007 72.48 56.8787 72.36 56.3027 72.36C55.4747 72.36 54.7667 72.624 54.1787 73.152C53.6027 73.68 53.2727 74.412 53.1887 75.348H59.4167ZM64.9088 72.972C65.2448 72.384 65.7368 71.904 66.3848 71.532C67.0328 71.16 67.7708 70.974 68.5988 70.974C69.4868 70.974 70.2848 71.184 70.9928 71.604C71.7008 72.024 72.2588 72.618 72.6668 73.386C73.0748 74.142 73.2788 75.024 73.2788 76.032C73.2788 77.028 73.0748 77.916 72.6668 78.696C72.2588 79.476 71.6948 80.082 70.9748 80.514C70.2668 80.946 69.4748 81.162 68.5988 81.162C67.7468 81.162 66.9968 80.976 66.3488 80.604C65.7128 80.232 65.2328 79.758 64.9088 79.182V81H63.2708V67.68H64.9088V72.972ZM71.6048 76.032C71.6048 75.288 71.4548 74.64 71.1548 74.088C70.8548 73.536 70.4468 73.116 69.9308 72.828C69.4268 72.54 68.8688 72.396 68.2568 72.396C67.6568 72.396 67.0988 72.546 66.5828 72.846C66.0788 73.134 65.6708 73.56 65.3588 74.124C65.0588 74.676 64.9088 75.318 64.9088 76.05C64.9088 76.794 65.0588 77.448 65.3588 78.012C65.6708 78.564 66.0788 78.99 66.5828 79.29C67.0988 79.578 67.6568 79.722 68.2568 79.722C68.8688 79.722 69.4268 79.578 69.9308 79.29C70.4468 78.99 70.8548 78.564 71.1548 78.012C71.4548 77.448 71.6048 76.788 71.6048 76.032ZM77.0728 72.738C77.3608 72.174 77.7688 71.736 78.2968 71.424C78.8368 71.112 79.4908 70.956 80.2588 70.956V72.648H79.8268C77.9908 72.648 77.0728 73.644 77.0728 75.636V81H75.4348V71.136H77.0728V72.738ZM81.5377 76.032C81.5377 75.024 81.7417 74.142 82.1497 73.386C82.5577 72.618 83.1157 72.024 83.8237 71.604C84.5437 71.184 85.3417 70.974 86.2177 70.974C87.0817 70.974 87.8317 71.16 88.4677 71.532C89.1037 71.904 89.5777 72.372 89.8897 72.936V71.136H91.5457V81H89.8897V79.164C89.5657 79.74 89.0797 80.22 88.4317 80.604C87.7957 80.976 87.0517 81.162 86.1997 81.162C85.3237 81.162 84.5317 80.946 83.8237 80.514C83.1157 80.082 82.5577 79.476 82.1497 78.696C81.7417 77.916 81.5377 77.028 81.5377 76.032ZM89.8897 76.05C89.8897 75.306 89.7397 74.658 89.4397 74.106C89.1397 73.554 88.7317 73.134 88.2157 72.846C87.7117 72.546 87.1537 72.396 86.5417 72.396C85.9297 72.396 85.3717 72.54 84.8677 72.828C84.3637 73.116 83.9617 73.536 83.6617 74.088C83.3617 74.64 83.2117 75.288 83.2117 76.032C83.2117 76.788 83.3617 77.448 83.6617 78.012C83.9617 78.564 84.3637 78.99 84.8677 79.29C85.3717 79.578 85.9297 79.722 86.5417 79.722C87.1537 79.722 87.7117 79.578 88.2157 79.29C88.7317 78.99 89.1397 78.564 89.4397 78.012C89.7397 77.448 89.8897 76.794 89.8897 76.05Z" fill="white"></path> <path d="M25.024 111.786V115.98H29.596V117.33H25.024V121.65H30.136V123H23.386V110.436H30.136V111.786H25.024ZM37.4205 112.956C38.6205 112.956 39.5925 113.322 40.3365 114.054C41.0805 114.774 41.4525 115.818 41.4525 117.186V123H39.8325V117.42C39.8325 116.436 39.5865 115.686 39.0945 115.17C38.6025 114.642 37.9305 114.378 37.0785 114.378C36.2145 114.378 35.5245 114.648 35.0085 115.188C34.5045 115.728 34.2525 116.514 34.2525 117.546V123H32.6145V113.136H34.2525V114.54C34.5765 114.036 35.0145 113.646 35.5665 113.37C36.1305 113.094 36.7485 112.956 37.4205 112.956ZM48.1962 112.974C49.0482 112.974 49.7922 113.16 50.4282 113.532C51.0762 113.904 51.5562 114.372 51.8682 114.936V113.136H53.5242V123.216C53.5242 124.116 53.3322 124.914 52.9482 125.61C52.5642 126.318 52.0122 126.87 51.2922 127.266C50.5842 127.662 49.7562 127.86 48.8082 127.86C47.5122 127.86 46.4322 127.554 45.5682 126.942C44.7042 126.33 44.1942 125.496 44.0382 124.44H45.6582C45.8382 125.04 46.2102 125.52 46.7742 125.88C47.3382 126.252 48.0162 126.438 48.8082 126.438C49.7082 126.438 50.4402 126.156 51.0042 125.592C51.5802 125.028 51.8682 124.236 51.8682 123.216V121.146C51.5442 121.722 51.0642 122.202 50.4282 122.586C49.7922 122.97 49.0482 123.162 48.1962 123.162C47.3202 123.162 46.5222 122.946 45.8022 122.514C45.0942 122.082 44.5362 121.476 44.1282 120.696C43.7202 119.916 43.5162 119.028 43.5162 118.032C43.5162 117.024 43.7202 116.142 44.1282 115.386C44.5362 114.618 45.0942 114.024 45.8022 113.604C46.5222 113.184 47.3202 112.974 48.1962 112.974ZM51.8682 118.05C51.8682 117.306 51.7182 116.658 51.4182 116.106C51.1182 115.554 50.7102 115.134 50.1942 114.846C49.6902 114.546 49.1322 114.396 48.5202 114.396C47.9082 114.396 47.3502 114.54 46.8462 114.828C46.3422 115.116 45.9402 115.536 45.6402 116.088C45.3402 116.64 45.1902 117.288 45.1902 118.032C45.1902 118.788 45.3402 119.448 45.6402 120.012C45.9402 120.564 46.3422 120.99 46.8462 121.29C47.3502 121.578 47.9082 121.722 48.5202 121.722C49.1322 121.722 49.6902 121.578 50.1942 121.29C50.7102 120.99 51.1182 120.564 51.4182 120.012C51.7182 119.448 51.8682 118.794 51.8682 118.05ZM57.9303 109.68V123H56.2923V109.68H57.9303ZM61.5679 111.534C61.2559 111.534 60.9919 111.426 60.7759 111.21C60.5599 110.994 60.4519 110.73 60.4519 110.418C60.4519 110.106 60.5599 109.842 60.7759 109.626C60.9919 109.41 61.2559 109.302 61.5679 109.302C61.8679 109.302 62.1199 109.41 62.3239 109.626C62.5399 109.842 62.6479 110.106 62.6479 110.418C62.6479 110.73 62.5399 110.994 62.3239 111.21C62.1199 111.426 61.8679 111.534 61.5679 111.534ZM62.3599 113.136V123H60.7219V113.136H62.3599ZM68.6436 123.162C67.8876 123.162 67.2096 123.036 66.6096 122.784C66.0096 122.52 65.5356 122.16 65.1876 121.704C64.8396 121.236 64.6476 120.702 64.6116 120.102H66.3036C66.3516 120.594 66.5796 120.996 66.9876 121.308C67.4076 121.62 67.9536 121.776 68.6256 121.776C69.2496 121.776 69.7416 121.638 70.1016 121.362C70.4616 121.086 70.6416 120.738 70.6416 120.318C70.6416 119.886 70.4496 119.568 70.0656 119.364C69.6816 119.148 69.0876 118.938 68.2836 118.734C67.5516 118.542 66.9516 118.35 66.4836 118.158C66.0276 117.954 65.6316 117.66 65.2956 117.276C64.9716 116.88 64.8096 116.364 64.8096 115.728C64.8096 115.224 64.9596 114.762 65.2596 114.342C65.5596 113.922 65.9856 113.592 66.5376 113.352C67.0896 113.1 67.7196 112.974 68.4276 112.974C69.5196 112.974 70.4016 113.25 71.0736 113.802C71.7456 114.354 72.1056 115.11 72.1536 116.07H70.5156C70.4796 115.554 70.2696 115.14 69.8856 114.828C69.5136 114.516 69.0096 114.36 68.3736 114.36C67.7856 114.36 67.3176 114.486 66.9696 114.738C66.6216 114.99 66.4476 115.32 66.4476 115.728C66.4476 116.052 66.5496 116.322 66.7536 116.538C66.9696 116.742 67.2336 116.91 67.5456 117.042C67.8696 117.162 68.3136 117.3 68.8776 117.456C69.5856 117.648 70.1616 117.84 70.6056 118.032C71.0496 118.212 71.4276 118.488 71.7396 118.86C72.0636 119.232 72.2316 119.718 72.2436 120.318C72.2436 120.858 72.0936 121.344 71.7936 121.776C71.4936 122.208 71.0676 122.55 70.5156 122.802C69.9756 123.042 69.3516 123.162 68.6436 123.162ZM79.4519 112.956C80.1959 112.956 80.8679 113.118 81.4679 113.442C82.0679 113.754 82.5359 114.228 82.8719 114.864C83.2199 115.5 83.3939 116.274 83.3939 117.186V123H81.7739V117.42C81.7739 116.436 81.5279 115.686 81.0359 115.17C80.5439 114.642 79.8719 114.378 79.0199 114.378C78.1559 114.378 77.4659 114.648 76.9499 115.188C76.4459 115.728 76.1939 116.514 76.1939 117.546V123H74.5559V109.68H76.1939V114.54C76.5179 114.036 76.9619 113.646 77.5259 113.37C78.1019 113.094 78.7439 112.956 79.4519 112.956Z" fill="white"></path> <path d="M29.992 165L27.004 159.87H25.024V165H23.386V152.454H27.436C28.384 152.454 29.182 152.616 29.83 152.94C30.49 153.264 30.982 153.702 31.306 154.254C31.63 154.806 31.792 155.436 31.792 156.144C31.792 157.008 31.54 157.77 31.036 158.43C30.544 159.09 29.8 159.528 28.804 159.744L31.954 165H29.992ZM25.024 158.556H27.436C28.324 158.556 28.99 158.34 29.434 157.908C29.878 157.464 30.1 156.876 30.1 156.144C30.1 155.4 29.878 154.824 29.434 154.416C29.002 154.008 28.336 153.804 27.436 153.804H25.024V158.556ZM43.0852 155.136V165H41.4472V163.542C41.1352 164.046 40.6972 164.442 40.1332 164.73C39.5812 165.006 38.9692 165.144 38.2972 165.144C37.5292 165.144 36.8392 164.988 36.2272 164.676C35.6152 164.352 35.1292 163.872 34.7692 163.236C34.4212 162.6 34.2472 161.826 34.2472 160.914V155.136H35.8672V160.698C35.8672 161.67 36.1132 162.42 36.6052 162.948C37.0972 163.464 37.7692 163.722 38.6212 163.722C39.4972 163.722 40.1872 163.452 40.6912 162.912C41.1952 162.372 41.4472 161.586 41.4472 160.554V155.136H43.0852ZM49.3428 165.162C48.5868 165.162 47.9088 165.036 47.3088 164.784C46.7088 164.52 46.2348 164.16 45.8868 163.704C45.5388 163.236 45.3468 162.702 45.3108 162.102H47.0028C47.0508 162.594 47.2788 162.996 47.6868 163.308C48.1068 163.62 48.6528 163.776 49.3248 163.776C49.9488 163.776 50.4408 163.638 50.8008 163.362C51.1608 163.086 51.3408 162.738 51.3408 162.318C51.3408 161.886 51.1488 161.568 50.7648 161.364C50.3808 161.148 49.7868 160.938 48.9828 160.734C48.2508 160.542 47.6508 160.35 47.1828 160.158C46.7268 159.954 46.3308 159.66 45.9948 159.276C45.6708 158.88 45.5088 158.364 45.5088 157.728C45.5088 157.224 45.6588 156.762 45.9588 156.342C46.2588 155.922 46.6848 155.592 47.2368 155.352C47.7888 155.1 48.4188 154.974 49.1268 154.974C50.2188 154.974 51.1008 155.25 51.7728 155.802C52.4448 156.354 52.8048 157.11 52.8528 158.07H51.2148C51.1788 157.554 50.9688 157.14 50.5848 156.828C50.2128 156.516 49.7088 156.36 49.0728 156.36C48.4848 156.36 48.0168 156.486 47.6688 156.738C47.3208 156.99 47.1468 157.32 47.1468 157.728C47.1468 158.052 47.2488 158.322 47.4528 158.538C47.6688 158.742 47.9328 158.91 48.2448 159.042C48.5688 159.162 49.0128 159.3 49.5768 159.456C50.2848 159.648 50.8608 159.84 51.3048 160.032C51.7488 160.212 52.1268 160.488 52.4388 160.86C52.7628 161.232 52.9308 161.718 52.9428 162.318C52.9428 162.858 52.7928 163.344 52.4928 163.776C52.1928 164.208 51.7668 164.55 51.2148 164.802C50.6748 165.042 50.0508 165.162 49.3428 165.162ZM58.7471 165.162C57.9911 165.162 57.3131 165.036 56.7131 164.784C56.1131 164.52 55.6391 164.16 55.2911 163.704C54.9431 163.236 54.7511 162.702 54.7151 162.102H56.4071C56.4551 162.594 56.6831 162.996 57.0911 163.308C57.5111 163.62 58.0571 163.776 58.7291 163.776C59.3531 163.776 59.8451 163.638 60.2051 163.362C60.5651 163.086 60.7451 162.738 60.7451 162.318C60.7451 161.886 60.5531 161.568 60.1691 161.364C59.7851 161.148 59.1911 160.938 58.3871 160.734C57.6551 160.542 57.0551 160.35 56.5871 160.158C56.1311 159.954 55.7351 159.66 55.3991 159.276C55.0751 158.88 54.9131 158.364 54.9131 157.728C54.9131 157.224 55.0631 156.762 55.3631 156.342C55.6631 155.922 56.0891 155.592 56.6411 155.352C57.1931 155.1 57.8231 154.974 58.5311 154.974C59.6231 154.974 60.5051 155.25 61.1771 155.802C61.8491 156.354 62.2091 157.11 62.2571 158.07H60.6191C60.5831 157.554 60.3731 157.14 59.9891 156.828C59.6171 156.516 59.1131 156.36 58.4771 156.36C57.8891 156.36 57.4211 156.486 57.0731 156.738C56.7251 156.99 56.5511 157.32 56.5511 157.728C56.5511 158.052 56.6531 158.322 56.8571 158.538C57.0731 158.742 57.3371 158.91 57.6491 159.042C57.9731 159.162 58.4171 159.3 58.9811 159.456C59.6891 159.648 60.2651 159.84 60.7091 160.032C61.1531 160.212 61.5311 160.488 61.8431 160.86C62.1671 161.232 62.3351 161.718 62.3471 162.318C62.3471 162.858 62.1971 163.344 61.8971 163.776C61.5971 164.208 61.1711 164.55 60.6191 164.802C60.0791 165.042 59.4551 165.162 58.7471 165.162ZM65.5054 153.534C65.1934 153.534 64.9294 153.426 64.7134 153.21C64.4974 152.994 64.3894 152.73 64.3894 152.418C64.3894 152.106 64.4974 151.842 64.7134 151.626C64.9294 151.41 65.1934 151.302 65.5054 151.302C65.8054 151.302 66.0574 151.41 66.2614 151.626C66.4774 151.842 66.5854 152.106 66.5854 152.418C66.5854 152.73 66.4774 152.994 66.2614 153.21C66.0574 153.426 65.8054 153.534 65.5054 153.534ZM66.2974 155.136V165H64.6594V155.136H66.2974ZM68.4771 160.032C68.4771 159.024 68.6811 158.142 69.0891 157.386C69.4971 156.618 70.0551 156.024 70.7631 155.604C71.4831 155.184 72.2811 154.974 73.1571 154.974C74.0211 154.974 74.7711 155.16 75.4071 155.532C76.0431 155.904 76.5171 156.372 76.8291 156.936V155.136H78.4851V165H76.8291V163.164C76.5051 163.74 76.0191 164.22 75.3711 164.604C74.7351 164.976 73.9911 165.162 73.1391 165.162C72.2631 165.162 71.4711 164.946 70.7631 164.514C70.0551 164.082 69.4971 163.476 69.0891 162.696C68.6811 161.916 68.4771 161.028 68.4771 160.032ZM76.8291 160.05C76.8291 159.306 76.6791 158.658 76.3791 158.106C76.0791 157.554 75.6711 157.134 75.1551 156.846C74.6511 156.546 74.0931 156.396 73.4811 156.396C72.8691 156.396 72.3111 156.54 71.8071 156.828C71.3031 157.116 70.9011 157.536 70.6011 158.088C70.3011 158.64 70.1511 159.288 70.1511 160.032C70.1511 160.788 70.3011 161.448 70.6011 162.012C70.9011 162.564 71.3031 162.99 71.8071 163.29C72.3111 163.578 72.8691 163.722 73.4811 163.722C74.0931 163.722 74.6511 163.578 75.1551 163.29C75.6711 162.99 76.0791 162.564 76.3791 162.012C76.6791 161.448 76.8291 160.794 76.8291 160.05ZM86.0592 154.956C87.2592 154.956 88.2312 155.322 88.9752 156.054C89.7192 156.774 90.0912 157.818 90.0912 159.186V165H88.4712V159.42C88.4712 158.436 88.2252 157.686 87.7332 157.17C87.2412 156.642 86.5692 156.378 85.7172 156.378C84.8532 156.378 84.1632 156.648 83.6472 157.188C83.1432 157.728 82.8912 158.514 82.8912 159.546V165H81.2532V155.136H82.8912V156.54C83.2152 156.036 83.6532 155.646 84.2052 155.37C84.7692 155.094 85.3872 154.956 86.0592 154.956Z" fill="white"></path> <path d="M33.052 194.454V207H31.414V201.312H25.024V207H23.386V194.454H25.024V199.962H31.414V194.454H33.052ZM36.6949 195.534C36.3829 195.534 36.1189 195.426 35.9029 195.21C35.6869 194.994 35.5789 194.73 35.5789 194.418C35.5789 194.106 35.6869 193.842 35.9029 193.626C36.1189 193.41 36.3829 193.302 36.6949 193.302C36.9949 193.302 37.2469 193.41 37.4509 193.626C37.6669 193.842 37.7749 194.106 37.7749 194.418C37.7749 194.73 37.6669 194.994 37.4509 195.21C37.2469 195.426 36.9949 195.534 36.6949 195.534ZM37.4869 197.136V207H35.8489V197.136H37.4869ZM43.7706 207.162C43.0146 207.162 42.3366 207.036 41.7366 206.784C41.1366 206.52 40.6626 206.16 40.3146 205.704C39.9666 205.236 39.7746 204.702 39.7386 204.102H41.4306C41.4786 204.594 41.7066 204.996 42.1146 205.308C42.5346 205.62 43.0806 205.776 43.7526 205.776C44.3766 205.776 44.8686 205.638 45.2286 205.362C45.5886 205.086 45.7686 204.738 45.7686 204.318C45.7686 203.886 45.5766 203.568 45.1926 203.364C44.8086 203.148 44.2146 202.938 43.4106 202.734C42.6786 202.542 42.0786 202.35 41.6106 202.158C41.1546 201.954 40.7586 201.66 40.4226 201.276C40.0986 200.88 39.9366 200.364 39.9366 199.728C39.9366 199.224 40.0866 198.762 40.3866 198.342C40.6866 197.922 41.1126 197.592 41.6646 197.352C42.2166 197.1 42.8466 196.974 43.5546 196.974C44.6466 196.974 45.5286 197.25 46.2006 197.802C46.8726 198.354 47.2326 199.11 47.2806 200.07H45.6426C45.6066 199.554 45.3966 199.14 45.0126 198.828C44.6406 198.516 44.1366 198.36 43.5006 198.36C42.9126 198.36 42.4446 198.486 42.0966 198.738C41.7486 198.99 41.5746 199.32 41.5746 199.728C41.5746 200.052 41.6766 200.322 41.8806 200.538C42.0966 200.742 42.3606 200.91 42.6726 201.042C42.9966 201.162 43.4406 201.3 44.0046 201.456C44.7126 201.648 45.2886 201.84 45.7326 202.032C46.1766 202.212 46.5546 202.488 46.8666 202.86C47.1906 203.232 47.3586 203.718 47.3706 204.318C47.3706 204.858 47.2206 205.344 46.9206 205.776C46.6206 206.208 46.1946 206.55 45.6426 206.802C45.1026 207.042 44.4786 207.162 43.7706 207.162ZM51.6809 198.486V204.3C51.6809 204.78 51.7829 205.122 51.9869 205.326C52.1909 205.518 52.5449 205.614 53.0489 205.614H54.2549V207H52.7789C51.8669 207 51.1829 206.79 50.7269 206.37C50.2709 205.95 50.0429 205.26 50.0429 204.3V198.486H48.7649V197.136H50.0429V194.652H51.6809V197.136H54.2549V198.486H51.6809ZM60.5415 207.162C59.6175 207.162 58.7775 206.952 58.0215 206.532C57.2775 206.112 56.6895 205.518 56.2575 204.75C55.8375 203.97 55.6275 203.07 55.6275 202.05C55.6275 201.042 55.8435 200.154 56.2755 199.386C56.7195 198.606 57.3195 198.012 58.0755 197.604C58.8315 197.184 59.6775 196.974 60.6135 196.974C61.5495 196.974 62.3955 197.184 63.1515 197.604C63.9075 198.012 64.5015 198.6 64.9335 199.368C65.3775 200.136 65.5995 201.03 65.5995 202.05C65.5995 203.07 65.3715 203.97 64.9155 204.75C64.4715 205.518 63.8655 206.112 63.0975 206.532C62.3295 206.952 61.4775 207.162 60.5415 207.162ZM60.5415 205.722C61.1295 205.722 61.6815 205.584 62.1975 205.308C62.7135 205.032 63.1275 204.618 63.4395 204.066C63.7635 203.514 63.9255 202.842 63.9255 202.05C63.9255 201.258 63.7695 200.586 63.4575 200.034C63.1455 199.482 62.7375 199.074 62.2335 198.81C61.7295 198.534 61.1835 198.396 60.5955 198.396C59.9955 198.396 59.4435 198.534 58.9395 198.81C58.4475 199.074 58.0515 199.482 57.7515 200.034C57.4515 200.586 57.3015 201.258 57.3015 202.05C57.3015 202.854 57.4455 203.532 57.7335 204.084C58.0335 204.636 58.4295 205.05 58.9215 205.326C59.4135 205.59 59.9535 205.722 60.5415 205.722ZM69.3912 198.738C69.6792 198.174 70.0872 197.736 70.6152 197.424C71.1552 197.112 71.8092 196.956 72.5772 196.956V198.648H72.1452C70.3092 198.648 69.3912 199.644 69.3912 201.636V207H67.7532V197.136H69.3912V198.738ZM82.964 197.136L77.024 211.644H75.332L77.276 206.892L73.298 197.136H75.116L78.212 205.128L81.272 197.136H82.964Z" fill="white"></path> <path d="M29.668 242.538C30.124 242.61 30.538 242.796 30.91 243.096C31.294 243.396 31.594 243.768 31.81 244.212C32.038 244.656 32.152 245.13 32.152 245.634C32.152 246.27 31.99 246.846 31.666 247.362C31.342 247.866 30.868 248.268 30.244 248.568C29.632 248.856 28.906 249 28.066 249H23.386V236.454H27.886C28.738 236.454 29.464 236.598 30.064 236.886C30.664 237.162 31.114 237.54 31.414 238.02C31.714 238.5 31.864 239.04 31.864 239.64C31.864 240.384 31.66 241.002 31.252 241.494C30.856 241.974 30.328 242.322 29.668 242.538ZM25.024 241.872H27.778C28.546 241.872 29.14 241.692 29.56 241.332C29.98 240.972 30.19 240.474 30.19 239.838C30.19 239.202 29.98 238.704 29.56 238.344C29.14 237.984 28.534 237.804 27.742 237.804H25.024V241.872ZM27.922 247.65C28.738 247.65 29.374 247.458 29.83 247.074C30.286 246.69 30.514 246.156 30.514 245.472C30.514 244.776 30.274 244.23 29.794 243.834C29.314 243.426 28.672 243.222 27.868 243.222H25.024V247.65H27.922ZM35.2711 237.534C34.9591 237.534 34.6951 237.426 34.4791 237.21C34.2631 236.994 34.1551 236.73 34.1551 236.418C34.1551 236.106 34.2631 235.842 34.4791 235.626C34.6951 235.41 34.9591 235.302 35.2711 235.302C35.5711 235.302 35.8231 235.41 36.0271 235.626C36.2431 235.842 36.3511 236.106 36.3511 236.418C36.3511 236.73 36.2431 236.994 36.0271 237.21C35.8231 237.426 35.5711 237.534 35.2711 237.534ZM36.0631 239.136V249H34.4251V239.136H36.0631ZM43.1568 249.162C42.2328 249.162 41.3928 248.952 40.6368 248.532C39.8928 248.112 39.3048 247.518 38.8728 246.75C38.4528 245.97 38.2428 245.07 38.2428 244.05C38.2428 243.042 38.4588 242.154 38.8908 241.386C39.3348 240.606 39.9348 240.012 40.6908 239.604C41.4468 239.184 42.2928 238.974 43.2288 238.974C44.1648 238.974 45.0108 239.184 45.7668 239.604C46.5228 240.012 47.1168 240.6 47.5488 241.368C47.9928 242.136 48.2148 243.03 48.2148 244.05C48.2148 245.07 47.9868 245.97 47.5308 246.75C47.0868 247.518 46.4808 248.112 45.7128 248.532C44.9448 248.952 44.0928 249.162 43.1568 249.162ZM43.1568 247.722C43.7448 247.722 44.2968 247.584 44.8128 247.308C45.3288 247.032 45.7428 246.618 46.0548 246.066C46.3788 245.514 46.5408 244.842 46.5408 244.05C46.5408 243.258 46.3848 242.586 46.0728 242.034C45.7608 241.482 45.3528 241.074 44.8488 240.81C44.3448 240.534 43.7988 240.396 43.2108 240.396C42.6108 240.396 42.0588 240.534 41.5548 240.81C41.0628 241.074 40.6668 241.482 40.3668 242.034C40.0668 242.586 39.9168 243.258 39.9168 244.05C39.9168 244.854 40.0608 245.532 40.3488 246.084C40.6488 246.636 41.0448 247.05 41.5368 247.326C42.0288 247.59 42.5688 247.722 43.1568 247.722ZM52.0064 235.68V249H50.3684V235.68H52.0064ZM59.1001 249.162C58.1761 249.162 57.3361 248.952 56.5801 248.532C55.8361 248.112 55.2481 247.518 54.8161 246.75C54.3961 245.97 54.1861 245.07 54.1861 244.05C54.1861 243.042 54.4021 242.154 54.8341 241.386C55.2781 240.606 55.8781 240.012 56.6341 239.604C57.3901 239.184 58.2361 238.974 59.1721 238.974C60.1081 238.974 60.9541 239.184 61.7101 239.604C62.4661 240.012 63.0601 240.6 63.4921 241.368C63.9361 242.136 64.1581 243.03 64.1581 244.05C64.1581 245.07 63.9301 245.97 63.4741 246.75C63.0301 247.518 62.4241 248.112 61.6561 248.532C60.8881 248.952 60.0361 249.162 59.1001 249.162ZM59.1001 247.722C59.6881 247.722 60.2401 247.584 60.7561 247.308C61.2721 247.032 61.6861 246.618 61.9981 246.066C62.3221 245.514 62.4841 244.842 62.4841 244.05C62.4841 243.258 62.3281 242.586 62.0161 242.034C61.7041 241.482 61.2961 241.074 60.7921 240.81C60.2881 240.534 59.7421 240.396 59.1541 240.396C58.5541 240.396 58.0021 240.534 57.4981 240.81C57.0061 241.074 56.6101 241.482 56.3101 242.034C56.0101 242.586 55.8601 243.258 55.8601 244.05C55.8601 244.854 56.0041 245.532 56.2921 246.084C56.5921 246.636 56.9881 247.05 57.4801 247.326C57.9721 247.59 58.5121 247.722 59.1001 247.722ZM70.3798 238.974C71.2318 238.974 71.9758 239.16 72.6118 239.532C73.2598 239.904 73.7398 240.372 74.0518 240.936V239.136H75.7078V249.216C75.7078 250.116 75.5158 250.914 75.1318 251.61C74.7478 252.318 74.1958 252.87 73.4758 253.266C72.7678 253.662 71.9398 253.86 70.9918 253.86C69.6958 253.86 68.6158 253.554 67.7518 252.942C66.8878 252.33 66.3778 251.496 66.2218 250.44H67.8418C68.0218 251.04 68.3938 251.52 68.9578 251.88C69.5218 252.252 70.1998 252.438 70.9918 252.438C71.8918 252.438 72.6238 252.156 73.1878 251.592C73.7638 251.028 74.0518 250.236 74.0518 249.216V247.146C73.7278 247.722 73.2478 248.202 72.6118 248.586C71.9758 248.97 71.2318 249.162 70.3798 249.162C69.5038 249.162 68.7058 248.946 67.9858 248.514C67.2778 248.082 66.7198 247.476 66.3118 246.696C65.9038 245.916 65.6998 245.028 65.6998 244.032C65.6998 243.024 65.9038 242.142 66.3118 241.386C66.7198 240.618 67.2778 240.024 67.9858 239.604C68.7058 239.184 69.5038 238.974 70.3798 238.974ZM74.0518 244.05C74.0518 243.306 73.9018 242.658 73.6018 242.106C73.3018 241.554 72.8938 241.134 72.3778 240.846C71.8738 240.546 71.3158 240.396 70.7038 240.396C70.0918 240.396 69.5338 240.54 69.0298 240.828C68.5258 241.116 68.1238 241.536 67.8238 242.088C67.5238 242.64 67.3738 243.288 67.3738 244.032C67.3738 244.788 67.5238 245.448 67.8238 246.012C68.1238 246.564 68.5258 246.99 69.0298 247.29C69.5338 247.578 70.0918 247.722 70.7038 247.722C71.3158 247.722 71.8738 247.578 72.3778 247.29C72.8938 246.99 73.3018 246.564 73.6018 246.012C73.9018 245.448 74.0518 244.794 74.0518 244.05ZM86.9718 239.136L81.0318 253.644H79.3398L81.2838 248.892L77.3058 239.136H79.1238L82.2198 247.128L85.2798 239.136H86.9718Z" fill="white"></path> <path d="M29.992 291L27.004 285.87H25.024V291H23.386V278.454H27.436C28.384 278.454 29.182 278.616 29.83 278.94C30.49 279.264 30.982 279.702 31.306 280.254C31.63 280.806 31.792 281.436 31.792 282.144C31.792 283.008 31.54 283.77 31.036 284.43C30.544 285.09 29.8 285.528 28.804 285.744L31.954 291H29.992ZM25.024 284.556H27.436C28.324 284.556 28.99 284.34 29.434 283.908C29.878 283.464 30.1 282.876 30.1 282.144C30.1 281.4 29.878 280.824 29.434 280.416C29.002 280.008 28.336 279.804 27.436 279.804H25.024V284.556ZM43.0852 281.136V291H41.4472V289.542C41.1352 290.046 40.6972 290.442 40.1332 290.73C39.5812 291.006 38.9692 291.144 38.2972 291.144C37.5292 291.144 36.8392 290.988 36.2272 290.676C35.6152 290.352 35.1292 289.872 34.7692 289.236C34.4212 288.6 34.2472 287.826 34.2472 286.914V281.136H35.8672V286.698C35.8672 287.67 36.1132 288.42 36.6052 288.948C37.0972 289.464 37.7692 289.722 38.6212 289.722C39.4972 289.722 40.1872 289.452 40.6912 288.912C41.1952 288.372 41.4472 287.586 41.4472 286.554V281.136H43.0852ZM49.3428 291.162C48.5868 291.162 47.9088 291.036 47.3088 290.784C46.7088 290.52 46.2348 290.16 45.8868 289.704C45.5388 289.236 45.3468 288.702 45.3108 288.102H47.0028C47.0508 288.594 47.2788 288.996 47.6868 289.308C48.1068 289.62 48.6528 289.776 49.3248 289.776C49.9488 289.776 50.4408 289.638 50.8008 289.362C51.1608 289.086 51.3408 288.738 51.3408 288.318C51.3408 287.886 51.1488 287.568 50.7648 287.364C50.3808 287.148 49.7868 286.938 48.9828 286.734C48.2508 286.542 47.6508 286.35 47.1828 286.158C46.7268 285.954 46.3308 285.66 45.9948 285.276C45.6708 284.88 45.5088 284.364 45.5088 283.728C45.5088 283.224 45.6588 282.762 45.9588 282.342C46.2588 281.922 46.6848 281.592 47.2368 281.352C47.7888 281.1 48.4188 280.974 49.1268 280.974C50.2188 280.974 51.1008 281.25 51.7728 281.802C52.4448 282.354 52.8048 283.11 52.8528 284.07H51.2148C51.1788 283.554 50.9688 283.14 50.5848 282.828C50.2128 282.516 49.7088 282.36 49.0728 282.36C48.4848 282.36 48.0168 282.486 47.6688 282.738C47.3208 282.99 47.1468 283.32 47.1468 283.728C47.1468 284.052 47.2488 284.322 47.4528 284.538C47.6688 284.742 47.9328 284.91 48.2448 285.042C48.5688 285.162 49.0128 285.3 49.5768 285.456C50.2848 285.648 50.8608 285.84 51.3048 286.032C51.7488 286.212 52.1268 286.488 52.4388 286.86C52.7628 287.232 52.9308 287.718 52.9428 288.318C52.9428 288.858 52.7928 289.344 52.4928 289.776C52.1928 290.208 51.7668 290.55 51.2148 290.802C50.6748 291.042 50.0508 291.162 49.3428 291.162ZM58.7471 291.162C57.9911 291.162 57.3131 291.036 56.7131 290.784C56.1131 290.52 55.6391 290.16 55.2911 289.704C54.9431 289.236 54.7511 288.702 54.7151 288.102H56.4071C56.4551 288.594 56.6831 288.996 57.0911 289.308C57.5111 289.62 58.0571 289.776 58.7291 289.776C59.3531 289.776 59.8451 289.638 60.2051 289.362C60.5651 289.086 60.7451 288.738 60.7451 288.318C60.7451 287.886 60.5531 287.568 60.1691 287.364C59.7851 287.148 59.1911 286.938 58.3871 286.734C57.6551 286.542 57.0551 286.35 56.5871 286.158C56.1311 285.954 55.7351 285.66 55.3991 285.276C55.0751 284.88 54.9131 284.364 54.9131 283.728C54.9131 283.224 55.0631 282.762 55.3631 282.342C55.6631 281.922 56.0891 281.592 56.6411 281.352C57.1931 281.1 57.8231 280.974 58.5311 280.974C59.6231 280.974 60.5051 281.25 61.1771 281.802C61.8491 282.354 62.2091 283.11 62.2571 284.07H60.6191C60.5831 283.554 60.3731 283.14 59.9891 282.828C59.6171 282.516 59.1131 282.36 58.4771 282.36C57.8891 282.36 57.4211 282.486 57.0731 282.738C56.7251 282.99 56.5511 283.32 56.5511 283.728C56.5511 284.052 56.6531 284.322 56.8571 284.538C57.0731 284.742 57.3371 284.91 57.6491 285.042C57.9731 285.162 58.4171 285.3 58.9811 285.456C59.6891 285.648 60.2651 285.84 60.7091 286.032C61.1531 286.212 61.5311 286.488 61.8431 286.86C62.1671 287.232 62.3351 287.718 62.3471 288.318C62.3471 288.858 62.1971 289.344 61.8971 289.776C61.5971 290.208 61.1711 290.55 60.6191 290.802C60.0791 291.042 59.4551 291.162 58.7471 291.162ZM65.5054 279.534C65.1934 279.534 64.9294 279.426 64.7134 279.21C64.4974 278.994 64.3894 278.73 64.3894 278.418C64.3894 278.106 64.4974 277.842 64.7134 277.626C64.9294 277.41 65.1934 277.302 65.5054 277.302C65.8054 277.302 66.0574 277.41 66.2614 277.626C66.4774 277.842 66.5854 278.106 66.5854 278.418C66.5854 278.73 66.4774 278.994 66.2614 279.21C66.0574 279.426 65.8054 279.534 65.5054 279.534ZM66.2974 281.136V291H64.6594V281.136H66.2974ZM68.4771 286.032C68.4771 285.024 68.6811 284.142 69.0891 283.386C69.4971 282.618 70.0551 282.024 70.7631 281.604C71.4831 281.184 72.2811 280.974 73.1571 280.974C74.0211 280.974 74.7711 281.16 75.4071 281.532C76.0431 281.904 76.5171 282.372 76.8291 282.936V281.136H78.4851V291H76.8291V289.164C76.5051 289.74 76.0191 290.22 75.3711 290.604C74.7351 290.976 73.9911 291.162 73.1391 291.162C72.2631 291.162 71.4711 290.946 70.7631 290.514C70.0551 290.082 69.4971 289.476 69.0891 288.696C68.6811 287.916 68.4771 287.028 68.4771 286.032ZM76.8291 286.05C76.8291 285.306 76.6791 284.658 76.3791 284.106C76.0791 283.554 75.6711 283.134 75.1551 282.846C74.6511 282.546 74.0931 282.396 73.4811 282.396C72.8691 282.396 72.3111 282.54 71.8071 282.828C71.3031 283.116 70.9011 283.536 70.6011 284.088C70.3011 284.64 70.1511 285.288 70.1511 286.032C70.1511 286.788 70.3011 287.448 70.6011 288.012C70.9011 288.564 71.3031 288.99 71.8071 289.29C72.3111 289.578 72.8691 289.722 73.4811 289.722C74.0931 289.722 74.6511 289.578 75.1551 289.29C75.6711 288.99 76.0791 288.564 76.3791 288.012C76.6791 287.448 76.8291 286.794 76.8291 286.05ZM86.0592 280.956C87.2592 280.956 88.2312 281.322 88.9752 282.054C89.7192 282.774 90.0912 283.818 90.0912 285.186V291H88.4712V285.42C88.4712 284.436 88.2252 283.686 87.7332 283.17C87.2412 282.642 86.5692 282.378 85.7172 282.378C84.8532 282.378 84.1632 282.648 83.6472 283.188C83.1432 283.728 82.8912 284.514 82.8912 285.546V291H81.2532V281.136H82.8912V282.54C83.2152 282.036 83.6532 281.646 84.2052 281.37C84.7692 281.094 85.3872 280.956 86.0592 280.956ZM97.0977 289.686C98.6217 288.462 99.8157 287.46 100.68 286.68C101.544 285.888 102.27 285.066 102.858 284.214C103.458 283.35 103.758 282.504 103.758 281.676C103.758 280.896 103.566 280.284 103.182 279.84C102.81 279.384 102.204 279.156 101.364 279.156C100.548 279.156 99.9117 279.414 99.4557 279.93C99.0117 280.434 98.7717 281.112 98.7357 281.964H97.1517C97.1997 280.62 97.6077 279.582 98.3757 278.85C99.1437 278.118 100.134 277.752 101.346 277.752C102.582 277.752 103.56 278.094 104.28 278.778C105.012 279.462 105.378 280.404 105.378 281.604C105.378 282.6 105.078 283.572 104.478 284.52C103.89 285.456 103.218 286.284 102.462 287.004C101.706 287.712 100.74 288.54 99.5637 289.488H105.756V290.856H97.0977V289.686Z" fill="white"></path> <path d="M160.712 147.52L160.712 148.52L161.712 148.52L161.712 147.52L160.712 147.52ZM130 147.52L129 147.52L129 148.52L130 148.52L130 147.52ZM130 141.36L130 140.36L129 140.36L129 141.36L130 141.36ZM149.976 141.36L149.976 142.36L150.357 140.435L149.976 141.36ZM130 133.132L129 133.132L129 133.802L129.619 134.057L130 133.132ZM130 128.468L129.617 127.544L129 127.8L129 128.468L130 128.468ZM149.976 120.196L150.359 121.12L149.976 119.196L149.976 120.196ZM130 120.196L129 120.196L129 121.196L130 121.196L130 120.196ZM130 114.036L130 113.036L129 113.036L129 114.036L130 114.036ZM160.712 114.036L161.712 114.036L161.712 113.036L160.712 113.036L160.712 114.036ZM160.712 121.032L161.105 121.951L161.712 121.692L161.712 121.032L160.712 121.032ZM137.876 130.8L137.483 129.881L135.333 130.8L137.483 131.719L137.876 130.8ZM160.712 140.568L161.712 140.568L161.712 139.908L161.105 139.649L160.712 140.568ZM160.712 146.52L130 146.52L130 148.52L160.712 148.52L160.712 146.52ZM131 147.52L131 141.36L129 141.36L129 147.52L131 147.52ZM130 142.36L149.976 142.36L149.976 140.36L130 140.36L130 142.36ZM150.357 140.435L130.381 132.207L129.619 134.057L149.595 142.285L150.357 140.435ZM131 133.132L131 128.468L129 128.468L129 133.132L131 133.132ZM130.383 129.392L150.359 121.12L149.593 119.272L129.617 127.544L130.383 129.392ZM149.976 119.196L130 119.196L130 121.196L149.976 121.196L149.976 119.196ZM131 120.196L131 114.036L129 114.036L129 120.196L131 120.196ZM130 115.036L160.712 115.036L160.712 113.036L130 113.036L130 115.036ZM159.712 114.036L159.712 121.032L161.712 121.032L161.712 114.036L159.712 114.036ZM160.319 120.113L137.483 129.881L138.269 131.719L161.105 121.951L160.319 120.113ZM137.483 131.719L160.319 141.487L161.105 139.649L138.269 129.881L137.483 131.719ZM159.712 140.568L159.712 147.52L161.712 147.52L161.712 140.568L159.712 140.568ZM131.144 158.098L130.272 157.608L130.267 157.618L131.144 158.098ZM135.588 153.654L135.103 152.779L135.093 152.785L135.588 153.654ZM148.788 153.698L149.293 152.835L149.283 152.829L148.788 153.698ZM153.188 158.23L152.307 158.704L152.313 158.715L153.188 158.23ZM153.188 170.99L152.313 170.506L152.308 170.516L153.188 170.99ZM148.788 175.478L148.293 174.609L148.283 174.615L148.788 175.478ZM135.588 175.434L136.103 174.577L136.093 174.571L135.588 175.434ZM131.144 170.858L130.264 171.332L130.266 171.337L131.144 170.858ZM135.764 167.558L134.886 168.037L134.891 168.046L135.764 167.558ZM138.228 169.934L137.752 170.814L137.752 170.814L138.228 169.934ZM147.512 168.966L146.822 168.242L146.813 168.251L146.805 168.259L147.512 168.966ZM147.512 160.078L148.202 159.354L148.202 159.354L147.512 160.078ZM136.82 160.034L136.148 159.293L136.139 159.302L136.13 159.31L136.82 160.034ZM130.604 164.434C130.604 162.239 131.083 160.294 132.021 158.578L130.267 157.618C129.152 159.657 128.604 161.936 128.604 164.434L130.604 164.434ZM132.016 158.588C132.981 156.872 134.331 155.521 136.083 154.523L135.093 152.785C133.032 153.958 131.419 155.569 130.272 157.608L132.016 158.588ZM136.072 154.529C137.811 153.566 139.839 153.07 142.188 153.07L142.188 151.07C139.55 151.07 137.179 151.63 135.103 152.779L136.072 154.529ZM142.188 153.07C144.532 153.07 146.557 153.579 148.293 154.567L149.283 152.829C147.206 151.647 144.831 151.07 142.188 151.07L142.188 153.07ZM148.283 154.562C150.035 155.585 151.37 156.963 152.308 158.704L154.068 157.756C152.953 155.684 151.355 154.04 149.293 152.835L148.283 154.562ZM152.313 158.715C153.281 160.462 153.772 162.42 153.772 164.61L155.772 164.61C155.772 162.107 155.207 159.812 154.063 157.746L152.313 158.715ZM153.772 164.61C153.772 166.801 153.281 168.759 152.313 170.506L154.063 171.475C155.207 169.408 155.772 167.113 155.772 164.61L153.772 164.61ZM152.308 170.516C151.371 172.255 150.039 173.615 148.293 174.609L149.283 176.347C151.35 175.17 152.952 173.539 154.068 171.464L152.308 170.516ZM148.283 174.615C146.549 175.629 144.527 176.15 142.188 176.15L142.188 178.15C144.835 178.15 147.214 177.557 149.293 176.342L148.283 174.615ZM142.188 176.15C139.853 176.15 137.835 175.617 136.102 174.577L135.074 176.292C137.154 177.54 139.536 178.15 142.188 178.15L142.188 176.15ZM136.093 174.571C134.343 173.548 132.991 172.155 132.022 170.379L130.266 171.337C131.409 173.433 133.02 175.091 135.083 176.298L136.093 174.571ZM132.024 170.384C131.084 168.637 130.604 166.661 130.604 164.434L128.604 164.434C128.604 166.959 129.151 169.266 130.264 171.332L132.024 170.384ZM133.972 164.434C133.972 165.714 134.277 166.921 134.886 168.037L136.642 167.079C136.195 166.26 135.972 165.383 135.972 164.434L133.972 164.434ZM134.891 168.046C135.548 169.222 136.514 170.145 137.752 170.814L138.704 169.055C137.771 168.551 137.094 167.889 136.637 167.07L134.891 168.046ZM137.752 170.814C139.017 171.497 140.51 171.814 142.188 171.814L142.188 169.814C140.757 169.814 139.61 169.544 138.704 169.055L137.752 170.814ZM142.188 171.814C144.68 171.814 146.744 171.148 148.219 169.673L146.805 168.259C145.816 169.248 144.331 169.814 142.188 169.814L142.188 171.814ZM148.202 169.69C149.664 168.296 150.404 166.553 150.404 164.522L148.404 164.522C148.404 166.012 147.883 167.231 146.822 168.242L148.202 169.69ZM150.404 164.522C150.404 162.492 149.664 160.748 148.202 159.354L146.822 160.802C147.883 161.814 148.404 163.033 148.404 164.522L150.404 164.522ZM148.202 159.354C146.725 157.948 144.667 157.318 142.188 157.318L142.188 159.318C144.343 159.318 145.835 159.862 146.822 160.802L148.202 159.354ZM142.188 157.318C139.713 157.318 137.651 157.93 136.148 159.293L137.492 160.775C138.512 159.85 140.028 159.318 142.188 159.318L142.188 157.318ZM136.13 159.31C134.693 160.679 133.972 162.411 133.972 164.434L135.972 164.434C135.972 162.937 136.483 161.736 137.51 160.758L136.13 159.31ZM151.956 202.217L151.26 201.498L151.255 201.504L151.956 202.217ZM130 204.901L129 204.901L129 205.901L130 205.901L130 204.901ZM130 198.741L130 197.741L129 197.741L129 198.741L130 198.741ZM147.908 197.289L147.232 196.552L147.222 196.561L147.908 197.289ZM147.908 189.281L148.595 188.554L148.594 188.553L147.908 189.281ZM130 187.829L129 187.829L129 188.829L130 188.829L130 187.829ZM130 181.669L130 180.669L129 180.669L129 181.669L130 181.669ZM154.376 181.669L155.376 181.669L155.376 180.669L154.376 180.669L154.376 181.669ZM154.376 187.829L154.376 188.829L155.376 188.829L155.376 187.829L154.376 187.829ZM151.34 187.829L151.34 186.829L148.425 186.829L150.726 188.618L151.34 187.829ZM153.804 190.953L152.897 191.375L152.902 191.384L153.804 190.953ZM153.728 195.177C153.728 197.848 152.888 199.922 151.26 201.498L152.652 202.935C154.72 200.932 155.728 198.313 155.728 195.177L153.728 195.177ZM151.255 201.504C149.673 203.061 147.402 203.901 144.3 203.901L144.3 205.901C147.769 205.901 150.602 204.952 152.657 202.93L151.255 201.504ZM144.3 203.901L130 203.901L130 205.901L144.3 205.901L144.3 203.901ZM131 204.901L131 198.741L129 198.741L129 204.901L131 204.901ZM130 199.741L143.464 199.741L143.464 197.741L130 197.741L130 199.741ZM143.464 199.741C145.559 199.741 147.322 199.216 148.594 198.016L147.222 196.561C146.441 197.298 145.241 197.741 143.464 197.741L143.464 199.741ZM148.584 198.026C149.881 196.836 150.492 195.23 150.492 193.329L148.492 193.329C148.492 194.772 148.047 195.805 147.232 196.552L148.584 198.026ZM150.492 193.329C150.492 191.404 149.885 189.773 148.595 188.554L147.221 190.008C148.043 190.784 148.492 191.851 148.492 193.329L150.492 193.329ZM148.594 188.553C147.322 187.354 145.559 186.829 143.464 186.829L143.464 188.829C145.241 188.829 146.441 189.272 147.222 190.008L148.594 188.553ZM143.464 186.829L130 186.829L130 188.829L143.464 188.829L143.464 186.829ZM131 187.829L131 181.669L129 181.669L129 187.829L131 187.829ZM130 182.669L154.376 182.669L154.376 180.669L130 180.669L130 182.669ZM153.376 181.669L153.376 187.829L155.376 187.829L155.376 181.669L153.376 181.669ZM154.376 186.829L151.34 186.829L151.34 188.829L154.376 188.829L154.376 186.829ZM150.726 188.618C151.652 189.338 152.375 190.251 152.897 191.375L154.711 190.531C154.06 189.132 153.14 187.962 151.954 187.039L150.726 188.618ZM152.902 191.384C153.449 192.531 153.728 193.79 153.728 195.177L155.728 195.177C155.728 193.513 155.391 191.956 154.706 190.522L152.902 191.384ZM148.832 210.627L149.296 209.74L149.285 209.735L148.832 210.627ZM153.232 214.675L152.376 215.191L152.376 215.191L153.232 214.675ZM153.716 224.883L152.818 224.443L152.814 224.45L152.811 224.458L153.716 224.883ZM150.988 228.315L150.391 227.512L147.967 229.315L150.988 229.315L150.988 228.315ZM162.56 228.315L163.56 228.315L163.56 227.315L162.56 227.315L162.56 228.315ZM162.56 234.563L162.56 235.563L163.56 235.563L163.56 234.563L162.56 234.563ZM130 234.563L129 234.563L129 235.563L130 235.563L130 234.563ZM130 228.315L130 227.315L129 227.315L129 228.315L130 228.315ZM133.608 228.315L133.608 229.315L137.052 229.315L134.144 227.47L133.608 228.315ZM130.704 225.103L131.587 224.633L131.587 224.633L130.704 225.103ZM131.188 214.675L132.038 215.202L132.038 215.202L131.188 214.675ZM135.632 210.627L135.185 209.732L135.177 209.736L135.168 209.741L135.632 210.627ZM146.016 227.479L145.54 226.599L145.53 226.604L146.016 227.479ZM148.48 225.103L147.618 224.596L147.612 224.605L147.607 224.615L148.48 225.103ZM148.524 218.723L149.391 218.224L149.391 218.224L148.524 218.723ZM146.06 216.347L146.554 215.477L146.546 215.472L146.06 216.347ZM138.404 216.347L137.938 215.462L137.924 215.469L137.91 215.477L138.404 216.347ZM135.896 218.723L135.041 218.204L135.034 218.216L135.896 218.723ZM135.852 225.103L134.979 225.59L134.984 225.6L134.99 225.61L135.852 225.103ZM138.316 227.479L137.83 228.353L137.84 228.358L138.316 227.479ZM142.276 210.175C144.607 210.175 146.633 210.632 148.379 211.518L149.285 209.735C147.218 208.686 144.873 208.175 142.276 208.175L142.276 210.175ZM148.368 211.513C150.127 212.433 151.452 213.66 152.376 215.191L154.088 214.158C152.959 212.287 151.35 210.815 149.295 209.741L148.368 211.513ZM152.376 215.191C153.304 216.729 153.772 218.441 153.772 220.351L155.772 220.351C155.772 218.095 155.214 216.023 154.088 214.158L152.376 215.191ZM153.772 220.351C153.772 221.781 153.456 223.141 152.818 224.443L154.614 225.323C155.384 223.75 155.772 222.089 155.772 220.351L153.772 220.351ZM152.811 224.458C152.198 225.763 151.388 226.771 150.391 227.512L151.585 229.117C152.876 228.157 153.885 226.877 154.621 225.308L152.811 224.458ZM150.988 229.315L162.56 229.315L162.56 227.315L150.988 227.315L150.988 229.315ZM161.56 228.315L161.56 234.563L163.56 234.563L163.56 228.315L161.56 228.315ZM162.56 233.563L130 233.563L130 235.563L162.56 235.563L162.56 233.563ZM131 234.563L131 228.315L129 228.315L129 234.563L131 234.563ZM130 229.315L133.608 229.315L133.608 227.315L130 227.315L130 229.315ZM134.144 227.47C133.101 226.809 132.247 225.874 131.587 224.633L129.821 225.572C130.628 227.089 131.71 228.295 133.072 229.159L134.144 227.47ZM131.587 224.633C130.942 223.421 130.604 221.989 130.604 220.307L128.604 220.307C128.604 222.262 128.999 224.027 129.821 225.572L131.587 224.633ZM130.604 220.307C130.604 218.435 131.083 216.741 132.038 215.202L130.338 214.147C129.181 216.011 128.604 218.072 128.604 220.307L130.604 220.307ZM132.038 215.202C132.992 213.664 134.335 212.434 136.095 211.513L135.168 209.741C133.116 210.814 131.496 212.283 130.338 214.147L132.038 215.202ZM136.079 211.521C137.857 210.632 139.914 210.175 142.276 210.175L142.276 208.175C139.651 208.175 137.279 208.685 135.185 209.732L136.079 211.521ZM142.188 229.359C143.814 229.359 145.266 229.039 146.502 228.353L145.53 226.604C144.654 227.091 143.554 227.359 142.188 227.359L142.188 229.359ZM146.492 228.358C147.73 227.689 148.696 226.767 149.353 225.59L147.607 224.615C147.15 225.433 146.473 226.095 145.54 226.599L146.492 228.358ZM149.342 225.61C150.018 224.461 150.36 223.215 150.36 221.891L148.36 221.891C148.36 222.854 148.115 223.75 147.618 224.596L149.342 225.61ZM150.36 221.891C150.36 220.576 150.038 219.347 149.391 218.224L147.657 219.222C148.125 220.034 148.36 220.917 148.36 221.891L150.36 221.891ZM149.391 218.224C148.734 217.083 147.775 216.17 146.554 215.477L145.566 217.216C146.515 217.755 147.199 218.426 147.657 219.222L149.391 218.224ZM146.546 215.472C145.312 214.787 143.876 214.467 142.276 214.467L142.276 216.467C143.609 216.467 144.696 216.733 145.574 217.221L146.546 215.472ZM142.276 214.467C140.674 214.467 139.218 214.788 137.938 215.462L138.87 217.232C139.819 216.732 140.945 216.467 142.276 216.467L142.276 214.467ZM137.91 215.477C136.692 216.168 135.725 217.076 135.041 218.204L136.751 219.241C137.24 218.434 137.945 217.757 138.898 217.216L137.91 215.477ZM135.034 218.216C134.361 219.361 134.016 220.591 134.016 221.891L136.016 221.891C136.016 220.961 136.258 220.079 136.758 219.23L135.034 218.216ZM134.016 221.891C134.016 223.205 134.338 224.444 134.979 225.59L136.725 224.615C136.251 223.767 136.016 222.864 136.016 221.891L134.016 221.891ZM134.99 225.61C135.671 226.768 136.626 227.683 137.83 228.353L138.802 226.604C137.894 226.1 137.206 225.432 136.714 224.596L134.99 225.61ZM137.84 228.358C139.1 229.039 140.561 229.359 142.188 229.359L142.188 227.359C140.823 227.359 139.703 227.092 138.792 226.599L137.84 228.358ZM148.832 240.447L149.296 239.561L149.285 239.555L148.832 240.447ZM153.232 244.451L154.088 243.934L154.084 243.928L153.232 244.451ZM153.672 254.879L152.793 254.401L152.789 254.409L153.672 254.879ZM150.9 258.179L150.307 257.374L147.857 259.179L150.9 259.179L150.9 258.179ZM154.376 258.179L155.376 258.179L155.376 257.179L154.376 257.179L154.376 258.179ZM154.376 264.383L154.376 265.383L155.376 265.383L155.376 264.383L154.376 264.383ZM130 264.383L129 264.383L129 265.383L130 265.383L130 264.383ZM130 258.179L130 257.179L129 257.179L129 258.179L130 258.179ZM133.564 258.179L133.564 259.179L136.765 259.179L134.133 257.357L133.564 258.179ZM130.704 254.879L129.821 255.349L129.825 255.355L130.704 254.879ZM131.188 244.451L130.342 243.917L130.338 243.924L131.188 244.451ZM135.632 240.447L135.185 239.553L135.177 239.557L135.168 239.561L135.632 240.447ZM146.016 257.299L145.54 256.419L145.53 256.425L146.016 257.299ZM148.48 254.923L147.618 254.416L147.612 254.425L147.607 254.435L148.48 254.923ZM148.524 248.543L149.391 248.044L149.391 248.044L148.524 248.543ZM146.06 246.167L146.554 245.297L146.546 245.293L146.06 246.167ZM138.404 246.167L137.938 245.282L137.924 245.289L137.91 245.297L138.404 246.167ZM135.896 248.543L135.041 248.025L135.034 248.036L135.896 248.543ZM135.852 254.923L134.979 255.411L134.984 255.42L134.99 255.43L135.852 254.923ZM138.316 257.299L137.83 258.173L137.84 258.179L138.316 257.299ZM142.276 239.995C144.607 239.995 146.633 240.452 148.379 241.339L149.285 239.555C147.218 238.506 144.873 237.995 142.276 237.995L142.276 239.995ZM148.368 241.333C150.131 242.255 151.457 243.471 152.38 244.974L154.084 243.928C152.954 242.087 151.346 240.634 149.295 239.561L148.368 241.333ZM152.376 244.968C153.304 246.505 153.772 248.217 153.772 250.127L155.772 250.127C155.772 247.871 155.214 245.799 154.088 243.934L152.376 244.968ZM153.772 250.127C153.772 251.81 153.434 253.223 152.793 254.401L154.551 255.356C155.377 253.836 155.772 252.082 155.772 250.127L153.772 250.127ZM152.789 254.409C152.117 255.673 151.286 256.652 150.307 257.374L151.493 258.984C152.743 258.063 153.76 256.842 154.555 255.349L152.789 254.409ZM150.9 259.179L154.376 259.179L154.376 257.179L150.9 257.179L150.9 259.179ZM153.376 258.179L153.376 264.383L155.376 264.383L155.376 258.179L153.376 258.179ZM154.376 263.383L130 263.383L130 265.383L154.376 265.383L154.376 263.383ZM131 264.383L131 258.179L129 258.179L129 264.383L131 264.383ZM130 259.179L133.564 259.179L133.564 257.179L130 257.179L130 259.179ZM134.133 257.357C133.136 256.667 132.282 255.694 131.583 254.403L129.825 255.355C130.651 256.88 131.703 258.107 132.995 259.001L134.133 257.357ZM131.587 254.409C130.942 253.197 130.604 251.765 130.604 250.083L128.604 250.083C128.604 252.038 128.999 253.803 129.821 255.349L131.587 254.409ZM130.604 250.083C130.604 248.211 131.083 246.517 132.038 244.978L130.338 243.924C129.181 245.787 128.604 247.848 128.604 250.083L130.604 250.083ZM132.033 244.985C132.987 243.475 134.331 242.256 136.095 241.333L135.168 239.561C133.12 240.632 131.501 242.083 130.343 243.917L132.033 244.985ZM136.079 241.341C137.857 240.453 139.914 239.995 142.276 239.995L142.276 237.995C139.651 237.995 137.279 238.505 135.185 239.553L136.079 241.341ZM142.188 259.179C143.814 259.179 145.266 258.86 146.502 258.173L145.53 256.425C144.654 256.911 143.554 257.179 142.188 257.179L142.188 259.179ZM146.492 258.179C147.73 257.509 148.696 256.587 149.353 255.411L147.607 254.435C147.15 255.254 146.473 255.915 145.54 256.419L146.492 258.179ZM149.342 255.43C150.018 254.281 150.36 253.035 150.36 251.711L148.36 251.711C148.36 252.675 148.115 253.57 147.618 254.416L149.342 255.43ZM150.36 251.711C150.36 250.396 150.038 249.168 149.391 248.044L147.657 249.042C148.125 249.854 148.36 250.738 148.36 251.711L150.36 251.711ZM149.391 248.044C148.734 246.904 147.775 245.991 146.554 245.297L145.566 247.037C146.515 247.575 147.199 248.246 147.657 249.042L149.391 248.044ZM146.546 245.293C145.312 244.608 143.876 244.287 142.276 244.287L142.276 246.287C143.609 246.287 144.696 246.553 145.574 247.041L146.546 245.293ZM142.276 244.287C140.674 244.287 139.218 244.608 137.938 245.282L138.87 247.052C139.819 246.552 140.945 246.287 142.276 246.287L142.276 244.287ZM137.91 245.297C136.692 245.989 135.725 246.896 135.041 248.025L136.751 249.061C137.24 248.254 137.945 247.577 138.898 247.037L137.91 245.297ZM135.034 248.036C134.361 249.181 134.016 250.411 134.016 251.711L136.016 251.711C136.016 250.782 136.258 249.9 136.758 249.05L135.034 248.036ZM134.016 251.711C134.016 253.026 134.338 254.264 134.979 255.411L136.725 254.435C136.251 253.587 136.016 252.684 136.016 251.711L134.016 251.711ZM134.99 255.43C135.671 256.588 136.626 257.504 137.83 258.173L138.802 256.425C137.894 255.921 137.206 255.253 136.714 254.416L134.99 255.43ZM137.84 258.179C139.1 258.859 140.561 259.179 142.188 259.179L142.188 257.179C140.823 257.179 139.703 256.912 138.792 256.419L137.84 258.179ZM154.376 293.719L153.988 294.641L155.376 295.224L155.376 293.719L154.376 293.719ZM118.472 278.627L117.472 278.627L117.472 279.292L118.084 279.549L118.472 278.627ZM118.472 272.071L118.871 271.154L117.472 270.546L117.472 272.071L118.472 272.071ZM130.616 277.351L130.217 278.268L130.605 278.437L130.996 278.276L130.616 277.351ZM154.376 267.583L155.376 267.583L155.376 266.091L153.996 266.658L154.376 267.583ZM154.376 274.491L154.723 275.429L155.376 275.188L155.376 274.491L154.376 274.491ZM137.348 280.783L137.001 279.845L134.48 280.777L136.997 281.72L137.348 280.783ZM154.376 287.163L155.376 287.163L155.376 286.47L154.727 286.227L154.376 287.163ZM154.763 292.797L118.859 277.705L118.084 279.549L153.988 294.641L154.763 292.797ZM119.472 278.627L119.472 272.071L117.472 272.071L117.472 278.627L119.472 278.627ZM118.073 272.988L130.217 278.268L131.015 276.434L118.871 271.154L118.073 272.988ZM130.996 278.276L154.756 268.508L153.996 266.658L130.236 276.426L130.996 278.276ZM153.376 267.583L153.376 274.491L155.376 274.491L155.376 267.583L153.376 267.583ZM154.029 273.553L137.001 279.845L137.695 281.721L154.723 275.429L154.029 273.553ZM136.997 281.72L154.025 288.1L154.727 286.227L137.699 279.847L136.997 281.72ZM153.376 287.163L153.376 293.719L155.376 293.719L155.376 287.163L153.376 287.163Z" fill="white"></path> </svg> 