<?xml version="1.0" encoding="UTF-8"?> <svg xmlns="http://www.w3.org/2000/svg" width="189" height="317" viewBox="0 0 189 317" fill="none"> <rect width="189" height="317" rx="9" fill="#E75A5F"></rect> <path d="M32.89 30.09C32.542 29.358 32.038 28.794 31.378 28.398C30.718 27.99 29.95 27.786 29.074 27.786C28.198 27.786 27.406 27.99 26.698 28.398C26.002 28.794 25.45 29.37 25.042 30.126C24.646 30.87 24.448 31.734 24.448 32.718C24.448 33.702 24.646 34.566 25.042 35.31C25.45 36.054 26.002 36.63 26.698 37.038C27.406 37.434 28.198 37.632 29.074 37.632C30.298 37.632 31.306 37.266 32.098 36.534C32.89 35.802 33.352 34.812 33.484 33.564H28.48V32.232H35.23V33.492C35.134 34.524 34.81 35.472 34.258 36.336C33.706 37.188 32.98 37.866 32.08 38.37C31.18 38.862 30.178 39.108 29.074 39.108C27.91 39.108 26.848 38.838 25.888 38.298C24.928 37.746 24.166 36.984 23.602 36.012C23.05 35.04 22.774 33.942 22.774 32.718C22.774 31.494 23.05 30.396 23.602 29.424C24.166 28.44 24.928 27.678 25.888 27.138C26.848 26.586 27.91 26.31 29.074 26.31C30.406 26.31 31.582 26.64 32.602 27.3C33.634 27.96 34.384 28.89 34.852 30.09H32.89ZM46.3958 33.69C46.3958 34.002 46.3778 34.332 46.3418 34.68H38.4578C38.5178 35.652 38.8478 36.414 39.4478 36.966C40.0598 37.506 40.7978 37.776 41.6618 37.776C42.3698 37.776 42.9578 37.614 43.4258 37.29C43.9058 36.954 44.2418 36.51 44.4338 35.958H46.1978C45.9338 36.906 45.4058 37.68 44.6138 38.28C43.8218 38.868 42.8378 39.162 41.6618 39.162C40.7258 39.162 39.8858 38.952 39.1418 38.532C38.4098 38.112 37.8338 37.518 37.4138 36.75C36.9938 35.97 36.7838 35.07 36.7838 34.05C36.7838 33.03 36.9878 32.136 37.3958 31.368C37.8038 30.6 38.3738 30.012 39.1058 29.604C39.8498 29.184 40.7018 28.974 41.6618 28.974C42.5978 28.974 43.4258 29.178 44.1458 29.586C44.8658 29.994 45.4178 30.558 45.8018 31.278C46.1978 31.986 46.3958 32.79 46.3958 33.69ZM44.7038 33.348C44.7038 32.724 44.5658 32.19 44.2898 31.746C44.0138 31.29 43.6358 30.948 43.1558 30.72C42.6878 30.48 42.1658 30.36 41.5898 30.36C40.7618 30.36 40.0538 30.624 39.4658 31.152C38.8898 31.68 38.5598 32.412 38.4758 33.348H44.7038ZM52.8599 39.162C51.9359 39.162 51.0959 38.952 50.3399 38.532C49.5959 38.112 49.0079 37.518 48.5759 36.75C48.1559 35.97 47.9459 35.07 47.9459 34.05C47.9459 33.042 48.1619 32.154 48.5939 31.386C49.0379 30.606 49.6379 30.012 50.3939 29.604C51.1499 29.184 51.9959 28.974 52.9319 28.974C53.8679 28.974 54.7139 29.184 55.4699 29.604C56.2259 30.012 56.8199 30.6 57.2519 31.368C57.6959 32.136 57.9179 33.03 57.9179 34.05C57.9179 35.07 57.6899 35.97 57.2339 36.75C56.7899 37.518 56.1839 38.112 55.4159 38.532C54.6479 38.952 53.7959 39.162 52.8599 39.162ZM52.8599 37.722C53.4479 37.722 53.9999 37.584 54.5159 37.308C55.0319 37.032 55.4459 36.618 55.7579 36.066C56.0819 35.514 56.2439 34.842 56.2439 34.05C56.2439 33.258 56.0879 32.586 55.7759 32.034C55.4639 31.482 55.0559 31.074 54.5519 30.81C54.0479 30.534 53.5019 30.396 52.9139 30.396C52.3139 30.396 51.7619 30.534 51.2579 30.81C50.7659 31.074 50.3699 31.482 50.0699 32.034C49.7699 32.586 49.6199 33.258 49.6199 34.05C49.6199 34.854 49.7639 35.532 50.0519 36.084C50.3519 36.636 50.7479 37.05 51.2399 37.326C51.7319 37.59 52.2719 37.722 52.8599 37.722ZM71.9335 28.956C72.7015 28.956 73.3855 29.118 73.9855 29.442C74.5855 29.754 75.0595 30.228 75.4075 30.864C75.7555 31.5 75.9295 32.274 75.9295 33.186V39H74.3095V33.42C74.3095 32.436 74.0635 31.686 73.5715 31.17C73.0915 30.642 72.4375 30.378 71.6095 30.378C70.7575 30.378 70.0795 30.654 69.5755 31.206C69.0715 31.746 68.8195 32.532 68.8195 33.564V39H67.1995V33.42C67.1995 32.436 66.9535 31.686 66.4615 31.17C65.9815 30.642 65.3275 30.378 64.4995 30.378C63.6475 30.378 62.9695 30.654 62.4655 31.206C61.9615 31.746 61.7095 32.532 61.7095 33.564V39H60.0715V29.136H61.7095V30.558C62.0335 30.042 62.4655 29.646 63.0055 29.37C63.5575 29.094 64.1635 28.956 64.8235 28.956C65.6515 28.956 66.3835 29.142 67.0195 29.514C67.6555 29.886 68.1295 30.432 68.4415 31.152C68.7175 30.456 69.1735 29.916 69.8095 29.532C70.4455 29.148 71.1535 28.956 71.9335 28.956ZM87.6165 33.69C87.6165 34.002 87.5985 34.332 87.5625 34.68H79.6785C79.7385 35.652 80.0685 36.414 80.6685 36.966C81.2805 37.506 82.0185 37.776 82.8825 37.776C83.5905 37.776 84.1785 37.614 84.6465 37.29C85.1265 36.954 85.4625 36.51 85.6545 35.958H87.4185C87.1545 36.906 86.6265 37.68 85.8345 38.28C85.0425 38.868 84.0585 39.162 82.8825 39.162C81.9465 39.162 81.1065 38.952 80.3625 38.532C79.6305 38.112 79.0545 37.518 78.6345 36.75C78.2145 35.97 78.0045 35.07 78.0045 34.05C78.0045 33.03 78.2085 32.136 78.6165 31.368C79.0245 30.6 79.5945 30.012 80.3265 29.604C81.0705 29.184 81.9225 28.974 82.8825 28.974C83.8185 28.974 84.6465 29.178 85.3665 29.586C86.0865 29.994 86.6385 30.558 87.0225 31.278C87.4185 31.986 87.6165 32.79 87.6165 33.69ZM85.9245 33.348C85.9245 32.724 85.7865 32.19 85.5105 31.746C85.2345 31.29 84.8565 30.948 84.3765 30.72C83.9085 30.48 83.3865 30.36 82.8105 30.36C81.9825 30.36 81.2745 30.624 80.6865 31.152C80.1105 31.68 79.7805 32.412 79.6965 33.348H85.9245ZM91.7766 30.486V36.3C91.7766 36.78 91.8786 37.122 92.0826 37.326C92.2866 37.518 92.6406 37.614 93.1446 37.614H94.3506V39H92.8746C91.9626 39 91.2786 38.79 90.8226 38.37C90.3666 37.95 90.1386 37.26 90.1386 36.3V30.486H88.8606V29.136H90.1386V26.652H91.7766V29.136H94.3506V30.486H91.7766ZM97.9732 30.738C98.2612 30.174 98.6692 29.736 99.1972 29.424C99.7372 29.112 100.391 28.956 101.159 28.956V30.648H100.727C98.8912 30.648 97.9732 31.644 97.9732 33.636V39H96.3352V29.136H97.9732V30.738ZM111.546 29.136L105.606 43.644H103.914L105.858 38.892L101.88 29.136H103.698L106.794 37.128L109.854 29.136H111.546Z" fill="white"></path> <path d="M32.89 72.09C32.542 71.358 32.038 70.794 31.378 70.398C30.718 69.99 29.95 69.786 29.074 69.786C28.198 69.786 27.406 69.99 26.698 70.398C26.002 70.794 25.45 71.37 25.042 72.126C24.646 72.87 24.448 73.734 24.448 74.718C24.448 75.702 24.646 76.566 25.042 77.31C25.45 78.054 26.002 78.63 26.698 79.038C27.406 79.434 28.198 79.632 29.074 79.632C30.298 79.632 31.306 79.266 32.098 78.534C32.89 77.802 33.352 76.812 33.484 75.564H28.48V74.232H35.23V75.492C35.134 76.524 34.81 77.472 34.258 78.336C33.706 79.188 32.98 79.866 32.08 80.37C31.18 80.862 30.178 81.108 29.074 81.108C27.91 81.108 26.848 80.838 25.888 80.298C24.928 79.746 24.166 78.984 23.602 78.012C23.05 77.04 22.774 75.942 22.774 74.718C22.774 73.494 23.05 72.396 23.602 71.424C24.166 70.44 24.928 69.678 25.888 69.138C26.848 68.586 27.91 68.31 29.074 68.31C30.406 68.31 31.582 68.64 32.602 69.3C33.634 69.96 34.384 70.89 34.852 72.09H32.89ZM46.3958 75.69C46.3958 76.002 46.3778 76.332 46.3418 76.68H38.4578C38.5178 77.652 38.8478 78.414 39.4478 78.966C40.0598 79.506 40.7978 79.776 41.6618 79.776C42.3698 79.776 42.9578 79.614 43.4258 79.29C43.9058 78.954 44.2418 78.51 44.4338 77.958H46.1978C45.9338 78.906 45.4058 79.68 44.6138 80.28C43.8218 80.868 42.8378 81.162 41.6618 81.162C40.7258 81.162 39.8858 80.952 39.1418 80.532C38.4098 80.112 37.8338 79.518 37.4138 78.75C36.9938 77.97 36.7838 77.07 36.7838 76.05C36.7838 75.03 36.9878 74.136 37.3958 73.368C37.8038 72.6 38.3738 72.012 39.1058 71.604C39.8498 71.184 40.7018 70.974 41.6618 70.974C42.5978 70.974 43.4258 71.178 44.1458 71.586C44.8658 71.994 45.4178 72.558 45.8018 73.278C46.1978 73.986 46.3958 74.79 46.3958 75.69ZM44.7038 75.348C44.7038 74.724 44.5658 74.19 44.2898 73.746C44.0138 73.29 43.6358 72.948 43.1558 72.72C42.6878 72.48 42.1658 72.36 41.5898 72.36C40.7618 72.36 40.0538 72.624 39.4658 73.152C38.8898 73.68 38.5598 74.412 38.4758 75.348H44.7038ZM52.8599 81.162C51.9359 81.162 51.0959 80.952 50.3399 80.532C49.5959 80.112 49.0079 79.518 48.5759 78.75C48.1559 77.97 47.9459 77.07 47.9459 76.05C47.9459 75.042 48.1619 74.154 48.5939 73.386C49.0379 72.606 49.6379 72.012 50.3939 71.604C51.1499 71.184 51.9959 70.974 52.9319 70.974C53.8679 70.974 54.7139 71.184 55.4699 71.604C56.2259 72.012 56.8199 72.6 57.2519 73.368C57.6959 74.136 57.9179 75.03 57.9179 76.05C57.9179 77.07 57.6899 77.97 57.2339 78.75C56.7899 79.518 56.1839 80.112 55.4159 80.532C54.6479 80.952 53.7959 81.162 52.8599 81.162ZM52.8599 79.722C53.4479 79.722 53.9999 79.584 54.5159 79.308C55.0319 79.032 55.4459 78.618 55.7579 78.066C56.0819 77.514 56.2439 76.842 56.2439 76.05C56.2439 75.258 56.0879 74.586 55.7759 74.034C55.4639 73.482 55.0559 73.074 54.5519 72.81C54.0479 72.534 53.5019 72.396 52.9139 72.396C52.3139 72.396 51.7619 72.534 51.2579 72.81C50.7659 73.074 50.3699 73.482 50.0699 74.034C49.7699 74.586 49.6199 75.258 49.6199 76.05C49.6199 76.854 49.7639 77.532 50.0519 78.084C50.3519 78.636 50.7479 79.05 51.2399 79.326C51.7319 79.59 52.2719 79.722 52.8599 79.722ZM64.1395 70.974C64.9915 70.974 65.7355 71.16 66.3715 71.532C67.0195 71.904 67.4995 72.372 67.8115 72.936V71.136H69.4675V81.216C69.4675 82.116 69.2755 82.914 68.8915 83.61C68.5075 84.318 67.9555 84.87 67.2355 85.266C66.5275 85.662 65.6995 85.86 64.7515 85.86C63.4555 85.86 62.3755 85.554 61.5115 84.942C60.6475 84.33 60.1375 83.496 59.9815 82.44H61.6015C61.7815 83.04 62.1535 83.52 62.7175 83.88C63.2815 84.252 63.9595 84.438 64.7515 84.438C65.6515 84.438 66.3835 84.156 66.9475 83.592C67.5235 83.028 67.8115 82.236 67.8115 81.216V79.146C67.4875 79.722 67.0075 80.202 66.3715 80.586C65.7355 80.97 64.9915 81.162 64.1395 81.162C63.2635 81.162 62.4655 80.946 61.7455 80.514C61.0375 80.082 60.4795 79.476 60.0715 78.696C59.6635 77.916 59.4595 77.028 59.4595 76.032C59.4595 75.024 59.6635 74.142 60.0715 73.386C60.4795 72.618 61.0375 72.024 61.7455 71.604C62.4655 71.184 63.2635 70.974 64.1395 70.974ZM67.8115 76.05C67.8115 75.306 67.6615 74.658 67.3615 74.106C67.0615 73.554 66.6535 73.134 66.1375 72.846C65.6335 72.546 65.0755 72.396 64.4635 72.396C63.8515 72.396 63.2935 72.54 62.7895 72.828C62.2855 73.116 61.8835 73.536 61.5835 74.088C61.2835 74.64 61.1335 75.288 61.1335 76.032C61.1335 76.788 61.2835 77.448 61.5835 78.012C61.8835 78.564 62.2855 78.99 62.7895 79.29C63.2935 79.578 63.8515 79.722 64.4635 79.722C65.0755 79.722 65.6335 79.578 66.1375 79.29C66.6535 78.99 67.0615 78.564 67.3615 78.012C67.6615 77.448 67.8115 76.794 67.8115 76.05ZM73.8736 72.738C74.1616 72.174 74.5696 71.736 75.0976 71.424C75.6376 71.112 76.2916 70.956 77.0596 70.956V72.648H76.6276C74.7916 72.648 73.8736 73.644 73.8736 75.636V81H72.2356V71.136H73.8736V72.738ZM78.3385 76.032C78.3385 75.024 78.5425 74.142 78.9505 73.386C79.3585 72.618 79.9165 72.024 80.6245 71.604C81.3445 71.184 82.1425 70.974 83.0185 70.974C83.8825 70.974 84.6325 71.16 85.2685 71.532C85.9045 71.904 86.3785 72.372 86.6905 72.936V71.136H88.3465V81H86.6905V79.164C86.3665 79.74 85.8805 80.22 85.2325 80.604C84.5965 80.976 83.8525 81.162 83.0005 81.162C82.1245 81.162 81.3325 80.946 80.6245 80.514C79.9165 80.082 79.3585 79.476 78.9505 78.696C78.5425 77.916 78.3385 77.028 78.3385 76.032ZM86.6905 76.05C86.6905 75.306 86.5405 74.658 86.2405 74.106C85.9405 73.554 85.5325 73.134 85.0165 72.846C84.5125 72.546 83.9545 72.396 83.3425 72.396C82.7305 72.396 82.1725 72.54 81.6685 72.828C81.1645 73.116 80.7625 73.536 80.4625 74.088C80.1625 74.64 80.0125 75.288 80.0125 76.032C80.0125 76.788 80.1625 77.448 80.4625 78.012C80.7625 78.564 81.1645 78.99 81.6685 79.29C82.1725 79.578 82.7305 79.722 83.3425 79.722C83.9545 79.722 84.5125 79.578 85.0165 79.29C85.5325 78.99 85.9405 78.564 86.2405 78.012C86.5405 77.448 86.6905 76.794 86.6905 76.05ZM92.7525 72.954C93.0765 72.39 93.5565 71.922 94.1925 71.55C94.8405 71.166 95.5905 70.974 96.4425 70.974C97.3185 70.974 98.1105 71.184 98.8185 71.604C99.5385 72.024 100.103 72.618 100.511 73.386C100.919 74.142 101.123 75.024 101.123 76.032C101.123 77.028 100.919 77.916 100.511 78.696C100.103 79.476 99.5385 80.082 98.8185 80.514C98.1105 80.946 97.3185 81.162 96.4425 81.162C95.6025 81.162 94.8585 80.976 94.2105 80.604C93.5745 80.22 93.0885 79.746 92.7525 79.182V85.68H91.1145V71.136H92.7525V72.954ZM99.4485 76.032C99.4485 75.288 99.2985 74.64 98.9985 74.088C98.6985 73.536 98.2905 73.116 97.7745 72.828C97.2705 72.54 96.7125 72.396 96.1005 72.396C95.5005 72.396 94.9425 72.546 94.4265 72.846C93.9225 73.134 93.5145 73.56 93.2025 74.124C92.9025 74.676 92.7525 75.318 92.7525 76.05C92.7525 76.794 92.9025 77.448 93.2025 78.012C93.5145 78.564 93.9225 78.99 94.4265 79.29C94.9425 79.578 95.5005 79.722 96.1005 79.722C96.7125 79.722 97.2705 79.578 97.7745 79.29C98.2905 78.99 98.6985 78.564 98.9985 78.012C99.2985 77.448 99.4485 76.788 99.4485 76.032ZM108.175 70.956C108.919 70.956 109.591 71.118 110.191 71.442C110.791 71.754 111.259 72.228 111.595 72.864C111.943 73.5 112.117 74.274 112.117 75.186V81H110.497V75.42C110.497 74.436 110.251 73.686 109.759 73.17C109.267 72.642 108.595 72.378 107.743 72.378C106.879 72.378 106.189 72.648 105.673 73.188C105.169 73.728 104.917 74.514 104.917 75.546V81H103.279V67.68H104.917V72.54C105.241 72.036 105.685 71.646 106.249 71.37C106.825 71.094 107.467 70.956 108.175 70.956ZM123.288 71.136L117.348 85.644H115.656L117.6 80.892L113.622 71.136H115.44L118.536 79.128L121.596 71.136H123.288Z" fill="white"></path> <path d="M29.992 123L27.004 117.87H25.024V123H23.386V110.454H27.436C28.384 110.454 29.182 110.616 29.83 110.94C30.49 111.264 30.982 111.702 31.306 112.254C31.63 112.806 31.792 113.436 31.792 114.144C31.792 115.008 31.54 115.77 31.036 116.43C30.544 117.09 29.8 117.528 28.804 117.744L31.954 123H29.992ZM25.024 116.556H27.436C28.324 116.556 28.99 116.34 29.434 115.908C29.878 115.464 30.1 114.876 30.1 114.144C30.1 113.4 29.878 112.824 29.434 112.416C29.002 112.008 28.336 111.804 27.436 111.804H25.024V116.556ZM43.0852 113.136V123H41.4472V121.542C41.1352 122.046 40.6972 122.442 40.1332 122.73C39.5812 123.006 38.9692 123.144 38.2972 123.144C37.5292 123.144 36.8392 122.988 36.2272 122.676C35.6152 122.352 35.1292 121.872 34.7692 121.236C34.4212 120.6 34.2472 119.826 34.2472 118.914V113.136H35.8672V118.698C35.8672 119.67 36.1132 120.42 36.6052 120.948C37.0972 121.464 37.7692 121.722 38.6212 121.722C39.4972 121.722 40.1872 121.452 40.6912 120.912C41.1952 120.372 41.4472 119.586 41.4472 118.554V113.136H43.0852ZM49.3428 123.162C48.5868 123.162 47.9088 123.036 47.3088 122.784C46.7088 122.52 46.2348 122.16 45.8868 121.704C45.5388 121.236 45.3468 120.702 45.3108 120.102H47.0028C47.0508 120.594 47.2788 120.996 47.6868 121.308C48.1068 121.62 48.6528 121.776 49.3248 121.776C49.9488 121.776 50.4408 121.638 50.8008 121.362C51.1608 121.086 51.3408 120.738 51.3408 120.318C51.3408 119.886 51.1488 119.568 50.7648 119.364C50.3808 119.148 49.7868 118.938 48.9828 118.734C48.2508 118.542 47.6508 118.35 47.1828 118.158C46.7268 117.954 46.3308 117.66 45.9948 117.276C45.6708 116.88 45.5088 116.364 45.5088 115.728C45.5088 115.224 45.6588 114.762 45.9588 114.342C46.2588 113.922 46.6848 113.592 47.2368 113.352C47.7888 113.1 48.4188 112.974 49.1268 112.974C50.2188 112.974 51.1008 113.25 51.7728 113.802C52.4448 114.354 52.8048 115.11 52.8528 116.07H51.2148C51.1788 115.554 50.9688 115.14 50.5848 114.828C50.2128 114.516 49.7088 114.36 49.0728 114.36C48.4848 114.36 48.0168 114.486 47.6688 114.738C47.3208 114.99 47.1468 115.32 47.1468 115.728C47.1468 116.052 47.2488 116.322 47.4528 116.538C47.6688 116.742 47.9328 116.91 48.2448 117.042C48.5688 117.162 49.0128 117.3 49.5768 117.456C50.2848 117.648 50.8608 117.84 51.3048 118.032C51.7488 118.212 52.1268 118.488 52.4388 118.86C52.7628 119.232 52.9308 119.718 52.9428 120.318C52.9428 120.858 52.7928 121.344 52.4928 121.776C52.1928 122.208 51.7668 122.55 51.2148 122.802C50.6748 123.042 50.0508 123.162 49.3428 123.162ZM58.7471 123.162C57.9911 123.162 57.3131 123.036 56.7131 122.784C56.1131 122.52 55.6391 122.16 55.2911 121.704C54.9431 121.236 54.7511 120.702 54.7151 120.102H56.4071C56.4551 120.594 56.6831 120.996 57.0911 121.308C57.5111 121.62 58.0571 121.776 58.7291 121.776C59.3531 121.776 59.8451 121.638 60.2051 121.362C60.5651 121.086 60.7451 120.738 60.7451 120.318C60.7451 119.886 60.5531 119.568 60.1691 119.364C59.7851 119.148 59.1911 118.938 58.3871 118.734C57.6551 118.542 57.0551 118.35 56.5871 118.158C56.1311 117.954 55.7351 117.66 55.3991 117.276C55.0751 116.88 54.9131 116.364 54.9131 115.728C54.9131 115.224 55.0631 114.762 55.3631 114.342C55.6631 113.922 56.0891 113.592 56.6411 113.352C57.1931 113.1 57.8231 112.974 58.5311 112.974C59.6231 112.974 60.5051 113.25 61.1771 113.802C61.8491 114.354 62.2091 115.11 62.2571 116.07H60.6191C60.5831 115.554 60.3731 115.14 59.9891 114.828C59.6171 114.516 59.1131 114.36 58.4771 114.36C57.8891 114.36 57.4211 114.486 57.0731 114.738C56.7251 114.99 56.5511 115.32 56.5511 115.728C56.5511 116.052 56.6531 116.322 56.8571 116.538C57.0731 116.742 57.3371 116.91 57.6491 117.042C57.9731 117.162 58.4171 117.3 58.9811 117.456C59.6891 117.648 60.2651 117.84 60.7091 118.032C61.1531 118.212 61.5311 118.488 61.8431 118.86C62.1671 119.232 62.3351 119.718 62.3471 120.318C62.3471 120.858 62.1971 121.344 61.8971 121.776C61.5971 122.208 61.1711 122.55 60.6191 122.802C60.0791 123.042 59.4551 123.162 58.7471 123.162ZM65.5054 111.534C65.1934 111.534 64.9294 111.426 64.7134 111.21C64.4974 110.994 64.3894 110.73 64.3894 110.418C64.3894 110.106 64.4974 109.842 64.7134 109.626C64.9294 109.41 65.1934 109.302 65.5054 109.302C65.8054 109.302 66.0574 109.41 66.2614 109.626C66.4774 109.842 66.5854 110.106 66.5854 110.418C66.5854 110.73 66.4774 110.994 66.2614 111.21C66.0574 111.426 65.8054 111.534 65.5054 111.534ZM66.2974 113.136V123H64.6594V113.136H66.2974ZM68.4771 118.032C68.4771 117.024 68.6811 116.142 69.0891 115.386C69.4971 114.618 70.0551 114.024 70.7631 113.604C71.4831 113.184 72.2811 112.974 73.1571 112.974C74.0211 112.974 74.7711 113.16 75.4071 113.532C76.0431 113.904 76.5171 114.372 76.8291 114.936V113.136H78.4851V123H76.8291V121.164C76.5051 121.74 76.0191 122.22 75.3711 122.604C74.7351 122.976 73.9911 123.162 73.1391 123.162C72.2631 123.162 71.4711 122.946 70.7631 122.514C70.0551 122.082 69.4971 121.476 69.0891 120.696C68.6811 119.916 68.4771 119.028 68.4771 118.032ZM76.8291 118.05C76.8291 117.306 76.6791 116.658 76.3791 116.106C76.0791 115.554 75.6711 115.134 75.1551 114.846C74.6511 114.546 74.0931 114.396 73.4811 114.396C72.8691 114.396 72.3111 114.54 71.8071 114.828C71.3031 115.116 70.9011 115.536 70.6011 116.088C70.3011 116.64 70.1511 117.288 70.1511 118.032C70.1511 118.788 70.3011 119.448 70.6011 120.012C70.9011 120.564 71.3031 120.99 71.8071 121.29C72.3111 121.578 72.8691 121.722 73.4811 121.722C74.0931 121.722 74.6511 121.578 75.1551 121.29C75.6711 120.99 76.0791 120.564 76.3791 120.012C76.6791 119.448 76.8291 118.794 76.8291 118.05ZM86.0592 112.956C87.2592 112.956 88.2312 113.322 88.9752 114.054C89.7192 114.774 90.0912 115.818 90.0912 117.186V123H88.4712V117.42C88.4712 116.436 88.2252 115.686 87.7332 115.17C87.2412 114.642 86.5692 114.378 85.7172 114.378C84.8532 114.378 84.1632 114.648 83.6472 115.188C83.1432 115.728 82.8912 116.514 82.8912 117.546V123H81.2532V113.136H82.8912V114.54C83.2152 114.036 83.6532 113.646 84.2052 113.37C84.7692 113.094 85.3872 112.956 86.0592 112.956Z" fill="white"></path> <path d="M31.774 156.126C31.774 157.17 31.414 158.04 30.694 158.736C29.986 159.42 28.9 159.762 27.436 159.762H25.024V165H23.386V152.454H27.436C28.852 152.454 29.926 152.796 30.658 153.48C31.402 154.164 31.774 155.046 31.774 156.126ZM27.436 158.412C28.348 158.412 29.02 158.214 29.452 157.818C29.884 157.422 30.1 156.858 30.1 156.126C30.1 154.578 29.212 153.804 27.436 153.804H25.024V158.412H27.436ZM38.7058 154.956C39.4498 154.956 40.1218 155.118 40.7218 155.442C41.3218 155.754 41.7898 156.228 42.1258 156.864C42.4738 157.5 42.6478 158.274 42.6478 159.186V165H41.0278V159.42C41.0278 158.436 40.7818 157.686 40.2898 157.17C39.7978 156.642 39.1258 156.378 38.2738 156.378C37.4098 156.378 36.7198 156.648 36.2038 157.188C35.6998 157.728 35.4478 158.514 35.4478 159.546V165H33.8098V151.68H35.4478V156.54C35.7718 156.036 36.2158 155.646 36.7798 155.37C37.3558 155.094 37.9978 154.956 38.7058 154.956ZM53.8195 155.136L47.8795 169.644H46.1875L48.1315 164.892L44.1535 155.136H45.9715L49.0675 163.128L52.1275 155.136H53.8195ZM58.9581 165.162C58.2021 165.162 57.5241 165.036 56.9241 164.784C56.3241 164.52 55.8501 164.16 55.5021 163.704C55.1541 163.236 54.9621 162.702 54.9261 162.102H56.6181C56.6661 162.594 56.8941 162.996 57.3021 163.308C57.7221 163.62 58.2681 163.776 58.9401 163.776C59.5641 163.776 60.0561 163.638 60.4161 163.362C60.7761 163.086 60.9561 162.738 60.9561 162.318C60.9561 161.886 60.7641 161.568 60.3801 161.364C59.9961 161.148 59.4021 160.938 58.5981 160.734C57.8661 160.542 57.2661 160.35 56.7981 160.158C56.3421 159.954 55.9461 159.66 55.6101 159.276C55.2861 158.88 55.1241 158.364 55.1241 157.728C55.1241 157.224 55.2741 156.762 55.5741 156.342C55.8741 155.922 56.3001 155.592 56.8521 155.352C57.4041 155.1 58.0341 154.974 58.7421 154.974C59.8341 154.974 60.7161 155.25 61.3881 155.802C62.0601 156.354 62.4201 157.11 62.4681 158.07H60.8301C60.7941 157.554 60.5841 157.14 60.2001 156.828C59.8281 156.516 59.3241 156.36 58.6881 156.36C58.1001 156.36 57.6321 156.486 57.2841 156.738C56.9361 156.99 56.7621 157.32 56.7621 157.728C56.7621 158.052 56.8641 158.322 57.0681 158.538C57.2841 158.742 57.5481 158.91 57.8601 159.042C58.1841 159.162 58.6281 159.3 59.1921 159.456C59.9001 159.648 60.4761 159.84 60.9201 160.032C61.3641 160.212 61.7421 160.488 62.0541 160.86C62.3781 161.232 62.5461 161.718 62.5581 162.318C62.5581 162.858 62.4081 163.344 62.1081 163.776C61.8081 164.208 61.3821 164.55 60.8301 164.802C60.2901 165.042 59.6661 165.162 58.9581 165.162ZM65.7164 153.534C65.4044 153.534 65.1404 153.426 64.9244 153.21C64.7084 152.994 64.6004 152.73 64.6004 152.418C64.6004 152.106 64.7084 151.842 64.9244 151.626C65.1404 151.41 65.4044 151.302 65.7164 151.302C66.0164 151.302 66.2684 151.41 66.4724 151.626C66.6884 151.842 66.7964 152.106 66.7964 152.418C66.7964 152.73 66.6884 152.994 66.4724 153.21C66.2684 153.426 66.0164 153.534 65.7164 153.534ZM66.5084 155.136V165H64.8704V155.136H66.5084ZM68.6881 160.05C68.6881 159.03 68.8921 158.142 69.3001 157.386C69.7081 156.618 70.2721 156.024 70.9921 155.604C71.7241 155.184 72.5581 154.974 73.4941 154.974C74.7061 154.974 75.7021 155.268 76.4821 155.856C77.2741 156.444 77.7961 157.26 78.0481 158.304H76.2841C76.1161 157.704 75.7861 157.23 75.2941 156.882C74.8141 156.534 74.2141 156.36 73.4941 156.36C72.5581 156.36 71.8021 156.684 71.2261 157.332C70.6501 157.968 70.3621 158.874 70.3621 160.05C70.3621 161.238 70.6501 162.156 71.2261 162.804C71.8021 163.452 72.5581 163.776 73.4941 163.776C74.2141 163.776 74.8141 163.608 75.2941 163.272C75.7741 162.936 76.1041 162.456 76.2841 161.832H78.0481C77.7841 162.84 77.2561 163.65 76.4641 164.262C75.6721 164.862 74.6821 165.162 73.4941 165.162C72.5581 165.162 71.7241 164.952 70.9921 164.532C70.2721 164.112 69.7081 163.518 69.3001 162.75C68.8921 161.982 68.6881 161.082 68.6881 160.05ZM83.7257 165.162C82.9697 165.162 82.2917 165.036 81.6917 164.784C81.0917 164.52 80.6177 164.16 80.2697 163.704C79.9217 163.236 79.7297 162.702 79.6937 162.102H81.3857C81.4337 162.594 81.6617 162.996 82.0697 163.308C82.4897 163.62 83.0357 163.776 83.7077 163.776C84.3317 163.776 84.8237 163.638 85.1837 163.362C85.5437 163.086 85.7237 162.738 85.7237 162.318C85.7237 161.886 85.5317 161.568 85.1477 161.364C84.7637 161.148 84.1697 160.938 83.3657 160.734C82.6337 160.542 82.0337 160.35 81.5657 160.158C81.1097 159.954 80.7137 159.66 80.3777 159.276C80.0537 158.88 79.8917 158.364 79.8917 157.728C79.8917 157.224 80.0417 156.762 80.3417 156.342C80.6417 155.922 81.0677 155.592 81.6197 155.352C82.1717 155.1 82.8017 154.974 83.5097 154.974C84.6017 154.974 85.4837 155.25 86.1557 155.802C86.8277 156.354 87.1877 157.11 87.2357 158.07H85.5977C85.5617 157.554 85.3517 157.14 84.9677 156.828C84.5957 156.516 84.0917 156.36 83.4557 156.36C82.8677 156.36 82.3997 156.486 82.0517 156.738C81.7037 156.99 81.5297 157.32 81.5297 157.728C81.5297 158.052 81.6317 158.322 81.8357 158.538C82.0517 158.742 82.3157 158.91 82.6277 159.042C82.9517 159.162 83.3957 159.3 83.9597 159.456C84.6677 159.648 85.2437 159.84 85.6877 160.032C86.1317 160.212 86.5097 160.488 86.8217 160.86C87.1457 161.232 87.3137 161.718 87.3257 162.318C87.3257 162.858 87.1757 163.344 86.8757 163.776C86.5757 164.208 86.1497 164.55 85.5977 164.802C85.0577 165.042 84.4337 165.162 83.7257 165.162Z" fill="white"></path> <path d="M27.364 207.126C26.536 207.126 25.792 206.982 25.132 206.694C24.484 206.394 23.974 205.986 23.602 205.47C23.23 204.942 23.038 204.336 23.026 203.652H24.772C24.832 204.24 25.072 204.738 25.492 205.146C25.924 205.542 26.548 205.74 27.364 205.74C28.144 205.74 28.756 205.548 29.2 205.164C29.656 204.768 29.884 204.264 29.884 203.652C29.884 203.172 29.752 202.782 29.488 202.482C29.224 202.182 28.894 201.954 28.498 201.798C28.102 201.642 27.568 201.474 26.896 201.294C26.068 201.078 25.402 200.862 24.898 200.646C24.406 200.43 23.98 200.094 23.62 199.638C23.272 199.17 23.098 198.546 23.098 197.766C23.098 197.082 23.272 196.476 23.62 195.948C23.968 195.42 24.454 195.012 25.078 194.724C25.714 194.436 26.44 194.292 27.256 194.292C28.432 194.292 29.392 194.586 30.136 195.174C30.892 195.762 31.318 196.542 31.414 197.514H29.614C29.554 197.034 29.302 196.614 28.858 196.254C28.414 195.882 27.826 195.696 27.094 195.696C26.41 195.696 25.852 195.876 25.42 196.236C24.988 196.584 24.772 197.076 24.772 197.712C24.772 198.168 24.898 198.54 25.15 198.828C25.414 199.116 25.732 199.338 26.104 199.494C26.488 199.638 27.022 199.806 27.706 199.998C28.534 200.226 29.2 200.454 29.704 200.682C30.208 200.898 30.64 201.24 31 201.708C31.36 202.164 31.54 202.788 31.54 203.58C31.54 204.192 31.378 204.768 31.054 205.308C30.73 205.848 30.25 206.286 29.614 206.622C28.978 206.958 28.228 207.126 27.364 207.126ZM35.5885 198.954C35.9125 198.39 36.3925 197.922 37.0285 197.55C37.6765 197.166 38.4265 196.974 39.2785 196.974C40.1545 196.974 40.9465 197.184 41.6545 197.604C42.3745 198.024 42.9385 198.618 43.3465 199.386C43.7545 200.142 43.9585 201.024 43.9585 202.032C43.9585 203.028 43.7545 203.916 43.3465 204.696C42.9385 205.476 42.3745 206.082 41.6545 206.514C40.9465 206.946 40.1545 207.162 39.2785 207.162C38.4385 207.162 37.6945 206.976 37.0465 206.604C36.4105 206.22 35.9245 205.746 35.5885 205.182V211.68H33.9505V197.136H35.5885V198.954ZM42.2845 202.032C42.2845 201.288 42.1345 200.64 41.8345 200.088C41.5345 199.536 41.1265 199.116 40.6105 198.828C40.1065 198.54 39.5485 198.396 38.9365 198.396C38.3365 198.396 37.7785 198.546 37.2625 198.846C36.7585 199.134 36.3505 199.56 36.0385 200.124C35.7385 200.676 35.5885 201.318 35.5885 202.05C35.5885 202.794 35.7385 203.448 36.0385 204.012C36.3505 204.564 36.7585 204.99 37.2625 205.29C37.7785 205.578 38.3365 205.722 38.9365 205.722C39.5485 205.722 40.1065 205.578 40.6105 205.29C41.1265 204.99 41.5345 204.564 41.8345 204.012C42.1345 203.448 42.2845 202.788 42.2845 202.032ZM50.4165 207.162C49.4925 207.162 48.6525 206.952 47.8965 206.532C47.1525 206.112 46.5645 205.518 46.1325 204.75C45.7125 203.97 45.5025 203.07 45.5025 202.05C45.5025 201.042 45.7185 200.154 46.1505 199.386C46.5945 198.606 47.1945 198.012 47.9505 197.604C48.7065 197.184 49.5525 196.974 50.4885 196.974C51.4245 196.974 52.2705 197.184 53.0265 197.604C53.7825 198.012 54.3765 198.6 54.8085 199.368C55.2525 200.136 55.4745 201.03 55.4745 202.05C55.4745 203.07 55.2465 203.97 54.7905 204.75C54.3465 205.518 53.7405 206.112 52.9725 206.532C52.2045 206.952 51.3525 207.162 50.4165 207.162ZM50.4165 205.722C51.0045 205.722 51.5565 205.584 52.0725 205.308C52.5885 205.032 53.0025 204.618 53.3145 204.066C53.6385 203.514 53.8005 202.842 53.8005 202.05C53.8005 201.258 53.6445 200.586 53.3325 200.034C53.0205 199.482 52.6125 199.074 52.1085 198.81C51.6045 198.534 51.0585 198.396 50.4705 198.396C49.8705 198.396 49.3185 198.534 48.8145 198.81C48.3225 199.074 47.9265 199.482 47.6265 200.034C47.3265 200.586 47.1765 201.258 47.1765 202.05C47.1765 202.854 47.3205 203.532 47.6085 204.084C47.9085 204.636 48.3045 205.05 48.7965 205.326C49.2885 205.59 49.8285 205.722 50.4165 205.722ZM59.2662 198.738C59.5542 198.174 59.9622 197.736 60.4902 197.424C61.0302 197.112 61.6842 196.956 62.4522 196.956V198.648H62.0202C60.1842 198.648 59.2662 199.644 59.2662 201.636V207H57.6282V197.136H59.2662V198.738ZM66.341 198.486V204.3C66.341 204.78 66.443 205.122 66.647 205.326C66.851 205.518 67.205 205.614 67.709 205.614H68.915V207H67.439C66.527 207 65.843 206.79 65.387 206.37C64.931 205.95 64.703 205.26 64.703 204.3V198.486H63.425V197.136H64.703V194.652H66.341V197.136H68.915V198.486H66.341Z" fill="white"></path> <path d="M22.774 242.718C22.774 241.494 23.05 240.396 23.602 239.424C24.154 238.44 24.904 237.672 25.852 237.12C26.812 236.568 27.874 236.292 29.038 236.292C30.406 236.292 31.6 236.622 32.62 237.282C33.64 237.942 34.384 238.878 34.852 240.09H32.89C32.542 239.334 32.038 238.752 31.378 238.344C30.73 237.936 29.95 237.732 29.038 237.732C28.162 237.732 27.376 237.936 26.68 238.344C25.984 238.752 25.438 239.334 25.042 240.09C24.646 240.834 24.448 241.71 24.448 242.718C24.448 243.714 24.646 244.59 25.042 245.346C25.438 246.09 25.984 246.666 26.68 247.074C27.376 247.482 28.162 247.686 29.038 247.686C29.95 247.686 30.73 247.488 31.378 247.092C32.038 246.684 32.542 246.102 32.89 245.346H34.852C34.384 246.546 33.64 247.476 32.62 248.136C31.6 248.784 30.406 249.108 29.038 249.108C27.874 249.108 26.812 248.838 25.852 248.298C24.904 247.746 24.154 246.984 23.602 246.012C23.05 245.04 22.774 243.942 22.774 242.718ZM42.1863 238.956C42.9303 238.956 43.6023 239.118 44.2023 239.442C44.8023 239.754 45.2703 240.228 45.6063 240.864C45.9543 241.5 46.1283 242.274 46.1283 243.186V249H44.5083V243.42C44.5083 242.436 44.2623 241.686 43.7703 241.17C43.2783 240.642 42.6063 240.378 41.7543 240.378C40.8903 240.378 40.2003 240.648 39.6843 241.188C39.1803 241.728 38.9283 242.514 38.9283 243.546V249H37.2903V235.68H38.9283V240.54C39.2523 240.036 39.6963 239.646 40.2603 239.37C40.8363 239.094 41.4783 238.956 42.1863 238.956ZM57.804 243.69C57.804 244.002 57.786 244.332 57.75 244.68H49.866C49.926 245.652 50.256 246.414 50.856 246.966C51.468 247.506 52.206 247.776 53.07 247.776C53.778 247.776 54.366 247.614 54.834 247.29C55.314 246.954 55.65 246.51 55.842 245.958H57.606C57.342 246.906 56.814 247.68 56.022 248.28C55.23 248.868 54.246 249.162 53.07 249.162C52.134 249.162 51.294 248.952 50.55 248.532C49.818 248.112 49.242 247.518 48.822 246.75C48.402 245.97 48.192 245.07 48.192 244.05C48.192 243.03 48.396 242.136 48.804 241.368C49.212 240.6 49.782 240.012 50.514 239.604C51.258 239.184 52.11 238.974 53.07 238.974C54.006 238.974 54.834 239.178 55.554 239.586C56.274 239.994 56.826 240.558 57.21 241.278C57.606 241.986 57.804 242.79 57.804 243.69ZM56.112 243.348C56.112 242.724 55.974 242.19 55.698 241.746C55.422 241.29 55.044 240.948 54.564 240.72C54.096 240.48 53.574 240.36 52.998 240.36C52.17 240.36 51.462 240.624 50.874 241.152C50.298 241.68 49.968 242.412 49.884 243.348H56.112ZM71.8281 238.956C72.5961 238.956 73.2801 239.118 73.8801 239.442C74.4801 239.754 74.9541 240.228 75.3021 240.864C75.6501 241.5 75.8241 242.274 75.8241 243.186V249H74.2041V243.42C74.2041 242.436 73.9581 241.686 73.4661 241.17C72.9861 240.642 72.3321 240.378 71.5041 240.378C70.6521 240.378 69.9741 240.654 69.4701 241.206C68.9661 241.746 68.7141 242.532 68.7141 243.564V249H67.0941V243.42C67.0941 242.436 66.8481 241.686 66.3561 241.17C65.8761 240.642 65.2221 240.378 64.3941 240.378C63.5421 240.378 62.8641 240.654 62.3601 241.206C61.8561 241.746 61.6041 242.532 61.6041 243.564V249H59.9661V239.136H61.6041V240.558C61.9281 240.042 62.3601 239.646 62.9001 239.37C63.4521 239.094 64.0581 238.956 64.7181 238.956C65.5461 238.956 66.2781 239.142 66.9141 239.514C67.5501 239.886 68.0241 240.432 68.3361 241.152C68.6121 240.456 69.0681 239.916 69.7041 239.532C70.3401 239.148 71.0481 238.956 71.8281 238.956ZM79.357 237.534C79.045 237.534 78.781 237.426 78.565 237.21C78.349 236.994 78.241 236.73 78.241 236.418C78.241 236.106 78.349 235.842 78.565 235.626C78.781 235.41 79.045 235.302 79.357 235.302C79.657 235.302 79.909 235.41 80.113 235.626C80.329 235.842 80.437 236.106 80.437 236.418C80.437 236.73 80.329 236.994 80.113 237.21C79.909 237.426 79.657 237.534 79.357 237.534ZM80.149 239.136V249H78.511V239.136H80.149ZM86.4327 249.162C85.6767 249.162 84.9987 249.036 84.3987 248.784C83.7987 248.52 83.3247 248.16 82.9767 247.704C82.6287 247.236 82.4367 246.702 82.4007 246.102H84.0927C84.1407 246.594 84.3687 246.996 84.7767 247.308C85.1967 247.62 85.7427 247.776 86.4147 247.776C87.0387 247.776 87.5307 247.638 87.8907 247.362C88.2507 247.086 88.4307 246.738 88.4307 246.318C88.4307 245.886 88.2387 245.568 87.8547 245.364C87.4707 245.148 86.8767 244.938 86.0727 244.734C85.3407 244.542 84.7407 244.35 84.2727 244.158C83.8167 243.954 83.4207 243.66 83.0847 243.276C82.7607 242.88 82.5987 242.364 82.5987 241.728C82.5987 241.224 82.7487 240.762 83.0487 240.342C83.3487 239.922 83.7747 239.592 84.3267 239.352C84.8787 239.1 85.5087 238.974 86.2167 238.974C87.3087 238.974 88.1907 239.25 88.8627 239.802C89.5347 240.354 89.8947 241.11 89.9427 242.07H88.3047C88.2687 241.554 88.0587 241.14 87.6747 240.828C87.3027 240.516 86.7987 240.36 86.1627 240.36C85.5747 240.36 85.1067 240.486 84.7587 240.738C84.4107 240.99 84.2367 241.32 84.2367 241.728C84.2367 242.052 84.3387 242.322 84.5427 242.538C84.7587 242.742 85.0227 242.91 85.3347 243.042C85.6587 243.162 86.1027 243.3 86.6667 243.456C87.3747 243.648 87.9507 243.84 88.3947 244.032C88.8387 244.212 89.2167 244.488 89.5287 244.86C89.8527 245.232 90.0207 245.718 90.0327 246.318C90.0327 246.858 89.8827 247.344 89.5827 247.776C89.2827 248.208 88.8567 248.55 88.3047 248.802C87.7647 249.042 87.1407 249.162 86.4327 249.162ZM94.343 240.486V246.3C94.343 246.78 94.445 247.122 94.649 247.326C94.853 247.518 95.207 247.614 95.711 247.614H96.917V249H95.441C94.529 249 93.845 248.79 93.389 248.37C92.933 247.95 92.705 247.26 92.705 246.3V240.486H91.427V239.136H92.705V236.652H94.343V239.136H96.917V240.486H94.343ZM100.54 240.738C100.828 240.174 101.236 239.736 101.764 239.424C102.304 239.112 102.958 238.956 103.726 238.956V240.648H103.294C101.458 240.648 100.54 241.644 100.54 243.636V249H98.9016V239.136H100.54V240.738ZM114.112 239.136L108.172 253.644H106.48L108.424 248.892L104.446 239.136H106.264L109.36 247.128L112.42 239.136H114.112Z" fill="white"></path> <path d="M159.712 126.936L159.712 127.936L160.712 127.936L160.712 126.936L159.712 126.936ZM154.74 126.936L153.74 126.936L153.74 127.936L154.74 127.936L154.74 126.936ZM154.74 118.752L155.74 118.752L155.74 117.752L154.74 117.752L154.74 118.752ZM129 118.752L128 118.752L128 119.752L129 119.752L129 118.752ZM129 112.592L129 111.592L128 111.592L128 112.592L129 112.592ZM154.74 112.592L154.74 113.592L155.74 113.592L155.74 112.592L154.74 112.592ZM154.74 104.408L154.74 103.408L153.74 103.408L153.74 104.408L154.74 104.408ZM159.712 104.408L160.712 104.408L160.712 103.408L159.712 103.408L159.712 104.408ZM159.712 125.936L154.74 125.936L154.74 127.936L159.712 127.936L159.712 125.936ZM155.74 126.936L155.74 118.752L153.74 118.752L153.74 126.936L155.74 126.936ZM154.74 117.752L129 117.752L129 119.752L154.74 119.752L154.74 117.752ZM130 118.752L130 112.592L128 112.592L128 118.752L130 118.752ZM129 113.592L154.74 113.592L154.74 111.592L129 111.592L129 113.592ZM155.74 112.592L155.74 104.408L153.74 104.408L153.74 112.592L155.74 112.592ZM154.74 105.408L159.712 105.408L159.712 103.408L154.74 103.408L154.74 105.408ZM158.712 104.408L158.712 126.936L160.712 126.936L160.712 104.408L158.712 104.408ZM153.376 154.443L153.376 155.443L154.376 155.443L154.376 154.443L153.376 154.443ZM129 154.443L128 154.443L128 155.443L129 155.443L129 154.443ZM129 148.239L129 147.239L128 147.239L128 148.239L129 148.239ZM132.08 148.239L132.08 149.239L135.08 149.239L132.68 147.439L132.08 148.239ZM129.572 145.115L128.665 145.536L128.67 145.545L129.572 145.115ZM129.88 135.919L129.007 135.43L129.004 135.437L129 135.443L129.88 135.919ZM133.444 132.443L132.984 131.555L132.974 131.56L132.964 131.565L133.444 132.443ZM153.376 131.211L154.376 131.211L154.376 130.211L153.376 130.211L153.376 131.211ZM153.376 137.371L153.376 138.371L154.376 138.371L154.376 137.371L153.376 137.371ZM135.468 138.823L134.792 138.085L134.782 138.095L135.468 138.823ZM135.468 146.787L134.782 147.514L134.792 147.524L135.468 146.787ZM153.376 148.239L154.376 148.239L154.376 147.239L153.376 147.239L153.376 148.239ZM153.376 153.443L129 153.443L129 155.443L153.376 155.443L153.376 153.443ZM130 154.443L130 148.239L128 148.239L128 154.443L130 154.443ZM129 149.239L132.08 149.239L132.08 147.239L129 147.239L129 149.239ZM132.68 147.439C131.764 146.751 131.027 145.841 130.474 144.684L128.67 145.545C129.349 146.969 130.284 148.142 131.48 149.039L132.68 147.439ZM130.479 144.693C129.958 143.573 129.692 142.34 129.692 140.979L127.692 140.979C127.692 142.609 128.013 144.133 128.665 145.536L130.479 144.693ZM129.692 140.979C129.692 139.214 130.057 137.695 130.76 136.394L129 135.443C128.119 137.076 127.692 138.93 127.692 140.979L129.692 140.979ZM130.753 136.407C131.477 135.113 132.525 134.085 133.924 133.32L132.964 131.565C131.254 132.501 129.926 133.79 129.007 135.43L130.753 136.407ZM133.904 133.33C135.318 132.597 137.031 132.211 139.076 132.211L139.076 130.211C136.779 130.211 134.738 130.645 132.984 131.555L133.904 133.33ZM139.076 132.211L153.376 132.211L153.376 130.211L139.076 130.211L139.076 132.211ZM152.376 131.211L152.376 137.371L154.376 137.371L154.376 131.211L152.376 131.211ZM153.376 136.371L139.956 136.371L139.956 138.371L153.376 138.371L153.376 136.371ZM139.956 136.371C137.859 136.371 136.089 136.896 134.792 138.085L136.144 139.56C136.959 138.813 138.181 138.371 139.956 138.371L139.956 136.371ZM134.782 138.095C133.518 139.287 132.928 140.89 132.928 142.783L134.928 142.783C134.928 141.331 135.365 140.294 136.154 139.55L134.782 138.095ZM132.928 142.783C132.928 144.698 133.514 146.319 134.782 147.514L136.154 146.059C135.368 145.318 134.928 144.27 134.928 142.783L132.928 142.783ZM134.792 147.524C136.089 148.713 137.859 149.239 139.956 149.239L139.956 147.239C138.181 147.239 136.959 146.796 136.144 146.049L134.792 147.524ZM139.956 149.239L153.376 149.239L153.376 147.239L139.956 147.239L139.956 149.239ZM152.376 148.239L152.376 154.443L154.376 154.443L154.376 148.239L152.376 148.239ZM139.34 183.004L138.34 183.004L138.34 183.852L139.176 183.991L139.34 183.004ZM139.34 165.184L140.34 165.184L140.34 164.098L139.257 164.188L139.34 165.184ZM135.204 167.032L134.468 166.356L134.468 166.356L135.204 167.032ZM136.656 175.92L137.656 175.92L137.656 175.298L137.098 175.023L136.656 175.92ZM136.656 182.564L136.369 183.522L137.656 183.908L137.656 182.564L136.656 182.564ZM130.848 178.516L130.048 179.116L130.054 179.124L130.848 178.516ZM130.144 164.832L129.276 164.336L129.271 164.344L129.267 164.353L130.144 164.832ZM134.588 160.476L134.114 159.596L134.103 159.602L134.588 160.476ZM147.832 160.476L148.306 159.596L148.306 159.596L147.832 160.476ZM152.232 164.788L151.358 165.274L151.358 165.274L152.232 164.788ZM152.276 177.372L151.399 176.892L151.396 176.897L152.276 177.372ZM148.008 181.64L147.533 180.76L147.525 180.765L147.516 180.77L148.008 181.64ZM143.476 176.8L142.476 176.8L142.476 177.819L143.495 177.8L143.476 176.8ZM147.26 175.084L146.505 174.429L146.5 174.434L146.495 174.44L147.26 175.084ZM147.304 167.12L146.555 167.783L146.557 167.785L147.304 167.12ZM143.476 165.228L143.617 164.238L142.476 164.075L142.476 165.228L143.476 165.228ZM141.716 182.18C140.879 182.18 140.143 182.124 139.504 182.018L139.176 183.991C139.945 184.119 140.793 184.18 141.716 184.18L141.716 182.18ZM140.34 183.004L140.34 165.184L138.34 165.184L138.34 183.004L140.34 183.004ZM139.257 164.188C137.299 164.351 135.667 165.05 134.468 166.356L135.94 167.709C136.735 166.844 137.861 166.311 139.423 166.181L139.257 164.188ZM134.468 166.356C133.287 167.64 132.708 169.222 132.708 171.036L134.708 171.036C134.708 169.683 135.126 168.595 135.94 167.709L134.468 166.356ZM132.708 171.036C132.708 172.325 132.986 173.491 133.589 174.49C134.193 175.492 135.087 176.262 136.214 176.817L137.098 175.023C136.26 174.611 135.679 174.083 135.301 173.457C134.921 172.828 134.708 172.035 134.708 171.036L132.708 171.036ZM135.656 175.92L135.656 182.564L137.656 182.564L137.656 175.92L135.656 175.92ZM136.943 181.607C134.804 180.965 133.043 179.741 131.642 177.909L130.054 179.124C131.703 181.281 133.815 182.756 136.369 183.522L136.943 181.607ZM131.648 177.916C130.302 176.122 129.604 173.893 129.604 171.168L127.604 171.168C127.604 174.252 128.402 176.921 130.048 179.116L131.648 177.916ZM129.604 171.168C129.604 168.973 130.083 167.028 131.021 165.312L129.267 164.353C128.152 166.391 127.604 168.671 127.604 171.168L129.604 171.168ZM131.012 165.329C131.975 163.643 133.322 162.321 135.072 161.351L134.103 159.602C132.041 160.744 130.425 162.325 129.276 164.336L131.012 165.329ZM135.062 161.357C136.802 160.42 138.835 159.936 141.188 159.936L141.188 157.936C138.554 157.936 136.187 158.48 134.114 159.596L135.062 161.357ZM141.188 159.936C143.573 159.936 145.619 160.421 147.358 161.357L148.306 159.596C146.231 158.479 143.849 157.936 141.188 157.936L141.188 159.936ZM147.358 161.357C149.101 162.295 150.426 163.597 151.358 165.274L153.106 164.303C151.984 162.283 150.377 160.711 148.306 159.596L147.358 161.357ZM151.358 165.274C152.291 166.954 152.772 168.909 152.772 171.168L154.772 171.168C154.772 168.617 154.226 166.319 153.106 164.303L151.358 165.274ZM152.772 171.168C152.772 173.338 152.307 175.237 151.399 176.892L153.153 177.853C154.24 175.871 154.772 173.634 154.772 171.168L152.772 171.168ZM151.396 176.897C150.491 178.574 149.209 179.856 147.533 180.76L148.483 182.52C150.503 181.43 152.066 179.867 153.156 177.847L151.396 176.897ZM147.516 180.77C145.867 181.7 143.944 182.18 141.716 182.18L141.716 184.18C144.24 184.18 146.511 183.634 148.5 182.511L147.516 180.77ZM143.495 177.8C145.339 177.766 146.883 177.085 148.025 175.729L146.495 174.44C145.76 175.313 144.781 175.776 143.457 175.801L143.495 177.8ZM148.015 175.74C149.156 174.426 149.712 172.823 149.712 170.992L147.712 170.992C147.712 172.389 147.3 173.513 146.505 174.429L148.015 175.74ZM149.712 170.992C149.712 169.243 149.166 167.71 148.051 166.456L146.557 167.785C147.319 168.642 147.712 169.691 147.712 170.992L149.712 170.992ZM148.053 166.457C146.955 165.218 145.443 164.499 143.617 164.238L143.335 166.218C144.794 166.427 145.835 166.97 146.555 167.783L148.053 166.457ZM142.476 165.228L142.476 176.8L144.476 176.8L144.476 165.228L142.476 165.228ZM129.66 191.637L128.753 191.216L128.749 191.223L128.746 191.23L129.66 191.637ZM132.608 187.853L132.014 187.048L132.008 187.053L132.002 187.057L132.608 187.853ZM136.7 186.357L137.7 186.357L137.7 185.296L136.641 185.358L136.7 186.357ZM136.7 192.561L136.824 193.553L137.7 193.443L137.7 192.561L136.7 192.561ZM134.368 193.925L133.579 193.311L133.573 193.318L133.568 193.325L134.368 193.925ZM134.148 199.689L134.969 199.118L134.963 199.109L134.957 199.1L134.148 199.689ZM137.712 199.469L136.824 199.008L136.814 199.028L136.805 199.048L137.712 199.469ZM139.032 195.641L139.998 195.898L140.001 195.887L140.004 195.876L139.032 195.641ZM140.396 191.153L139.471 190.773L139.468 190.781L140.396 191.153ZM142.552 188.161L141.905 187.398L141.898 187.404L141.892 187.409L142.552 188.161ZM150.164 188.073L150.743 187.257L150.736 187.252L150.729 187.247L150.164 188.073ZM152.804 191.417L153.719 191.014L153.716 191.007L152.804 191.417ZM151.572 203.517L150.809 202.87L150.803 202.878L151.572 203.517ZM145.72 206.377L144.72 206.377L144.72 207.451L145.791 207.374L145.72 206.377ZM145.72 200.481L145.629 199.485L144.72 199.567L144.72 200.481L145.72 200.481ZM148.008 199.249L147.24 198.608L147.225 198.626L147.212 198.644L148.008 199.249ZM148.272 193.793L149.104 193.238L149.098 193.228L149.091 193.219L148.272 193.793ZM144.664 194.145L143.783 193.672L143.776 193.685L143.77 193.697L144.664 194.145ZM143.388 197.973L142.419 197.726L142.418 197.73L143.388 197.973ZM139.824 205.277L139.188 204.505L139.176 204.515L139.164 204.525L139.824 205.277ZM135.952 206.597L135.952 207.597L135.961 207.597L135.97 207.596L135.952 206.597ZM132.168 205.409L132.747 204.593L132.74 204.588L132.733 204.583L132.168 205.409ZM129.528 202.065L128.609 202.459L128.613 202.467L129.528 202.065ZM129.604 197.005C129.604 195.129 129.935 193.481 130.574 192.043L128.746 191.23C127.977 192.96 127.604 194.891 127.604 197.005L129.604 197.005ZM130.567 192.057C131.241 190.602 132.127 189.476 133.214 188.648L132.002 187.057C130.625 188.107 129.545 189.504 128.753 191.216L130.567 192.057ZM133.202 188.657C134.282 187.86 135.461 187.431 136.759 187.355L136.641 185.358C134.947 185.458 133.398 186.026 132.014 187.048L133.202 188.657ZM135.7 186.357L135.7 192.561L137.7 192.561L137.7 186.357L135.7 186.357ZM136.576 191.568C135.357 191.721 134.347 192.323 133.579 193.311L135.157 194.539C135.621 193.942 136.166 193.635 136.824 193.553L136.576 191.568ZM133.568 193.325C132.801 194.347 132.444 195.58 132.444 196.961L134.444 196.961C134.444 195.936 134.703 195.144 135.168 194.525L133.568 193.325ZM132.444 196.961C132.444 198.25 132.7 199.397 133.339 200.277L134.957 199.1C134.658 198.689 134.444 198.018 134.444 196.961L132.444 196.961ZM133.327 200.26C133.957 201.165 134.848 201.701 135.952 201.701L135.952 199.701C135.589 199.701 135.278 199.561 134.969 199.118L133.327 200.26ZM135.952 201.701C136.53 201.701 137.08 201.547 137.559 201.212C138.031 200.882 138.373 200.419 138.619 199.89L136.805 199.048C136.669 199.34 136.528 199.492 136.413 199.573C136.305 199.649 136.166 199.701 135.952 199.701L135.952 201.701ZM138.6 199.929C139.063 199.036 139.525 197.672 139.998 195.898L138.066 195.383C137.6 197.13 137.182 198.318 136.824 199.008L138.6 199.929ZM140.004 195.876C140.438 194.084 140.879 192.637 141.324 191.524L139.468 190.781C138.974 192.014 138.506 193.56 138.06 195.405L140.004 195.876ZM141.321 191.532C141.729 190.537 142.355 189.665 143.212 188.912L141.892 187.409C140.813 188.357 140.001 189.48 139.471 190.773L141.321 191.532ZM143.199 188.923C143.939 188.296 144.991 187.929 146.468 187.929L146.468 185.929C144.659 185.929 143.101 186.383 141.905 187.398L143.199 188.923ZM146.468 187.929C147.616 187.929 148.651 188.249 149.599 188.898L150.729 187.247C149.448 186.371 148.019 185.929 146.468 185.929L146.468 187.929ZM149.585 188.888C150.533 189.562 151.308 190.526 151.892 191.826L153.716 191.007C153.009 189.432 152.024 188.167 150.743 187.257L149.585 188.888ZM151.889 191.819C152.467 193.134 152.772 194.707 152.772 196.565L154.772 196.565C154.772 194.491 154.432 192.633 153.719 191.014L151.889 191.819ZM152.772 196.565C152.772 199.3 152.084 201.366 150.809 202.87L152.335 204.163C153.993 202.206 154.772 199.638 154.772 196.565L152.772 196.565ZM150.803 202.878C149.558 204.377 147.87 205.22 145.649 205.379L145.791 207.374C148.498 207.181 150.712 206.118 152.341 204.156L150.803 202.878ZM146.72 206.377L146.72 200.481L144.72 200.481L144.72 206.377L146.72 206.377ZM145.811 201.477C147.041 201.365 148.067 200.824 148.804 199.854L147.212 198.644C146.835 199.14 146.335 199.421 145.629 199.485L145.811 201.477ZM148.776 199.889C149.554 198.955 149.888 197.751 149.888 196.389L147.888 196.389C147.888 197.431 147.635 198.134 147.24 198.608L148.776 199.889ZM149.888 196.389C149.888 195.17 149.667 194.082 149.104 193.238L147.44 194.347C147.699 194.735 147.888 195.378 147.888 196.389L149.888 196.389ZM149.091 193.219C148.488 192.358 147.606 191.913 146.556 191.913L146.556 193.913C146.972 193.913 147.235 194.054 147.453 194.366L149.091 193.219ZM146.556 191.913C145.97 191.913 145.414 192.062 144.921 192.383C144.435 192.699 144.063 193.148 143.783 193.672L145.545 194.617C145.705 194.32 145.868 194.153 146.013 194.059C146.151 193.969 146.321 193.913 146.556 193.913L146.556 191.913ZM143.77 193.697C143.309 194.618 142.863 195.978 142.419 197.726L144.357 198.219C144.793 196.506 145.197 195.314 145.558 194.592L143.77 193.697ZM142.418 197.73C141.985 199.463 141.544 200.865 141.099 201.949L142.949 202.708C143.443 201.504 143.911 200.002 144.358 198.215L142.418 197.73ZM141.099 201.949C140.695 202.933 140.064 203.783 139.188 204.505L140.46 206.049C141.579 205.127 142.414 204.012 142.949 202.708L141.099 201.949ZM139.164 204.525C138.415 205.184 137.372 205.571 135.934 205.597L135.97 207.596C137.759 207.564 139.297 207.071 140.484 206.028L139.164 204.525ZM135.952 205.597C134.745 205.597 133.687 205.261 132.747 204.593L131.589 206.224C132.878 207.14 134.343 207.597 135.952 207.597L135.952 205.597ZM132.733 204.583C131.799 203.944 131.028 202.99 130.443 201.662L128.613 202.467C129.319 204.073 130.308 205.348 131.603 206.234L132.733 204.583ZM130.447 201.671C129.896 200.384 129.604 198.836 129.604 197.005L127.604 197.005C127.604 199.045 127.928 200.871 128.609 202.459L130.447 201.671ZM147.832 211.521L148.296 210.635L148.285 210.63L147.832 211.521ZM152.232 215.569L151.376 216.086L151.376 216.086L152.232 215.569ZM152.716 225.777L151.818 225.337L151.814 225.345L151.811 225.352L152.716 225.777ZM149.988 229.209L149.391 228.407L146.967 230.209L149.988 230.209L149.988 229.209ZM161.56 229.209L162.56 229.209L162.56 228.209L161.56 228.209L161.56 229.209ZM161.56 235.457L161.56 236.457L162.56 236.457L162.56 235.457L161.56 235.457ZM129 235.457L128 235.457L128 236.457L129 236.457L129 235.457ZM129 229.209L129 228.209L128 228.209L128 229.209L129 229.209ZM132.608 229.209L132.608 230.209L136.052 230.209L133.144 228.365L132.608 229.209ZM129.704 225.997L130.587 225.528L130.587 225.528L129.704 225.997ZM130.188 215.569L131.038 216.097L131.038 216.097L130.188 215.569ZM134.632 211.521L134.185 210.627L134.177 210.631L134.168 210.635L134.632 211.521ZM145.016 228.373L144.54 227.493L144.53 227.499L145.016 228.373ZM147.48 225.997L146.618 225.49L146.612 225.5L146.607 225.509L147.48 225.997ZM147.524 219.617L148.391 219.118L148.391 219.118L147.524 219.617ZM145.06 217.241L145.554 216.371L145.546 216.367L145.06 217.241ZM137.404 217.241L136.938 216.356L136.924 216.364L136.91 216.372L137.404 217.241ZM134.896 219.617L134.041 219.099L134.034 219.11L134.896 219.617ZM134.852 225.997L133.979 226.485L133.984 226.495L133.99 226.504L134.852 225.997ZM137.316 228.373L136.83 229.247L136.84 229.253L137.316 228.373ZM141.276 211.069C143.607 211.069 145.633 211.526 147.379 212.413L148.285 210.63C146.218 209.58 143.873 209.069 141.276 209.069L141.276 211.069ZM147.368 212.407C149.127 213.327 150.452 214.554 151.376 216.086L153.088 215.053C151.959 213.181 150.35 211.71 148.295 210.635L147.368 212.407ZM151.376 216.086C152.304 217.624 152.772 219.335 152.772 221.245L154.772 221.245C154.772 218.99 154.214 216.917 153.088 215.053L151.376 216.086ZM152.772 221.245C152.772 222.675 152.456 224.035 151.818 225.337L153.614 226.217C154.384 224.644 154.772 222.983 154.772 221.245L152.772 221.245ZM151.811 225.352C151.198 226.658 150.388 227.665 149.391 228.407L150.585 230.012C151.876 229.052 152.885 227.772 153.621 226.202L151.811 225.352ZM149.988 230.209L161.56 230.209L161.56 228.209L149.988 228.209L149.988 230.209ZM160.56 229.209L160.56 235.457L162.56 235.457L162.56 229.209L160.56 229.209ZM161.56 234.457L129 234.457L129 236.457L161.56 236.457L161.56 234.457ZM130 235.457L130 229.209L128 229.209L128 235.457L130 235.457ZM129 230.209L132.608 230.209L132.608 228.209L129 228.209L129 230.209ZM133.144 228.365C132.101 227.704 131.247 226.768 130.587 225.528L128.821 226.467C129.628 227.983 130.71 229.189 132.072 230.054L133.144 228.365ZM130.587 225.528C129.942 224.316 129.604 222.883 129.604 221.201L127.604 221.201C127.604 223.157 127.999 224.921 128.821 226.467L130.587 225.528ZM129.604 221.201C129.604 219.329 130.083 217.635 131.038 216.097L129.338 215.042C128.181 216.906 127.604 218.966 127.604 221.201L129.604 221.201ZM131.038 216.097C131.992 214.558 133.335 213.328 135.095 212.407L134.168 210.635C132.116 211.709 130.496 213.177 129.338 215.042L131.038 216.097ZM135.079 212.416C136.857 211.527 138.914 211.069 141.276 211.069L141.276 209.069C138.651 209.069 136.279 209.579 134.185 210.627L135.079 212.416ZM141.188 230.253C142.814 230.253 144.266 229.934 145.502 229.247L144.53 227.499C143.654 227.986 142.554 228.253 141.188 228.253L141.188 230.253ZM145.492 229.253C146.73 228.583 147.696 227.661 148.353 226.485L146.607 225.509C146.15 226.328 145.473 226.99 144.54 227.493L145.492 229.253ZM148.342 226.504C149.018 225.355 149.36 224.11 149.36 222.785L147.36 222.785C147.36 223.749 147.115 224.645 146.618 225.49L148.342 226.504ZM149.36 222.785C149.36 221.47 149.038 220.242 148.391 219.118L146.657 220.116C147.125 220.929 147.36 221.812 147.36 222.785L149.36 222.785ZM148.391 219.118C147.734 217.978 146.775 217.065 145.554 216.372L144.566 218.111C145.515 218.649 146.199 219.32 146.657 220.116L148.391 219.118ZM145.546 216.367C144.312 215.682 142.876 215.361 141.276 215.361L141.276 217.361C142.609 217.361 143.696 217.627 144.574 218.115L145.546 216.367ZM141.276 215.361C139.674 215.361 138.218 215.682 136.938 216.356L137.87 218.126C138.819 217.627 139.945 217.361 141.276 217.361L141.276 215.361ZM136.91 216.372C135.692 217.063 134.725 217.97 134.041 219.099L135.751 220.135C136.24 219.328 136.945 218.651 137.898 218.111L136.91 216.372ZM134.034 219.11C133.361 220.255 133.016 221.485 133.016 222.785L135.016 222.785C135.016 221.856 135.258 220.974 135.758 220.124L134.034 219.11ZM133.016 222.785C133.016 224.1 133.338 225.338 133.979 226.485L135.725 225.509C135.251 224.661 135.016 223.759 135.016 222.785L133.016 222.785ZM133.99 226.504C134.671 227.662 135.626 228.578 136.83 229.247L137.802 227.499C136.894 226.995 136.206 226.327 135.714 225.49L133.99 226.504ZM136.84 229.253C138.1 229.934 139.561 230.253 141.188 230.253L141.188 228.253C139.823 228.253 138.703 227.986 137.792 227.493L136.84 229.253ZM147.832 241.341L148.296 240.455L148.285 240.45L147.832 241.341ZM152.232 245.345L153.088 244.829L153.084 244.822L152.232 245.345ZM152.672 255.773L151.793 255.296L151.789 255.304L152.672 255.773ZM149.9 259.073L149.307 258.268L146.857 260.073L149.9 260.073L149.9 259.073ZM153.376 259.073L154.376 259.073L154.376 258.073L153.376 258.073L153.376 259.073ZM153.376 265.277L153.376 266.277L154.376 266.277L154.376 265.277L153.376 265.277ZM129 265.277L128 265.277L128 266.277L129 266.277L129 265.277ZM129 259.073L129 258.073L128 258.073L128 259.073L129 259.073ZM132.564 259.073L132.564 260.073L135.765 260.073L133.133 258.251L132.564 259.073ZM129.704 255.773L128.821 256.243L128.825 256.25L129.704 255.773ZM130.188 245.345L129.342 244.811L129.338 244.818L130.188 245.345ZM134.632 241.341L134.185 240.447L134.177 240.451L134.168 240.455L134.632 241.341ZM145.016 258.193L144.54 257.314L144.53 257.319L145.016 258.193ZM147.48 255.817L146.618 255.31L146.612 255.32L146.607 255.33L147.48 255.817ZM147.524 249.437L148.391 248.939L148.391 248.939L147.524 249.437ZM145.06 247.061L145.554 246.192L145.546 246.187L145.06 247.061ZM137.404 247.061L136.938 246.177L136.924 246.184L136.91 246.192L137.404 247.061ZM134.896 249.437L134.041 248.919L134.034 248.93L134.896 249.437ZM134.852 255.817L133.979 256.305L133.984 256.315L133.99 256.325L134.852 255.817ZM137.316 258.193L136.83 259.068L136.84 259.073L137.316 258.193ZM141.276 240.889C143.607 240.889 145.633 241.347 147.379 242.233L148.285 240.45C146.218 239.4 143.873 238.889 141.276 238.889L141.276 240.889ZM147.368 242.228C149.131 243.15 150.457 244.365 151.38 245.869L153.084 244.822C151.954 242.982 150.346 241.528 148.295 240.455L147.368 242.228ZM151.376 245.862C152.304 247.4 152.772 249.112 152.772 251.021L154.772 251.021C154.772 248.766 154.214 246.694 153.088 244.829L151.376 245.862ZM152.772 251.021C152.772 252.704 152.434 254.118 151.793 255.296L153.551 256.251C154.377 254.73 154.772 252.976 154.772 251.021L152.772 251.021ZM151.789 255.304C151.117 256.567 150.286 257.547 149.307 258.268L150.493 259.879C151.743 258.958 152.76 257.737 153.555 256.243L151.789 255.304ZM149.9 260.073L153.376 260.073L153.376 258.073L149.9 258.073L149.9 260.073ZM152.376 259.073L152.376 265.277L154.376 265.277L154.376 259.073L152.376 259.073ZM153.376 264.277L129 264.277L129 266.277L153.376 266.277L153.376 264.277ZM130 265.277L130 259.073L128 259.073L128 265.277L130 265.277ZM129 260.073L132.564 260.073L132.564 258.073L129 258.073L129 260.073ZM133.133 258.251C132.136 257.561 131.282 256.588 130.583 255.297L128.825 256.25C129.651 257.775 130.703 259.002 131.995 259.896L133.133 258.251ZM130.587 255.304C129.942 254.092 129.604 252.659 129.604 250.977L127.604 250.977C127.604 252.933 127.999 254.698 128.821 256.243L130.587 255.304ZM129.604 250.977C129.604 249.106 130.083 247.412 131.038 245.873L129.338 244.818C128.181 246.682 127.604 248.743 127.604 250.977L129.604 250.977ZM131.033 245.879C131.987 244.369 133.331 243.151 135.095 242.228L134.168 240.455C132.12 241.527 130.501 242.978 129.343 244.812L131.033 245.879ZM135.079 242.236C136.857 241.347 138.914 240.889 141.276 240.889L141.276 238.889C138.651 238.889 136.279 239.4 134.185 240.447L135.079 242.236ZM141.188 260.073C142.814 260.073 144.266 259.754 145.502 259.068L144.53 257.319C143.654 257.806 142.554 258.073 141.188 258.073L141.188 260.073ZM145.492 259.073C146.73 258.404 147.696 257.482 148.353 256.305L146.607 255.33C146.15 256.148 145.473 256.81 144.54 257.314L145.492 259.073ZM148.342 256.325C149.018 255.175 149.36 253.93 149.36 252.605L147.36 252.605C147.36 253.569 147.115 254.465 146.618 255.31L148.342 256.325ZM149.36 252.605C149.36 251.291 149.038 250.062 148.391 248.939L146.657 249.936C147.125 250.749 147.36 251.632 147.36 252.605L149.36 252.605ZM148.391 248.939C147.734 247.798 146.775 246.885 145.554 246.192L144.566 247.931C145.515 248.47 146.199 249.141 146.657 249.936L148.391 248.939ZM145.546 246.187C144.312 245.502 142.876 245.181 141.276 245.181L141.276 247.181C142.609 247.181 143.696 247.447 144.574 247.936L145.546 246.187ZM141.276 245.181C139.674 245.181 138.218 245.503 136.938 246.177L137.87 247.946C138.819 247.447 139.945 247.181 141.276 247.181L141.276 245.181ZM136.91 246.192C135.692 246.883 134.725 247.791 134.041 248.919L135.751 249.956C136.24 249.148 136.945 248.472 137.898 247.931L136.91 246.192ZM134.034 248.93C133.361 250.075 133.016 251.306 133.016 252.605L135.016 252.605C135.016 251.676 135.258 250.794 135.758 249.945L134.034 248.93ZM133.016 252.605C133.016 253.92 133.338 255.159 133.979 256.305L135.725 255.33C135.251 254.482 135.016 253.579 135.016 252.605L133.016 252.605ZM133.99 256.325C134.671 257.483 135.626 258.398 136.83 259.068L137.802 257.319C136.894 256.815 136.206 256.147 135.714 255.31L133.99 256.325ZM136.84 259.073C138.1 259.754 139.561 260.073 141.188 260.073L141.188 258.073C139.823 258.073 138.703 257.806 137.792 257.314L136.84 259.073ZM153.376 294.614L152.988 295.536L154.376 296.119L154.376 294.614L153.376 294.614ZM117.472 279.522L116.472 279.522L116.472 280.186L117.084 280.444L117.472 279.522ZM117.472 272.966L117.871 272.049L116.472 271.441L116.472 272.966L117.472 272.966ZM129.616 278.246L129.217 279.163L129.605 279.332L129.996 279.171L129.616 278.246ZM153.376 268.478L154.376 268.478L154.376 266.985L152.996 267.553L153.376 268.478ZM153.376 275.386L153.723 276.324L154.376 276.082L154.376 275.386L153.376 275.386ZM136.348 281.678L136.001 280.74L133.48 281.671L135.997 282.614L136.348 281.678ZM153.376 288.058L154.376 288.058L154.376 287.365L153.727 287.121L153.376 288.058ZM153.763 293.692L117.859 278.6L117.084 280.444L152.988 295.536L153.763 293.692ZM118.472 279.522L118.472 272.966L116.472 272.966L116.472 279.522L118.472 279.522ZM117.073 273.883L129.217 279.163L130.015 277.329L117.871 272.049L117.073 273.883ZM129.996 279.171L153.756 269.403L152.996 267.553L129.236 277.321L129.996 279.171ZM152.376 268.478L152.376 275.386L154.376 275.386L154.376 268.478L152.376 268.478ZM153.029 274.448L136.001 280.74L136.695 282.616L153.723 276.324L153.029 274.448ZM135.997 282.614L153.025 288.994L153.727 287.121L136.699 280.741L135.997 282.614ZM152.376 288.058L152.376 294.614L154.376 294.614L154.376 288.058L152.376 288.058Z" fill="white"></path> </svg> 